<svg width="88" height="100" viewBox="0 0 88 100" fill="none" xmlns="http://www.w3.org/2000/svg">
<path fill-rule="evenodd" clip-rule="evenodd" d="M44 2.00391L58.947 10.3721V27.1611L44 35.5293L29.0529 27.1611V10.3721L44 2.00391ZM31.0529 11.5445V25.9887L44 33.2372L56.947 25.9887V11.5445L44 4.29601L31.0529 11.5445Z" fill="white"/>
<path fill-rule="evenodd" clip-rule="evenodd" d="M16.1047 33.2373L31.0517 41.6055V58.3945L16.1047 66.7627L1.15759 58.3945V41.6055L16.1047 33.2373ZM3.15759 42.7779V57.2221L16.1047 64.4706L29.0517 57.2221V42.7779L16.1047 35.5294L3.15759 42.7779Z" fill="white"/>
<path fill-rule="evenodd" clip-rule="evenodd" d="M71.8953 33.2373L86.8424 41.6055V58.3945L71.8953 66.7627L56.9482 58.3945V41.6055L71.8953 33.2373ZM58.9482 42.7779V57.2221L71.8953 64.4706L84.8424 57.2221V42.7779L71.8953 35.5294L58.9482 42.7779Z" fill="white"/>
<path fill-rule="evenodd" clip-rule="evenodd" d="M44 64.4706L58.947 72.8388V89.6278L44 97.996L29.0529 89.6278V72.8388L44 64.4706ZM31.0529 74.0112V88.4554L44 95.7039L56.947 88.4554V74.0112L44 66.7627L31.0529 74.0112Z" fill="white"/>
<path fill-rule="evenodd" clip-rule="evenodd" d="M44.0003 33.2373L58.9474 41.6055V58.3945L44.0003 66.7627L29.0533 58.3945V41.6055L44.0003 33.2373ZM31.0533 43.8459L43 50.1165L43.0003 63.9107L31.0533 57.2221V43.8459ZM45.0003 63.9108L56.9474 57.2221V43.8459L45 50.1165L45.0003 63.9108ZM44 48.3826L55.8497 42.1633L44.0003 35.5294L32.151 42.1633L44 48.3826Z" fill="#FFB200"/>
<path fill-rule="evenodd" clip-rule="evenodd" d="M71.8971 2.00391L86.8441 10.3721V27.1611L71.8971 35.5293L56.95 27.1611V10.3721L71.8971 2.00391ZM58.95 12.6125L70.8967 18.8831L70.897 32.6773L58.95 25.9887V12.6125ZM72.897 32.6774L84.8441 25.9887V12.6125L72.8967 18.8831L72.897 32.6774ZM71.8967 17.1492L83.7464 10.9299L71.8971 4.29601L60.0477 10.9299L71.8967 17.1492Z" fill="#FFB200"/>
<path fill-rule="evenodd" clip-rule="evenodd" d="M71.8971 64.4706L86.8441 72.8388V89.6278L71.8971 97.996L56.95 89.6278V72.8388L71.8971 64.4706ZM58.95 75.0792L70.8967 81.3498L70.897 95.144L58.95 88.4554V75.0792ZM72.897 95.1441L84.8441 88.4554V75.0792L72.8967 81.3498L72.897 95.1441ZM71.8967 79.6159L83.7464 73.3966L71.8971 66.7627L60.0477 73.3966L71.8967 79.6159Z" fill="#FFB200"/>
<path fill-rule="evenodd" clip-rule="evenodd" d="M16.107 2.00391L31.0541 10.3721V27.1611L16.107 35.5293L1.15997 27.1611V10.3721L16.107 2.00391ZM3.15997 12.6125L15.1067 18.8831L15.107 32.6773L3.15997 25.9887V12.6125ZM17.107 32.6774L29.0541 25.9887V12.6125L17.1067 18.8831L17.107 32.6774ZM16.1067 17.1492L27.9564 10.9299L16.107 4.29601L4.25766 10.9299L16.1067 17.1492Z" fill="#FFB200"/>
<path fill-rule="evenodd" clip-rule="evenodd" d="M15.9773 64.4706L30.9243 72.8388V89.6278L15.9773 97.996L1.03021 89.6278V72.8388L15.9773 64.4706ZM3.03021 75.0792L14.9769 81.3498L14.9772 95.144L3.03021 88.4554V75.0792ZM16.9772 95.1441L28.9243 88.4554V75.0792L16.9769 81.3498L16.9772 95.1441ZM15.9769 79.6159L27.8266 73.3966L15.9773 66.7627L4.1279 73.3966L15.9769 79.6159Z" fill="#FFB200"/>
</svg>
