<svg width="88" height="100" viewBox="0 0 88 100" fill="none" xmlns="http://www.w3.org/2000/svg">
<path fill-rule="evenodd" clip-rule="evenodd" d="M72.6827 32.2387C72.8186 32.5452 72.9731 32.8416 73.1449 33.1263C73.2682 33.3308 73.4005 33.5293 73.541 33.7213C73.598 33.7991 73.6564 33.8758 73.716 33.9515L51.372 46.8875C51.243 46.5824 51.0956 46.2869 50.9312 46.0025C50.9293 45.9991 50.9273 45.9958 50.9254 45.9925C50.7592 45.7059 50.5758 45.4306 50.3765 45.168C50.3738 45.1645 50.3711 45.161 50.3684 45.1575L50.3699 45.1567L72.6827 32.2387ZM36.628 53.1124C36.7567 53.4167 36.9036 53.7114 37.0674 53.9951C37.0703 54 37.0731 54.0049 37.0759 54.0098C37.2418 54.2955 37.4248 54.57 37.6235 54.8319C37.6262 54.8354 37.6289 54.839 37.6316 54.8425L37.6301 54.8433L15.3173 67.7613C15.2206 67.5432 15.1145 67.3302 14.9994 67.1229C14.9527 67.0388 14.9045 66.9556 14.8549 66.8734C14.7317 66.669 14.5995 66.4706 14.459 66.2787C14.402 66.2009 14.3436 66.1241 14.284 66.0485L36.628 53.1124ZM14.284 33.9515C14.3436 33.8758 14.402 33.7991 14.459 33.7213C14.5995 33.5294 14.7317 33.3309 14.855 33.1266C14.9045 33.0444 14.9527 32.9612 14.9994 32.8771C15.1145 32.6698 15.2206 32.4568 15.3173 32.2387L37.6301 45.1567L37.6316 45.1575C37.6289 45.161 37.6262 45.1645 37.6235 45.168C37.4246 45.4301 37.2415 45.7049 37.0755 45.9909C37.073 45.9953 37.0704 45.9997 37.0678 46.0042C36.9038 46.2881 36.7568 46.583 36.628 46.8875L14.284 33.9515ZM50.3684 54.8425C50.3711 54.839 50.3738 54.8354 50.3765 54.8319C50.5755 54.5696 50.7588 54.2947 50.9248 54.0085C50.9271 54.0045 50.9295 54.0004 50.9318 53.9964C51.0959 53.7123 51.2431 53.4172 51.372 53.1124L73.716 66.0485C73.6564 66.1241 73.598 66.2009 73.5411 66.2787C73.4005 66.4706 73.2683 66.669 73.145 66.8734C73.0955 66.9556 73.0473 67.0387 73.0006 67.1228C72.8855 67.3302 72.7794 67.5431 72.6827 67.7613L50.3684 54.8425ZM50.7856 12.2395L73.0099 25.1062C73.0506 25.0333 73.0923 24.9612 73.1352 24.8898C73.4394 24.3827 73.7983 23.9122 74.2035 23.4862L51.6285 10.4165C51.4804 10.8847 51.2903 11.3342 51.0627 11.7608C50.9757 11.9238 50.8833 12.0834 50.7856 12.2395ZM82 63.252C81.3608 63.0875 80.6906 63 80 63V37C80.6906 37 81.3608 36.9125 82 36.7479V63.252ZM73.0099 74.8938L50.7856 87.7605C50.8833 87.9165 50.9757 88.0762 51.0627 88.2392C51.2903 88.6657 51.4804 89.1153 51.6285 89.5835L74.2035 76.5137C73.7983 76.0878 73.4395 75.6173 73.1352 75.1102C73.0924 75.0388 73.0506 74.9666 73.0099 74.8938ZM14.9901 74.8938C14.9494 74.9666 14.9076 75.0388 14.8648 75.1102C14.5605 75.6173 14.2017 76.0878 13.7965 76.5137L36.3715 89.5835C36.5196 89.1152 36.7097 88.6657 36.9373 88.2392C37.0243 88.0761 37.1167 87.9165 37.2144 87.7605L14.9901 74.8938ZM6 36.7479C6.63924 36.9125 7.3094 37 8 37V63C7.3094 63 6.63924 63.0875 6 63.252V36.7479ZM14.9901 25.1062L37.2144 12.2395C37.1168 12.0834 37.0243 11.9238 36.9373 11.7608C36.7097 11.3343 36.5196 10.8847 36.3715 10.4165L13.7965 23.4862C14.2017 23.9122 14.5606 24.3827 14.8648 24.8898C14.9077 24.9612 14.9494 25.0333 14.9901 25.1062ZM45 42.0619C44.6724 42.021 44.3387 42 44 42C43.6613 42 43.3276 42.021 43 42.0619V15.9381C43.3276 15.9789 43.6613 16 44 16C44.3387 16 44.6724 15.9789 45 15.9381V42.0619ZM43 57.9381C43.3276 57.9789 43.6613 58 44 58C44.3387 58 44.6724 57.9789 45 57.9381V84.0619C44.6724 84.021 44.3387 84 44 84C43.6613 84 43.3276 84.021 43 84.0619V57.9381Z" fill="white"/>
<path fill-rule="evenodd" clip-rule="evenodd" d="M44 14C47.3137 14 50 11.3137 50 8C50 4.68629 47.3137 2 44 2C40.6863 2 38 4.68629 38 8C38 11.3137 40.6863 14 44 14ZM44 16C48.4183 16 52 12.4183 52 8C52 3.58172 48.4183 0 44 0C39.5817 0 36 3.58172 36 8C36 12.4183 39.5817 16 44 16ZM44 56C47.3137 56 50 53.3137 50 50C50 46.6863 47.3137 44 44 44C40.6863 44 38 46.6863 38 50C38 53.3137 40.6863 56 44 56ZM44 58C48.4183 58 52 54.4183 52 50C52 45.5817 48.4183 42 44 42C39.5817 42 36 45.5817 36 50C36 54.4183 39.5817 58 44 58ZM50 92C50 95.3137 47.3137 98 44 98C40.6863 98 38 95.3137 38 92C38 88.6863 40.6863 86 44 86C47.3137 86 50 88.6863 50 92ZM52 92C52 96.4183 48.4183 100 44 100C39.5817 100 36 96.4183 36 92C36 87.5817 39.5817 84 44 84C48.4183 84 52 87.5817 52 92ZM80 77C83.3137 77 86 74.3137 86 71C86 67.6863 83.3137 65 80 65C76.6863 65 74 67.6863 74 71C74 74.3137 76.6863 77 80 77ZM80 79C84.4183 79 88 75.4183 88 71C88 66.5817 84.4183 63 80 63C75.5817 63 72 66.5817 72 71C72 75.4183 75.5817 79 80 79ZM14 71C14 74.3137 11.3137 77 8 77C4.68629 77 2 74.3137 2 71C2 67.6863 4.68629 65 8 65C11.3137 65 14 67.6863 14 71ZM16 71C16 75.4183 12.4183 79 8 79C3.58172 79 0 75.4183 0 71C0 66.5817 3.58172 63 8 63C12.4183 63 16 66.5817 16 71ZM8 35C11.3137 35 14 32.3137 14 29C14 25.6863 11.3137 23 8 23C4.68629 23 2 25.6863 2 29C2 32.3137 4.68629 35 8 35ZM8 37C12.4183 37 16 33.4183 16 29C16 24.5817 12.4183 21 8 21C3.58172 21 0 24.5817 0 29C0 33.4183 3.58172 37 8 37ZM86 29C86 32.3137 83.3137 35 80 35C76.6863 35 74 32.3137 74 29C74 25.6863 76.6863 23 80 23C83.3137 23 86 25.6863 86 29ZM88 29C88 33.4183 84.4183 37 80 37C75.5817 37 72 33.4183 72 29C72 24.5817 75.5817 21 80 21C84.4183 21 88 24.5817 88 29Z" fill="#FFB200"/>
</svg>
