<svg width="98" height="30" viewBox="0 0 98 30" fill="none" xmlns="http://www.w3.org/2000/svg">
<path fill-rule="evenodd" clip-rule="evenodd" d="M14.4886 1.92913C13.2403 1.60118 11.5372 1.43604 9.38039 1.43604H0V4.56296H5.97548H9.35285C10.8653 4.56296 11.9683 4.73722 12.6586 5.08456C13.3489 5.4319 13.6944 6.03812 13.6944 6.90118V14.4224C13.6944 15.061 13.5567 15.5309 13.282 15.8312C13.0085 16.1315 12.5639 16.3331 11.9484 16.4362C11.3342 16.5394 10.4206 16.5911 9.21076 16.5911H5.97548V7.92703L1.54839 11.4789V19.7177H9.4094C11.6228 19.7177 13.3537 19.5632 14.6017 19.2526C15.8512 18.9431 16.7494 18.4077 17.2979 17.6478C17.8462 16.8867 18.1212 15.8115 18.1212 14.4224V6.98611C18.1212 5.55914 17.8269 4.4416 17.2414 3.63349C16.655 2.82656 15.7367 2.25795 14.4886 1.92913Z" fill="white"/>
<path fill-rule="evenodd" clip-rule="evenodd" d="M30.1616 11.6615V9.68997C30.1616 9.23949 29.9781 8.90126 29.6084 8.67558C29.2401 8.45107 28.6202 8.33735 27.7496 8.33735C26.7473 8.33735 26.0753 8.45107 25.7346 8.67558C25.3758 8.91977 25.1955 9.258 25.1955 9.68997V11.6615H30.1616ZM21.0248 15.5768V10.6759C21.0248 8.96679 21.578 7.72759 22.684 6.9574C23.7914 6.1872 25.498 5.80225 27.8062 5.80225C29.9817 5.80225 31.5761 6.17339 32.5888 6.91508C33.6003 7.65766 34.1059 8.91066 34.1059 10.6759V13.9997H25.1955V15.2386C25.1955 16.0285 25.4797 16.5912 26.0478 16.9294C26.6146 17.2674 27.6365 17.4357 29.1122 17.4357C30.4745 17.4357 32.0068 17.2389 33.7086 16.8445V19.4648C32.0251 19.8213 30.2274 19.9999 28.3177 19.9999C23.4554 19.9999 21.0248 18.5259 21.0248 15.5768Z" fill="white"/>
<path fill-rule="evenodd" clip-rule="evenodd" d="M40.9771 12.7319L35.8703 6.08398H40.6653L43.3616 9.99933L46.0853 6.08398H50.8807L45.7446 12.7319L51.1645 19.7178H46.3695L43.3616 15.4357L40.3812 19.7178H35.5861L40.9771 12.7319Z" fill="white"/>
<path fill-rule="evenodd" clip-rule="evenodd" d="M53.0282 19.7178H57.1711V6.08398H53.0282V19.7178Z" fill="white"/>
<path fill-rule="evenodd" clip-rule="evenodd" d="M53.0282 3.32459V0.000488281H57.1711L53.0282 3.32459Z" fill="#FFB200"/>
<path fill-rule="evenodd" clip-rule="evenodd" d="M60.7236 3.32411V19.7181H64.8665V0L60.7236 3.32411Z" fill="white"/>
<path fill-rule="evenodd" clip-rule="evenodd" d="M76.5662 17.2538C76.9635 17.1313 77.2429 16.9388 77.4034 16.6761C77.5638 16.4137 77.645 16.0288 77.645 15.521V10.3664C77.645 9.61562 77.4463 9.08962 77.0491 8.7893C76.6518 8.48898 75.9049 8.33764 74.8066 8.33764C73.7099 8.33764 72.9627 8.48898 72.5654 8.7893C72.1684 9.08962 71.9698 9.61562 71.9698 10.3664V15.521C71.9698 16.0288 72.0495 16.4137 72.2111 16.6761C72.3715 16.9388 72.6507 17.1313 73.048 17.2538C73.4452 17.3755 74.0308 17.436 74.8066 17.436C75.5825 17.436 76.169 17.3755 76.5662 17.2538ZM72.7075 19.9153C72.1578 19.8592 71.5725 19.7469 70.9479 19.5771C70.2668 19.3905 69.7179 19.1222 69.3026 18.7748C68.8858 18.4275 68.5356 17.9347 68.2517 17.2953C67.9687 16.6761 67.8269 15.9253 67.8269 15.0417V11.0141C67.8269 10.1131 67.9687 9.32353 68.2517 8.64825C68.5356 7.97208 68.9053 7.44608 69.3589 7.06994C69.7561 6.7514 70.2819 6.48429 70.934 6.26771C71.5865 6.05232 72.225 5.91597 72.8493 5.85984C73.5678 5.82193 74.2199 5.80225 74.8066 5.80225C75.6773 5.80225 76.3723 5.82634 76.8931 5.87336C77.4126 5.92038 77.9854 6.03851 78.61 6.2254C79.2915 6.43286 79.8444 6.7135 80.2695 7.06994C80.6952 7.42786 81.059 7.93418 81.3628 8.59124C81.6455 9.2674 81.7879 10.0752 81.7879 11.0141V15.0417C81.7879 15.8877 81.6502 16.6294 81.3767 17.2677C81.1017 17.9062 80.7473 18.4037 80.3119 18.7599C79.9332 19.0799 79.4185 19.3376 78.766 19.5348C78.1139 19.7319 77.475 19.8592 76.8504 19.9153C76.2823 19.9714 75.6021 20.0002 74.8066 20.0002C73.9559 20.0002 73.2558 19.9714 72.7075 19.9153Z" fill="white"/>
<path fill-rule="evenodd" clip-rule="evenodd" d="M84.748 6.08405H88.8344V7.74611C89.1553 6.45108 90.6218 5.80225 93.2322 5.80225C94.9918 5.80225 96.2262 6.11726 96.9352 6.7467C97.6454 7.37585 98 8.36615 98 9.71877V19.7178H93.8571V10.2527C93.8571 9.72788 93.8038 9.33352 93.7011 9.06993C93.5963 8.80752 93.3882 8.61945 93.0765 8.5072C92.7648 8.39377 92.2867 8.33735 91.6437 8.33735C90.8296 8.33735 90.2337 8.39024 89.8563 8.49221C89.4777 8.59653 89.221 8.77872 89.0896 9.04231C88.9567 9.30472 88.891 9.70819 88.891 10.2527V19.7178H84.748V6.08405Z" fill="white"/>
<path d="M2.70736 29.9999C3.05358 29.9999 3.33338 29.9657 3.54674 29.8972C3.76011 29.8288 3.91813 29.714 4.02078 29.553C4.12344 29.392 4.17477 29.1726 4.17477 28.8948V28.611C4.17477 28.3895 4.14357 28.2134 4.08117 28.0826C4.01877 27.9517 3.91209 27.8541 3.76112 27.7897C3.61015 27.7253 3.3998 27.6931 3.13007 27.6931H2.65905C2.4175 27.6931 2.24741 27.6619 2.14878 27.5995C2.05015 27.5371 2.00083 27.4374 2.00083 27.3006V26.8537C2.00083 26.6766 2.06323 26.5497 2.18803 26.4733C2.3088 26.4008 2.55639 26.3646 2.93079 26.3646C3.17234 26.3646 3.52259 26.3988 3.98153 26.4672V26.0264C3.5709 25.9821 3.23474 25.96 2.97306 25.96C2.58256 25.96 2.27559 25.9922 2.05216 26.0566C1.82873 26.121 1.66971 26.2196 1.5751 26.3525C1.48049 26.4853 1.43319 26.6584 1.43319 26.8718V27.1858C1.43319 27.5079 1.51371 27.7454 1.67474 27.8984C1.83577 28.0514 2.10751 28.1279 2.48997 28.1279H2.94891C3.19046 28.1279 3.35954 28.1621 3.45616 28.2305C3.55278 28.299 3.60109 28.4177 3.60109 28.5868V29.0941C3.60109 29.2752 3.53265 29.399 3.39578 29.4654C3.2589 29.5319 3.0415 29.5651 2.74359 29.5651C2.38932 29.5651 1.97869 29.5148 1.51169 29.4141V29.9032C1.97466 29.9677 2.37322 29.9999 2.70736 29.9999ZM8.69979 29.9395V26.6242H8.72998L10.0283 29.9395H10.5537L11.8158 26.6242H11.846V29.9395H12.3593V26.0203H11.5138L10.3242 29.2873L10.3061 29.2813L9.05004 26.0203H8.17442V29.9395H8.69979ZM16.6971 29.9395L17.1379 28.7499H18.8167L19.2635 29.9395H19.8734L18.3517 26.0203H17.6754L16.1174 29.9395H16.6971ZM18.6717 28.3453H17.2889L17.9531 26.5759H18.0075L18.6717 28.3453ZM24.2173 29.9395V28.2668H24.7849L25.9081 29.9395H26.6268L25.3707 28.1943C25.6646 28.1943 25.9071 28.1309 26.0984 28.0041C26.2896 27.8773 26.3852 27.6971 26.3852 27.4636V26.7873C26.3852 26.5779 26.3399 26.4189 26.2493 26.3102C26.1588 26.2015 26.0158 26.126 25.8206 26.0838C25.6253 26.0415 25.3546 26.0203 25.0084 26.0203H23.6315V29.9395H24.2173ZM24.9842 27.8803H24.2173V26.4068H25.0386C25.5458 26.4068 25.7994 26.5538 25.7994 26.8477V27.3911C25.7994 27.5763 25.736 27.7041 25.6092 27.7746C25.4824 27.8451 25.2741 27.8803 24.9842 27.8803ZM32.1663 29.9395V26.431H33.4888V26.0203H30.246V26.431H31.5745V29.9395H32.1663ZM42.0134 29.9395L42.4543 28.7499H44.133L44.5799 29.9395H45.1898L43.668 26.0203H42.9917L41.4337 29.9395H42.0134ZM43.9881 28.3453H42.6052L43.2695 26.5759H43.3238L43.9881 28.3453ZM49.5337 29.9395V28.2668H50.1013L51.2245 29.9395H51.9431L50.6871 28.1943C50.9809 28.1943 51.2235 28.1309 51.4147 28.0041C51.6059 27.8773 51.7016 27.6971 51.7016 27.4636V26.7873C51.7016 26.5779 51.6563 26.4189 51.5657 26.3102C51.4751 26.2015 51.3322 26.126 51.1369 26.0838C50.9417 26.0415 50.671 26.0203 50.3247 26.0203H48.9479V29.9395H49.5337ZM50.3006 27.8803H49.5337V26.4068H50.3549C50.8622 26.4068 51.1158 26.5538 51.1158 26.8477V27.3911C51.1158 27.5763 51.0524 27.7041 50.9256 27.7746C50.7988 27.8451 50.5904 27.8803 50.3006 27.8803ZM57.3679 29.9395C57.8671 29.9395 58.2234 29.8811 58.4368 29.7644C58.6501 29.6476 58.7568 29.4463 58.7568 29.1605V28.5023C58.7568 28.3372 58.6914 28.1993 58.5606 28.0886C58.4297 27.9779 58.2576 27.9044 58.0442 27.8682V27.844C58.2254 27.8038 58.3603 27.7404 58.4488 27.6538C58.5374 27.5673 58.5817 27.4455 58.5817 27.2885V26.7631C58.5817 26.594 58.5505 26.4612 58.4881 26.3646C58.4257 26.2679 58.3039 26.1874 58.1227 26.123C57.9255 26.0546 57.6598 26.0203 57.3256 26.0203H55.9246V29.9395H57.3679ZM57.3437 27.7353H56.5104V26.4068H57.3256C57.5793 26.4068 57.7604 26.437 57.8691 26.4974C57.9778 26.5578 58.0322 26.6625 58.0322 26.8114V27.2704C58.0322 27.4314 57.9788 27.5492 57.8721 27.6236C57.7654 27.6981 57.5893 27.7353 57.3437 27.7353ZM57.3679 29.5349H56.5104V28.1037H57.3679C57.5048 28.1037 57.6074 28.1067 57.6759 28.1128C57.7443 28.1188 57.8228 28.1339 57.9114 28.1581C58 28.1862 58.0654 28.2315 58.1076 28.2939C58.1499 28.3563 58.1711 28.4399 58.1711 28.5445V29.1363C58.1711 29.2813 58.1107 29.3839 57.9899 29.4443C57.8691 29.5047 57.6618 29.5349 57.3679 29.5349ZM63.3724 29.9395V26.0203H62.7867V29.9395H63.3724ZM69.1052 29.9395V26.431H70.4277V26.0203H67.1849V26.431H68.5134V29.9395H69.1052ZM74.8259 29.9395V28.2668H75.3935L76.5167 29.9395H77.2353L75.9793 28.1943C76.2731 28.1943 76.5157 28.1309 76.7069 28.0041C76.8981 27.8773 76.9938 27.6971 76.9938 27.4636V26.7873C76.9938 26.5779 76.9485 26.4189 76.8579 26.3102C76.7673 26.2015 76.6244 26.126 76.4291 26.0838C76.2339 26.0415 75.9632 26.0203 75.6169 26.0203H74.2401V29.9395H74.8259ZM75.5928 27.8803H74.8259V26.4068H75.6471C76.1544 26.4068 76.408 26.5538 76.408 26.8477V27.3911C76.408 27.5763 76.3446 27.7041 76.2178 27.7746C76.091 27.8451 75.8826 27.8803 75.5928 27.8803ZM81.3799 29.9395L81.8207 28.7499H83.4995L83.9464 29.9395H84.5563L83.0345 26.0203H82.3582L80.8002 29.9395H81.3799ZM83.3546 28.3453H81.9717L82.6359 26.5759H82.6903L83.3546 28.3453ZM89.9992 29.9999C90.438 29.9999 90.9191 29.9395 91.4424 29.8187V27.7112H89.981V28.1218H90.8989V29.4926C90.593 29.5651 90.3051 29.6013 90.0354 29.6013C89.8744 29.6013 89.7294 29.5923 89.6006 29.5741C89.4718 29.556 89.343 29.5228 89.2141 29.4745C89.0772 29.4302 88.9696 29.3598 88.8911 29.2631C88.8126 29.1665 88.7733 29.0538 88.7733 28.925V27.0771C88.7733 26.6021 89.186 26.3646 90.0112 26.3646C90.1844 26.3646 90.4128 26.3797 90.6966 26.4098C90.9805 26.44 91.1989 26.4733 91.3518 26.5095V26.0566C90.9493 25.9922 90.4984 25.96 89.9992 25.96C89.7898 25.96 89.5956 25.9751 89.4164 26.0053C89.2373 26.0354 89.0491 26.0848 88.8518 26.1532C88.6465 26.2257 88.4855 26.3424 88.3687 26.5034C88.252 26.6645 88.1936 26.8577 88.1936 27.0832V28.9371C88.1936 29.1061 88.2338 29.2591 88.3144 29.396C88.3909 29.5248 88.4895 29.6265 88.6103 29.701C88.731 29.7754 88.88 29.8368 89.0571 29.8851C89.2141 29.9294 89.3641 29.9596 89.507 29.9757C89.6499 29.9918 89.814 29.9999 89.9992 29.9999ZM97.9844 29.9395V29.5288H95.8769V28.1218H97.7247V27.7112H95.8769V26.431H97.924V26.0203H95.2911V29.9395H97.9844Z" fill="white"/>
</svg>
