<svg width="117" height="26" viewBox="0 0 117 26" fill="none" xmlns="http://www.w3.org/2000/svg">
<path fill-rule="evenodd" clip-rule="evenodd" d="M17.2977 2.27998C15.8073 1.89241 13.7741 1.69723 11.199 1.69723H0V5.39269H7.13399H11.1662C12.9718 5.39269 14.2886 5.59863 15.1128 6.00913C15.937 6.41962 16.3494 7.13607 16.3494 8.15604V17.0448C16.3494 17.7995 16.1851 18.3548 15.8571 18.7097C15.5306 19.0646 14.9997 19.3029 14.265 19.4248C13.5316 19.5466 12.441 19.6078 10.9965 19.6078H7.13399V9.36841L1.84859 13.566V23.3029H11.2337C13.8762 23.3029 15.9426 23.1202 17.4327 22.7531C18.9244 22.3874 19.9967 21.7547 20.6516 20.8566C21.3061 19.9571 21.6345 18.6864 21.6345 17.0448V8.25641C21.6345 6.56999 21.2832 5.24927 20.5841 4.29423C19.884 3.34059 18.7877 2.66859 17.2977 2.27998Z" fill="white"/>
<path fill-rule="evenodd" clip-rule="evenodd" d="M36.0093 13.7817V11.4518C36.0093 10.9194 35.7902 10.5197 35.3488 10.2529C34.9091 9.98761 34.1691 9.85321 33.1296 9.85321C31.933 9.85321 31.1307 9.98761 30.7239 10.2529C30.2956 10.5415 30.0803 10.9413 30.0803 11.4518V13.7817H36.0093ZM25.101 18.4089V12.6169C25.101 10.5971 25.7615 9.13259 27.0819 8.22236C28.4041 7.31213 30.4415 6.85718 33.1972 6.85718C35.7944 6.85718 37.698 7.2958 38.907 8.17235C40.1146 9.04994 40.7183 10.5308 40.7183 12.6169V16.545H30.0803V18.0092C30.0803 18.9427 30.4196 19.6078 31.0978 20.0075C31.7746 20.4069 32.9946 20.6059 34.7564 20.6059C36.3829 20.6059 38.2122 20.3732 40.244 19.9071V23.0039C38.2341 23.4251 36.0878 23.6363 33.8079 23.6363C28.0029 23.6363 25.101 21.8943 25.101 18.4089Z" fill="white"/>
<path fill-rule="evenodd" clip-rule="evenodd" d="M48.9216 15.0469L42.8247 7.19025H48.5494L51.7684 11.8175L55.0202 7.19025H60.7453L54.6134 15.0469L61.0842 23.3029H55.3595L51.7684 18.2422L48.2102 23.3029H42.4855L48.9216 15.0469Z" fill="white"/>
<path fill-rule="evenodd" clip-rule="evenodd" d="M63.3092 23.3029H68.2553V7.19022H63.3092V23.3029Z" fill="white"/>
<path fill-rule="evenodd" clip-rule="evenodd" d="M63.3092 3.92903V0.000541687H68.2553L63.3092 3.92903Z" fill="#FFB200"/>
<path fill-rule="evenodd" clip-rule="evenodd" d="M72.4965 3.92849V23.3032H77.4426V0L72.4965 3.92849Z" fill="white"/>
<path fill-rule="evenodd" clip-rule="evenodd" d="M91.4107 20.3906C91.885 20.2458 92.2186 20.0183 92.4102 19.7079C92.6017 19.3977 92.6986 18.9428 92.6986 18.3427V12.251C92.6986 11.3637 92.4614 10.742 91.9871 10.3871C91.5129 10.0322 90.6212 9.85331 89.31 9.85331C88.0006 9.85331 87.1085 10.0322 86.6342 10.3871C86.1603 10.742 85.9232 11.3637 85.9232 12.251V18.3427C85.9232 18.9428 86.0182 19.3977 86.2112 19.7079C86.4027 20.0183 86.736 20.2458 87.2103 20.3906C87.6846 20.5344 88.3837 20.6059 89.31 20.6059C90.2363 20.6059 90.9364 20.5344 91.4107 20.3906ZM86.8039 23.536C86.1476 23.4697 85.4489 23.337 84.7031 23.1363C83.8899 22.9157 83.2347 22.5987 82.7388 22.1882C82.2412 21.7777 81.8231 21.1953 81.4842 20.4396C81.1463 19.7079 80.977 18.8206 80.977 17.7763V13.0164C80.977 11.9516 81.1463 11.0185 81.4842 10.2204C81.8231 9.42129 82.2645 8.79965 82.806 8.35512C83.2803 7.97866 83.908 7.66298 84.6865 7.40703C85.4655 7.15247 86.2278 6.99133 86.9732 6.925C87.8309 6.8802 88.6095 6.85693 89.31 6.85693C90.3494 6.85693 91.1792 6.88541 91.8009 6.94098C92.4211 6.99654 93.105 7.13615 93.8507 7.35702C94.6643 7.60221 95.3245 7.93386 95.832 8.35512C96.3402 8.77811 96.7746 9.37649 97.1372 10.153C97.4747 10.9521 97.6447 11.9068 97.6447 13.0164V17.7763C97.6447 18.7761 97.4804 19.6527 97.1538 20.407C96.8255 21.1616 96.4024 21.7496 95.8825 22.1705C95.4305 22.5487 94.8159 22.8532 94.037 23.0863C93.2584 23.3193 92.4957 23.4697 91.75 23.536C91.0718 23.6023 90.2596 23.6364 89.31 23.6364C88.2942 23.6364 87.4584 23.6023 86.8039 23.536Z" fill="white"/>
<path fill-rule="evenodd" clip-rule="evenodd" d="M101.179 7.19023H106.057V9.15447C106.44 7.62399 108.191 6.85718 111.308 6.85718C113.409 6.85718 114.882 7.22947 115.729 7.97336C116.577 8.71689 117 9.88725 117 11.4858V23.3029H112.054V12.1168C112.054 11.4966 111.99 11.0305 111.868 10.719C111.743 10.4089 111.494 10.1866 111.122 10.0539C110.75 9.91989 110.179 9.85321 109.411 9.85321C108.439 9.85321 107.728 9.91572 107.277 10.0362C106.825 10.1595 106.519 10.3748 106.362 10.6863C106.203 10.9965 106.125 11.4733 106.125 12.1168V23.3029H101.179V7.19023Z" fill="white"/>
</svg>
