<svg width="185" height="38" viewBox="0 0 185 38" fill="none" xmlns="http://www.w3.org/2000/svg">
<path fill-rule="evenodd" clip-rule="evenodd" d="M27.3508 4.06908C24.9942 3.46238 21.7793 3.15686 17.7077 3.15686H0V8.94168H11.2802H17.6558C20.5108 8.94168 22.593 9.26405 23.8961 9.90663C25.1993 10.5492 25.8515 11.6707 25.8515 13.2674V27.1817C25.8515 28.363 25.5916 29.2323 25.073 29.7879C24.5567 30.3435 23.7173 30.7164 22.5555 30.9072C21.396 31.0981 19.6714 31.1937 17.3875 31.1937H11.2802V15.1652L2.92296 21.7361V36.978H17.7625C21.9408 36.978 25.2083 36.6921 27.5643 36.1174C29.923 35.545 31.6185 34.5545 32.654 33.1486C33.689 31.7406 34.2081 29.7515 34.2081 27.1817V13.4245C34.2081 10.7846 33.6526 8.71716 32.5473 7.22216C31.4403 5.72934 29.7068 4.67741 27.3508 4.06908Z" fill="white"/>
<path fill-rule="evenodd" clip-rule="evenodd" d="M56.9375 22.0737V18.4265C56.9375 17.5931 56.591 16.9673 55.8931 16.5498C55.1979 16.1345 54.0277 15.9241 52.3842 15.9241C50.4921 15.9241 49.2235 16.1345 48.5803 16.5498C47.903 17.0016 47.5627 17.6273 47.5627 18.4265V22.0737H56.9375ZM39.6895 29.3171V20.2504C39.6895 17.0886 40.7339 14.7961 42.8217 13.3712C44.9122 11.9463 48.1338 11.2342 52.491 11.2342C56.5978 11.2342 59.6076 11.9208 61.5193 13.2929C63.4288 14.6667 64.3833 16.9847 64.3833 20.2504V26.3994H47.5627V28.6914C47.5627 30.1527 48.0992 31.1937 49.1716 31.8195C50.2417 32.4446 52.1708 32.7561 54.9565 32.7561C57.5282 32.7561 60.4207 32.3919 63.6333 31.6623V36.5099C60.4553 37.1694 57.0616 37.4999 53.4566 37.4999C44.2779 37.4999 39.6895 34.773 39.6895 29.3171Z" fill="white"/>
<path fill-rule="evenodd" clip-rule="evenodd" d="M77.3536 24.0542L67.7133 11.7556H76.7651L81.8549 18.999L86.9966 11.7556H96.049L86.3534 24.0542L96.5849 36.9781H87.5331L81.8549 29.0562L76.2287 36.9781H67.1768L77.3536 24.0542Z" fill="white"/>
<path fill-rule="evenodd" clip-rule="evenodd" d="M100.103 36.9779H107.924V11.7554H100.103V36.9779Z" fill="white"/>
<path fill-rule="evenodd" clip-rule="evenodd" d="M100.103 6.65045V0.500885H107.924L100.103 6.65045Z" fill="#FFB200"/>
<path fill-rule="evenodd" clip-rule="evenodd" d="M114.628 6.6496V36.9785H122.449V0.5L114.628 6.6496Z" fill="white"/>
<path fill-rule="evenodd" clip-rule="evenodd" d="M144.534 32.4192C145.284 32.1925 145.812 31.8364 146.115 31.3504C146.417 30.865 146.571 30.1528 146.571 29.2134V19.6775C146.571 18.2885 146.196 17.3154 145.446 16.7598C144.696 16.2042 143.286 15.9242 141.213 15.9242C139.142 15.9242 137.732 16.2042 136.982 16.7598C136.232 17.3154 135.857 18.2885 135.857 19.6775V29.2134C135.857 30.1528 136.008 30.865 136.313 31.3504C136.616 31.8364 137.143 32.1925 137.893 32.4192C138.643 32.6443 139.748 32.7563 141.213 32.7563C142.677 32.7563 143.784 32.6443 144.534 32.4192ZM137.25 37.3429C136.212 37.2391 135.107 37.0314 133.928 36.7172C132.642 36.372 131.606 35.8756 130.822 35.2331C130.036 34.5905 129.374 33.6788 128.839 32.4959C128.304 31.3504 128.037 29.9614 128.037 28.3267V20.8757C128.037 19.2089 128.304 17.7481 128.839 16.4989C129.374 15.248 130.072 14.2749 130.929 13.579C131.678 12.9897 132.671 12.4955 133.902 12.0949C135.134 11.6964 136.339 11.4442 137.518 11.3403C138.874 11.2702 140.105 11.2338 141.213 11.2338C142.856 11.2338 144.168 11.2783 145.151 11.3653C146.132 11.4523 147.213 11.6708 148.392 12.0166C149.679 12.4004 150.723 12.9196 151.525 13.579C152.329 14.2412 153.015 15.1778 153.589 16.3934C154.122 17.6443 154.391 19.1388 154.391 20.8757V28.3267C154.391 29.8918 154.131 31.264 153.615 32.4448C153.096 33.6261 152.427 34.5464 151.605 35.2053C150.89 35.7974 149.918 36.2741 148.687 36.6389C147.456 37.0037 146.25 37.2391 145.071 37.3429C143.998 37.4467 142.714 37.5 141.213 37.5C139.606 37.5 138.285 37.4467 137.25 37.3429Z" fill="white"/>
<path fill-rule="evenodd" clip-rule="evenodd" d="M159.984 11.7555H167.698V14.8303C168.303 12.4345 171.072 11.2342 176 11.2342C179.321 11.2342 181.652 11.8169 182.99 12.9814C184.331 14.1453 185 15.9774 185 18.4797V36.978H177.179V19.4675C177.179 18.4966 177.079 17.767 176.885 17.2794C176.687 16.7939 176.294 16.446 175.706 16.2383C175.117 16.0285 174.215 15.9241 173.001 15.9241C171.464 15.9241 170.339 16.022 169.627 16.2106C168.912 16.4036 168.428 16.7406 168.179 17.2283C167.928 17.7138 167.804 18.4602 167.804 19.4675V36.978H159.984V11.7555Z" fill="white"/>
</svg>
