<svg width="210" height="62" viewBox="0 0 210 62" fill="none" xmlns="http://www.w3.org/2000/svg">
<path d="M128.704 19.9451L133 13.5293L136.406 15.5878L133.532 20.0596L132.783 21.1413H127.875L128.704 19.9451Z" fill="#42E8E0"/>
<path fill-rule="evenodd" clip-rule="evenodd" d="M173.431 42.0258C171.92 42.0258 170.517 41.7707 169.222 41.2605C167.927 40.7307 166.799 39.9949 165.837 39.053C164.876 38.1112 164.12 36.9927 163.571 35.6977C163.041 34.4026 162.776 32.98 162.776 31.4299V31.1944C162.815 29.7228 163.09 28.359 163.6 27.1032C164.13 25.8474 164.866 24.7584 165.808 23.8362C166.75 22.8943 167.868 22.1585 169.163 21.6287C170.478 21.0989 171.94 20.834 173.549 20.834H173.755C175.423 20.834 176.904 21.1087 178.199 21.6581C179.514 22.2075 180.622 22.9532 181.525 23.895C182.428 24.8369 183.105 25.9357 183.556 27.1915C184.027 28.4473 184.262 29.7816 184.262 31.1944V31.4299C184.262 32.98 183.988 34.4124 183.438 35.7271C182.889 37.0221 182.133 38.1406 181.172 39.0825C180.23 40.0047 179.112 40.7307 177.816 41.2605C176.521 41.7707 175.109 42.0258 173.578 42.0258H173.431ZM173.519 37.964C174.481 37.964 175.344 37.7972 176.109 37.4636C176.875 37.1104 177.522 36.6395 178.052 36.0509C178.582 35.4622 178.984 34.7852 179.259 34.02C179.533 33.2351 179.671 32.4012 179.671 31.5182V31.3416C179.671 30.4193 179.524 29.5756 179.229 28.8103C178.955 28.0255 178.552 27.3485 178.023 26.7795C177.512 26.2104 176.875 25.7689 176.109 25.455C175.364 25.1214 174.52 24.9546 173.578 24.9546C172.617 24.9546 171.753 25.1214 170.988 25.455C170.223 25.7885 169.565 26.2399 169.016 26.8089C168.467 27.3779 168.045 28.0549 167.75 28.8398C167.456 29.6246 167.309 30.4684 167.309 31.371V31.5182C167.309 32.4012 167.446 33.2351 167.721 34.02C168.015 34.8049 168.427 35.4916 168.957 36.0803C169.507 36.6493 170.164 37.1104 170.929 37.4636C171.694 37.7972 172.558 37.964 173.519 37.964ZM80.7599 21.1283C82.4082 21.1479 83.87 21.4325 85.1455 21.9819C86.4209 22.5313 87.4805 23.2671 88.3242 24.1893C89.1876 25.092 89.8351 26.1516 90.2668 27.3681C90.7181 28.5651 90.9438 29.8405 90.9438 31.1944V31.4299C90.9438 32.8034 90.6985 34.1083 90.2079 35.3445C89.7174 36.5807 89.0208 37.6697 88.1182 38.6115C87.2156 39.5338 86.1364 40.2794 84.8806 40.8484C83.6248 41.3979 82.2316 41.6922 80.7011 41.7314H72.4893V21.1283H80.7599ZM86.3816 31.4004C86.4013 30.4782 86.2835 29.6345 86.0284 28.8692C85.7734 28.0843 85.3809 27.4172 84.8511 26.8678C84.3213 26.2987 83.6444 25.8572 82.8202 25.5433C81.9961 25.2097 81.0346 25.0429 79.9358 25.0429H76.9336V37.8168H79.6121C80.7305 37.7972 81.7018 37.6206 82.5259 37.287C83.3697 36.9535 84.0761 36.512 84.6451 35.9626C85.2141 35.3935 85.6458 34.7362 85.9401 33.9905C86.2345 33.2253 86.3816 32.411 86.3816 31.5476V31.4004ZM99.0659 38.0523H110.81V41.7314H94.6215V21.1283H110.486V24.8074H99.0659V29.6345H109.691V33.2253H99.0659V38.0523ZM128.077 41.7314H133.257L125.84 31.2533L132.786 21.1283H127.871L123.191 27.9273L118.364 21.1283H113.243L120.248 31.165L115.223 38.2113L115.211 38.2021L112.109 42.5355L110.491 44.8925H115.66L117.911 41.7314H117.923L122.985 34.5203L128.077 41.7314ZM136.129 41.7314V21.1283H140.574V41.7314H136.129ZM161.423 38.0523H149.826V21.1283H145.382V41.7314H161.423V38.0523ZM206.081 21.1283H201.843V34.3732L191.895 21.1283H187.951V41.7314H192.16V28.3688L202.137 41.7314H206.081V21.1283Z" fill="#42E8E0"/>
<path d="M32.3215 20.498C33.9697 20.5177 35.4316 20.8022 36.707 21.3516C37.9824 21.901 39.042 22.6368 39.8857 23.5591C40.7491 24.4617 41.3966 25.5213 41.8283 26.7378C42.2796 27.9348 42.5053 29.2102 42.5053 30.5641V30.7996C42.5053 32.1731 42.26 33.478 41.7695 34.7142C41.2789 35.9504 40.5823 37.0394 39.6797 37.9813C38.7771 38.9035 37.6979 39.6491 36.4421 40.2182C35.1863 40.7676 33.7931 41.0619 32.2626 41.1012H24.0508V20.498H32.3215ZM37.9432 30.7702C37.9628 29.8479 37.8451 29.0042 37.59 28.2389C37.3349 27.4541 36.9424 26.7869 36.4127 26.2375C35.8829 25.6684 35.2059 25.227 34.3818 24.913C33.5576 24.5794 32.5962 24.4126 31.4973 24.4126H28.4952V37.1866H31.1736C32.292 37.167 33.2633 36.9904 34.0874 36.6568C34.9312 36.3232 35.6376 35.8817 36.2066 35.3323C36.7757 34.7633 37.2073 34.1059 37.5017 33.3603C37.796 32.595 37.9432 31.7807 37.9432 30.9173V30.7702Z" fill="#42E8E0"/>
<path d="M139.915 6.33943L139.984 17.9574L129.32 11.2938L139.915 6.33943Z" fill="#42E8E0"/>
<path fill-rule="evenodd" clip-rule="evenodd" d="M31.4422 51.8655C42.9482 51.8655 52.2756 42.608 52.2756 31.1883C52.2756 19.7686 42.9482 10.5111 31.4422 10.5111C19.9363 10.5111 10.6089 19.7686 10.6089 31.1883C10.6089 42.608 19.9363 51.8655 31.4422 51.8655ZM31.4422 55.2467C44.8297 55.2467 55.6823 44.4754 55.6823 31.1883C55.6823 17.9012 44.8297 7.12988 31.4422 7.12988C18.0548 7.12988 7.20215 17.9012 7.20215 31.1883C7.20215 44.4754 18.0548 55.2467 31.4422 55.2467Z" fill="#42E8E0"/>
<path fill-rule="evenodd" clip-rule="evenodd" d="M31.3977 57.2073C45.9006 57.2073 57.6575 45.5385 57.6575 31.1443C57.6575 16.75 45.9006 5.08122 31.3977 5.08122C16.8948 5.08122 5.13781 16.75 5.13781 31.1443C5.13781 45.5385 16.8948 57.2073 31.3977 57.2073ZM31.3977 61.4692C48.2721 61.4692 61.9516 47.8923 61.9516 31.1443C61.9516 14.3963 48.2721 0.819336 31.3977 0.819336C14.5232 0.819336 0.84375 14.3963 0.84375 31.1443C0.84375 47.8923 14.5232 61.4692 31.3977 61.4692Z" fill="#42E8E0"/>
</svg>
