<svg width="361" height="278" viewBox="0 0 361 278" fill="none" xmlns="http://www.w3.org/2000/svg">
<path d="M180.062 69.8154L1.44141 173.174L181.065 275.53L360.689 172.171L180.062 69.8154Z" stroke="#8D92FF" stroke-width="0.300934"/>
<path d="M181.613 112.781L279.214 168.71V56.8526L181.064 0.923828L181.613 112.781Z" fill="#646AEA" fill-opacity="0.15" stroke="#8D92FF" stroke-width="0.300934"/>
<path d="M181.064 112.78L82.9141 168.708V55.7544L181.064 0.374023V112.78Z" fill="#646AEA" fill-opacity="0.15" stroke="#8D92FF" stroke-width="0.300934"/>
<g style="mix-blend-mode:screen" filter="url(#filter0_f_2561_105087)">
<circle cx="184.127" cy="122.672" r="50" fill="url(#paint0_radial_2561_105087)"/>
</g>
<path d="M180.515 112.507L82.9141 168.984L181.064 224.913L279.213 168.436L180.515 112.507Z" stroke="#8D92FF" stroke-width="0.300934"/>
<path fill-rule="evenodd" clip-rule="evenodd" d="M202.934 152.404C203.218 152.781 203.662 153.003 204.134 153.003H218.292C219.12 153.003 219.792 152.331 219.792 151.503C219.792 150.675 219.12 150.003 218.292 150.003H204.883L190.449 130.797C189.952 130.134 189.011 130.001 188.349 130.499C187.687 130.996 187.553 131.937 188.051 132.599L202.934 152.404Z" fill="#D9DAFF"/>
<path fill-rule="evenodd" clip-rule="evenodd" d="M201.985 92.6106C202.269 92.2335 202.713 92.0117 203.184 92.0117H217.343C218.171 92.0117 218.843 92.6833 218.843 93.5117C218.843 94.3401 218.171 95.0117 217.343 95.0117H203.933L189.5 114.218C189.002 114.88 188.062 115.014 187.4 114.516C186.737 114.018 186.604 113.078 187.102 112.416L201.985 92.6106Z" fill="#D9DAFF"/>
<path fill-rule="evenodd" clip-rule="evenodd" d="M167.761 92.6535C167.478 92.2765 167.033 92.0547 166.562 92.0547H152.403C151.575 92.0547 150.903 92.7263 150.903 93.5547C150.903 94.3831 151.575 95.0547 152.403 95.0547H165.813L180.246 114.261C180.744 114.923 181.684 115.057 182.346 114.559C183.009 114.061 183.142 113.121 182.644 112.459L167.761 92.6535Z" fill="#D9DAFF"/>
<path fill-rule="evenodd" clip-rule="evenodd" d="M165.353 150.741C165.069 151.118 164.625 151.34 164.154 151.34H149.995C149.167 151.34 148.495 150.668 148.495 149.84C148.495 149.011 149.167 148.34 149.995 148.34H163.404L177.838 129.133C178.336 128.471 179.276 128.338 179.938 128.835C180.6 129.333 180.734 130.273 180.236 130.936L165.353 150.741Z" fill="#D9DAFF"/>
<circle cx="218.288" cy="93.5524" r="6.45184" fill="#646AEA"/>
<circle cx="218.288" cy="149.841" r="6.45184" fill="#646AEA"/>
<circle cx="149.964" cy="149.841" r="6.45184" fill="#646AEA"/>
<circle cx="149.964" cy="93.5524" r="6.45184" fill="#646AEA"/>
<path d="M203.875 132.457L183.318 144.171V120.514L203.875 108.915V132.457Z" fill="#646AEA"/>
<path d="M183.203 97.2012L162.762 109.03L183.318 120.743L203.874 108.915L183.203 97.2012Z" fill="#8D92FF"/>
<path d="M162.877 132.457L183.318 144.17V120.743L162.762 109.029L162.877 132.457Z" fill="#757BF2"/>
<path d="M181.061 224.957V111.73L82.6426 55.6973" stroke="#B7BAFF" stroke-width="0.300934" stroke-dasharray="9.24 9.24"/>
<path d="M181.064 224.638V111.684L279.214 56.3037" stroke="#B7BAFF" stroke-width="0.300934" stroke-dasharray="9.24 9.24"/>
<defs>
<filter id="filter0_f_2561_105087" x="78.127" y="16.6719" width="212" height="212" filterUnits="userSpaceOnUse" color-interpolation-filters="sRGB">
<feFlood flood-opacity="0" result="BackgroundImageFix"/>
<feBlend mode="normal" in="SourceGraphic" in2="BackgroundImageFix" result="shape"/>
<feGaussianBlur stdDeviation="28" result="effect1_foregroundBlur_2561_105087"/>
</filter>
<radialGradient id="paint0_radial_2561_105087" cx="0" cy="0" r="1" gradientUnits="userSpaceOnUse" gradientTransform="translate(184.127 122.672) rotate(90) scale(50 82.6529)">
<stop stop-color="#6D74FF"/>
<stop offset="1" stop-color="#6D74FF" stop-opacity="0"/>
</radialGradient>
</defs>
</svg>
