<svg width="321" height="320" viewBox="0 0 321 320" fill="none" xmlns="http://www.w3.org/2000/svg">
<g clip-path="url(#clip0)">
<path fill-rule="evenodd" clip-rule="evenodd" d="M320.998 160C320.998 212.48 295.718 259.04 256.678 288.24C230.038 308.16 196.838 320 160.998 320C128.358 320 97.9576 310.24 72.6776 293.36C42.5176 273.44 19.4776 243.44 8.43756 208.24C3.55756 192.96 0.997559 176.8 0.997559 160C0.997559 108.16 25.7176 62 64.0376 32.8C64.7576 32.16 65.4776 31.6 66.2776 31.12C92.8376 11.52 125.558 0 160.998 0C193.638 0 224.038 9.84 249.398 26.64C279.558 46.64 302.518 76.64 313.638 111.84C318.438 127.04 320.998 143.2 320.998 160Z" fill="#FFD166"/>
<path fill-rule="evenodd" clip-rule="evenodd" d="M313.639 111.839L72.6789 293.359C42.5189 273.439 19.4789 243.439 8.4389 208.239L249.399 26.6393C279.559 46.6393 302.519 76.6393 313.639 111.839Z" fill="#FFC233"/>
<path fill-rule="evenodd" clip-rule="evenodd" d="M320.997 160C320.997 212.48 295.717 259.04 256.677 288.24C230.037 308.16 196.837 320 160.997 320C128.357 320 97.9573 310.24 72.6773 293.36L313.637 111.84C318.437 127.04 320.997 143.2 320.997 160Z" fill="#FFB200"/>
<path fill-rule="evenodd" clip-rule="evenodd" d="M209.242 84.0781C198.417 81.216 183.65 79.7747 164.947 79.7747H83.6069V107.064H135.422H164.708C177.823 107.064 187.387 108.585 193.373 111.616C199.36 114.648 202.355 119.938 202.355 127.471V193.111C202.355 198.683 201.162 202.784 198.779 205.405C196.408 208.026 192.552 209.785 187.215 210.686C181.889 211.586 173.967 212.037 163.476 212.037H135.422V136.423L97.0335 167.421V239.324H165.199C184.392 239.324 199.401 237.975 210.223 235.264C221.058 232.564 228.846 227.891 233.603 221.259C238.357 214.617 240.741 205.233 240.741 193.111V128.212C240.741 115.758 238.19 106.005 233.112 98.9526C228.027 91.9103 220.065 86.9478 209.242 84.0781Z" fill="white"/>
</g>
<defs>
<clipPath id="clip0">
<rect width="320" height="320" fill="white" transform="translate(0.997559)"/>
</clipPath>
</defs>
</svg>
