<svg width="41" height="41" viewBox="0 0 41 41" fill="none" xmlns="http://www.w3.org/2000/svg">
<g clip-path="url(#clip0_2165_101643)">
<path d="M14.0292 18.0815L20.5031 11.6101L26.9797 18.0867L30.7446 14.3193L20.5031 4.0752L10.2617 14.3166L14.0292 18.0815Z" fill="#F3BA2F"/>
<path d="M3.83301 20.7431L7.59785 16.9756L11.3653 20.7431L7.59785 24.5079L3.83301 20.7431Z" fill="#F3BA2F"/>
<path d="M14.0292 23.402L20.5031 29.876L26.9797 23.3994L30.7472 27.1616L20.5058 37.4057L10.2617 27.1695L14.0292 23.402Z" fill="#F3BA2F"/>
<path d="M29.6338 20.7431L33.3986 16.9756L37.1661 20.7404L33.3986 24.5105L29.6338 20.7431Z" fill="#F3BA2F"/>
<path d="M24.3239 20.7407L20.5037 16.918L17.6788 19.7429L17.3523 20.0667L16.6836 20.7355L20.5037 24.553L24.3239 20.7434V20.7407Z" fill="#F3BA2F"/>
</g>
<defs>
<clipPath id="clip0_2165_101643">
<rect width="33.3333" height="33.3333" fill="white" transform="translate(3.83301 4.0752)"/>
</clipPath>
</defs>
</svg>
