<svg width="40" height="40" viewBox="0 0 40 40" fill="none" xmlns="http://www.w3.org/2000/svg">
<g clip-path="url(#clip0)">
<path d="M13.53 17.3395L20.0039 10.8682L26.4805 17.3448L30.2454 13.5773L20.0039 3.33325L9.76251 13.5747L13.53 17.3395Z" fill="#F3BA2F"/>
<path d="M3.33331 20.0014L7.09816 16.2339L10.8656 20.0014L7.09816 23.7662L3.33331 20.0014Z" fill="#F3BA2F"/>
<path d="M13.53 22.6603L20.0039 29.1343L26.4805 22.6577L30.248 26.4199L20.0066 36.664L9.76251 26.4278L13.53 22.6603Z" fill="#F3BA2F"/>
<path d="M29.1343 20.0014L32.8992 16.2339L36.6667 19.9987L32.8992 23.7688L29.1343 20.0014Z" fill="#F3BA2F"/>
<path d="M23.824 19.9985L20.0039 16.1758L17.179 19.0007L16.8525 19.3246L16.1838 19.9933L20.0039 23.8108L23.824 20.0012V19.9985Z" fill="#F3BA2F"/>
</g>
<defs>
<clipPath id="clip0">
<rect width="33.3333" height="33.3333" fill="white" transform="translate(3.33331 3.33325)"/>
</clipPath>
</defs>
</svg>
