<svg width="32" height="32" viewBox="0 0 32 32" fill="none" xmlns="http://www.w3.org/2000/svg">
<path d="M16 1.3335C7.9011 1.3335 1.33337 7.90122 1.33337 16.0002C1.33337 24.0991 7.9011 30.6668 16 30.6668C24.099 30.6668 30.6667 24.0991 30.6667 16.0002C30.6667 7.90122 24.099 1.3335 16 1.3335ZM22.6967 12.769C22.7032 12.9134 22.7063 13.0584 22.7063 13.2041C22.7063 17.6524 19.3203 22.7821 13.1281 22.7823H13.1283H13.1281C11.2269 22.7823 9.45782 22.225 7.96802 21.2701C8.23142 21.3012 8.49953 21.3167 8.771 21.3167C10.3483 21.3167 11.7998 20.7786 12.9522 19.8756C11.4785 19.8483 10.236 18.875 9.80717 17.5374C10.0124 17.5768 10.2234 17.5983 10.4398 17.5983C10.7471 17.5983 11.0448 17.5569 11.3276 17.4797C9.78725 17.1713 8.62687 15.8099 8.62687 14.1798C8.62687 14.1646 8.62687 14.1509 8.62732 14.1368C9.08095 14.3891 9.59971 14.5408 10.152 14.5578C9.24813 13.9547 8.65395 12.9236 8.65395 11.7557C8.65395 11.1389 8.82068 10.561 9.10982 10.0635C10.7699 12.1005 13.2509 13.4402 16.0488 13.5809C15.9911 13.3343 15.9613 13.0774 15.9613 12.8133C15.9613 10.9549 17.469 9.4472 19.3281 9.4472C20.2965 9.4472 21.1711 9.85653 21.7854 10.5109C22.5523 10.3596 23.2725 10.0794 23.9231 9.69383C23.6713 10.4796 23.1378 11.1389 22.4427 11.5558C23.1237 11.4743 23.7727 11.2937 24.3758 11.0256C23.9253 11.7008 23.354 12.2939 22.6967 12.769Z" fill="white"/>
</svg>
