<svg width="32" height="32" viewBox="0 0 32 32" fill="none" xmlns="http://www.w3.org/2000/svg">
<path fill-rule="evenodd" clip-rule="evenodd" d="M16 1.3335C7.9011 1.3335 1.33337 7.90122 1.33337 16.0002C1.33337 24.0991 7.9011 30.6668 16 30.6668C24.099 30.6668 30.6667 24.0991 30.6667 16.0002C30.6667 7.90122 24.099 1.3335 16 1.3335ZM24.5096 17.9566C24.5419 18.1678 24.5595 18.382 24.5595 18.5991C24.5595 21.8902 20.7286 24.5568 16.0029 24.5568C11.2773 24.5568 7.44635 21.8902 7.44635 18.5991C7.44635 18.3791 7.46403 18.162 7.49626 17.9508C6.75124 17.6164 6.23204 16.8685 6.23204 16.0002C6.23204 14.821 7.18831 13.8618 8.3704 13.8618C8.94533 13.8618 9.46454 14.0876 9.84879 14.4573C11.333 13.3867 13.3866 12.703 15.6715 12.6443C15.6715 12.615 16.7392 7.5286 16.7392 7.5286C16.7598 7.42902 16.8185 7.34375 16.9035 7.28825C16.9885 7.23252 17.0913 7.21484 17.1911 7.23543L20.7463 7.99209C20.9956 7.48765 21.5088 7.13853 22.1101 7.13853C22.9549 7.13853 23.6384 7.822 23.6384 8.66683C23.6384 9.51166 22.9549 10.1951 22.1101 10.1951C21.2917 10.1951 20.6288 9.5497 20.5908 8.74023L17.4079 8.06258L16.4342 12.6475C18.6782 12.7265 20.6935 13.407 22.1542 14.4631C22.5385 14.0907 23.0606 13.8618 23.6384 13.8618C24.8207 13.8618 25.7768 14.8181 25.7768 16.0002C25.7768 16.8743 25.2517 17.6222 24.5096 17.9566ZM12.6384 16.0002C13.4803 16.0002 14.1667 16.6865 14.1667 17.5285C14.1667 18.3704 13.4803 19.0568 12.6384 19.0568C11.7967 19.0568 11.1101 18.3702 11.1101 17.5285C11.1101 16.6865 11.7967 16.0002 12.6384 16.0002ZM16.0031 21.8961C17.0063 21.8961 18.4142 21.6616 19.0713 21.0045C19.2268 20.849 19.4761 20.849 19.6317 21.0045C19.7841 21.1598 19.7841 21.4091 19.6317 21.5647C18.5872 22.606 16.5896 22.6881 16.0031 22.6881C15.4165 22.6881 13.416 22.606 12.3747 21.5647C12.2191 21.4094 12.2191 21.16 12.3747 21.0045C12.53 20.849 12.7793 20.849 12.9348 21.0045C13.5919 21.6616 14.9969 21.8961 16.0031 21.8961ZM17.8334 17.5285C17.8334 16.6865 18.5198 16.0002 19.3617 16.0002C20.2036 16.0002 20.89 16.6865 20.89 17.5285C20.89 18.3702 20.2034 19.0568 19.3617 19.0568C18.5198 19.0568 17.8334 18.3702 17.8334 17.5285Z" fill="white"/>
</svg>
