<svg width="32" height="32" viewBox="0 0 32 32" fill="none" xmlns="http://www.w3.org/2000/svg">
<path d="M16 30.6668C24.1022 30.6668 30.6667 24.1023 30.6667 16.0002C30.6667 7.89805 24.1022 1.3335 16 1.3335C7.89793 1.3335 1.33337 7.89805 1.33337 16.0002C1.33337 24.1023 7.89793 30.6668 16 30.6668ZM8.0446 15.6824L22.1857 10.2301C22.842 9.99294 23.4153 10.3902 23.2026 11.3826L23.2038 11.3814L20.796 22.7248C20.6176 23.5291 20.1397 23.7246 19.4712 23.3457L15.8045 20.6434L14.0359 22.3472C13.8404 22.5427 13.6754 22.7077 13.2965 22.7077L13.5568 18.9763L20.3524 12.8371C20.6482 12.5767 20.2864 12.4301 19.8965 12.6892L11.4986 17.9765L7.87837 16.8472C7.09248 16.5978 7.07537 16.0613 8.0446 15.6824Z" fill="white"/>
</svg>
