<svg width="40" height="40" viewBox="0 0 40 40" fill="none" xmlns="http://www.w3.org/2000/svg">
<path d="M35.0065 4.84839L22 14.3213L24.4052 8.73241L35.0065 4.84839Z" fill="#E2761B"/>
<path d="M4.98035 4.84839L17.8823 14.411L15.5947 8.73241L4.98035 4.84839Z" fill="#E4761B"/>
<path d="M30.3267 26.8066L26.8627 32.011L34.2744 34.0107L36.4052 26.922L30.3267 26.8066Z" fill="#E4761B"/>
<path d="M3.60785 26.922L5.7255 34.0107L13.1373 32.011L9.67321 26.8066L3.60785 26.922Z" fill="#E4761B"/>
<path d="M12.719 18.013L10.6536 21.0766L18.0131 21.3971L17.7517 13.6418L12.719 18.013Z" fill="#E4761B"/>
<path d="M27.268 18.0131L22.1699 13.5522L22 21.3972L29.3464 21.0767L27.268 18.0131Z" fill="#E4761B"/>
<path d="M13.1373 32.0108L17.5556 29.8958L13.7386 26.9731L13.1373 32.0108Z" fill="#E4761B"/>
<path d="M22.4313 29.8958L26.8627 32.0108L26.2483 26.9731L22.4313 29.8958Z" fill="#E4761B"/>
<path d="M26.8627 32.0108L22.4313 29.8958L22.7843 32.7286L22.7451 33.9208L26.8627 32.0108Z" fill="#D7C1B3"/>
<path d="M13.1373 32.0108L17.2549 33.9208L17.2288 32.7286L17.5556 29.8958L13.1373 32.0108Z" fill="#D7C1B3"/>
<path d="M17.3202 25.1018L13.634 24.0378L16.2353 22.8713L17.3202 25.1018Z" fill="#233447"/>
<path d="M22.6667 25.1018L23.7517 22.8713L26.366 24.0378L22.6667 25.1018Z" fill="#233447"/>
<path d="M13.1372 32.011L13.7647 26.8066L9.67316 26.922L13.1372 32.011Z" fill="#CD6116"/>
<path d="M26.2353 26.8066L26.8627 32.011L30.3268 26.922L26.2353 26.8066Z" fill="#CD6116"/>
<path d="M29.3464 21.0767L22 21.3971L22.6797 25.1017L23.7647 22.8713L26.3791 24.0377L29.3464 21.0767Z" fill="#CD6116"/>
<path d="M13.634 24.0377L16.2484 22.8713L17.3203 25.1017L18.0131 21.3971L10.6536 21.0767L13.634 24.0377Z" fill="#CD6116"/>
<path d="M10.6536 21.0767L13.7386 26.9732L13.634 24.0377L10.6536 21.0767Z" fill="#E4751F"/>
<path d="M26.3791 24.0377L26.2484 26.9732L29.3464 21.0767L26.3791 24.0377Z" fill="#E4751F"/>
<path d="M18.0131 21.397L17.3203 25.1015L18.183 29.4727L18.3791 23.7171L18.0131 21.397Z" fill="#E4751F" stroke="#E4751F" stroke-linecap="round" stroke-linejoin="round"/>
<path d="M22 21.397L21.647 23.7043L21.8039 29.4727L22.6797 25.1015L22 21.397Z" fill="#E4751F" stroke="#E4751F" stroke-linecap="round" stroke-linejoin="round"/>
<path d="M22.6797 25.1015L21.8039 29.4727L22.4313 29.8957L26.2483 26.973L26.3791 24.0376L22.6797 25.1015Z" fill="#F6851B"/>
<path d="M13.634 24.0376L13.7385 26.973L17.5555 29.8957L18.183 29.4727L17.3202 25.1015L13.634 24.0376Z" fill="#F6851B"/>
<path d="M22.7451 33.9209L22.7843 32.7288L22.4575 32.4468H17.5294L17.2288 32.7288L17.2549 33.9209L13.1373 32.011L14.5752 33.1647L17.4902 35.1515H22.4967L25.4249 33.1647L26.8628 32.011L22.7451 33.9209Z" fill="#C0AD9E"/>
<path d="M22.4313 29.8959L21.8039 29.4729H18.1829L17.5555 29.8959L17.2287 32.7288L17.5294 32.4468H22.4575L22.7843 32.7288L22.4313 29.8959Z" fill="#161616"/>
<path d="M35.5555 14.9366L36.6666 9.70661L35.0065 4.84839L22.4313 14.0008L27.2679 18.013L34.1045 19.9743L35.6209 18.2438L34.9673 17.7823L36.013 16.8465L35.2026 16.2313L36.2483 15.4493L35.5555 14.9366Z" fill="#763D16"/>
<path d="M3.33331 9.70661L4.44442 14.9366L3.73854 15.4493L4.78429 16.2313L3.98691 16.8465L5.03266 17.7823L4.37906 18.2438L5.88233 19.9743L12.7189 18.013L17.5555 14.0008L4.98037 4.84839L3.33331 9.70661Z" fill="#763D16"/>
<path d="M34.1046 19.9744L27.268 18.0132L29.3464 21.0768L26.2484 26.9733L30.3268 26.9221H36.4052L34.1046 19.9744Z" fill="#F6851B"/>
<path d="M12.719 18.0132L5.88236 19.9744L3.60785 26.9221H9.67321L13.7386 26.9733L10.6536 21.0768L12.719 18.0132Z" fill="#F6851B"/>
<path d="M22 21.3969L22.4314 14.0006L24.4183 8.73218H15.5948L17.5556 14.0006L18.0131 21.3969L18.17 23.7299L18.183 29.4726H21.8039L21.8301 23.7299L22 21.3969Z" fill="#F6851B"/>
</svg>
