<svg width="41" height="41" viewBox="0 0 41 41" fill="none" xmlns="http://www.w3.org/2000/svg">
<path d="M35.5065 5.59082L22.5 15.0637L24.9052 9.47484L35.5065 5.59082Z" fill="#E2761B"/>
<path d="M5.48047 5.59082L18.3824 15.1535L16.0948 9.47484L5.48047 5.59082Z" fill="#E4761B"/>
<path d="M30.8264 27.5488L27.3623 32.7532L34.7741 34.7528L36.9048 27.6642L30.8264 27.5488Z" fill="#E4761B"/>
<path d="M4.10742 27.6642L6.22507 34.7528L13.6368 32.7532L10.1728 27.5488L4.10742 27.6642Z" fill="#E4761B"/>
<path d="M13.2187 18.7559L11.1533 21.8195L18.5128 22.14L18.2514 14.3848L13.2187 18.7559Z" fill="#E4761B"/>
<path d="M27.768 18.7558L22.6699 14.2949L22.5 22.1399L29.8464 21.8194L27.768 18.7558Z" fill="#E4761B"/>
<path d="M13.6367 32.7535L18.055 30.6384L14.238 27.7158L13.6367 32.7535Z" fill="#E4761B"/>
<path d="M22.9307 30.6384L27.362 32.7535L26.7477 27.7158L22.9307 30.6384Z" fill="#E4761B"/>
<path d="M27.362 32.7528L22.9307 30.6377L23.2836 33.4706L23.2444 34.6627L27.362 32.7528Z" fill="#D7C1B3"/>
<path d="M13.6367 32.7528L17.7544 34.6627L17.7282 33.4706L18.055 30.6377L13.6367 32.7528Z" fill="#D7C1B3"/>
<path d="M17.8201 25.8437L14.1338 24.7798L16.7351 23.6133L17.8201 25.8437Z" fill="#233447"/>
<path d="M23.166 25.8437L24.251 23.6133L26.8654 24.7798L23.166 25.8437Z" fill="#233447"/>
<path d="M13.6369 32.7532L14.2644 27.5488L10.1729 27.6642L13.6369 32.7532Z" fill="#CD6116"/>
<path d="M26.7354 27.5488L27.3628 32.7532L30.8269 27.6642L26.7354 27.5488Z" fill="#CD6116"/>
<path d="M29.8464 21.8193L22.5 22.1398L23.1797 25.8444L24.2647 23.6139L26.8791 24.7804L29.8464 21.8193Z" fill="#CD6116"/>
<path d="M14.1337 24.7804L16.7481 23.6139L17.82 25.8444L18.5128 22.1398L11.1533 21.8193L14.1337 24.7804Z" fill="#CD6116"/>
<path d="M11.1533 21.8193L14.2383 27.7159L14.1337 24.7804L11.1533 21.8193Z" fill="#E4751F"/>
<path d="M26.8788 24.7804L26.748 27.7159L29.8461 21.8193L26.8788 24.7804Z" fill="#E4751F"/>
<path d="M18.5131 22.1396L17.8203 25.8442L18.6831 30.2153L18.8791 24.4598L18.5131 22.1396Z" fill="#E4751F" stroke="#E4751F" stroke-linecap="round" stroke-linejoin="round"/>
<path d="M22.4994 22.1396L22.1465 24.447L22.3033 30.2153L23.1792 25.8442L22.4994 22.1396Z" fill="#E4751F" stroke="#E4751F" stroke-linecap="round" stroke-linejoin="round"/>
<path d="M23.1795 25.8442L22.3037 30.2153L22.9312 30.6383L26.7482 27.7157L26.8789 24.7803L23.1795 25.8442Z" fill="#F6851B"/>
<path d="M14.1338 24.7803L14.2384 27.7157L18.0554 30.6383L18.6828 30.2153L17.8201 25.8442L14.1338 24.7803Z" fill="#F6851B"/>
<path d="M23.2446 34.6629L23.2838 33.4708L22.957 33.1888H18.0289L17.7282 33.4708L17.7544 34.6629L13.6367 32.7529L15.0746 33.9066L17.9897 35.8935H22.9962L25.9243 33.9066L27.3622 32.7529L23.2446 34.6629Z" fill="#C0AD9E"/>
<path d="M22.9311 30.6388L22.3037 30.2158H18.6828L18.0553 30.6388L17.7285 33.4717L18.0292 33.1897H22.9573L23.2841 33.4717L22.9311 30.6388Z" fill="#161616"/>
<path d="M36.0548 15.679L37.166 10.449L35.5058 5.59082L22.9307 14.7433L27.7673 18.7555L34.6039 20.7167L36.1202 18.9862L35.4666 18.5247L36.5124 17.589L35.7019 16.9737L36.7477 16.1918L36.0548 15.679Z" fill="#763D16"/>
<path d="M3.83301 10.449L4.94412 15.679L4.23824 16.1918L5.28399 16.9737L4.4866 17.589L5.53235 18.5247L4.87876 18.9862L6.38203 20.7167L13.2186 18.7555L18.0552 14.7433L5.48007 5.59082L3.83301 10.449Z" fill="#763D16"/>
<path d="M34.6043 20.7171L27.7677 18.7559L29.8461 21.8195L26.748 27.716L30.8265 27.6647H36.9049L34.6043 20.7171Z" fill="#F6851B"/>
<path d="M13.2185 18.7559L6.38193 20.7171L4.10742 27.6647H10.1728L14.2381 27.716L11.1532 21.8195L13.2185 18.7559Z" fill="#F6851B"/>
<path d="M22.5 22.1393L22.9313 14.743L24.9183 9.47461H16.0947L18.0555 14.743L18.513 22.1393L18.6699 24.4723L18.683 30.215H22.3039L22.33 24.4723L22.5 22.1393Z" fill="#F6851B"/>
</svg>
