<svg width="59" height="60" viewBox="0 0 59 60" fill="none" xmlns="http://www.w3.org/2000/svg">
<path d="M14.3474 27.7949L1.63086 34.2272L14.3474 41.4021L26.866 34.2272L14.3474 27.7949Z" fill="#42E8E0"/>
<path d="M15.9922 59.0081V44.4104L27.9718 37.5127V51.9781L15.9922 59.0081Z" fill="#42E8E0"/>
<path d="M12.5142 44.3393L0.503906 37.54L0.504109 51.8695L12.5142 58.8912V44.3393Z" fill="#42E8E0"/>
<path d="M29.2204 0.581055L16.5039 7.01335L29.2204 14.1882L41.7391 7.01335L29.2204 0.581055Z" fill="#42E8E0"/>
<path d="M30.8652 31.7942V17.1965L42.8449 10.2988V24.7642L30.8652 31.7942Z" fill="#42E8E0"/>
<path d="M27.3853 17.1254L15.375 10.3262L15.3752 24.6556L27.3853 31.6773V17.1254Z" fill="#42E8E0"/>
<path d="M44.8747 27.7949L32.1582 34.2272L44.8747 41.4021L57.3934 34.2272L44.8747 27.7949Z" fill="#42E8E0"/>
<path d="M46.5176 59.0081V44.4104L58.4972 37.5127V51.9781L46.5176 59.0081Z" fill="#42E8E0"/>
<path d="M43.0376 44.3383L31.0273 37.5391L31.0275 51.8685L43.0376 58.8902V44.3383Z" fill="#42E8E0"/>
</svg>
