<svg width="74" height="82" viewBox="0 0 74 82" fill="none" xmlns="http://www.w3.org/2000/svg">
<g filter="url(#filter0_ddddiii_2165_101627)">
<g filter="url(#filter1_biii_2165_101627)">
<path d="M50.3291 9.08301C50.3291 8.03021 49.4756 7.17676 48.4229 7.17676H14.1104C13.0576 7.17676 12.2041 8.03022 12.2041 9.08301V57.2158C12.2041 58.2686 13.0576 59.1221 14.1104 59.1221H48.4229C49.4756 59.1221 50.3291 58.2686 50.3291 57.2158V9.08301Z" fill="url(#paint0_linear_2165_101627)"/>
</g>
</g>
<g filter="url(#filter2_ddddiii_2165_101627)">
<mask id="mask0_2165_101627" style="mask-type:alpha" maskUnits="userSpaceOnUse" x="18" y="1" width="39" height="53">
<path d="M56.749 3.8125C56.749 2.75971 55.8956 1.90625 54.8428 1.90625H33.874L18.624 24.7812V51.9453C18.624 52.9981 19.4775 53.8516 20.5303 53.8516H54.8428C55.8956 53.8516 56.749 52.9981 56.749 51.9453V3.8125Z" fill="white"/>
</mask>
<g mask="url(#mask0_2165_101627)">
<g clip-path="url(#clip0_2165_101627)">
<rect width="181.332" height="181.332" transform="translate(-51.9072 -43.1289)" fill="#35FFFF"/>
<path d="M-26.0775 -7.26758C-30.1045 -11.2945 -37.2529 -12.4859 -49.2861 -9.3168C-37.0861 -13.5105 -30.033 -12.2477 -26.0775 -7.26758ZM129.425 72.2469V73.4621C119.87 72.1754 111.029 67.4812 101.808 63.4543C119.536 73.1047 124.707 78.2754 129.425 78.5137V101.436C96.8518 113.207 51.2924 91.3332 70.9029 82.3024C79.3857 78.3945 117.535 92.048 102.022 72.1992C104.644 76.9648 105.12 81.9688 96.1131 80.5391C99.1631 80.0387 102.737 78.8711 100.092 74.868C97.4475 70.8648 100.212 81.4445 81.5303 76.0117C66.7568 71.7227 45.3115 83.3984 59.3701 69.3398C28.8701 91.5 89.8701 117.973 125.04 107.989C120.823 109.109 114.103 109.466 106.502 108.99C114.413 108.871 122.086 107.131 129.401 104.153V111.444C102.904 128.815 78.1943 132.818 33.2783 115.566C71.9752 139.633 27.2498 128.362 26.249 128.076C29.7994 129.053 47.4561 131.555 45.7881 128.457C44.1201 125.36 30.9193 126.384 20.7686 122.405C24.9623 121.976 32.3728 124.764 23.1514 116.805C41.0939 131.627 27.1783 115.495 17.3373 108.227C15.9553 107.084 14.6447 105.868 13.3818 104.582C14.6686 105.63 15.7408 105.868 16.4557 105.034C13.8107 100.459 11.4994 96.1465 9.47403 92.0719C10.0459 92.8344 10.6416 93.6207 11.285 94.3832C-25.7678 17.8949 67.2334 -12.2953 71.4033 -38.7684C71.0697 -37.7199 70.5455 -36.6715 69.8068 -35.6469C70.9506 -38.6969 71.5701 -40.9129 71.2127 -43.1051H77.1697C77.2889 -42.7953 77.4318 -42.4617 77.5271 -42.1281C77.8369 -42.4617 78.099 -42.7953 78.3373 -43.1051H86.3912C86.415 -38.5063 83.0791 -33.0496 73.5479 -26.068C80.8631 -30.7145 87.0107 -36.3617 88.3928 -43.1289H92.3006C82.6502 -33.1211 68.949 -18.2285 60.9666 -15.393C34.4221 -2.93086 17.6947 23.5184 13.7154 49.4672C17.099 38.2203 23.5803 26.6398 32.3967 15.6074C19.4342 33.3117 11.8092 53.7324 13.501 71.2461C14.2635 76.4406 15.6455 81.4207 17.6709 86.0434C24.2475 99.1012 38.5443 108.775 63.0873 111.563C33.2307 95.1934 31.1338 53.9945 69.6162 49.2766C81.8877 47.2512 93.3728 50.7777 104.667 54.7332C90.1799 51.0875 70.4502 45.1066 58.8459 54.8047C71.5463 53.3035 84.6518 54.7094 96.8756 58.8078C83.3174 56.0914 64.8982 49.2527 54.1518 61.548C56.9873 59.8086 60.7998 56.4727 68.4248 56.4727C57.2256 58.6172 57.9404 61.7148 68.6154 61.0477C50.1963 62.2391 32.2061 76.25 49.815 95.4555C67.424 114.661 85.3428 114.804 79.1713 118.831C68.1865 126.051 33.04 110.086 22.0553 94.3117C21.6979 93.9305 21.3643 93.5492 21.0068 93.168C35.3514 115.066 73.6908 130.697 96.4467 119.57C106.073 114.852 21.96 94.3594 51.6736 67.8148C59.7037 60.6426 80.6725 60.5711 91.2998 69.7687C84.3896 65.2891 59.6084 62.8109 67.2334 69.8164C72.9521 75.0586 98.3529 78.1324 94.4213 71.127C92.1576 68.1484 89.2506 65.8848 85.9861 64.2406C86.0338 64.2645 86.0814 64.2645 86.1291 64.2883C58.4646 48.7047 89.7748 57.7117 118.607 69.6496C122.348 71.5797 125.97 72.3422 129.425 72.2469ZM22.9607 95.241C22.9607 95.241 33.2783 107.25 50.3154 113.184C63.7068 117.83 75.5018 117.02 75.5732 116.52C75.6447 115.971 61.4193 116.067 44.5967 108.656C30.8002 102.58 22.9607 95.241 22.9607 95.241ZM57.3447 -15.8695C62.1104 -19.1102 66.876 -22.327 71.6416 -25.5676C67.6623 -23.9711 60.2756 -18.9672 57.3447 -15.8695ZM12.667 75.0586C12.4764 72.6758 11.0705 65.027 11.2611 62.5488C9.59317 37.9344 20.8162 10.8656 45.5975 -6.14766C14.9545 12.891 4.32715 40.2695 12.667 75.0586ZM9.8791 36.3379C12.9768 30.1902 16.2174 23.7328 19.5057 17.2039C16.2174 21.1117 9.66465 34.0742 9.8791 36.3379ZM42.4045 116.138C28.0361 109.228 14.9307 98.6246 8.16348 83.875C11.0705 96.4801 30.2045 115.4 42.4045 116.138ZM103.119 69.8641C105.072 72.7711 106.312 73.8672 109.147 78.9664C119.226 97.0996 63.4924 74.9395 69.5209 90.118C73.1904 99.3633 98.9248 103.891 106.55 103.891C85.5811 100.078 71.6654 94.55 73.1189 88.45C75.335 79.3477 141.101 111.039 103.119 69.8641ZM-3.77441 64.0977C-3.91738 59.8324 -4.32246 50.7063 -3.53613 46.4648C-4.87051 49.8961 -4.32246 59.2129 -3.77441 64.0977ZM13.3818 104.558C12.4764 103.652 11.6186 102.723 10.7846 101.746C11.7139 102.961 12.5955 103.914 13.3818 104.558ZM10.7846 101.77C5.16113 94.407 -1.9873 81.2063 -3.53613 67.6719C-3.10723 81.4207 1.75371 91.3094 10.7846 101.77ZM48.8143 -39.7691C50.0295 -37.7676 50.5775 -35.5754 50.792 -33.4785C50.8635 -35.8137 50.2916 -37.982 48.8143 -39.7691ZM45.8357 -43.1289H43.4291C45.8834 -42.3187 47.6229 -41.175 48.7904 -39.7691C48.0756 -40.9605 47.1225 -42.1043 45.8357 -43.1289ZM7.4248 88.8789C1.94434 77.775 1.13418 73.6051 -0.438477 65.2891C-0.128712 75.1539 0.75293 78.6328 7.4248 88.8789ZM0.0380859 109.609C8.61621 119.379 29.1084 125.098 18.1475 113.66C21.2451 121.523 6.70996 115.566 0.0380859 109.609ZM32.7303 -36.4809C32.6111 -38.7922 32.0869 -41.0082 31.0861 -43.1289H25.9154C27.4643 -42.4617 28.9178 -41.6039 30.276 -40.484C27.8932 -41.3656 25.5104 -42.2234 23.0322 -43.1289H20.4826C26.392 -41.6754 31.1576 -39.4594 32.7303 -36.4809ZM129.425 -43.1289V-33.7645C113.555 -40.3172 100.116 -34.8367 92.4912 -28.3555C84.8662 -21.8742 74.1912 -20.6352 65.8752 -15.5836C74.6439 -21.7551 86.7725 -24.3047 94.0162 -31.6914C101.26 -39.0781 98.5197 -40.1504 99.9733 -43.1289H129.425ZM117.415 -40.0789C112.292 -40.0074 107.908 -38.0059 103.619 -35.6707C108.146 -37.3625 112.769 -38.8398 117.415 -40.0789ZM105.335 106.607C99.7111 106.25 93.6111 105.439 87.7018 104.153C93.6588 105.94 99.5443 106.702 105.335 106.607ZM88.8932 106.559C85.4619 105.535 82.0307 104.2 78.5518 102.485C43.4053 82.9219 74.1435 77.918 88.9408 80.4199C80.1006 76.7266 54.1279 72.1754 61.4908 90.952C59.8705 88.9266 56.5107 86.0195 57.2256 80.5391C52.46 93.6445 73.0713 103.104 88.8932 106.559ZM61.7529 -12.3906C48.9334 -4.59883 41.4514 3.24062 32.4205 15.5836C41.4514 4.28906 48.7666 -3.24062 61.7529 -12.3906ZM129.425 64.0977V62.0961C125.946 61.5242 115.485 58.4742 112.03 57.4258C116.82 59.3082 128.329 63.3828 129.425 64.0977ZM34.8986 -43.1289H43.167C59.4178 -34.5031 38.0916 -20.0395 34.5412 -10.0316C40.7127 -13.1055 50.4584 -24.5906 50.792 -33.4547C51.7689 -23.5422 45.2162 -15.2262 65.2557 -33.3117C68.6869 -35.5754 69.3303 -39.2687 68.0197 -43.1289H69.235C71.3795 -22.6129 30.1092 -12.1762 25.9631 -2.07305C36.09 -4.31289 19.2197 3.38359 21.7217 4.98008C32.5396 -2.1207 40.9033 -12.2715 51.9357 -19.0625C26.2014 -1.04844 -1.86816 31.5008 -0.843555 63.1922C-8.34941 23.6375 41.4275 -19.2055 38.9256 -34.9797C37.6865 -42.6523 36.0424 -41.1035 34.8986 -43.1289ZM30.0615 -10.3414C28.6795 -10.6988 26.1061 -8.29219 26.0584 -5.74258C27.5834 -7.48203 28.8225 -8.91172 30.0615 -10.3414ZM43.3814 -33.8836C43.0717 -34.8367 42.7857 -35.6945 42.4283 -36.8145C41.2607 -34.7891 41.5467 -33.8836 43.3814 -33.8836ZM45.9549 -32.8828C45.24 -34.098 45.4783 -36.8859 44.1439 -36.3855C44.6682 -35.3133 42.8811 -33.4785 45.9549 -32.8828ZM37.6389 -42.4855C39.9502 -34.6461 41.0939 -42.5332 46.2646 -37.3387C45.7881 -40.2219 41.7611 -42.8668 37.6389 -42.4855ZM-14.2588 99.6016C-8.03965 111.563 -3.94121 118.783 14.5732 122.953C3.27871 118.021 -5.49004 111.682 -14.2588 99.6016ZM-51.9072 101.103V103.128C-41.2084 114.947 -29.9615 128.577 -17.5471 134.009C-15.2119 135.487 -12.8529 136.893 -10.4701 138.203H-7.08652C-15.4502 134.176 -22.9799 129.339 -29.2943 123.739C-36.8002 118.688 -44.2584 109.562 -51.9072 101.103ZM-51.9072 -12.1762V-13.9871C4.32715 -36.457 -16.165 27.8789 -18.7861 43.8199C-21.4072 59.7609 -15.2119 90.5469 -10.208 83.0887C-5.2041 75.6305 -22.5986 65.2891 10.8322 0.548046C-3.75059 21.0879 -12.8291 57.1875 -16.5701 57.2828C-20.3111 57.3781 -18.3096 45.0352 -16.165 40.2695C-18.7861 87.6875 20.6256 -49.7531 -49.7627 -19.7535C-50.3346 -19.4438 -51.0494 -19.134 -51.9072 -18.8004V-24.5906C-31.1291 -35.3609 -19.0244 -41.8422 -1.74902 -41.8422C15.5264 -41.8422 29.2275 -38.1965 32.6111 -33.0734C29.2037 -1.59648 -37.5627 46.3457 7.82988 104.677C17.4564 115.328 12.9053 116.043 2.65918 108.18C-7.58691 100.316 -18.4764 81.9449 -22.7654 59.7133C-22.4557 72.9379 -20.6209 86.0195 -14.926 96.9328C-20.9545 88.6406 -23.5518 81.7305 -25.1482 66.0516C-26.7447 50.3727 -21.9314 27.6168 -21.4549 9.93633C-20.6924 15.4883 -20.7162 18.9434 -20.9307 23.8281C-10.065 -13.582 -31.2006 -20.0395 -51.9072 -12.1762ZM-26.435 -33.9074C-30.2236 -33.1687 -37.7057 -30.643 -40.5174 -28.3555C-35.8232 -30.2141 -31.1291 -32.0488 -26.435 -33.9074ZM22.7701 -34.2887C26.2729 -30.9527 25.1768 -25.3531 23.2228 -20.7305C23.485 -21.1117 23.7709 -21.5168 24.0807 -21.9219C27.3213 -26.5922 26.249 -31.3816 22.7701 -34.2887ZM22.5318 -31.334C22.8178 -27.4262 22.3889 -23.9949 21.126 -20.0633C24.3666 -24.8766 24.867 -28.8797 22.5318 -31.334ZM0.10957 -37.9344C3.89824 -37.9344 7.66309 -37.9344 11.4518 -37.9344C8.23496 -38.2441 3.37402 -38.2441 0.10957 -37.9344ZM21.674 -30.3094C17.933 -39.1496 2.87363 -37.4816 -5.2041 -36.2188C3.65996 -36.2426 15.6217 -38.3395 21.674 -30.3094ZM20.292 -20.4684C17.7186 -15.1309 12.4287 -12.057 9.37872 -7.14844C12.667 -7.33906 19.9346 -16.775 20.292 -20.4684ZM123.539 19.9441C118.774 14.8211 118.535 13.8918 121.037 10.5559C116.129 12.9863 120.251 18.0379 123.539 19.9441ZM112.936 -35.1465C118.416 -35.4324 123.968 -33.9551 129.425 -32.6922V-32.9066C124.063 -35.0035 118.75 -37.148 112.936 -35.1465ZM129.425 54.0422V51.1828C123.396 49.348 117.511 47.7039 111.578 47.0129C117.201 48.8238 123.325 52.9461 129.425 54.0422ZM-51.9072 110.968C-42.376 120.451 -32.7971 129.982 -22.6225 138.203H-17.7615C-29.7232 127.957 -40.7318 115.4 -51.9072 105.964V110.968ZM-51.9072 112.683V123.93C-45.0447 127.337 -37.515 132.055 -29.2943 138.203H-25.601C-34.7033 132.413 -43.3291 122.071 -51.9072 112.683ZM129.425 22.5176V8.57812C127.9 9.45977 126.256 10.3176 124.492 11.1516C122.967 15.5359 125.398 19.6582 129.425 22.5176ZM117.558 10.532C112.054 13.2246 116.081 15.9648 118.678 18.8719C116.415 14.4398 113.913 13.9871 117.558 10.532ZM103.595 -22.0887C115.843 -25.4961 121.538 -22.2316 129.425 -18.1809V-18.7527C121.323 -22.7082 117.272 -26.9258 103.595 -22.0887ZM129.425 -0.285938V-0.309765C129.329 -0.262112 129.234 -0.214451 129.139 -0.166798C129.234 -0.214451 129.329 -0.262108 129.425 -0.285938ZM127.852 138.203C128.376 137.917 128.901 137.655 129.425 137.369V136.059C128.376 136.797 127.304 137.488 126.232 138.203H127.852ZM-51.5975 -43.1289C-51.6689 -43.1051 -51.7404 -43.0812 -51.7881 -43.0574C-51.7166 -43.0812 -51.6451 -43.1051 -51.5736 -43.1289H-51.5975ZM-51.9072 -43.0336C-51.8596 -43.0336 -51.8357 -43.0574 -51.7881 -43.0574C-51.8357 -43.0574 -51.8596 -43.0336 -51.9072 -43.0336ZM-43.9963 -43.1289C-46.951 -41.9613 -49.5959 -41.032 -51.9072 -40.3172V-32.6445C-41.7564 -36.743 -31.3197 -40.2219 -21.3119 -43.1289H-43.9963ZM21.0783 138.203H25.0814C19.458 136.154 4.47012 127.743 2.5877 126.694C9.66465 131.722 16.1459 135.654 21.0783 138.203ZM-51.9072 -1.00078V-5.05156C-0.557617 -18.157 -49.7627 74.9871 -10.2557 116.829C-46.665 93.8828 -31.1768 44.3203 -34.7271 10.4605C-35.8947 -0.714844 -43.3291 -1.85859 -51.9072 -1.00078ZM-38.3252 -2.38281C-26.1729 10.9609 -34.1553 38.8398 -33.4166 58.8793C-33.4881 44.5109 -18.0713 2.14453 -38.3252 -2.38281ZM90.0131 138.203C102.999 134.82 115.295 129.434 125.851 121.929C127.066 120.737 128.257 119.57 129.401 118.45V113.922C112.602 124.359 95.2314 133.223 78.0275 138.203H90.0131ZM-8.89746 118.188C-6.10957 120.904 -2.77363 123.311 1.22949 125.336L-8.89746 118.188ZM97.4951 51.2305C83.3174 41.318 118.654 60.023 129.425 61.2621V57.0922C112.221 52.2551 67.8291 38.4586 97.4951 51.2305ZM-33.4404 93.9543C-30.4619 101.27 -27.3643 112.707 -8.54004 122.715C-23.0752 110.801 -28.0791 103.176 -33.4404 93.9543ZM-46.1885 66.957C-45.4736 76.9648 -40.1123 83.7082 -35.2275 89.5938C-47.3322 53.5656 -23.1705 1.47734 -51.9072 0.929295V4.12226C-49.5959 3.78867 -49.2861 1.19141 -44.8779 3.35977C-33.7264 9.50742 -37.7533 28.284 -40.4221 37.434C-41.0416 28.832 -36.3713 16.4652 -44.5205 10.5797C-52.3838 8.03008 -43.067 20.516 -44.592 24.3523C-46.26 19.2293 -48.7857 15.8934 -51.9072 13.9395V19.8965C-43.0908 28.2602 -45.1877 51.5879 -44.8779 61.5957C-48.4521 54.4711 -49.858 46.2742 -51.9072 38.4586V76.1547C-46.665 85.6621 -42.3045 95.8844 -39.04 103.629C-43.4244 98.1242 -47.5943 91.4047 -51.9072 84.8043V96.4563C-40.8271 107.084 -29.5564 121.047 -17.3326 130.316C-23.5518 126.575 -29.485 122.286 -35.0607 117.449C-27.4357 124.55 -18.9768 130.435 -9.96973 135.201C-8.70684 135.916 -7.44395 136.559 -6.15723 137.131C-5.41856 137.488 -4.70371 137.822 -3.96504 138.179H19.4103C-30.2236 126.766 -47.8564 80.0625 -46.1885 66.957ZM123.253 138.203C125.35 137.202 127.423 136.13 129.425 134.986V122.286C118.059 129.339 107.098 134.557 96.5658 138.203H123.253ZM110.791 63.9309C117.773 67.6242 123.706 70.5312 129.425 70.4598V64.3836C128.829 64.3598 127.113 63.9309 123.897 62.9539C136.12 74.5582 119.274 68.3152 110.791 63.9309ZM-51.9072 138.203H-36.7525C-41.8518 135.272 -46.951 132.294 -51.9072 129.673V138.203ZM30.7764 38.3156C30.7764 38.2918 30.8002 38.268 30.8002 38.2441C30.8002 38.268 30.8002 38.2918 30.7764 38.3156ZM31.0623 37.7438C30.967 37.9105 30.8955 38.0773 30.8002 38.2441C30.8955 38.0773 30.967 37.9105 31.0623 37.7438ZM31.1576 37.577C31.1338 37.6246 31.11 37.6484 31.0861 37.6961C31.11 37.6484 31.1338 37.6246 31.1576 37.577ZM31.0861 37.6961C31.0861 37.7199 31.0623 37.7199 31.0623 37.7438C31.0623 37.7199 31.0861 37.7199 31.0861 37.6961ZM32.9209 39.0781C18.3857 53.375 25.0576 88.1641 29.6326 76.7742C38.5682 54.5902 59.6084 34.5508 86.0576 45.9883C72.4756 38.125 97.4713 43.0336 112.674 45.6785C95.9463 41.8422 78.5756 36.6238 62.0389 41.7707C67.2096 39.3879 70.2596 38.3871 76.0498 38.3633C62.4916 36.9812 51.2924 40.0312 39.7357 48.8477C28.1791 57.6641 44.835 28.3555 42.4521 26.9258C40.2361 25.5914 34.1123 31.882 31.1576 37.577C34.9939 30.3094 40.3314 31.7867 32.9209 39.0781ZM30.5381 38.8398C30.6096 38.6492 30.7049 38.4824 30.7764 38.3156C30.7049 38.4824 30.6096 38.673 30.5381 38.8398ZM81.0537 38.3633C95.5174 39.8406 104.286 43.7008 118.226 45.2734C104.024 42.2949 94.874 38.268 81.0537 38.3633ZM110.791 63.9309C110.41 63.7402 110.053 63.5258 109.671 63.3352C110.005 63.5496 110.386 63.7402 110.791 63.9309ZM-28.5557 -39.65C-26.3396 -40.4602 -24.1236 -41.2703 -21.9076 -42.0805C-24.5049 -42.9383 -26.5541 -40.8414 -28.5557 -39.65ZM-12.3049 -43.1289H-16.2365C-32.2967 -36.4332 -63.7975 -24.4715 -12.3049 -43.1289ZM51.2447 126.885C62.2057 131.913 51.0541 133.223 44.9779 133.056C54.1041 134.462 64.7314 131.031 51.2447 126.885ZM62.992 129.434C69.926 134.295 60.5854 134.772 56.2486 135.248C61.0619 134.939 74.5486 134.271 62.992 129.434ZM76.026 129.148C91.2998 135.606 75.2873 136.773 66.7568 138.203H69.8783C79.7432 137.107 94.4689 133.723 76.026 129.148ZM129.425 47.7754V46.8699C126.899 46.8461 124.326 46.6793 121.704 46.3934C124.326 46.9176 126.899 47.3941 129.425 47.7754ZM23.8662 91.0234C26.9639 96.2656 32.9209 100.316 35.542 100.793C32.2061 99.125 27.4404 95.3125 23.8662 91.0234ZM51.0303 106.988C20.8162 76.0594 49.6006 47.8945 70.0928 44.3203C56.0342 44.7969 26.7256 66.2422 33.874 86.9727C28.8701 86.4246 23.1514 78.1562 21.5787 69.9355C22.6748 82.207 31.2529 95.3125 51.0303 106.988ZM32.9209 95.5508C23.3896 86.9727 19.1959 74.0102 19.1482 65.432C18.1236 74.3676 20.292 86.0195 32.9209 95.5508ZM129.425 49.2766V48.6332C127.685 48.4664 125.922 48.252 124.135 47.966C126.041 48.3949 127.804 48.8238 129.425 49.2766ZM129.425 -30.8098V-26.068C123.325 -28.2602 122.991 -30.7383 107.598 -28.3316C92.2053 -25.925 49.2432 -3.78867 39.9025 13.3199C55.5576 -5.71875 117.797 -36.4094 129.425 -14.1301V-3.07383C113.722 7.12461 66.2326 11.4137 71.3318 20.3492C73.5955 23.2562 80.5771 26.2348 87.249 21.7074C74.1436 18.848 97.6143 10.3176 101.188 8.81641C71.9752 22.0887 97.0186 19.8012 109.933 21.3262C122.848 22.8512 123.968 25.6867 129.425 27.7359V28.3316C117.725 25.1625 115.843 21.493 93.4443 22.327C118.702 23.852 107.026 31.9535 129.425 32.5016V43.1766C105.358 43.391 98.4482 36.4332 80.5295 36.4332C62.6107 36.4332 51.8881 37.8629 44.6682 42.2473C31.9678 50.5156 50.3154 23.8281 52.0311 19.8727C63.2065 -4.55117 22.5318 36.0996 19.1482 65.432C19.0291 40.341 41.2607 8.81641 66.9951 7.38672C75.0967 6.91016 26.0107 46.4648 50.5537 39.0781C30.5381 37.8867 97.4951 2.38281 77.265 2.7164C42.7381 3.28828 27.0115 29.7375 17.3611 53.518C14.0014 15.6551 91.2998 -37.3625 129.425 -30.8098ZM88.0354 23.3516C90.2275 24.7336 94.8025 24.1379 98.2814 24.4477C94.874 23.852 91.5143 22.5176 88.0354 23.3516ZM68.3057 35.3133C60.7283 34.8129 44.5967 39.793 56.749 28.3555C41.9756 40.7461 59.799 36.2426 68.3057 35.3133Z" fill="#42E8E0"/>
<path d="M-26.0775 -7.26758C-30.1045 -11.2945 -37.2529 -12.4859 -49.2861 -9.3168C-37.0861 -13.5105 -30.033 -12.2477 -26.0775 -7.26758ZM129.425 72.2469V73.4621C119.87 72.1754 111.029 67.4812 101.808 63.4543C119.536 73.1047 124.707 78.2754 129.425 78.5137V101.436C96.8518 113.207 51.2924 91.3332 70.9029 82.3024C79.3857 78.3945 117.535 92.048 102.022 72.1992C104.644 76.9648 105.12 81.9688 96.1131 80.5391C99.1631 80.0387 102.737 78.8711 100.092 74.868C97.4475 70.8648 100.212 81.4445 81.5303 76.0117C66.7568 71.7227 45.3115 83.3984 59.3701 69.3398C28.8701 91.5 89.8701 117.973 125.04 107.989C120.823 109.109 114.103 109.466 106.502 108.99C114.413 108.871 122.086 107.131 129.401 104.153V111.444C102.904 128.815 78.1943 132.818 33.2783 115.566C71.9752 139.633 27.2498 128.362 26.249 128.076C29.7994 129.053 47.4561 131.555 45.7881 128.457C44.1201 125.36 30.9193 126.384 20.7686 122.405C24.9623 121.976 32.3728 124.764 23.1514 116.805C41.0939 131.627 27.1783 115.495 17.3373 108.227C15.9553 107.084 14.6447 105.868 13.3818 104.582C14.6686 105.63 15.7408 105.868 16.4557 105.034C13.8107 100.459 11.4994 96.1465 9.47403 92.0719C10.0459 92.8344 10.6416 93.6207 11.285 94.3832C-25.7678 17.8949 67.2334 -12.2953 71.4033 -38.7684C71.0697 -37.7199 70.5455 -36.6715 69.8068 -35.6469C70.9506 -38.6969 71.5701 -40.9129 71.2127 -43.1051H77.1697C77.2889 -42.7953 77.4318 -42.4617 77.5271 -42.1281C77.8369 -42.4617 78.099 -42.7953 78.3373 -43.1051H86.3912C86.415 -38.5063 83.0791 -33.0496 73.5479 -26.068C80.8631 -30.7145 87.0107 -36.3617 88.3928 -43.1289H92.3006C82.6502 -33.1211 68.949 -18.2285 60.9666 -15.393C34.4221 -2.93086 17.6947 23.5184 13.7154 49.4672C17.099 38.2203 23.5803 26.6398 32.3967 15.6074C19.4342 33.3117 11.8092 53.7324 13.501 71.2461C14.2635 76.4406 15.6455 81.4207 17.6709 86.0434C24.2475 99.1012 38.5443 108.775 63.0873 111.563C33.2307 95.1934 31.1338 53.9945 69.6162 49.2766C81.8877 47.2512 93.3728 50.7777 104.667 54.7332C90.1799 51.0875 70.4502 45.1066 58.8459 54.8047C71.5463 53.3035 84.6518 54.7094 96.8756 58.8078C83.3174 56.0914 64.8982 49.2527 54.1518 61.548C56.9873 59.8086 60.7998 56.4727 68.4248 56.4727C57.2256 58.6172 57.9404 61.7148 68.6154 61.0477C50.1963 62.2391 32.2061 76.25 49.815 95.4555C67.424 114.661 85.3428 114.804 79.1713 118.831C68.1865 126.051 33.04 110.086 22.0553 94.3117C21.6979 93.9305 21.3643 93.5492 21.0068 93.168C35.3514 115.066 73.6908 130.697 96.4467 119.57C106.073 114.852 21.96 94.3594 51.6736 67.8148C59.7037 60.6426 80.6725 60.5711 91.2998 69.7687C84.3896 65.2891 59.6084 62.8109 67.2334 69.8164C72.9521 75.0586 98.3529 78.1324 94.4213 71.127C92.1576 68.1484 89.2506 65.8848 85.9861 64.2406C86.0338 64.2645 86.0814 64.2645 86.1291 64.2883C58.4646 48.7047 89.7748 57.7117 118.607 69.6496C122.348 71.5797 125.97 72.3422 129.425 72.2469ZM22.9607 95.241C22.9607 95.241 33.2783 107.25 50.3154 113.184C63.7068 117.83 75.5018 117.02 75.5732 116.52C75.6447 115.971 61.4193 116.067 44.5967 108.656C30.8002 102.58 22.9607 95.241 22.9607 95.241ZM57.3447 -15.8695C62.1104 -19.1102 66.876 -22.327 71.6416 -25.5676C67.6623 -23.9711 60.2756 -18.9672 57.3447 -15.8695ZM12.667 75.0586C12.4764 72.6758 11.0705 65.027 11.2611 62.5488C9.59317 37.9344 20.8162 10.8656 45.5975 -6.14766C14.9545 12.891 4.32715 40.2695 12.667 75.0586ZM9.8791 36.3379C12.9768 30.1902 16.2174 23.7328 19.5057 17.2039C16.2174 21.1117 9.66465 34.0742 9.8791 36.3379ZM42.4045 116.138C28.0361 109.228 14.9307 98.6246 8.16348 83.875C11.0705 96.4801 30.2045 115.4 42.4045 116.138ZM103.119 69.8641C105.072 72.7711 106.312 73.8672 109.147 78.9664C119.226 97.0996 63.4924 74.9395 69.5209 90.118C73.1904 99.3633 98.9248 103.891 106.55 103.891C85.5811 100.078 71.6654 94.55 73.1189 88.45C75.335 79.3477 141.101 111.039 103.119 69.8641ZM-3.77441 64.0977C-3.91738 59.8324 -4.32246 50.7063 -3.53613 46.4648C-4.87051 49.8961 -4.32246 59.2129 -3.77441 64.0977ZM13.3818 104.558C12.4764 103.652 11.6186 102.723 10.7846 101.746C11.7139 102.961 12.5955 103.914 13.3818 104.558ZM10.7846 101.77C5.16113 94.407 -1.9873 81.2063 -3.53613 67.6719C-3.10723 81.4207 1.75371 91.3094 10.7846 101.77ZM48.8143 -39.7691C50.0295 -37.7676 50.5775 -35.5754 50.792 -33.4785C50.8635 -35.8137 50.2916 -37.982 48.8143 -39.7691ZM45.8357 -43.1289H43.4291C45.8834 -42.3187 47.6229 -41.175 48.7904 -39.7691C48.0756 -40.9605 47.1225 -42.1043 45.8357 -43.1289ZM7.4248 88.8789C1.94434 77.775 1.13418 73.6051 -0.438477 65.2891C-0.128712 75.1539 0.75293 78.6328 7.4248 88.8789ZM0.0380859 109.609C8.61621 119.379 29.1084 125.098 18.1475 113.66C21.2451 121.523 6.70996 115.566 0.0380859 109.609ZM32.7303 -36.4809C32.6111 -38.7922 32.0869 -41.0082 31.0861 -43.1289H25.9154C27.4643 -42.4617 28.9178 -41.6039 30.276 -40.484C27.8932 -41.3656 25.5104 -42.2234 23.0322 -43.1289H20.4826C26.392 -41.6754 31.1576 -39.4594 32.7303 -36.4809ZM129.425 -43.1289V-33.7645C113.555 -40.3172 100.116 -34.8367 92.4912 -28.3555C84.8662 -21.8742 74.1912 -20.6352 65.8752 -15.5836C74.6439 -21.7551 86.7725 -24.3047 94.0162 -31.6914C101.26 -39.0781 98.5197 -40.1504 99.9733 -43.1289H129.425ZM117.415 -40.0789C112.292 -40.0074 107.908 -38.0059 103.619 -35.6707C108.146 -37.3625 112.769 -38.8398 117.415 -40.0789ZM105.335 106.607C99.7111 106.25 93.6111 105.439 87.7018 104.153C93.6588 105.94 99.5443 106.702 105.335 106.607ZM88.8932 106.559C85.4619 105.535 82.0307 104.2 78.5518 102.485C43.4053 82.9219 74.1435 77.918 88.9408 80.4199C80.1006 76.7266 54.1279 72.1754 61.4908 90.952C59.8705 88.9266 56.5107 86.0195 57.2256 80.5391C52.46 93.6445 73.0713 103.104 88.8932 106.559ZM61.7529 -12.3906C48.9334 -4.59883 41.4514 3.24062 32.4205 15.5836C41.4514 4.28906 48.7666 -3.24062 61.7529 -12.3906ZM129.425 64.0977V62.0961C125.946 61.5242 115.485 58.4742 112.03 57.4258C116.82 59.3082 128.329 63.3828 129.425 64.0977ZM34.8986 -43.1289H43.167C59.4178 -34.5031 38.0916 -20.0395 34.5412 -10.0316C40.7127 -13.1055 50.4584 -24.5906 50.792 -33.4547C51.7689 -23.5422 45.2162 -15.2262 65.2557 -33.3117C68.6869 -35.5754 69.3303 -39.2687 68.0197 -43.1289H69.235C71.3795 -22.6129 30.1092 -12.1762 25.9631 -2.07305C36.09 -4.31289 19.2197 3.38359 21.7217 4.98008C32.5396 -2.1207 40.9033 -12.2715 51.9357 -19.0625C26.2014 -1.04844 -1.86816 31.5008 -0.843555 63.1922C-8.34941 23.6375 41.4275 -19.2055 38.9256 -34.9797C37.6865 -42.6523 36.0424 -41.1035 34.8986 -43.1289ZM30.0615 -10.3414C28.6795 -10.6988 26.1061 -8.29219 26.0584 -5.74258C27.5834 -7.48203 28.8225 -8.91172 30.0615 -10.3414ZM43.3814 -33.8836C43.0717 -34.8367 42.7857 -35.6945 42.4283 -36.8145C41.2607 -34.7891 41.5467 -33.8836 43.3814 -33.8836ZM45.9549 -32.8828C45.24 -34.098 45.4783 -36.8859 44.1439 -36.3855C44.6682 -35.3133 42.8811 -33.4785 45.9549 -32.8828ZM37.6389 -42.4855C39.9502 -34.6461 41.0939 -42.5332 46.2646 -37.3387C45.7881 -40.2219 41.7611 -42.8668 37.6389 -42.4855ZM-14.2588 99.6016C-8.03965 111.563 -3.94121 118.783 14.5732 122.953C3.27871 118.021 -5.49004 111.682 -14.2588 99.6016ZM-51.9072 101.103V103.128C-41.2084 114.947 -29.9615 128.577 -17.5471 134.009C-15.2119 135.487 -12.8529 136.893 -10.4701 138.203H-7.08652C-15.4502 134.176 -22.9799 129.339 -29.2943 123.739C-36.8002 118.688 -44.2584 109.562 -51.9072 101.103ZM-51.9072 -12.1762V-13.9871C4.32715 -36.457 -16.165 27.8789 -18.7861 43.8199C-21.4072 59.7609 -15.2119 90.5469 -10.208 83.0887C-5.2041 75.6305 -22.5986 65.2891 10.8322 0.548046C-3.75059 21.0879 -12.8291 57.1875 -16.5701 57.2828C-20.3111 57.3781 -18.3096 45.0352 -16.165 40.2695C-18.7861 87.6875 20.6256 -49.7531 -49.7627 -19.7535C-50.3346 -19.4438 -51.0494 -19.134 -51.9072 -18.8004V-24.5906C-31.1291 -35.3609 -19.0244 -41.8422 -1.74902 -41.8422C15.5264 -41.8422 29.2275 -38.1965 32.6111 -33.0734C29.2037 -1.59648 -37.5627 46.3457 7.82988 104.677C17.4564 115.328 12.9053 116.043 2.65918 108.18C-7.58691 100.316 -18.4764 81.9449 -22.7654 59.7133C-22.4557 72.9379 -20.6209 86.0195 -14.926 96.9328C-20.9545 88.6406 -23.5518 81.7305 -25.1482 66.0516C-26.7447 50.3727 -21.9314 27.6168 -21.4549 9.93633C-20.6924 15.4883 -20.7162 18.9434 -20.9307 23.8281C-10.065 -13.582 -31.2006 -20.0395 -51.9072 -12.1762ZM-26.435 -33.9074C-30.2236 -33.1687 -37.7057 -30.643 -40.5174 -28.3555C-35.8232 -30.2141 -31.1291 -32.0488 -26.435 -33.9074ZM22.7701 -34.2887C26.2729 -30.9527 25.1768 -25.3531 23.2228 -20.7305C23.485 -21.1117 23.7709 -21.5168 24.0807 -21.9219C27.3213 -26.5922 26.249 -31.3816 22.7701 -34.2887ZM22.5318 -31.334C22.8178 -27.4262 22.3889 -23.9949 21.126 -20.0633C24.3666 -24.8766 24.867 -28.8797 22.5318 -31.334ZM0.10957 -37.9344C3.89824 -37.9344 7.66309 -37.9344 11.4518 -37.9344C8.23496 -38.2441 3.37402 -38.2441 0.10957 -37.9344ZM21.674 -30.3094C17.933 -39.1496 2.87363 -37.4816 -5.2041 -36.2188C3.65996 -36.2426 15.6217 -38.3395 21.674 -30.3094ZM20.292 -20.4684C17.7186 -15.1309 12.4287 -12.057 9.37872 -7.14844C12.667 -7.33906 19.9346 -16.775 20.292 -20.4684ZM123.539 19.9441C118.774 14.8211 118.535 13.8918 121.037 10.5559C116.129 12.9863 120.251 18.0379 123.539 19.9441ZM112.936 -35.1465C118.416 -35.4324 123.968 -33.9551 129.425 -32.6922V-32.9066C124.063 -35.0035 118.75 -37.148 112.936 -35.1465ZM129.425 54.0422V51.1828C123.396 49.348 117.511 47.7039 111.578 47.0129C117.201 48.8238 123.325 52.9461 129.425 54.0422ZM-51.9072 110.968C-42.376 120.451 -32.7971 129.982 -22.6225 138.203H-17.7615C-29.7232 127.957 -40.7318 115.4 -51.9072 105.964V110.968ZM-51.9072 112.683V123.93C-45.0447 127.337 -37.515 132.055 -29.2943 138.203H-25.601C-34.7033 132.413 -43.3291 122.071 -51.9072 112.683ZM129.425 22.5176V8.57812C127.9 9.45977 126.256 10.3176 124.492 11.1516C122.967 15.5359 125.398 19.6582 129.425 22.5176ZM117.558 10.532C112.054 13.2246 116.081 15.9648 118.678 18.8719C116.415 14.4398 113.913 13.9871 117.558 10.532ZM103.595 -22.0887C115.843 -25.4961 121.538 -22.2316 129.425 -18.1809V-18.7527C121.323 -22.7082 117.272 -26.9258 103.595 -22.0887ZM129.425 -0.285938V-0.309765C129.329 -0.262112 129.234 -0.214451 129.139 -0.166798C129.234 -0.214451 129.329 -0.262108 129.425 -0.285938ZM127.852 138.203C128.376 137.917 128.901 137.655 129.425 137.369V136.059C128.376 136.797 127.304 137.488 126.232 138.203H127.852ZM-51.5975 -43.1289C-51.6689 -43.1051 -51.7404 -43.0812 -51.7881 -43.0574C-51.7166 -43.0812 -51.6451 -43.1051 -51.5736 -43.1289H-51.5975ZM-51.9072 -43.0336C-51.8596 -43.0336 -51.8357 -43.0574 -51.7881 -43.0574C-51.8357 -43.0574 -51.8596 -43.0336 -51.9072 -43.0336ZM-43.9963 -43.1289C-46.951 -41.9613 -49.5959 -41.032 -51.9072 -40.3172V-32.6445C-41.7564 -36.743 -31.3197 -40.2219 -21.3119 -43.1289H-43.9963ZM21.0783 138.203H25.0814C19.458 136.154 4.47012 127.743 2.5877 126.694C9.66465 131.722 16.1459 135.654 21.0783 138.203ZM-51.9072 -1.00078V-5.05156C-0.557617 -18.157 -49.7627 74.9871 -10.2557 116.829C-46.665 93.8828 -31.1768 44.3203 -34.7271 10.4605C-35.8947 -0.714844 -43.3291 -1.85859 -51.9072 -1.00078ZM-38.3252 -2.38281C-26.1729 10.9609 -34.1553 38.8398 -33.4166 58.8793C-33.4881 44.5109 -18.0713 2.14453 -38.3252 -2.38281ZM90.0131 138.203C102.999 134.82 115.295 129.434 125.851 121.929C127.066 120.737 128.257 119.57 129.401 118.45V113.922C112.602 124.359 95.2314 133.223 78.0275 138.203H90.0131ZM-8.89746 118.188C-6.10957 120.904 -2.77363 123.311 1.22949 125.336L-8.89746 118.188ZM97.4951 51.2305C83.3174 41.318 118.654 60.023 129.425 61.2621V57.0922C112.221 52.2551 67.8291 38.4586 97.4951 51.2305ZM-33.4404 93.9543C-30.4619 101.27 -27.3643 112.707 -8.54004 122.715C-23.0752 110.801 -28.0791 103.176 -33.4404 93.9543ZM-46.1885 66.957C-45.4736 76.9648 -40.1123 83.7082 -35.2275 89.5938C-47.3322 53.5656 -23.1705 1.47734 -51.9072 0.929295V4.12226C-49.5959 3.78867 -49.2861 1.19141 -44.8779 3.35977C-33.7264 9.50742 -37.7533 28.284 -40.4221 37.434C-41.0416 28.832 -36.3713 16.4652 -44.5205 10.5797C-52.3838 8.03008 -43.067 20.516 -44.592 24.3523C-46.26 19.2293 -48.7857 15.8934 -51.9072 13.9395V19.8965C-43.0908 28.2602 -45.1877 51.5879 -44.8779 61.5957C-48.4521 54.4711 -49.858 46.2742 -51.9072 38.4586V76.1547C-46.665 85.6621 -42.3045 95.8844 -39.04 103.629C-43.4244 98.1242 -47.5943 91.4047 -51.9072 84.8043V96.4563C-40.8271 107.084 -29.5564 121.047 -17.3326 130.316C-23.5518 126.575 -29.485 122.286 -35.0607 117.449C-27.4357 124.55 -18.9768 130.435 -9.96973 135.201C-8.70684 135.916 -7.44395 136.559 -6.15723 137.131C-5.41856 137.488 -4.70371 137.822 -3.96504 138.179H19.4103C-30.2236 126.766 -47.8564 80.0625 -46.1885 66.957ZM123.253 138.203C125.35 137.202 127.423 136.13 129.425 134.986V122.286C118.059 129.339 107.098 134.557 96.5658 138.203H123.253ZM110.791 63.9309C117.773 67.6242 123.706 70.5312 129.425 70.4598V64.3836C128.829 64.3598 127.113 63.9309 123.897 62.9539C136.12 74.5582 119.274 68.3152 110.791 63.9309ZM-51.9072 138.203H-36.7525C-41.8518 135.272 -46.951 132.294 -51.9072 129.673V138.203ZM30.7764 38.3156C30.7764 38.2918 30.8002 38.268 30.8002 38.2441C30.8002 38.268 30.8002 38.2918 30.7764 38.3156ZM31.0623 37.7438C30.967 37.9105 30.8955 38.0773 30.8002 38.2441C30.8955 38.0773 30.967 37.9105 31.0623 37.7438ZM31.1576 37.577C31.1338 37.6246 31.11 37.6484 31.0861 37.6961C31.11 37.6484 31.1338 37.6246 31.1576 37.577ZM31.0861 37.6961C31.0861 37.7199 31.0623 37.7199 31.0623 37.7438C31.0623 37.7199 31.0861 37.7199 31.0861 37.6961ZM32.9209 39.0781C18.3857 53.375 25.0576 88.1641 29.6326 76.7742C38.5682 54.5902 59.6084 34.5508 86.0576 45.9883C72.4756 38.125 97.4713 43.0336 112.674 45.6785C95.9463 41.8422 78.5756 36.6238 62.0389 41.7707C67.2096 39.3879 70.2596 38.3871 76.0498 38.3633C62.4916 36.9812 51.2924 40.0312 39.7357 48.8477C28.1791 57.6641 44.835 28.3555 42.4521 26.9258C40.2361 25.5914 34.1123 31.882 31.1576 37.577C34.9939 30.3094 40.3314 31.7867 32.9209 39.0781ZM30.5381 38.8398C30.6096 38.6492 30.7049 38.4824 30.7764 38.3156C30.7049 38.4824 30.6096 38.673 30.5381 38.8398ZM81.0537 38.3633C95.5174 39.8406 104.286 43.7008 118.226 45.2734C104.024 42.2949 94.874 38.268 81.0537 38.3633ZM110.791 63.9309C110.41 63.7402 110.053 63.5258 109.671 63.3352C110.005 63.5496 110.386 63.7402 110.791 63.9309ZM-28.5557 -39.65C-26.3396 -40.4602 -24.1236 -41.2703 -21.9076 -42.0805C-24.5049 -42.9383 -26.5541 -40.8414 -28.5557 -39.65ZM-12.3049 -43.1289H-16.2365C-32.2967 -36.4332 -63.7975 -24.4715 -12.3049 -43.1289ZM51.2447 126.885C62.2057 131.913 51.0541 133.223 44.9779 133.056C54.1041 134.462 64.7314 131.031 51.2447 126.885ZM62.992 129.434C69.926 134.295 60.5854 134.772 56.2486 135.248C61.0619 134.939 74.5486 134.271 62.992 129.434ZM76.026 129.148C91.2998 135.606 75.2873 136.773 66.7568 138.203H69.8783C79.7432 137.107 94.4689 133.723 76.026 129.148ZM129.425 47.7754V46.8699C126.899 46.8461 124.326 46.6793 121.704 46.3934C124.326 46.9176 126.899 47.3941 129.425 47.7754ZM23.8662 91.0234C26.9639 96.2656 32.9209 100.316 35.542 100.793C32.2061 99.125 27.4404 95.3125 23.8662 91.0234ZM51.0303 106.988C20.8162 76.0594 49.6006 47.8945 70.0928 44.3203C56.0342 44.7969 26.7256 66.2422 33.874 86.9727C28.8701 86.4246 23.1514 78.1562 21.5787 69.9355C22.6748 82.207 31.2529 95.3125 51.0303 106.988ZM32.9209 95.5508C23.3896 86.9727 19.1959 74.0102 19.1482 65.432C18.1236 74.3676 20.292 86.0195 32.9209 95.5508ZM129.425 49.2766V48.6332C127.685 48.4664 125.922 48.252 124.135 47.966C126.041 48.3949 127.804 48.8238 129.425 49.2766ZM129.425 -30.8098V-26.068C123.325 -28.2602 122.991 -30.7383 107.598 -28.3316C92.2053 -25.925 49.2432 -3.78867 39.9025 13.3199C55.5576 -5.71875 117.797 -36.4094 129.425 -14.1301V-3.07383C113.722 7.12461 66.2326 11.4137 71.3318 20.3492C73.5955 23.2562 80.5771 26.2348 87.249 21.7074C74.1436 18.848 97.6143 10.3176 101.188 8.81641C71.9752 22.0887 97.0186 19.8012 109.933 21.3262C122.848 22.8512 123.968 25.6867 129.425 27.7359V28.3316C117.725 25.1625 115.843 21.493 93.4443 22.327C118.702 23.852 107.026 31.9535 129.425 32.5016V43.1766C105.358 43.391 98.4482 36.4332 80.5295 36.4332C62.6107 36.4332 51.8881 37.8629 44.6682 42.2473C31.9678 50.5156 50.3154 23.8281 52.0311 19.8727C63.2065 -4.55117 22.5318 36.0996 19.1482 65.432C19.0291 40.341 41.2607 8.81641 66.9951 7.38672C75.0967 6.91016 26.0107 46.4648 50.5537 39.0781C30.5381 37.8867 97.4951 2.38281 77.265 2.7164C42.7381 3.28828 27.0115 29.7375 17.3611 53.518C14.0014 15.6551 91.2998 -37.3625 129.425 -30.8098ZM88.0354 23.3516C90.2275 24.7336 94.8025 24.1379 98.2814 24.4477C94.874 23.852 91.5143 22.5176 88.0354 23.3516ZM68.3057 35.3133C60.7283 34.8129 44.5967 39.793 56.749 28.3555C41.9756 40.7461 59.799 36.2426 68.3057 35.3133Z" fill="url(#paint1_linear_2165_101627)"/>
<rect x="-51.9072" y="-43.1289" width="181.332" height="181.332" fill="#35FFFF"/>
</g>
<path d="M56.749 3.8125C56.749 2.75971 55.8956 1.90625 54.8428 1.90625H33.874L18.624 24.7812V51.9453C18.624 52.9981 19.4775 53.8516 20.5303 53.8516H54.8428C55.8956 53.8516 56.749 52.9981 56.749 51.9453V3.8125Z" fill="url(#paint2_linear_2165_101627)"/>
<path d="M56.749 3.8125C56.749 2.75971 55.8956 1.90625 54.8428 1.90625H33.874L18.624 24.7812V51.9453C18.624 52.9981 19.4775 53.8516 20.5303 53.8516H54.8428C55.8956 53.8516 56.749 52.9981 56.749 51.9453V3.8125Z" fill="url(#paint3_radial_2165_101627)"/>
</g>
</g>
<g filter="url(#filter3_ddddd_2165_101627)">
<path d="M33.874 1.90625L38.6375 9.84536C39.1691 10.7314 38.898 11.8796 38.0263 12.4343L18.624 24.7812L33.874 1.90625Z" fill="#0C534F"/>
</g>
<g filter="url(#filter4_biii_2165_101627)">
<circle cx="46.9072" cy="32.5722" r="16.0537" fill="url(#paint4_linear_2165_101627)"/>
</g>
<g filter="url(#filter5_bdddd_2165_101627)">
<path fill-rule="evenodd" clip-rule="evenodd" d="M56.0705 46.4246C53.4441 48.1655 50.294 49.1794 46.9071 49.1794C37.7351 49.1794 30.2998 41.744 30.2998 32.5721C30.2998 23.4002 37.7351 15.9648 46.9071 15.9648C56.079 15.9648 63.5143 23.4002 63.5143 32.5721C63.5143 35.9548 62.503 39.1013 60.7661 41.7257L68.721 49.6807C70.0181 50.9778 70.0181 53.0808 68.721 54.3779C67.4239 55.675 65.3209 55.675 64.0238 54.3779L56.0705 46.4246ZM62.1304 32.5721C62.1304 40.9797 55.3147 47.7954 46.9071 47.7954C38.4995 47.7954 31.6837 40.9797 31.6837 32.5721C31.6837 24.1645 38.4995 17.3488 46.9071 17.3488C55.3147 17.3488 62.1304 24.1645 62.1304 32.5721Z" fill="white" fill-opacity="0.45"/>
</g>
<defs>
<filter id="filter0_ddddiii_2165_101627" x="0.766602" y="6.93848" width="61" height="75.0586" filterUnits="userSpaceOnUse" color-interpolation-filters="sRGB">
<feFlood flood-opacity="0" result="BackgroundImageFix"/>
<feColorMatrix in="SourceAlpha" type="matrix" values="0 0 0 0 0 0 0 0 0 0 0 0 0 0 0 0 0 0 127 0" result="hardAlpha"/>
<feOffset dy="0.953125"/>
<feGaussianBlur stdDeviation="0.476562"/>
<feColorMatrix type="matrix" values="0 0 0 0 0 0 0 0 0 0 0 0 0 0 0 0 0 0 0.1 0"/>
<feBlend mode="normal" in2="BackgroundImageFix" result="effect1_dropShadow_2165_101627"/>
<feColorMatrix in="SourceAlpha" type="matrix" values="0 0 0 0 0 0 0 0 0 0 0 0 0 0 0 0 0 0 127 0" result="hardAlpha"/>
<feOffset dy="1.90625"/>
<feGaussianBlur stdDeviation="0.953125"/>
<feColorMatrix type="matrix" values="0 0 0 0 0 0 0 0 0 0 0 0 0 0 0 0 0 0 0.1 0"/>
<feBlend mode="normal" in2="effect1_dropShadow_2165_101627" result="effect2_dropShadow_2165_101627"/>
<feColorMatrix in="SourceAlpha" type="matrix" values="0 0 0 0 0 0 0 0 0 0 0 0 0 0 0 0 0 0 127 0" result="hardAlpha"/>
<feOffset dy="3.8125"/>
<feGaussianBlur stdDeviation="1.90625"/>
<feColorMatrix type="matrix" values="0 0 0 0 0 0 0 0 0 0 0 0 0 0 0 0 0 0 0.1 0"/>
<feBlend mode="normal" in2="effect2_dropShadow_2165_101627" result="effect3_dropShadow_2165_101627"/>
<feColorMatrix in="SourceAlpha" type="matrix" values="0 0 0 0 0 0 0 0 0 0 0 0 0 0 0 0 0 0 127 0" result="hardAlpha"/>
<feOffset dy="11.4375"/>
<feGaussianBlur stdDeviation="5.71875"/>
<feColorMatrix type="matrix" values="0 0 0 0 0 0 0 0 0 0 0 0 0 0 0 0 0 0 0.1 0"/>
<feBlend mode="normal" in2="effect3_dropShadow_2165_101627" result="effect4_dropShadow_2165_101627"/>
<feBlend mode="normal" in="SourceGraphic" in2="effect4_dropShadow_2165_101627" result="shape"/>
<feColorMatrix in="SourceAlpha" type="matrix" values="0 0 0 0 0 0 0 0 0 0 0 0 0 0 0 0 0 0 127 0" result="hardAlpha"/>
<feOffset dy="-0.953125"/>
<feGaussianBlur stdDeviation="0.119141"/>
<feComposite in2="hardAlpha" operator="arithmetic" k2="-1" k3="1"/>
<feColorMatrix type="matrix" values="0 0 0 0 0 0 0 0 0 0 0 0 0 0 0 0 0 0 0.4 0"/>
<feBlend mode="normal" in2="shape" result="effect5_innerShadow_2165_101627"/>
<feColorMatrix in="SourceAlpha" type="matrix" values="0 0 0 0 0 0 0 0 0 0 0 0 0 0 0 0 0 0 127 0" result="hardAlpha"/>
<feOffset dx="-0.238281"/>
<feGaussianBlur stdDeviation="0.119141"/>
<feComposite in2="hardAlpha" operator="arithmetic" k2="-1" k3="1"/>
<feColorMatrix type="matrix" values="0 0 0 0 1 0 0 0 0 1 0 0 0 0 1 0 0 0 0.3 0"/>
<feBlend mode="normal" in2="effect5_innerShadow_2165_101627" result="effect6_innerShadow_2165_101627"/>
<feColorMatrix in="SourceAlpha" type="matrix" values="0 0 0 0 0 0 0 0 0 0 0 0 0 0 0 0 0 0 127 0" result="hardAlpha"/>
<feOffset dx="0.238281"/>
<feGaussianBlur stdDeviation="0.119141"/>
<feComposite in2="hardAlpha" operator="arithmetic" k2="-1" k3="1"/>
<feColorMatrix type="matrix" values="0 0 0 0 1 0 0 0 0 1 0 0 0 0 1 0 0 0 0.3 0"/>
<feBlend mode="normal" in2="effect6_innerShadow_2165_101627" result="effect7_innerShadow_2165_101627"/>
</filter>
<filter id="filter1_biii_2165_101627" x="9.82129" y="4.79395" width="42.8906" height="56.7109" filterUnits="userSpaceOnUse" color-interpolation-filters="sRGB">
<feFlood flood-opacity="0" result="BackgroundImageFix"/>
<feGaussianBlur in="BackgroundImage" stdDeviation="1.19141"/>
<feComposite in2="SourceAlpha" operator="in" result="effect1_backgroundBlur_2165_101627"/>
<feBlend mode="normal" in="SourceGraphic" in2="effect1_backgroundBlur_2165_101627" result="shape"/>
<feColorMatrix in="SourceAlpha" type="matrix" values="0 0 0 0 0 0 0 0 0 0 0 0 0 0 0 0 0 0 127 0" result="hardAlpha"/>
<feOffset dy="-0.953125"/>
<feGaussianBlur stdDeviation="0.119141"/>
<feComposite in2="hardAlpha" operator="arithmetic" k2="-1" k3="1"/>
<feColorMatrix type="matrix" values="0 0 0 0 0.920833 0 0 0 0 0.920833 0 0 0 0 0.920833 0 0 0 0.1 0"/>
<feBlend mode="normal" in2="shape" result="effect2_innerShadow_2165_101627"/>
<feColorMatrix in="SourceAlpha" type="matrix" values="0 0 0 0 0 0 0 0 0 0 0 0 0 0 0 0 0 0 127 0" result="hardAlpha"/>
<feOffset dx="-0.238281"/>
<feGaussianBlur stdDeviation="0.119141"/>
<feComposite in2="hardAlpha" operator="arithmetic" k2="-1" k3="1"/>
<feColorMatrix type="matrix" values="0 0 0 0 0.920833 0 0 0 0 0.920833 0 0 0 0 0.920833 0 0 0 0.1 0"/>
<feBlend mode="normal" in2="effect2_innerShadow_2165_101627" result="effect3_innerShadow_2165_101627"/>
<feColorMatrix in="SourceAlpha" type="matrix" values="0 0 0 0 0 0 0 0 0 0 0 0 0 0 0 0 0 0 127 0" result="hardAlpha"/>
<feOffset dx="0.238281"/>
<feGaussianBlur stdDeviation="0.119141"/>
<feComposite in2="hardAlpha" operator="arithmetic" k2="-1" k3="1"/>
<feColorMatrix type="matrix" values="0 0 0 0 0.920833 0 0 0 0 0.920833 0 0 0 0 0.920833 0 0 0 0.1 0"/>
<feBlend mode="normal" in2="effect3_innerShadow_2165_101627" result="effect4_innerShadow_2165_101627"/>
</filter>
<filter id="filter2_ddddiii_2165_101627" x="7.18652" y="1.66797" width="61" height="75.0586" filterUnits="userSpaceOnUse" color-interpolation-filters="sRGB">
<feFlood flood-opacity="0" result="BackgroundImageFix"/>
<feColorMatrix in="SourceAlpha" type="matrix" values="0 0 0 0 0 0 0 0 0 0 0 0 0 0 0 0 0 0 127 0" result="hardAlpha"/>
<feOffset dy="0.953125"/>
<feGaussianBlur stdDeviation="0.476562"/>
<feColorMatrix type="matrix" values="0 0 0 0 0 0 0 0 0 0 0 0 0 0 0 0 0 0 0.1 0"/>
<feBlend mode="normal" in2="BackgroundImageFix" result="effect1_dropShadow_2165_101627"/>
<feColorMatrix in="SourceAlpha" type="matrix" values="0 0 0 0 0 0 0 0 0 0 0 0 0 0 0 0 0 0 127 0" result="hardAlpha"/>
<feOffset dy="1.90625"/>
<feGaussianBlur stdDeviation="0.953125"/>
<feColorMatrix type="matrix" values="0 0 0 0 0 0 0 0 0 0 0 0 0 0 0 0 0 0 0.1 0"/>
<feBlend mode="normal" in2="effect1_dropShadow_2165_101627" result="effect2_dropShadow_2165_101627"/>
<feColorMatrix in="SourceAlpha" type="matrix" values="0 0 0 0 0 0 0 0 0 0 0 0 0 0 0 0 0 0 127 0" result="hardAlpha"/>
<feOffset dy="3.8125"/>
<feGaussianBlur stdDeviation="1.90625"/>
<feColorMatrix type="matrix" values="0 0 0 0 0 0 0 0 0 0 0 0 0 0 0 0 0 0 0.1 0"/>
<feBlend mode="normal" in2="effect2_dropShadow_2165_101627" result="effect3_dropShadow_2165_101627"/>
<feColorMatrix in="SourceAlpha" type="matrix" values="0 0 0 0 0 0 0 0 0 0 0 0 0 0 0 0 0 0 127 0" result="hardAlpha"/>
<feOffset dy="11.4375"/>
<feGaussianBlur stdDeviation="5.71875"/>
<feColorMatrix type="matrix" values="0 0 0 0 0 0 0 0 0 0 0 0 0 0 0 0 0 0 0.1 0"/>
<feBlend mode="normal" in2="effect3_dropShadow_2165_101627" result="effect4_dropShadow_2165_101627"/>
<feBlend mode="normal" in="SourceGraphic" in2="effect4_dropShadow_2165_101627" result="shape"/>
<feColorMatrix in="SourceAlpha" type="matrix" values="0 0 0 0 0 0 0 0 0 0 0 0 0 0 0 0 0 0 127 0" result="hardAlpha"/>
<feOffset dy="-0.953125"/>
<feGaussianBlur stdDeviation="0.119141"/>
<feComposite in2="hardAlpha" operator="arithmetic" k2="-1" k3="1"/>
<feColorMatrix type="matrix" values="0 0 0 0 0 0 0 0 0 0 0 0 0 0 0 0 0 0 0.4 0"/>
<feBlend mode="normal" in2="shape" result="effect5_innerShadow_2165_101627"/>
<feColorMatrix in="SourceAlpha" type="matrix" values="0 0 0 0 0 0 0 0 0 0 0 0 0 0 0 0 0 0 127 0" result="hardAlpha"/>
<feOffset dx="-0.238281"/>
<feGaussianBlur stdDeviation="0.119141"/>
<feComposite in2="hardAlpha" operator="arithmetic" k2="-1" k3="1"/>
<feColorMatrix type="matrix" values="0 0 0 0 1 0 0 0 0 1 0 0 0 0 1 0 0 0 0.3 0"/>
<feBlend mode="normal" in2="effect5_innerShadow_2165_101627" result="effect6_innerShadow_2165_101627"/>
<feColorMatrix in="SourceAlpha" type="matrix" values="0 0 0 0 0 0 0 0 0 0 0 0 0 0 0 0 0 0 127 0" result="hardAlpha"/>
<feOffset dx="0.238281"/>
<feGaussianBlur stdDeviation="0.119141"/>
<feComposite in2="hardAlpha" operator="arithmetic" k2="-1" k3="1"/>
<feColorMatrix type="matrix" values="0 0 0 0 1 0 0 0 0 1 0 0 0 0 1 0 0 0 0.3 0"/>
<feBlend mode="normal" in2="effect6_innerShadow_2165_101627" result="effect7_innerShadow_2165_101627"/>
</filter>
<filter id="filter3_ddddd_2165_101627" x="7.18652" y="1.90625" width="43.1602" height="45.75" filterUnits="userSpaceOnUse" color-interpolation-filters="sRGB">
<feFlood flood-opacity="0" result="BackgroundImageFix"/>
<feColorMatrix in="SourceAlpha" type="matrix" values="0 0 0 0 0 0 0 0 0 0 0 0 0 0 0 0 0 0 127 0" result="hardAlpha"/>
<feOffset dy="0.476562"/>
<feGaussianBlur stdDeviation="0.238281"/>
<feColorMatrix type="matrix" values="0 0 0 0 0 0 0 0 0 0 0 0 0 0 0 0 0 0 0.1 0"/>
<feBlend mode="normal" in2="BackgroundImageFix" result="effect1_dropShadow_2165_101627"/>
<feColorMatrix in="SourceAlpha" type="matrix" values="0 0 0 0 0 0 0 0 0 0 0 0 0 0 0 0 0 0 127 0" result="hardAlpha"/>
<feOffset dy="0.953125"/>
<feGaussianBlur stdDeviation="0.476562"/>
<feColorMatrix type="matrix" values="0 0 0 0 0 0 0 0 0 0 0 0 0 0 0 0 0 0 0.1 0"/>
<feBlend mode="normal" in2="effect1_dropShadow_2165_101627" result="effect2_dropShadow_2165_101627"/>
<feColorMatrix in="SourceAlpha" type="matrix" values="0 0 0 0 0 0 0 0 0 0 0 0 0 0 0 0 0 0 127 0" result="hardAlpha"/>
<feOffset dy="1.90625"/>
<feGaussianBlur stdDeviation="0.953125"/>
<feColorMatrix type="matrix" values="0 0 0 0 0 0 0 0 0 0 0 0 0 0 0 0 0 0 0.1 0"/>
<feBlend mode="normal" in2="effect2_dropShadow_2165_101627" result="effect3_dropShadow_2165_101627"/>
<feColorMatrix in="SourceAlpha" type="matrix" values="0 0 0 0 0 0 0 0 0 0 0 0 0 0 0 0 0 0 127 0" result="hardAlpha"/>
<feOffset dy="3.8125"/>
<feGaussianBlur stdDeviation="1.90625"/>
<feColorMatrix type="matrix" values="0 0 0 0 0 0 0 0 0 0 0 0 0 0 0 0 0 0 0.1 0"/>
<feBlend mode="normal" in2="effect3_dropShadow_2165_101627" result="effect4_dropShadow_2165_101627"/>
<feColorMatrix in="SourceAlpha" type="matrix" values="0 0 0 0 0 0 0 0 0 0 0 0 0 0 0 0 0 0 127 0" result="hardAlpha"/>
<feOffset dy="11.4375"/>
<feGaussianBlur stdDeviation="5.71875"/>
<feColorMatrix type="matrix" values="0 0 0 0 0 0 0 0 0 0 0 0 0 0 0 0 0 0 0.1 0"/>
<feBlend mode="normal" in2="effect4_dropShadow_2165_101627" result="effect5_dropShadow_2165_101627"/>
<feBlend mode="normal" in="SourceGraphic" in2="effect5_dropShadow_2165_101627" result="shape"/>
</filter>
<filter id="filter4_biii_2165_101627" x="28.4707" y="14.1357" width="36.873" height="36.873" filterUnits="userSpaceOnUse" color-interpolation-filters="sRGB">
<feFlood flood-opacity="0" result="BackgroundImageFix"/>
<feGaussianBlur in="BackgroundImage" stdDeviation="1.19141"/>
<feComposite in2="SourceAlpha" operator="in" result="effect1_backgroundBlur_2165_101627"/>
<feBlend mode="normal" in="SourceGraphic" in2="effect1_backgroundBlur_2165_101627" result="shape"/>
<feColorMatrix in="SourceAlpha" type="matrix" values="0 0 0 0 0 0 0 0 0 0 0 0 0 0 0 0 0 0 127 0" result="hardAlpha"/>
<feOffset dy="-0.953125"/>
<feGaussianBlur stdDeviation="0.119141"/>
<feComposite in2="hardAlpha" operator="arithmetic" k2="-1" k3="1"/>
<feColorMatrix type="matrix" values="0 0 0 0 0.920833 0 0 0 0 0.920833 0 0 0 0 0.920833 0 0 0 0.1 0"/>
<feBlend mode="normal" in2="shape" result="effect2_innerShadow_2165_101627"/>
<feColorMatrix in="SourceAlpha" type="matrix" values="0 0 0 0 0 0 0 0 0 0 0 0 0 0 0 0 0 0 127 0" result="hardAlpha"/>
<feOffset dx="-0.238281"/>
<feGaussianBlur stdDeviation="0.119141"/>
<feComposite in2="hardAlpha" operator="arithmetic" k2="-1" k3="1"/>
<feColorMatrix type="matrix" values="0 0 0 0 0.920833 0 0 0 0 0.920833 0 0 0 0 0.920833 0 0 0 0.1 0"/>
<feBlend mode="normal" in2="effect2_innerShadow_2165_101627" result="effect3_innerShadow_2165_101627"/>
<feColorMatrix in="SourceAlpha" type="matrix" values="0 0 0 0 0 0 0 0 0 0 0 0 0 0 0 0 0 0 127 0" result="hardAlpha"/>
<feOffset dx="0.238281"/>
<feGaussianBlur stdDeviation="0.119141"/>
<feComposite in2="hardAlpha" operator="arithmetic" k2="-1" k3="1"/>
<feColorMatrix type="matrix" values="0 0 0 0 0.920833 0 0 0 0 0.920833 0 0 0 0 0.920833 0 0 0 0.1 0"/>
<feBlend mode="normal" in2="effect3_innerShadow_2165_101627" result="effect4_innerShadow_2165_101627"/>
</filter>
<filter id="filter5_bdddd_2165_101627" x="17.741" y="3.40602" width="64.5122" height="64.5034" filterUnits="userSpaceOnUse" color-interpolation-filters="sRGB">
<feFlood flood-opacity="0" result="BackgroundImageFix"/>
<feGaussianBlur in="BackgroundImage" stdDeviation="6.27941"/>
<feComposite in2="SourceAlpha" operator="in" result="effect1_backgroundBlur_2165_101627"/>
<feColorMatrix in="SourceAlpha" type="matrix" values="0 0 0 0 0 0 0 0 0 0 0 0 0 0 0 0 0 0 127 0" result="hardAlpha"/>
<feOffset dy="0.476562"/>
<feGaussianBlur stdDeviation="0.238281"/>
<feColorMatrix type="matrix" values="0 0 0 0 0 0 0 0 0 0 0 0 0 0 0 0 0 0 0.1 0"/>
<feBlend mode="normal" in2="effect1_backgroundBlur_2165_101627" result="effect2_dropShadow_2165_101627"/>
<feColorMatrix in="SourceAlpha" type="matrix" values="0 0 0 0 0 0 0 0 0 0 0 0 0 0 0 0 0 0 127 0" result="hardAlpha"/>
<feOffset dy="0.953125"/>
<feGaussianBlur stdDeviation="0.476562"/>
<feColorMatrix type="matrix" values="0 0 0 0 0 0 0 0 0 0 0 0 0 0 0 0 0 0 0.1 0"/>
<feBlend mode="normal" in2="effect2_dropShadow_2165_101627" result="effect3_dropShadow_2165_101627"/>
<feColorMatrix in="SourceAlpha" type="matrix" values="0 0 0 0 0 0 0 0 0 0 0 0 0 0 0 0 0 0 127 0" result="hardAlpha"/>
<feOffset dy="1.90625"/>
<feGaussianBlur stdDeviation="0.953125"/>
<feColorMatrix type="matrix" values="0 0 0 0 0 0 0 0 0 0 0 0 0 0 0 0 0 0 0.1 0"/>
<feBlend mode="normal" in2="effect3_dropShadow_2165_101627" result="effect4_dropShadow_2165_101627"/>
<feColorMatrix in="SourceAlpha" type="matrix" values="0 0 0 0 0 0 0 0 0 0 0 0 0 0 0 0 0 0 127 0" result="hardAlpha"/>
<feOffset dy="3.8125"/>
<feGaussianBlur stdDeviation="1.90625"/>
<feColorMatrix type="matrix" values="0 0 0 0 0 0 0 0 0 0 0 0 0 0 0 0 0 0 0.1 0"/>
<feBlend mode="normal" in2="effect4_dropShadow_2165_101627" result="effect5_dropShadow_2165_101627"/>
<feBlend mode="normal" in="SourceGraphic" in2="effect5_dropShadow_2165_101627" result="shape"/>
</filter>
<linearGradient id="paint0_linear_2165_101627" x1="31.2666" y1="7.17676" x2="31.2666" y2="59.1221" gradientUnits="userSpaceOnUse">
<stop stop-color="#42E8E0" stop-opacity="0.28"/>
<stop offset="1" stop-color="#42E8E0" stop-opacity="0.2"/>
</linearGradient>
<linearGradient id="paint1_linear_2165_101627" x1="38.7588" y1="-43.1289" x2="38.7588" y2="138.203" gradientUnits="userSpaceOnUse">
<stop stop-color="white" stop-opacity="0.48"/>
<stop offset="1" stop-color="white" stop-opacity="0"/>
</linearGradient>
<linearGradient id="paint2_linear_2165_101627" x1="37.6882" y1="1.65792" x2="37.6882" y2="53.4441" gradientUnits="userSpaceOnUse">
<stop stop-color="white" stop-opacity="0.4"/>
<stop offset="0.833333" stop-color="white" stop-opacity="0"/>
<stop offset="1" stop-color="white" stop-opacity="0.3"/>
</linearGradient>
<radialGradient id="paint3_radial_2165_101627" cx="0" cy="0" r="1" gradientUnits="userSpaceOnUse" gradientTransform="translate(18.624 8.7259) scale(29.2349 61.8221)">
<stop stop-color="white" stop-opacity="0.7"/>
<stop offset="1" stop-color="white" stop-opacity="0"/>
</radialGradient>
<linearGradient id="paint4_linear_2165_101627" x1="46.9072" y1="16.5186" x2="46.9072" y2="48.6259" gradientUnits="userSpaceOnUse">
<stop stop-color="#A6A0BA" stop-opacity="0.15"/>
<stop offset="1" stop-opacity="0.2"/>
</linearGradient>
<clipPath id="clip0_2165_101627">
<rect width="181.332" height="181.332" fill="white" transform="translate(-51.9072 -43.1289)"/>
</clipPath>
</defs>
</svg>
