<svg width="82" height="92" viewBox="0 0 82 92" fill="none" xmlns="http://www.w3.org/2000/svg">
<g filter="url(#filter0_ddddiii_2165:101627)">
<g filter="url(#filter1_biii_2165:101627)">
<path d="M56 10.125C56 8.95139 55.0486 8 53.875 8H15.625C14.4514 8 13.5 8.9514 13.5 10.125V63.7812C13.5 64.9549 14.4514 65.9062 15.625 65.9062H53.875C55.0486 65.9062 56 64.9549 56 63.7812V10.125Z" fill="url(#paint0_linear_2165:101627)"/>
</g>
</g>
<g filter="url(#filter2_ddddiii_2165:101627)">
<mask id="mask0_2165:101627" style="mask-type:alpha" maskUnits="userSpaceOnUse" x="20" y="2" width="44" height="59">
<path d="M63.1562 4.25C63.1562 3.07639 62.2049 2.125 61.0312 2.125H37.6562L20.6562 27.625V57.9062C20.6562 59.0799 21.6076 60.0312 22.7812 60.0312H61.0312C62.2049 60.0312 63.1562 59.0799 63.1562 57.9062V4.25Z" fill="white"/>
</mask>
<g mask="url(#mask0_2165:101627)">
<g clip-path="url(#clip0_2165:101627)">
<rect width="202.141" height="202.141" transform="translate(-57.9688 -48.0781)" fill="#35FFFF"/>
<path d="M-29.175 -8.10156C-33.6641 -12.5906 -41.6328 -13.9188 -55.0469 -10.3859C-41.4469 -15.0609 -33.5844 -13.6531 -29.175 -8.10156ZM144.172 80.5375V81.8922C133.52 80.4578 123.666 75.225 113.386 70.7359C133.148 81.4937 138.913 87.2578 144.172 87.5234V113.077C107.861 126.198 57.0734 101.814 78.9344 91.7469C88.3906 87.3906 130.917 102.611 113.625 80.4844C116.547 85.7969 117.078 91.375 107.038 89.7812C110.438 89.2234 114.422 87.9219 111.473 83.4594C108.525 78.9969 111.606 90.7906 90.7812 84.7344C74.3125 79.9531 50.4062 92.9688 66.0781 77.2969C32.0781 102 100.078 131.511 139.284 120.381C134.583 121.63 127.092 122.028 118.619 121.497C127.438 121.364 135.991 119.425 144.145 116.105V124.233C114.608 143.597 87.0625 148.059 36.9922 128.828C80.1297 155.656 30.2719 143.092 29.1562 142.773C33.1141 143.863 52.7969 146.652 50.9375 143.198C49.0781 139.745 34.3625 140.887 23.0469 136.452C27.7219 135.973 35.9828 139.081 25.7031 130.209C45.7047 146.731 30.1922 128.748 19.2219 120.647C17.6813 119.372 16.2203 118.017 14.8125 116.583C16.2469 117.752 17.4422 118.017 18.2391 117.087C15.2906 111.988 12.7141 107.18 10.4563 102.638C11.0938 103.488 11.7578 104.364 12.475 105.214C-28.8297 19.9484 74.8438 -13.7062 79.4922 -43.2172C79.1203 -42.0484 78.5359 -40.8797 77.7125 -39.7375C78.9875 -43.1375 79.6781 -45.6078 79.2797 -48.0516H85.9203C86.0531 -47.7063 86.2125 -47.3344 86.3188 -46.9625C86.6641 -47.3344 86.9562 -47.7063 87.2219 -48.0516H96.2C96.2266 -42.925 92.5078 -36.8422 81.8828 -29.0594C90.0375 -34.2391 96.8906 -40.5344 98.4312 -48.0781H102.788C92.0297 -36.9219 76.7563 -20.3203 67.8578 -17.1594C38.2672 -3.26719 19.6203 26.2172 15.1844 55.1438C18.9562 42.6063 26.1812 29.6969 36.0094 17.3984C21.5594 37.1344 13.0594 59.8984 14.9453 79.4219C15.7953 85.2125 17.3359 90.7641 19.5938 95.9172C26.925 110.473 42.8625 121.258 70.2219 124.366C36.9391 106.117 34.6016 60.1906 77.5 54.9312C91.1797 52.6734 103.983 56.6047 116.573 61.0141C100.423 56.95 78.4297 50.2828 65.4937 61.0938C79.6516 59.4203 94.2609 60.9875 107.888 65.5562C92.7734 62.5281 72.2406 54.9047 60.2609 68.6109C63.4219 66.6719 67.6719 62.9531 76.1719 62.9531C63.6875 65.3438 64.4844 68.7969 76.3844 68.0531C55.8516 69.3813 35.7969 85 55.4266 106.409C75.0562 127.819 95.0312 127.978 88.1516 132.467C75.9062 140.516 36.7266 122.719 24.4812 105.134C24.0828 104.709 23.7109 104.284 23.3125 103.859C39.3031 128.27 82.0422 145.695 107.409 133.291C118.141 128.031 24.375 105.188 57.4984 75.5969C66.45 67.6016 89.825 67.5219 101.672 77.775C93.9688 72.7812 66.3438 70.0188 74.8438 77.8281C81.2188 83.6719 109.534 87.0984 105.152 79.2891C102.628 75.9688 99.3875 73.4453 95.7484 71.6125C95.8016 71.6391 95.8547 71.6391 95.9078 71.6656C65.0687 54.2937 99.9719 64.3344 132.112 77.6422C136.283 79.7937 140.32 80.6438 144.172 80.5375ZM25.4906 106.17C25.4906 106.17 36.9922 119.558 55.9844 126.172C70.9125 131.352 84.0609 130.448 84.1406 129.891C84.2203 129.28 68.3625 129.386 49.6094 121.125C34.2297 114.352 25.4906 106.17 25.4906 106.17ZM63.8203 -17.6906C69.1328 -21.3031 74.4453 -24.8891 79.7578 -28.5016C75.3219 -26.7219 67.0875 -21.1437 63.8203 -17.6906ZM14.0156 83.6719C13.8031 81.0156 12.2359 72.4891 12.4484 69.7266C10.5891 42.2875 23.1 12.1125 50.725 -6.85313C16.5656 14.3703 4.71875 44.8906 14.0156 83.6719ZM10.9078 40.5078C14.3609 33.6547 17.9734 26.4562 21.6391 19.1781C17.9734 23.5344 10.6687 37.9844 10.9078 40.5078ZM47.1656 129.466C31.1484 121.763 16.5391 109.942 8.99532 93.5C12.2359 107.552 33.5656 128.642 47.1656 129.466ZM114.847 77.8813C117.025 81.1219 118.406 82.3438 121.567 88.0281C132.803 108.242 70.6734 83.5391 77.3938 100.459C81.4844 110.766 110.172 115.812 118.672 115.812C95.2969 111.562 79.7844 105.4 81.4047 98.6C83.875 88.4531 157.187 123.781 114.847 77.8813ZM-4.3125 71.4531C-4.47187 66.6984 -4.92344 56.525 -4.04688 51.7969C-5.53437 55.6219 -4.92344 66.0078 -4.3125 71.4531ZM14.8125 116.556C13.8031 115.547 12.8469 114.511 11.9172 113.422C12.9531 114.777 13.9359 115.839 14.8125 116.556ZM11.9172 113.448C5.64844 105.241 -2.32031 90.525 -4.04688 75.4375C-3.56875 90.7641 1.85 101.787 11.9172 113.448ZM54.3109 -44.3328C55.6656 -42.1016 56.2766 -39.6578 56.5156 -37.3203C56.5953 -39.9234 55.9578 -42.3406 54.3109 -44.3328ZM50.9906 -48.0781H48.3078C51.0438 -47.175 52.9828 -45.9 54.2844 -44.3328C53.4875 -45.6609 52.425 -46.9359 50.9906 -48.0781ZM8.17188 99.0781C2.0625 86.7 1.15937 82.0516 -0.59375 72.7812C-0.248436 83.7781 0.734375 87.6562 8.17188 99.0781ZM-0.0625 122.188C9.5 133.078 32.3438 139.453 20.125 126.703C23.5781 135.469 7.375 128.828 -0.0625 122.188ZM36.3813 -40.6672C36.2484 -43.2438 35.6641 -45.7141 34.5484 -48.0781H28.7844C30.5109 -47.3344 32.1312 -46.3781 33.6453 -45.1297C30.9891 -46.1125 28.3328 -47.0688 25.5703 -48.0781H22.7281C29.3156 -46.4578 34.6281 -43.9875 36.3813 -40.6672ZM144.172 -48.0781V-37.6391C126.481 -44.9438 111.5 -38.8344 103 -31.6094C94.5 -24.3844 82.6 -23.0031 73.3297 -17.3719C83.1047 -24.2516 96.625 -27.0938 104.7 -35.3281C112.775 -43.5625 109.72 -44.7578 111.341 -48.0781H144.172ZM130.784 -44.6781C125.073 -44.5984 120.186 -42.3672 115.405 -39.7641C120.452 -41.65 125.605 -43.2969 130.784 -44.6781ZM117.317 118.841C111.048 118.442 104.248 117.539 97.6609 116.105C104.302 118.097 110.863 118.947 117.317 118.841ZM98.9891 118.788C95.1641 117.645 91.3391 116.158 87.4609 114.245C48.2812 92.4375 82.5469 86.8594 99.0422 89.6484C89.1875 85.5312 60.2344 80.4578 68.4422 101.389C66.6359 99.1313 62.8906 95.8906 63.6875 89.7812C58.375 104.391 81.3516 114.936 98.9891 118.788ZM68.7344 -13.8125C54.4437 -5.12656 46.1031 3.6125 36.0359 17.3719C46.1031 4.78125 54.2578 -3.6125 68.7344 -13.8125ZM144.172 71.4531V69.2219C140.294 68.5844 128.633 65.1844 124.781 64.0156C130.12 66.1141 142.95 70.6562 144.172 71.4531ZM38.7984 -48.0781H48.0156C66.1312 -38.4625 42.3578 -22.3391 38.4 -11.1828C45.2797 -14.6094 56.1438 -27.4125 56.5156 -37.2938C57.6047 -26.2438 50.3 -16.9734 72.6391 -37.1344C76.4641 -39.6578 77.1812 -43.775 75.7203 -48.0781H77.075C79.4656 -25.2078 33.4594 -13.5734 28.8375 -2.31094C40.1266 -4.80781 21.3203 3.77187 24.1094 5.55156C36.1687 -2.36406 45.4922 -13.6797 57.7906 -21.25C29.1031 -1.16875 -2.1875 35.1156 -1.04531 70.4438C-9.4125 26.35 46.0766 -21.4094 43.2875 -38.9937C41.9062 -47.5469 40.0734 -45.8203 38.7984 -48.0781ZM33.4062 -11.5281C31.8656 -11.9266 28.9969 -9.24375 28.9438 -6.40157C30.6438 -8.34063 32.025 -9.93437 33.4062 -11.5281ZM48.2547 -37.7719C47.9094 -38.8344 47.5906 -39.7906 47.1922 -41.0391C45.8906 -38.7812 46.2094 -37.7719 48.2547 -37.7719ZM51.1234 -36.6562C50.3266 -38.0109 50.5922 -41.1188 49.1047 -40.5609C49.6891 -39.3656 47.6969 -37.3203 51.1234 -36.6562ZM41.8531 -47.3609C44.4297 -38.6219 45.7047 -47.4141 51.4688 -41.6234C50.9375 -44.8375 46.4484 -47.7859 41.8531 -47.3609ZM-16 111.031C-9.06719 124.366 -4.49844 132.414 16.1406 137.062C3.55 131.564 -6.225 124.498 -16 111.031ZM-57.9688 112.705V114.962C-46.0422 128.137 -33.5047 143.331 -19.6656 149.388C-17.0625 151.034 -14.4328 152.602 -11.7766 154.062H-8.00468C-17.3281 149.573 -25.7219 144.181 -32.7609 137.939C-41.1281 132.308 -49.4422 122.134 -57.9688 112.705ZM-57.9688 -13.5734V-15.5922C4.71875 -40.6406 -18.125 31.0781 -21.0469 48.8484C-23.9688 66.6188 -17.0625 100.938 -11.4844 92.6234C-5.90625 84.3094 -25.2969 72.7813 11.9703 0.610939C-4.28594 23.5078 -14.4062 63.75 -18.5766 63.8562C-22.7469 63.9625 -20.5156 50.2031 -18.125 44.8906C-21.0469 97.75 22.8875 -55.4625 -55.5781 -22.0203C-56.2156 -21.675 -57.0125 -21.3297 -57.9688 -20.9578V-27.4125C-34.8063 -39.4187 -21.3125 -46.6437 -2.05469 -46.6437C17.2031 -46.6437 32.4766 -42.5797 36.2484 -36.8687C32.45 -1.77969 -41.9781 51.6641 8.62344 116.689C19.3547 128.562 14.2812 129.359 2.85938 120.594C-8.5625 111.828 -20.7016 91.3484 -25.4828 66.5656C-25.1375 81.3078 -23.0922 95.8906 -16.7438 108.056C-23.4641 98.8125 -26.3594 91.1094 -28.1391 73.6313C-29.9187 56.1531 -24.5531 30.7859 -24.0219 11.0766C-23.1719 17.2656 -23.1984 21.1172 -23.4375 26.5625C-11.325 -15.1406 -34.8859 -22.3391 -57.9688 -13.5734ZM-29.5734 -37.7984C-33.7969 -36.975 -42.1375 -34.1594 -45.2719 -31.6094C-40.0391 -33.6812 -34.8062 -35.7266 -29.5734 -37.7984ZM25.2781 -38.2234C29.1828 -34.5047 27.9609 -28.2625 25.7828 -23.1094C26.075 -23.5344 26.3937 -23.9859 26.7391 -24.4375C30.3516 -29.6437 29.1562 -34.9828 25.2781 -38.2234ZM25.0125 -34.9297C25.3312 -30.5734 24.8531 -26.7484 23.4453 -22.3656C27.0578 -27.7312 27.6156 -32.1938 25.0125 -34.9297ZM0.017189 -42.2875C4.24063 -42.2875 8.4375 -42.2875 12.6609 -42.2875C9.075 -42.6328 3.65625 -42.6328 0.017189 -42.2875ZM24.0562 -33.7875C19.8859 -43.6422 3.09844 -41.7828 -5.90625 -40.375C3.975 -40.4016 17.3094 -42.7391 24.0562 -33.7875ZM22.5156 -22.8172C19.6469 -16.8672 13.75 -13.4406 10.35 -7.96875C14.0156 -8.18125 22.1172 -18.7 22.5156 -22.8172ZM137.611 22.2328C132.298 16.5219 132.033 15.4859 134.822 11.7672C129.35 14.4766 133.945 20.1078 137.611 22.2328ZM125.791 -39.1797C131.9 -39.4984 138.089 -37.8516 144.172 -36.4438V-36.6828C138.195 -39.0203 132.272 -41.4109 125.791 -39.1797ZM144.172 60.2437V57.0562C137.452 55.0109 130.891 53.1781 124.277 52.4078C130.545 54.4266 137.372 59.0219 144.172 60.2437ZM-57.9688 123.702C-47.3438 134.273 -36.6656 144.898 -25.3234 154.062H-19.9047C-33.2391 142.641 -45.5109 128.642 -57.9688 118.123V123.702ZM-57.9688 125.614V138.152C-50.3188 141.95 -41.925 147.209 -32.7609 154.062H-28.6437C-38.7906 147.608 -48.4062 136.08 -57.9688 125.614ZM144.172 25.1016V9.5625C142.472 10.5453 140.639 11.5016 138.673 12.4313C136.973 17.3187 139.683 21.9141 144.172 25.1016ZM130.944 11.7406C124.808 14.7422 129.297 17.7969 132.192 21.0375C129.669 16.0969 126.88 15.5922 130.944 11.7406ZM115.378 -24.6234C129.031 -28.4219 135.38 -24.7828 144.172 -20.2672V-20.9047C135.141 -25.3141 130.625 -30.0156 115.378 -24.6234ZM144.172 -0.318748V-0.345314C144.066 -0.292187 143.959 -0.239063 143.853 -0.185936C143.959 -0.239063 144.066 -0.292187 144.172 -0.318748ZM142.419 154.062C143.003 153.744 143.587 153.452 144.172 153.133V151.672C143.003 152.495 141.808 153.266 140.612 154.062H142.419ZM-57.6234 -48.0781C-57.7031 -48.0516 -57.7828 -48.025 -57.8359 -47.9984C-57.7562 -48.025 -57.6766 -48.0516 -57.5969 -48.0781H-57.6234ZM-57.9688 -47.9719C-57.9156 -47.9719 -57.8891 -47.9984 -57.8359 -47.9984C-57.8891 -47.9984 -57.9156 -47.9719 -57.9688 -47.9719ZM-49.15 -48.0781C-52.4437 -46.7766 -55.3922 -45.7406 -57.9688 -44.9437V-36.3906C-46.6531 -40.9594 -35.0188 -44.8375 -23.8625 -48.0781H-49.15ZM23.3922 154.062H27.8547C21.5859 151.778 4.87812 142.402 2.77969 141.233C10.6687 146.838 17.8937 151.22 23.3922 154.062ZM-57.9688 -1.11562V-5.63125C-0.726562 -20.2406 -55.5781 83.5922 -11.5375 130.236C-52.125 104.656 -34.8594 49.4062 -38.8172 11.6609C-40.1187 -0.796879 -48.4062 -2.07187 -57.9688 -1.11562ZM-42.8281 -2.65625C-29.2812 12.2188 -38.1797 43.2969 -37.3563 65.6359C-37.4359 49.6188 -20.25 2.39062 -42.8281 -2.65625ZM100.237 154.062C114.714 150.291 128.42 144.288 140.188 135.92C141.542 134.592 142.87 133.291 144.145 132.042V126.995C125.419 138.63 106.055 148.511 86.8766 154.062H100.237ZM-10.0234 131.75C-6.91563 134.778 -3.19688 137.461 1.26562 139.719L-10.0234 131.75ZM108.578 57.1094C92.7734 46.0594 132.166 66.9109 144.172 68.2922V63.6438C124.994 58.2516 75.5078 42.8719 108.578 57.1094ZM-37.3828 104.736C-34.0625 112.891 -30.6094 125.641 -9.625 136.797C-25.8281 123.516 -31.4062 115.016 -37.3828 104.736ZM-51.5938 74.6406C-50.7969 85.7969 -44.8203 93.3141 -39.375 99.875C-52.8687 59.7125 -25.9344 1.64687 -57.9688 1.03593V4.59531C-55.3922 4.22344 -55.0469 1.32812 -50.1328 3.74532C-37.7016 10.5984 -42.1906 31.5297 -45.1656 41.7297C-45.8562 32.1406 -40.65 18.3547 -49.7344 11.7937C-58.5 8.95156 -48.1141 22.8703 -49.8141 27.1469C-51.6734 21.4359 -54.4891 17.7172 -57.9688 15.5391V22.1797C-48.1406 31.5031 -50.4781 57.5078 -50.1328 68.6641C-54.1172 60.7219 -55.6844 51.5844 -57.9688 42.8719V84.8938C-52.125 95.4922 -47.2641 106.888 -43.625 115.52C-48.5125 109.384 -53.1609 101.894 -57.9688 94.5359V107.525C-45.6172 119.372 -33.0531 134.938 -19.4266 145.27C-26.3594 141.1 -32.9734 136.319 -39.1891 130.927C-30.6891 138.842 -21.2594 145.403 -11.2188 150.716C-9.81094 151.513 -8.40313 152.23 -6.96875 152.867C-6.14531 153.266 -5.34844 153.638 -4.525 154.036H21.5328C-33.7969 141.312 -53.4531 89.25 -51.5938 74.6406ZM137.292 154.062C139.63 152.947 141.941 151.752 144.172 150.477V136.319C131.502 144.181 119.283 149.998 107.542 154.062H137.292ZM123.4 71.2672C131.183 75.3844 137.797 78.625 144.172 78.5453V71.7719C143.508 71.7453 141.595 71.2672 138.009 70.1781C151.636 83.1141 132.856 76.1547 123.4 71.2672ZM-57.9688 154.062H-41.075C-46.7594 150.795 -52.4438 147.475 -57.9688 144.553V154.062ZM34.2031 42.7125C34.2031 42.6859 34.2297 42.6594 34.2297 42.6328C34.2297 42.6594 34.2297 42.6859 34.2031 42.7125ZM34.5219 42.075C34.4156 42.2609 34.3359 42.4469 34.2297 42.6328C34.3359 42.4469 34.4156 42.2609 34.5219 42.075ZM34.6281 41.8891C34.6016 41.9422 34.575 41.9688 34.5484 42.0219C34.575 41.9688 34.6016 41.9422 34.6281 41.8891ZM34.5484 42.0219C34.5484 42.0484 34.5219 42.0484 34.5219 42.075C34.5219 42.0484 34.5484 42.0484 34.5484 42.0219ZM36.5938 43.5625C20.3906 59.5 27.8281 98.2812 32.9281 85.5844C42.8891 60.8547 66.3438 38.5156 95.8281 51.2656C80.6875 42.5 108.552 47.9719 125.498 50.9203C106.852 46.6438 87.4875 40.8266 69.0531 46.5641C74.8172 43.9078 78.2172 42.7922 84.6719 42.7656C69.5578 41.225 57.0734 44.625 44.1906 54.4531C31.3078 64.2812 49.875 31.6094 47.2188 30.0156C44.7484 28.5281 37.9219 35.5406 34.6281 41.8891C38.9047 33.7875 44.8547 35.4344 36.5938 43.5625ZM33.9375 43.2969C34.0172 43.0844 34.1234 42.8984 34.2031 42.7125C34.1234 42.8984 34.0172 43.1109 33.9375 43.2969ZM90.25 42.7656C106.373 44.4125 116.148 48.7156 131.688 50.4688C115.856 47.1484 105.656 42.6594 90.25 42.7656ZM123.4 71.2672C122.975 71.0547 122.577 70.8156 122.152 70.6031C122.523 70.8422 122.948 71.0547 123.4 71.2672ZM-31.9375 -44.2C-29.4672 -45.1031 -26.9969 -46.0062 -24.5266 -46.9094C-27.4219 -47.8656 -29.7062 -45.5281 -31.9375 -44.2ZM-13.8219 -48.0781H-18.2047C-36.1078 -40.6141 -71.2234 -27.2797 -13.8219 -48.0781ZM57.0203 141.445C69.2391 147.05 56.8078 148.511 50.0344 148.325C60.2078 149.892 72.0547 146.067 57.0203 141.445ZM70.1156 144.288C77.8453 149.706 67.4328 150.237 62.5984 150.769C67.9641 150.423 82.9984 149.68 70.1156 144.288ZM84.6453 143.969C101.672 151.167 83.8219 152.469 74.3125 154.062H77.7922C88.7891 152.841 105.205 149.069 84.6453 143.969ZM144.172 53.2578V52.2484C141.356 52.2219 138.487 52.0359 135.566 51.7172C138.487 52.3016 141.356 52.8328 144.172 53.2578ZM26.5 101.469C29.9531 107.312 36.5938 111.828 39.5156 112.359C35.7969 110.5 30.4844 106.25 26.5 101.469ZM56.7812 119.266C23.1 84.7875 55.1875 53.3906 78.0312 49.4062C62.3594 49.9375 29.6875 73.8438 37.6562 96.9531C32.0781 96.3422 25.7031 87.125 23.95 77.9609C25.1719 91.6406 34.7344 106.25 56.7812 119.266ZM36.5938 106.516C25.9688 96.9531 21.2938 82.5031 21.2406 72.9406C20.0984 82.9016 22.5156 95.8906 36.5938 106.516ZM144.172 54.9312V54.2141C142.233 54.0281 140.267 53.7891 138.275 53.4703C140.4 53.9484 142.366 54.4266 144.172 54.9312ZM144.172 -34.3453V-29.0594C137.372 -31.5031 137 -34.2656 119.841 -31.5828C102.681 -28.9 54.7891 -4.22344 44.3766 14.8484C61.8281 -6.375 131.209 -40.5875 144.172 -15.7516V-3.42656C126.667 7.94219 73.7281 12.7234 79.4125 22.6844C81.9359 25.925 89.7188 29.2453 97.1562 24.1984C82.5469 21.0109 108.711 11.5016 112.695 9.82812C80.1297 24.6234 108.047 22.0734 122.444 23.7734C136.841 25.4734 138.089 28.6344 144.172 30.9187V31.5828C131.13 28.05 129.031 23.9594 104.062 24.8891C132.219 26.5891 119.203 35.6203 144.172 36.2312V48.1313C117.344 48.3703 109.641 40.6141 89.6656 40.6141C69.6906 40.6141 57.7375 42.2078 49.6891 47.0953C35.5312 56.3125 55.9844 26.5625 57.8969 22.1531C70.3547 -5.07344 25.0125 40.2422 21.2406 72.9406C21.1078 44.9703 45.8906 9.82812 74.5781 8.23438C83.6094 7.70312 28.8906 51.7969 56.25 43.5625C33.9375 42.2344 108.578 2.65625 86.0266 3.02812C47.5375 3.66562 30.0063 33.15 19.2484 59.6594C15.5031 17.4516 101.672 -41.65 144.172 -34.3453ZM98.0328 26.0312C100.477 27.5719 105.577 26.9078 109.455 27.2531C105.656 26.5891 101.911 25.1016 98.0328 26.0312ZM76.0391 39.3656C67.5922 38.8078 49.6094 44.3594 63.1562 31.6094C46.6875 45.4219 66.5563 40.4016 76.0391 39.3656Z" fill="#42E8E0"/>
<path d="M-29.175 -8.10156C-33.6641 -12.5906 -41.6328 -13.9188 -55.0469 -10.3859C-41.4469 -15.0609 -33.5844 -13.6531 -29.175 -8.10156ZM144.172 80.5375V81.8922C133.52 80.4578 123.666 75.225 113.386 70.7359C133.148 81.4937 138.913 87.2578 144.172 87.5234V113.077C107.861 126.198 57.0734 101.814 78.9344 91.7469C88.3906 87.3906 130.917 102.611 113.625 80.4844C116.547 85.7969 117.078 91.375 107.038 89.7812C110.438 89.2234 114.422 87.9219 111.473 83.4594C108.525 78.9969 111.606 90.7906 90.7812 84.7344C74.3125 79.9531 50.4062 92.9688 66.0781 77.2969C32.0781 102 100.078 131.511 139.284 120.381C134.583 121.63 127.092 122.028 118.619 121.497C127.438 121.364 135.991 119.425 144.145 116.105V124.233C114.608 143.597 87.0625 148.059 36.9922 128.828C80.1297 155.656 30.2719 143.092 29.1562 142.773C33.1141 143.863 52.7969 146.652 50.9375 143.198C49.0781 139.745 34.3625 140.887 23.0469 136.452C27.7219 135.973 35.9828 139.081 25.7031 130.209C45.7047 146.731 30.1922 128.748 19.2219 120.647C17.6813 119.372 16.2203 118.017 14.8125 116.583C16.2469 117.752 17.4422 118.017 18.2391 117.087C15.2906 111.988 12.7141 107.18 10.4563 102.638C11.0938 103.488 11.7578 104.364 12.475 105.214C-28.8297 19.9484 74.8438 -13.7062 79.4922 -43.2172C79.1203 -42.0484 78.5359 -40.8797 77.7125 -39.7375C78.9875 -43.1375 79.6781 -45.6078 79.2797 -48.0516H85.9203C86.0531 -47.7063 86.2125 -47.3344 86.3188 -46.9625C86.6641 -47.3344 86.9562 -47.7063 87.2219 -48.0516H96.2C96.2266 -42.925 92.5078 -36.8422 81.8828 -29.0594C90.0375 -34.2391 96.8906 -40.5344 98.4312 -48.0781H102.788C92.0297 -36.9219 76.7563 -20.3203 67.8578 -17.1594C38.2672 -3.26719 19.6203 26.2172 15.1844 55.1438C18.9562 42.6063 26.1812 29.6969 36.0094 17.3984C21.5594 37.1344 13.0594 59.8984 14.9453 79.4219C15.7953 85.2125 17.3359 90.7641 19.5938 95.9172C26.925 110.473 42.8625 121.258 70.2219 124.366C36.9391 106.117 34.6016 60.1906 77.5 54.9312C91.1797 52.6734 103.983 56.6047 116.573 61.0141C100.423 56.95 78.4297 50.2828 65.4937 61.0938C79.6516 59.4203 94.2609 60.9875 107.888 65.5562C92.7734 62.5281 72.2406 54.9047 60.2609 68.6109C63.4219 66.6719 67.6719 62.9531 76.1719 62.9531C63.6875 65.3438 64.4844 68.7969 76.3844 68.0531C55.8516 69.3813 35.7969 85 55.4266 106.409C75.0562 127.819 95.0312 127.978 88.1516 132.467C75.9062 140.516 36.7266 122.719 24.4812 105.134C24.0828 104.709 23.7109 104.284 23.3125 103.859C39.3031 128.27 82.0422 145.695 107.409 133.291C118.141 128.031 24.375 105.188 57.4984 75.5969C66.45 67.6016 89.825 67.5219 101.672 77.775C93.9688 72.7812 66.3438 70.0188 74.8438 77.8281C81.2188 83.6719 109.534 87.0984 105.152 79.2891C102.628 75.9688 99.3875 73.4453 95.7484 71.6125C95.8016 71.6391 95.8547 71.6391 95.9078 71.6656C65.0687 54.2937 99.9719 64.3344 132.112 77.6422C136.283 79.7937 140.32 80.6438 144.172 80.5375ZM25.4906 106.17C25.4906 106.17 36.9922 119.558 55.9844 126.172C70.9125 131.352 84.0609 130.448 84.1406 129.891C84.2203 129.28 68.3625 129.386 49.6094 121.125C34.2297 114.352 25.4906 106.17 25.4906 106.17ZM63.8203 -17.6906C69.1328 -21.3031 74.4453 -24.8891 79.7578 -28.5016C75.3219 -26.7219 67.0875 -21.1437 63.8203 -17.6906ZM14.0156 83.6719C13.8031 81.0156 12.2359 72.4891 12.4484 69.7266C10.5891 42.2875 23.1 12.1125 50.725 -6.85313C16.5656 14.3703 4.71875 44.8906 14.0156 83.6719ZM10.9078 40.5078C14.3609 33.6547 17.9734 26.4562 21.6391 19.1781C17.9734 23.5344 10.6687 37.9844 10.9078 40.5078ZM47.1656 129.466C31.1484 121.763 16.5391 109.942 8.99532 93.5C12.2359 107.552 33.5656 128.642 47.1656 129.466ZM114.847 77.8813C117.025 81.1219 118.406 82.3438 121.567 88.0281C132.803 108.242 70.6734 83.5391 77.3938 100.459C81.4844 110.766 110.172 115.812 118.672 115.812C95.2969 111.562 79.7844 105.4 81.4047 98.6C83.875 88.4531 157.187 123.781 114.847 77.8813ZM-4.3125 71.4531C-4.47187 66.6984 -4.92344 56.525 -4.04688 51.7969C-5.53437 55.6219 -4.92344 66.0078 -4.3125 71.4531ZM14.8125 116.556C13.8031 115.547 12.8469 114.511 11.9172 113.422C12.9531 114.777 13.9359 115.839 14.8125 116.556ZM11.9172 113.448C5.64844 105.241 -2.32031 90.525 -4.04688 75.4375C-3.56875 90.7641 1.85 101.787 11.9172 113.448ZM54.3109 -44.3328C55.6656 -42.1016 56.2766 -39.6578 56.5156 -37.3203C56.5953 -39.9234 55.9578 -42.3406 54.3109 -44.3328ZM50.9906 -48.0781H48.3078C51.0438 -47.175 52.9828 -45.9 54.2844 -44.3328C53.4875 -45.6609 52.425 -46.9359 50.9906 -48.0781ZM8.17188 99.0781C2.0625 86.7 1.15937 82.0516 -0.59375 72.7812C-0.248436 83.7781 0.734375 87.6562 8.17188 99.0781ZM-0.0625 122.188C9.5 133.078 32.3438 139.453 20.125 126.703C23.5781 135.469 7.375 128.828 -0.0625 122.188ZM36.3813 -40.6672C36.2484 -43.2438 35.6641 -45.7141 34.5484 -48.0781H28.7844C30.5109 -47.3344 32.1312 -46.3781 33.6453 -45.1297C30.9891 -46.1125 28.3328 -47.0688 25.5703 -48.0781H22.7281C29.3156 -46.4578 34.6281 -43.9875 36.3813 -40.6672ZM144.172 -48.0781V-37.6391C126.481 -44.9438 111.5 -38.8344 103 -31.6094C94.5 -24.3844 82.6 -23.0031 73.3297 -17.3719C83.1047 -24.2516 96.625 -27.0938 104.7 -35.3281C112.775 -43.5625 109.72 -44.7578 111.341 -48.0781H144.172ZM130.784 -44.6781C125.073 -44.5984 120.186 -42.3672 115.405 -39.7641C120.452 -41.65 125.605 -43.2969 130.784 -44.6781ZM117.317 118.841C111.048 118.442 104.248 117.539 97.6609 116.105C104.302 118.097 110.863 118.947 117.317 118.841ZM98.9891 118.788C95.1641 117.645 91.3391 116.158 87.4609 114.245C48.2812 92.4375 82.5469 86.8594 99.0422 89.6484C89.1875 85.5312 60.2344 80.4578 68.4422 101.389C66.6359 99.1313 62.8906 95.8906 63.6875 89.7812C58.375 104.391 81.3516 114.936 98.9891 118.788ZM68.7344 -13.8125C54.4437 -5.12656 46.1031 3.6125 36.0359 17.3719C46.1031 4.78125 54.2578 -3.6125 68.7344 -13.8125ZM144.172 71.4531V69.2219C140.294 68.5844 128.633 65.1844 124.781 64.0156C130.12 66.1141 142.95 70.6562 144.172 71.4531ZM38.7984 -48.0781H48.0156C66.1312 -38.4625 42.3578 -22.3391 38.4 -11.1828C45.2797 -14.6094 56.1438 -27.4125 56.5156 -37.2938C57.6047 -26.2438 50.3 -16.9734 72.6391 -37.1344C76.4641 -39.6578 77.1812 -43.775 75.7203 -48.0781H77.075C79.4656 -25.2078 33.4594 -13.5734 28.8375 -2.31094C40.1266 -4.80781 21.3203 3.77187 24.1094 5.55156C36.1687 -2.36406 45.4922 -13.6797 57.7906 -21.25C29.1031 -1.16875 -2.1875 35.1156 -1.04531 70.4438C-9.4125 26.35 46.0766 -21.4094 43.2875 -38.9937C41.9062 -47.5469 40.0734 -45.8203 38.7984 -48.0781ZM33.4062 -11.5281C31.8656 -11.9266 28.9969 -9.24375 28.9438 -6.40157C30.6438 -8.34063 32.025 -9.93437 33.4062 -11.5281ZM48.2547 -37.7719C47.9094 -38.8344 47.5906 -39.7906 47.1922 -41.0391C45.8906 -38.7812 46.2094 -37.7719 48.2547 -37.7719ZM51.1234 -36.6562C50.3266 -38.0109 50.5922 -41.1188 49.1047 -40.5609C49.6891 -39.3656 47.6969 -37.3203 51.1234 -36.6562ZM41.8531 -47.3609C44.4297 -38.6219 45.7047 -47.4141 51.4688 -41.6234C50.9375 -44.8375 46.4484 -47.7859 41.8531 -47.3609ZM-16 111.031C-9.06719 124.366 -4.49844 132.414 16.1406 137.062C3.55 131.564 -6.225 124.498 -16 111.031ZM-57.9688 112.705V114.962C-46.0422 128.137 -33.5047 143.331 -19.6656 149.388C-17.0625 151.034 -14.4328 152.602 -11.7766 154.062H-8.00468C-17.3281 149.573 -25.7219 144.181 -32.7609 137.939C-41.1281 132.308 -49.4422 122.134 -57.9688 112.705ZM-57.9688 -13.5734V-15.5922C4.71875 -40.6406 -18.125 31.0781 -21.0469 48.8484C-23.9688 66.6188 -17.0625 100.938 -11.4844 92.6234C-5.90625 84.3094 -25.2969 72.7813 11.9703 0.610939C-4.28594 23.5078 -14.4062 63.75 -18.5766 63.8562C-22.7469 63.9625 -20.5156 50.2031 -18.125 44.8906C-21.0469 97.75 22.8875 -55.4625 -55.5781 -22.0203C-56.2156 -21.675 -57.0125 -21.3297 -57.9688 -20.9578V-27.4125C-34.8063 -39.4187 -21.3125 -46.6437 -2.05469 -46.6437C17.2031 -46.6437 32.4766 -42.5797 36.2484 -36.8687C32.45 -1.77969 -41.9781 51.6641 8.62344 116.689C19.3547 128.562 14.2812 129.359 2.85938 120.594C-8.5625 111.828 -20.7016 91.3484 -25.4828 66.5656C-25.1375 81.3078 -23.0922 95.8906 -16.7438 108.056C-23.4641 98.8125 -26.3594 91.1094 -28.1391 73.6313C-29.9187 56.1531 -24.5531 30.7859 -24.0219 11.0766C-23.1719 17.2656 -23.1984 21.1172 -23.4375 26.5625C-11.325 -15.1406 -34.8859 -22.3391 -57.9688 -13.5734ZM-29.5734 -37.7984C-33.7969 -36.975 -42.1375 -34.1594 -45.2719 -31.6094C-40.0391 -33.6812 -34.8062 -35.7266 -29.5734 -37.7984ZM25.2781 -38.2234C29.1828 -34.5047 27.9609 -28.2625 25.7828 -23.1094C26.075 -23.5344 26.3937 -23.9859 26.7391 -24.4375C30.3516 -29.6437 29.1562 -34.9828 25.2781 -38.2234ZM25.0125 -34.9297C25.3312 -30.5734 24.8531 -26.7484 23.4453 -22.3656C27.0578 -27.7312 27.6156 -32.1938 25.0125 -34.9297ZM0.017189 -42.2875C4.24063 -42.2875 8.4375 -42.2875 12.6609 -42.2875C9.075 -42.6328 3.65625 -42.6328 0.017189 -42.2875ZM24.0562 -33.7875C19.8859 -43.6422 3.09844 -41.7828 -5.90625 -40.375C3.975 -40.4016 17.3094 -42.7391 24.0562 -33.7875ZM22.5156 -22.8172C19.6469 -16.8672 13.75 -13.4406 10.35 -7.96875C14.0156 -8.18125 22.1172 -18.7 22.5156 -22.8172ZM137.611 22.2328C132.298 16.5219 132.033 15.4859 134.822 11.7672C129.35 14.4766 133.945 20.1078 137.611 22.2328ZM125.791 -39.1797C131.9 -39.4984 138.089 -37.8516 144.172 -36.4438V-36.6828C138.195 -39.0203 132.272 -41.4109 125.791 -39.1797ZM144.172 60.2437V57.0562C137.452 55.0109 130.891 53.1781 124.277 52.4078C130.545 54.4266 137.372 59.0219 144.172 60.2437ZM-57.9688 123.702C-47.3438 134.273 -36.6656 144.898 -25.3234 154.062H-19.9047C-33.2391 142.641 -45.5109 128.642 -57.9688 118.123V123.702ZM-57.9688 125.614V138.152C-50.3188 141.95 -41.925 147.209 -32.7609 154.062H-28.6437C-38.7906 147.608 -48.4062 136.08 -57.9688 125.614ZM144.172 25.1016V9.5625C142.472 10.5453 140.639 11.5016 138.673 12.4313C136.973 17.3187 139.683 21.9141 144.172 25.1016ZM130.944 11.7406C124.808 14.7422 129.297 17.7969 132.192 21.0375C129.669 16.0969 126.88 15.5922 130.944 11.7406ZM115.378 -24.6234C129.031 -28.4219 135.38 -24.7828 144.172 -20.2672V-20.9047C135.141 -25.3141 130.625 -30.0156 115.378 -24.6234ZM144.172 -0.318748V-0.345314C144.066 -0.292187 143.959 -0.239063 143.853 -0.185936C143.959 -0.239063 144.066 -0.292187 144.172 -0.318748ZM142.419 154.062C143.003 153.744 143.587 153.452 144.172 153.133V151.672C143.003 152.495 141.808 153.266 140.612 154.062H142.419ZM-57.6234 -48.0781C-57.7031 -48.0516 -57.7828 -48.025 -57.8359 -47.9984C-57.7562 -48.025 -57.6766 -48.0516 -57.5969 -48.0781H-57.6234ZM-57.9688 -47.9719C-57.9156 -47.9719 -57.8891 -47.9984 -57.8359 -47.9984C-57.8891 -47.9984 -57.9156 -47.9719 -57.9688 -47.9719ZM-49.15 -48.0781C-52.4437 -46.7766 -55.3922 -45.7406 -57.9688 -44.9437V-36.3906C-46.6531 -40.9594 -35.0188 -44.8375 -23.8625 -48.0781H-49.15ZM23.3922 154.062H27.8547C21.5859 151.778 4.87812 142.402 2.77969 141.233C10.6687 146.838 17.8937 151.22 23.3922 154.062ZM-57.9688 -1.11562V-5.63125C-0.726562 -20.2406 -55.5781 83.5922 -11.5375 130.236C-52.125 104.656 -34.8594 49.4062 -38.8172 11.6609C-40.1187 -0.796879 -48.4062 -2.07187 -57.9688 -1.11562ZM-42.8281 -2.65625C-29.2812 12.2188 -38.1797 43.2969 -37.3563 65.6359C-37.4359 49.6188 -20.25 2.39062 -42.8281 -2.65625ZM100.237 154.062C114.714 150.291 128.42 144.288 140.188 135.92C141.542 134.592 142.87 133.291 144.145 132.042V126.995C125.419 138.63 106.055 148.511 86.8766 154.062H100.237ZM-10.0234 131.75C-6.91563 134.778 -3.19688 137.461 1.26562 139.719L-10.0234 131.75ZM108.578 57.1094C92.7734 46.0594 132.166 66.9109 144.172 68.2922V63.6438C124.994 58.2516 75.5078 42.8719 108.578 57.1094ZM-37.3828 104.736C-34.0625 112.891 -30.6094 125.641 -9.625 136.797C-25.8281 123.516 -31.4062 115.016 -37.3828 104.736ZM-51.5938 74.6406C-50.7969 85.7969 -44.8203 93.3141 -39.375 99.875C-52.8687 59.7125 -25.9344 1.64687 -57.9688 1.03593V4.59531C-55.3922 4.22344 -55.0469 1.32812 -50.1328 3.74532C-37.7016 10.5984 -42.1906 31.5297 -45.1656 41.7297C-45.8562 32.1406 -40.65 18.3547 -49.7344 11.7937C-58.5 8.95156 -48.1141 22.8703 -49.8141 27.1469C-51.6734 21.4359 -54.4891 17.7172 -57.9688 15.5391V22.1797C-48.1406 31.5031 -50.4781 57.5078 -50.1328 68.6641C-54.1172 60.7219 -55.6844 51.5844 -57.9688 42.8719V84.8938C-52.125 95.4922 -47.2641 106.888 -43.625 115.52C-48.5125 109.384 -53.1609 101.894 -57.9688 94.5359V107.525C-45.6172 119.372 -33.0531 134.938 -19.4266 145.27C-26.3594 141.1 -32.9734 136.319 -39.1891 130.927C-30.6891 138.842 -21.2594 145.403 -11.2188 150.716C-9.81094 151.513 -8.40313 152.23 -6.96875 152.867C-6.14531 153.266 -5.34844 153.638 -4.525 154.036H21.5328C-33.7969 141.312 -53.4531 89.25 -51.5938 74.6406ZM137.292 154.062C139.63 152.947 141.941 151.752 144.172 150.477V136.319C131.502 144.181 119.283 149.998 107.542 154.062H137.292ZM123.4 71.2672C131.183 75.3844 137.797 78.625 144.172 78.5453V71.7719C143.508 71.7453 141.595 71.2672 138.009 70.1781C151.636 83.1141 132.856 76.1547 123.4 71.2672ZM-57.9688 154.062H-41.075C-46.7594 150.795 -52.4438 147.475 -57.9688 144.553V154.062ZM34.2031 42.7125C34.2031 42.6859 34.2297 42.6594 34.2297 42.6328C34.2297 42.6594 34.2297 42.6859 34.2031 42.7125ZM34.5219 42.075C34.4156 42.2609 34.3359 42.4469 34.2297 42.6328C34.3359 42.4469 34.4156 42.2609 34.5219 42.075ZM34.6281 41.8891C34.6016 41.9422 34.575 41.9688 34.5484 42.0219C34.575 41.9688 34.6016 41.9422 34.6281 41.8891ZM34.5484 42.0219C34.5484 42.0484 34.5219 42.0484 34.5219 42.075C34.5219 42.0484 34.5484 42.0484 34.5484 42.0219ZM36.5938 43.5625C20.3906 59.5 27.8281 98.2812 32.9281 85.5844C42.8891 60.8547 66.3438 38.5156 95.8281 51.2656C80.6875 42.5 108.552 47.9719 125.498 50.9203C106.852 46.6438 87.4875 40.8266 69.0531 46.5641C74.8172 43.9078 78.2172 42.7922 84.6719 42.7656C69.5578 41.225 57.0734 44.625 44.1906 54.4531C31.3078 64.2812 49.875 31.6094 47.2188 30.0156C44.7484 28.5281 37.9219 35.5406 34.6281 41.8891C38.9047 33.7875 44.8547 35.4344 36.5938 43.5625ZM33.9375 43.2969C34.0172 43.0844 34.1234 42.8984 34.2031 42.7125C34.1234 42.8984 34.0172 43.1109 33.9375 43.2969ZM90.25 42.7656C106.373 44.4125 116.148 48.7156 131.688 50.4688C115.856 47.1484 105.656 42.6594 90.25 42.7656ZM123.4 71.2672C122.975 71.0547 122.577 70.8156 122.152 70.6031C122.523 70.8422 122.948 71.0547 123.4 71.2672ZM-31.9375 -44.2C-29.4672 -45.1031 -26.9969 -46.0062 -24.5266 -46.9094C-27.4219 -47.8656 -29.7062 -45.5281 -31.9375 -44.2ZM-13.8219 -48.0781H-18.2047C-36.1078 -40.6141 -71.2234 -27.2797 -13.8219 -48.0781ZM57.0203 141.445C69.2391 147.05 56.8078 148.511 50.0344 148.325C60.2078 149.892 72.0547 146.067 57.0203 141.445ZM70.1156 144.288C77.8453 149.706 67.4328 150.237 62.5984 150.769C67.9641 150.423 82.9984 149.68 70.1156 144.288ZM84.6453 143.969C101.672 151.167 83.8219 152.469 74.3125 154.062H77.7922C88.7891 152.841 105.205 149.069 84.6453 143.969ZM144.172 53.2578V52.2484C141.356 52.2219 138.487 52.0359 135.566 51.7172C138.487 52.3016 141.356 52.8328 144.172 53.2578ZM26.5 101.469C29.9531 107.312 36.5938 111.828 39.5156 112.359C35.7969 110.5 30.4844 106.25 26.5 101.469ZM56.7812 119.266C23.1 84.7875 55.1875 53.3906 78.0312 49.4062C62.3594 49.9375 29.6875 73.8438 37.6562 96.9531C32.0781 96.3422 25.7031 87.125 23.95 77.9609C25.1719 91.6406 34.7344 106.25 56.7812 119.266ZM36.5938 106.516C25.9688 96.9531 21.2938 82.5031 21.2406 72.9406C20.0984 82.9016 22.5156 95.8906 36.5938 106.516ZM144.172 54.9312V54.2141C142.233 54.0281 140.267 53.7891 138.275 53.4703C140.4 53.9484 142.366 54.4266 144.172 54.9312ZM144.172 -34.3453V-29.0594C137.372 -31.5031 137 -34.2656 119.841 -31.5828C102.681 -28.9 54.7891 -4.22344 44.3766 14.8484C61.8281 -6.375 131.209 -40.5875 144.172 -15.7516V-3.42656C126.667 7.94219 73.7281 12.7234 79.4125 22.6844C81.9359 25.925 89.7188 29.2453 97.1562 24.1984C82.5469 21.0109 108.711 11.5016 112.695 9.82812C80.1297 24.6234 108.047 22.0734 122.444 23.7734C136.841 25.4734 138.089 28.6344 144.172 30.9187V31.5828C131.13 28.05 129.031 23.9594 104.062 24.8891C132.219 26.5891 119.203 35.6203 144.172 36.2312V48.1313C117.344 48.3703 109.641 40.6141 89.6656 40.6141C69.6906 40.6141 57.7375 42.2078 49.6891 47.0953C35.5312 56.3125 55.9844 26.5625 57.8969 22.1531C70.3547 -5.07344 25.0125 40.2422 21.2406 72.9406C21.1078 44.9703 45.8906 9.82812 74.5781 8.23438C83.6094 7.70312 28.8906 51.7969 56.25 43.5625C33.9375 42.2344 108.578 2.65625 86.0266 3.02812C47.5375 3.66562 30.0063 33.15 19.2484 59.6594C15.5031 17.4516 101.672 -41.65 144.172 -34.3453ZM98.0328 26.0312C100.477 27.5719 105.577 26.9078 109.455 27.2531C105.656 26.5891 101.911 25.1016 98.0328 26.0312ZM76.0391 39.3656C67.5922 38.8078 49.6094 44.3594 63.1562 31.6094C46.6875 45.4219 66.5563 40.4016 76.0391 39.3656Z" fill="url(#paint1_linear_2165:101627)"/>
<rect x="-57.9688" y="-48.0781" width="202.141" height="202.141" fill="#35FFFF"/>
</g>
<path d="M63.1562 4.25C63.1562 3.07639 62.2049 2.125 61.0312 2.125H37.6562L20.6562 27.625V57.9062C20.6562 59.0799 21.6076 60.0312 22.7812 60.0312H61.0312C62.2049 60.0312 63.1562 59.0799 63.1562 57.9062V4.25Z" fill="url(#paint2_linear_2165:101627)"/>
<path d="M63.1562 4.25C63.1562 3.07639 62.2049 2.125 61.0312 2.125H37.6562L20.6562 27.625V57.9062C20.6562 59.0799 21.6076 60.0312 22.7812 60.0312H61.0312C62.2049 60.0312 63.1562 59.0799 63.1562 57.9062V4.25Z" fill="url(#paint3_radial_2165:101627)"/>
</g>
</g>
<g filter="url(#filter3_ddddd_2165:101627)">
<path d="M37.6562 2.125L42.9663 10.9751C43.559 11.9628 43.2568 13.2428 42.285 13.8612L20.6562 27.625L37.6562 2.125Z" fill="#0C534F"/>
</g>
<g filter="url(#filter4_biii_2165:101627)">
<circle cx="52.185" cy="36.31" r="17.8959" fill="url(#paint4_linear_2165:101627)"/>
</g>
<g filter="url(#filter5_bdddd_2165:101627)">
<path fill-rule="evenodd" clip-rule="evenodd" d="M62.3999 51.7521C59.4721 53.6927 55.9605 54.8229 52.1849 54.8229C41.9604 54.8229 33.6719 46.5343 33.6719 36.3099C33.6719 26.0854 41.9604 17.7969 52.1849 17.7969C62.4093 17.7969 70.6979 26.0854 70.6979 36.3099C70.6979 40.0808 69.5705 43.5884 67.6343 46.5139L76.5021 55.3817C77.9481 56.8277 77.9481 59.1721 76.5021 60.618C75.0561 62.064 72.7118 62.064 71.2658 60.618L62.3999 51.7521ZM69.1552 36.3099C69.1552 45.6823 61.5573 53.2801 52.1849 53.2801C42.8125 53.2801 35.2146 45.6823 35.2146 36.3099C35.2146 26.9375 42.8125 19.3396 52.1849 19.3396C61.5573 19.3396 69.1552 26.9375 69.1552 36.3099Z" fill="white" fill-opacity="0.45"/>
</g>
<defs>
<filter id="filter0_ddddiii_2165:101627" x="0.75" y="7.73438" width="68" height="83.6719" filterUnits="userSpaceOnUse" color-interpolation-filters="sRGB">
<feFlood flood-opacity="0" result="BackgroundImageFix"/>
<feColorMatrix in="SourceAlpha" type="matrix" values="0 0 0 0 0 0 0 0 0 0 0 0 0 0 0 0 0 0 127 0" result="hardAlpha"/>
<feOffset dy="1.0625"/>
<feGaussianBlur stdDeviation="0.53125"/>
<feColorMatrix type="matrix" values="0 0 0 0 0 0 0 0 0 0 0 0 0 0 0 0 0 0 0.1 0"/>
<feBlend mode="normal" in2="BackgroundImageFix" result="effect1_dropShadow_2165:101627"/>
<feColorMatrix in="SourceAlpha" type="matrix" values="0 0 0 0 0 0 0 0 0 0 0 0 0 0 0 0 0 0 127 0" result="hardAlpha"/>
<feOffset dy="2.125"/>
<feGaussianBlur stdDeviation="1.0625"/>
<feColorMatrix type="matrix" values="0 0 0 0 0 0 0 0 0 0 0 0 0 0 0 0 0 0 0.1 0"/>
<feBlend mode="normal" in2="effect1_dropShadow_2165:101627" result="effect2_dropShadow_2165:101627"/>
<feColorMatrix in="SourceAlpha" type="matrix" values="0 0 0 0 0 0 0 0 0 0 0 0 0 0 0 0 0 0 127 0" result="hardAlpha"/>
<feOffset dy="4.25"/>
<feGaussianBlur stdDeviation="2.125"/>
<feColorMatrix type="matrix" values="0 0 0 0 0 0 0 0 0 0 0 0 0 0 0 0 0 0 0.1 0"/>
<feBlend mode="normal" in2="effect2_dropShadow_2165:101627" result="effect3_dropShadow_2165:101627"/>
<feColorMatrix in="SourceAlpha" type="matrix" values="0 0 0 0 0 0 0 0 0 0 0 0 0 0 0 0 0 0 127 0" result="hardAlpha"/>
<feOffset dy="12.75"/>
<feGaussianBlur stdDeviation="6.375"/>
<feColorMatrix type="matrix" values="0 0 0 0 0 0 0 0 0 0 0 0 0 0 0 0 0 0 0.1 0"/>
<feBlend mode="normal" in2="effect3_dropShadow_2165:101627" result="effect4_dropShadow_2165:101627"/>
<feBlend mode="normal" in="SourceGraphic" in2="effect4_dropShadow_2165:101627" result="shape"/>
<feColorMatrix in="SourceAlpha" type="matrix" values="0 0 0 0 0 0 0 0 0 0 0 0 0 0 0 0 0 0 127 0" result="hardAlpha"/>
<feOffset dy="-1.0625"/>
<feGaussianBlur stdDeviation="0.132812"/>
<feComposite in2="hardAlpha" operator="arithmetic" k2="-1" k3="1"/>
<feColorMatrix type="matrix" values="0 0 0 0 0 0 0 0 0 0 0 0 0 0 0 0 0 0 0.4 0"/>
<feBlend mode="normal" in2="shape" result="effect5_innerShadow_2165:101627"/>
<feColorMatrix in="SourceAlpha" type="matrix" values="0 0 0 0 0 0 0 0 0 0 0 0 0 0 0 0 0 0 127 0" result="hardAlpha"/>
<feOffset dx="-0.265625"/>
<feGaussianBlur stdDeviation="0.132812"/>
<feComposite in2="hardAlpha" operator="arithmetic" k2="-1" k3="1"/>
<feColorMatrix type="matrix" values="0 0 0 0 1 0 0 0 0 1 0 0 0 0 1 0 0 0 0.3 0"/>
<feBlend mode="normal" in2="effect5_innerShadow_2165:101627" result="effect6_innerShadow_2165:101627"/>
<feColorMatrix in="SourceAlpha" type="matrix" values="0 0 0 0 0 0 0 0 0 0 0 0 0 0 0 0 0 0 127 0" result="hardAlpha"/>
<feOffset dx="0.265625"/>
<feGaussianBlur stdDeviation="0.132812"/>
<feComposite in2="hardAlpha" operator="arithmetic" k2="-1" k3="1"/>
<feColorMatrix type="matrix" values="0 0 0 0 1 0 0 0 0 1 0 0 0 0 1 0 0 0 0.3 0"/>
<feBlend mode="normal" in2="effect6_innerShadow_2165:101627" result="effect7_innerShadow_2165:101627"/>
</filter>
<filter id="filter1_biii_2165:101627" x="10.8438" y="5.34375" width="47.8125" height="63.2188" filterUnits="userSpaceOnUse" color-interpolation-filters="sRGB">
<feFlood flood-opacity="0" result="BackgroundImageFix"/>
<feGaussianBlur in="BackgroundImage" stdDeviation="1.32812"/>
<feComposite in2="SourceAlpha" operator="in" result="effect1_backgroundBlur_2165:101627"/>
<feBlend mode="normal" in="SourceGraphic" in2="effect1_backgroundBlur_2165:101627" result="shape"/>
<feColorMatrix in="SourceAlpha" type="matrix" values="0 0 0 0 0 0 0 0 0 0 0 0 0 0 0 0 0 0 127 0" result="hardAlpha"/>
<feOffset dy="-1.0625"/>
<feGaussianBlur stdDeviation="0.132812"/>
<feComposite in2="hardAlpha" operator="arithmetic" k2="-1" k3="1"/>
<feColorMatrix type="matrix" values="0 0 0 0 0.920833 0 0 0 0 0.920833 0 0 0 0 0.920833 0 0 0 0.1 0"/>
<feBlend mode="normal" in2="shape" result="effect2_innerShadow_2165:101627"/>
<feColorMatrix in="SourceAlpha" type="matrix" values="0 0 0 0 0 0 0 0 0 0 0 0 0 0 0 0 0 0 127 0" result="hardAlpha"/>
<feOffset dx="-0.265625"/>
<feGaussianBlur stdDeviation="0.132812"/>
<feComposite in2="hardAlpha" operator="arithmetic" k2="-1" k3="1"/>
<feColorMatrix type="matrix" values="0 0 0 0 0.920833 0 0 0 0 0.920833 0 0 0 0 0.920833 0 0 0 0.1 0"/>
<feBlend mode="normal" in2="effect2_innerShadow_2165:101627" result="effect3_innerShadow_2165:101627"/>
<feColorMatrix in="SourceAlpha" type="matrix" values="0 0 0 0 0 0 0 0 0 0 0 0 0 0 0 0 0 0 127 0" result="hardAlpha"/>
<feOffset dx="0.265625"/>
<feGaussianBlur stdDeviation="0.132812"/>
<feComposite in2="hardAlpha" operator="arithmetic" k2="-1" k3="1"/>
<feColorMatrix type="matrix" values="0 0 0 0 0.920833 0 0 0 0 0.920833 0 0 0 0 0.920833 0 0 0 0.1 0"/>
<feBlend mode="normal" in2="effect3_innerShadow_2165:101627" result="effect4_innerShadow_2165:101627"/>
</filter>
<filter id="filter2_ddddiii_2165:101627" x="7.90625" y="1.85938" width="68" height="83.6719" filterUnits="userSpaceOnUse" color-interpolation-filters="sRGB">
<feFlood flood-opacity="0" result="BackgroundImageFix"/>
<feColorMatrix in="SourceAlpha" type="matrix" values="0 0 0 0 0 0 0 0 0 0 0 0 0 0 0 0 0 0 127 0" result="hardAlpha"/>
<feOffset dy="1.0625"/>
<feGaussianBlur stdDeviation="0.53125"/>
<feColorMatrix type="matrix" values="0 0 0 0 0 0 0 0 0 0 0 0 0 0 0 0 0 0 0.1 0"/>
<feBlend mode="normal" in2="BackgroundImageFix" result="effect1_dropShadow_2165:101627"/>
<feColorMatrix in="SourceAlpha" type="matrix" values="0 0 0 0 0 0 0 0 0 0 0 0 0 0 0 0 0 0 127 0" result="hardAlpha"/>
<feOffset dy="2.125"/>
<feGaussianBlur stdDeviation="1.0625"/>
<feColorMatrix type="matrix" values="0 0 0 0 0 0 0 0 0 0 0 0 0 0 0 0 0 0 0.1 0"/>
<feBlend mode="normal" in2="effect1_dropShadow_2165:101627" result="effect2_dropShadow_2165:101627"/>
<feColorMatrix in="SourceAlpha" type="matrix" values="0 0 0 0 0 0 0 0 0 0 0 0 0 0 0 0 0 0 127 0" result="hardAlpha"/>
<feOffset dy="4.25"/>
<feGaussianBlur stdDeviation="2.125"/>
<feColorMatrix type="matrix" values="0 0 0 0 0 0 0 0 0 0 0 0 0 0 0 0 0 0 0.1 0"/>
<feBlend mode="normal" in2="effect2_dropShadow_2165:101627" result="effect3_dropShadow_2165:101627"/>
<feColorMatrix in="SourceAlpha" type="matrix" values="0 0 0 0 0 0 0 0 0 0 0 0 0 0 0 0 0 0 127 0" result="hardAlpha"/>
<feOffset dy="12.75"/>
<feGaussianBlur stdDeviation="6.375"/>
<feColorMatrix type="matrix" values="0 0 0 0 0 0 0 0 0 0 0 0 0 0 0 0 0 0 0.1 0"/>
<feBlend mode="normal" in2="effect3_dropShadow_2165:101627" result="effect4_dropShadow_2165:101627"/>
<feBlend mode="normal" in="SourceGraphic" in2="effect4_dropShadow_2165:101627" result="shape"/>
<feColorMatrix in="SourceAlpha" type="matrix" values="0 0 0 0 0 0 0 0 0 0 0 0 0 0 0 0 0 0 127 0" result="hardAlpha"/>
<feOffset dy="-1.0625"/>
<feGaussianBlur stdDeviation="0.132812"/>
<feComposite in2="hardAlpha" operator="arithmetic" k2="-1" k3="1"/>
<feColorMatrix type="matrix" values="0 0 0 0 0 0 0 0 0 0 0 0 0 0 0 0 0 0 0.4 0"/>
<feBlend mode="normal" in2="shape" result="effect5_innerShadow_2165:101627"/>
<feColorMatrix in="SourceAlpha" type="matrix" values="0 0 0 0 0 0 0 0 0 0 0 0 0 0 0 0 0 0 127 0" result="hardAlpha"/>
<feOffset dx="-0.265625"/>
<feGaussianBlur stdDeviation="0.132812"/>
<feComposite in2="hardAlpha" operator="arithmetic" k2="-1" k3="1"/>
<feColorMatrix type="matrix" values="0 0 0 0 1 0 0 0 0 1 0 0 0 0 1 0 0 0 0.3 0"/>
<feBlend mode="normal" in2="effect5_innerShadow_2165:101627" result="effect6_innerShadow_2165:101627"/>
<feColorMatrix in="SourceAlpha" type="matrix" values="0 0 0 0 0 0 0 0 0 0 0 0 0 0 0 0 0 0 127 0" result="hardAlpha"/>
<feOffset dx="0.265625"/>
<feGaussianBlur stdDeviation="0.132812"/>
<feComposite in2="hardAlpha" operator="arithmetic" k2="-1" k3="1"/>
<feColorMatrix type="matrix" values="0 0 0 0 1 0 0 0 0 1 0 0 0 0 1 0 0 0 0.3 0"/>
<feBlend mode="normal" in2="effect6_innerShadow_2165:101627" result="effect7_innerShadow_2165:101627"/>
</filter>
<filter id="filter3_ddddd_2165:101627" x="7.90625" y="2.125" width="48.1133" height="51" filterUnits="userSpaceOnUse" color-interpolation-filters="sRGB">
<feFlood flood-opacity="0" result="BackgroundImageFix"/>
<feColorMatrix in="SourceAlpha" type="matrix" values="0 0 0 0 0 0 0 0 0 0 0 0 0 0 0 0 0 0 127 0" result="hardAlpha"/>
<feOffset dy="0.53125"/>
<feGaussianBlur stdDeviation="0.265625"/>
<feColorMatrix type="matrix" values="0 0 0 0 0 0 0 0 0 0 0 0 0 0 0 0 0 0 0.1 0"/>
<feBlend mode="normal" in2="BackgroundImageFix" result="effect1_dropShadow_2165:101627"/>
<feColorMatrix in="SourceAlpha" type="matrix" values="0 0 0 0 0 0 0 0 0 0 0 0 0 0 0 0 0 0 127 0" result="hardAlpha"/>
<feOffset dy="1.0625"/>
<feGaussianBlur stdDeviation="0.53125"/>
<feColorMatrix type="matrix" values="0 0 0 0 0 0 0 0 0 0 0 0 0 0 0 0 0 0 0.1 0"/>
<feBlend mode="normal" in2="effect1_dropShadow_2165:101627" result="effect2_dropShadow_2165:101627"/>
<feColorMatrix in="SourceAlpha" type="matrix" values="0 0 0 0 0 0 0 0 0 0 0 0 0 0 0 0 0 0 127 0" result="hardAlpha"/>
<feOffset dy="2.125"/>
<feGaussianBlur stdDeviation="1.0625"/>
<feColorMatrix type="matrix" values="0 0 0 0 0 0 0 0 0 0 0 0 0 0 0 0 0 0 0.1 0"/>
<feBlend mode="normal" in2="effect2_dropShadow_2165:101627" result="effect3_dropShadow_2165:101627"/>
<feColorMatrix in="SourceAlpha" type="matrix" values="0 0 0 0 0 0 0 0 0 0 0 0 0 0 0 0 0 0 127 0" result="hardAlpha"/>
<feOffset dy="4.25"/>
<feGaussianBlur stdDeviation="2.125"/>
<feColorMatrix type="matrix" values="0 0 0 0 0 0 0 0 0 0 0 0 0 0 0 0 0 0 0.1 0"/>
<feBlend mode="normal" in2="effect3_dropShadow_2165:101627" result="effect4_dropShadow_2165:101627"/>
<feColorMatrix in="SourceAlpha" type="matrix" values="0 0 0 0 0 0 0 0 0 0 0 0 0 0 0 0 0 0 127 0" result="hardAlpha"/>
<feOffset dy="12.75"/>
<feGaussianBlur stdDeviation="6.375"/>
<feColorMatrix type="matrix" values="0 0 0 0 0 0 0 0 0 0 0 0 0 0 0 0 0 0 0.1 0"/>
<feBlend mode="normal" in2="effect4_dropShadow_2165:101627" result="effect5_dropShadow_2165:101627"/>
<feBlend mode="normal" in="SourceGraphic" in2="effect5_dropShadow_2165:101627" result="shape"/>
</filter>
<filter id="filter4_biii_2165:101627" x="31.6328" y="15.7578" width="41.1045" height="41.1045" filterUnits="userSpaceOnUse" color-interpolation-filters="sRGB">
<feFlood flood-opacity="0" result="BackgroundImageFix"/>
<feGaussianBlur in="BackgroundImage" stdDeviation="1.32812"/>
<feComposite in2="SourceAlpha" operator="in" result="effect1_backgroundBlur_2165:101627"/>
<feBlend mode="normal" in="SourceGraphic" in2="effect1_backgroundBlur_2165:101627" result="shape"/>
<feColorMatrix in="SourceAlpha" type="matrix" values="0 0 0 0 0 0 0 0 0 0 0 0 0 0 0 0 0 0 127 0" result="hardAlpha"/>
<feOffset dy="-1.0625"/>
<feGaussianBlur stdDeviation="0.132812"/>
<feComposite in2="hardAlpha" operator="arithmetic" k2="-1" k3="1"/>
<feColorMatrix type="matrix" values="0 0 0 0 0.920833 0 0 0 0 0.920833 0 0 0 0 0.920833 0 0 0 0.1 0"/>
<feBlend mode="normal" in2="shape" result="effect2_innerShadow_2165:101627"/>
<feColorMatrix in="SourceAlpha" type="matrix" values="0 0 0 0 0 0 0 0 0 0 0 0 0 0 0 0 0 0 127 0" result="hardAlpha"/>
<feOffset dx="-0.265625"/>
<feGaussianBlur stdDeviation="0.132812"/>
<feComposite in2="hardAlpha" operator="arithmetic" k2="-1" k3="1"/>
<feColorMatrix type="matrix" values="0 0 0 0 0.920833 0 0 0 0 0.920833 0 0 0 0 0.920833 0 0 0 0.1 0"/>
<feBlend mode="normal" in2="effect2_innerShadow_2165:101627" result="effect3_innerShadow_2165:101627"/>
<feColorMatrix in="SourceAlpha" type="matrix" values="0 0 0 0 0 0 0 0 0 0 0 0 0 0 0 0 0 0 127 0" result="hardAlpha"/>
<feOffset dx="0.265625"/>
<feGaussianBlur stdDeviation="0.132812"/>
<feComposite in2="hardAlpha" operator="arithmetic" k2="-1" k3="1"/>
<feColorMatrix type="matrix" values="0 0 0 0 0.920833 0 0 0 0 0.920833 0 0 0 0 0.920833 0 0 0 0.1 0"/>
<feBlend mode="normal" in2="effect3_innerShadow_2165:101627" result="effect4_innerShadow_2165:101627"/>
</filter>
<filter id="filter5_bdddd_2165:101627" x="19.6719" y="3.79688" width="71.915" height="71.9053" filterUnits="userSpaceOnUse" color-interpolation-filters="sRGB">
<feFlood flood-opacity="0" result="BackgroundImageFix"/>
<feGaussianBlur in="BackgroundImage" stdDeviation="7"/>
<feComposite in2="SourceAlpha" operator="in" result="effect1_backgroundBlur_2165:101627"/>
<feColorMatrix in="SourceAlpha" type="matrix" values="0 0 0 0 0 0 0 0 0 0 0 0 0 0 0 0 0 0 127 0" result="hardAlpha"/>
<feOffset dy="0.53125"/>
<feGaussianBlur stdDeviation="0.265625"/>
<feColorMatrix type="matrix" values="0 0 0 0 0 0 0 0 0 0 0 0 0 0 0 0 0 0 0.1 0"/>
<feBlend mode="normal" in2="effect1_backgroundBlur_2165:101627" result="effect2_dropShadow_2165:101627"/>
<feColorMatrix in="SourceAlpha" type="matrix" values="0 0 0 0 0 0 0 0 0 0 0 0 0 0 0 0 0 0 127 0" result="hardAlpha"/>
<feOffset dy="1.0625"/>
<feGaussianBlur stdDeviation="0.53125"/>
<feColorMatrix type="matrix" values="0 0 0 0 0 0 0 0 0 0 0 0 0 0 0 0 0 0 0.1 0"/>
<feBlend mode="normal" in2="effect2_dropShadow_2165:101627" result="effect3_dropShadow_2165:101627"/>
<feColorMatrix in="SourceAlpha" type="matrix" values="0 0 0 0 0 0 0 0 0 0 0 0 0 0 0 0 0 0 127 0" result="hardAlpha"/>
<feOffset dy="2.125"/>
<feGaussianBlur stdDeviation="1.0625"/>
<feColorMatrix type="matrix" values="0 0 0 0 0 0 0 0 0 0 0 0 0 0 0 0 0 0 0.1 0"/>
<feBlend mode="normal" in2="effect3_dropShadow_2165:101627" result="effect4_dropShadow_2165:101627"/>
<feColorMatrix in="SourceAlpha" type="matrix" values="0 0 0 0 0 0 0 0 0 0 0 0 0 0 0 0 0 0 127 0" result="hardAlpha"/>
<feOffset dy="4.25"/>
<feGaussianBlur stdDeviation="2.125"/>
<feColorMatrix type="matrix" values="0 0 0 0 0 0 0 0 0 0 0 0 0 0 0 0 0 0 0.1 0"/>
<feBlend mode="normal" in2="effect4_dropShadow_2165:101627" result="effect5_dropShadow_2165:101627"/>
<feBlend mode="normal" in="SourceGraphic" in2="effect5_dropShadow_2165:101627" result="shape"/>
</filter>
<linearGradient id="paint0_linear_2165:101627" x1="34.75" y1="8" x2="34.75" y2="65.9062" gradientUnits="userSpaceOnUse">
<stop stop-color="#42E8E0" stop-opacity="0.28"/>
<stop offset="1" stop-color="#42E8E0" stop-opacity="0.2"/>
</linearGradient>
<linearGradient id="paint1_linear_2165:101627" x1="43.1016" y1="-48.0781" x2="43.1016" y2="154.062" gradientUnits="userSpaceOnUse">
<stop stop-color="white" stop-opacity="0.48"/>
<stop offset="1" stop-color="white" stop-opacity="0"/>
</linearGradient>
<linearGradient id="paint2_linear_2165:101627" x1="41.9081" y1="1.84818" x2="41.9081" y2="59.577" gradientUnits="userSpaceOnUse">
<stop stop-color="white" stop-opacity="0.4"/>
<stop offset="0.833333" stop-color="white" stop-opacity="0"/>
<stop offset="1" stop-color="white" stop-opacity="0.3"/>
</linearGradient>
<radialGradient id="paint3_radial_2165:101627" cx="0" cy="0" r="1" gradientUnits="userSpaceOnUse" gradientTransform="translate(20.6562 9.72723) scale(32.5897 68.9164)">
<stop stop-color="white" stop-opacity="0.7"/>
<stop offset="1" stop-color="white" stop-opacity="0"/>
</radialGradient>
<linearGradient id="paint4_linear_2165:101627" x1="52.185" y1="18.4141" x2="52.185" y2="54.2059" gradientUnits="userSpaceOnUse">
<stop stop-color="#A6A0BA" stop-opacity="0.15"/>
<stop offset="1" stop-opacity="0.2"/>
</linearGradient>
<clipPath id="clip0_2165:101627">
<rect width="202.141" height="202.141" fill="white" transform="translate(-57.9688 -48.0781)"/>
</clipPath>
</defs>
</svg>
