<svg width="63" height="54" viewBox="0 0 63 54" fill="none" xmlns="http://www.w3.org/2000/svg">
<path d="M31.3916 9.10156L16.3418 16.7141L31.3916 25.2054L46.2073 16.7141L31.3916 9.10156Z" fill="#42E8E0"/>
<path d="M33.3379 46.042V28.7659L47.5156 20.6025V37.7222L33.3379 46.042Z" fill="#42E8E0"/>
<path d="M29.2198 28.6816L15.0059 20.6348L15.0061 37.5935L29.2198 45.9036V28.6816Z" fill="#42E8E0"/>
<path d="M29.2207 20.6344L17.8965 5.56543H7.12402" stroke="#42E8E0" stroke-width="3" stroke-linecap="round" stroke-linejoin="round"/>
<path d="M27.3906 33.3226L16.0664 48.3916H5.29395" stroke="#42E8E0" stroke-width="3" stroke-linecap="round" stroke-linejoin="round"/>
<path d="M34.4375 20.6022L45.7617 5.5332H56.5342" stroke="#42E8E0" stroke-width="3" stroke-linecap="round" stroke-linejoin="round"/>
<path d="M35.1582 34.5882L46.4824 49.6572H57.2549" stroke="#42E8E0" stroke-width="3" stroke-linecap="round" stroke-linejoin="round"/>
<circle cx="57.2546" cy="5.56519" r="4.90894" fill="#42E8E0"/>
<circle cx="57.2546" cy="48.3914" r="4.90894" fill="#42E8E0"/>
<circle cx="5.26831" cy="48.3914" r="4.90894" fill="#42E8E0"/>
<circle cx="5.26831" cy="5.56519" r="4.90894" fill="#42E8E0"/>
</svg>
