<svg width="163" height="162" viewBox="0 0 163 162" fill="none" xmlns="http://www.w3.org/2000/svg">
<g filter="url(#filter0_ddddd_2165:101618)">
<path d="M113.534 41.8504C103.258 35.0231 92.9574 27.9559 82.9897 21.0784C82.1138 20.4739 80.8862 20.4739 80.0104 21.0784C70.0426 27.956 59.7423 35.0232 49.4658 41.8504C48.1963 42.6938 48.1741 44.282 49.4242 45.0996C59.5424 51.7204 69.848 58.6796 79.9839 65.5473C80.8745 66.1509 82.1254 66.1509 83.0159 65.5473C93.1518 58.6796 103.457 51.7204 113.576 45.0996C114.826 44.2819 114.804 42.6938 113.534 41.8504Z" fill="#114945"/>
</g>
<g filter="url(#filter1_ddddiii_2165:101618)">
<mask id="mask0_2165:101618" style="mask-type:alpha" maskUnits="userSpaceOnUse" x="48" y="10" width="67" height="46">
<path d="M113.534 31.6128C103.258 24.7614 92.9574 17.6693 82.9897 10.7675C82.1138 10.1608 80.8862 10.1608 80.0104 10.7675C70.0426 17.6694 59.7423 24.7616 49.4658 31.6128C48.1963 32.4592 48.1741 34.0531 49.4242 34.8735C59.5424 41.5178 69.848 48.5015 79.9839 55.3935C80.8745 55.9992 82.1254 55.9992 83.0159 55.3935C93.1518 48.5015 103.457 41.5178 113.576 34.8735C114.826 34.0529 114.804 32.4592 113.534 31.6128Z" fill="#353535"/>
</mask>
<g mask="url(#mask0_2165:101618)">
<g clip-path="url(#clip0_2165:101618)">
<rect width="761" height="761" transform="translate(-232.5 -515)" fill="#35FFFF"/>
<path d="M-124.1 -364.5C-141 -381.4 -171 -386.4 -221.5 -373.1C-170.3 -390.7 -140.7 -385.4 -124.1 -364.5ZM528.5 -30.8V-25.7C488.4 -31.1 451.3 -50.8 412.6 -67.7C487 -27.2 508.7 -5.5 528.5 -4.5V91.7C391.8 141.1 200.6 49.3 282.9 11.4C318.5 -4.99997 478.6 52.3 413.5 -31C424.5 -11 426.5 10 388.7 4C401.5 1.90002 416.5 -3 405.4 -19.8C394.3 -36.6 405.9 7.79999 327.5 -15C265.5 -33 175.5 16 234.5 -43C106.5 50 362.5 161.1 510.1 119.2C492.4 123.9 464.2 125.4 432.3 123.4C465.5 122.9 497.7 115.6 528.4 103.1V133.7C417.2 206.6 313.5 223.4 125 151C287.4 252 99.7 204.7 95.5 203.5C110.4 207.6 184.5 218.1 177.5 205.1C170.5 192.1 115.1 196.4 72.5 179.7C90.1 177.9 121.2 189.6 82.5 156.2C157.8 218.4 99.4 150.7 58.1 120.2C52.3 115.4 46.8 110.3 41.5 104.9C46.9 109.3 51.4 110.3 54.4 106.8C43.3 87.6 33.6 69.5 25.1 52.4C27.5 55.6 30 58.9 32.7 62.1C-122.8 -258.9 267.5 -385.6 285 -496.7C283.6 -492.3 281.4 -487.9 278.3 -483.6C283.1 -496.4 285.7 -505.7 284.2 -514.9H309.2C309.7 -513.6 310.3 -512.2 310.7 -510.8C312 -512.2 313.1 -513.6 314.1 -514.9H347.9C348 -495.6 334 -472.7 294 -443.4C324.7 -462.9 350.5 -486.6 356.3 -515H372.7C332.2 -473 274.7 -410.5 241.2 -398.6C129.8 -346.3 59.6 -235.3 42.9 -126.4C57.1 -173.6 84.3 -222.2 121.3 -268.5C66.9 -194.2 34.9 -108.5 42 -35C45.2 -13.2 51 7.69995 59.5 27.1C87.1 81.9 147.1 122.5 250.1 134.2C124.8 65.5 116 -107.4 277.5 -127.2C329 -135.7 377.2 -120.9 424.6 -104.3C363.8 -119.6 281 -144.7 232.3 -104C285.6 -110.3 340.6 -104.4 391.9 -87.2C335 -98.6 257.7 -127.3 212.6 -75.7C224.5 -83 240.5 -97 272.5 -97C225.5 -88 228.5 -75 273.3 -77.8C196 -72.8 120.5 -14 194.4 66.6C268.3 147.2 343.5 147.8 317.6 164.7C271.5 195 124 128 77.9 61.8C76.4 60.2 75 58.6 73.5 57C133.7 148.9 294.6 214.5 390.1 167.8C430.5 148 77.5 62 202.2 -49.4C235.9 -79.5 323.9 -79.8 368.5 -41.2C339.5 -60 235.5 -70.4 267.5 -41C291.5 -19 398.1 -6.10001 381.6 -35.5C372.1 -48 359.9 -57.5 346.2 -64.4C346.4 -64.3 346.6 -64.3 346.8 -64.2C230.7 -129.6 362.1 -91.8 483.1 -41.7C498.8 -33.6 514 -30.4 528.5 -30.8ZM81.7 65.7C81.7 65.7 125 116.1 196.5 141C252.7 160.5 302.2 157.1 302.5 155C302.8 152.7 243.1 153.1 172.5 122C114.6 96.5 81.7 65.7 81.7 65.7ZM226 -400.6C246 -414.2 266 -427.7 286 -441.3C269.3 -434.6 238.3 -413.6 226 -400.6ZM38.5 -19C37.7 -29 31.8 -61.1 32.6 -71.5C25.6 -174.8 72.7 -288.4 176.7 -359.8C48.1 -279.9 3.5 -165 38.5 -19ZM26.8 -181.5C39.8 -207.3 53.4 -234.4 67.2 -261.8C53.4 -245.4 25.9 -191 26.8 -181.5ZM163.3 153.4C103 124.4 48 79.9 19.6 18C31.8 70.9 112.1 150.3 163.3 153.4ZM418.1 -40.8C426.3 -28.6 431.5 -24 443.4 -2.59998C485.7 73.5 251.8 -19.5 277.1 44.2C292.5 83 400.5 102 432.5 102C344.5 86 286.1 62.8 292.2 37.2C301.5 -1 577.5 132 418.1 -40.8ZM-30.5 -65C-31.1 -82.9 -32.8 -121.2 -29.5 -139C-35.1 -124.6 -32.8 -85.5 -30.5 -65ZM41.5 104.8C37.7 101 34.1 97.1 30.6 93C34.5 98.1 38.2 102.1 41.5 104.8ZM30.6 93.1C7 62.2 -23 6.79999 -29.5 -50C-27.7 7.70001 -7.29999 49.2 30.6 93.1ZM190.2 -500.9C195.3 -492.5 197.6 -483.3 198.5 -474.5C198.8 -484.3 196.4 -493.4 190.2 -500.9ZM177.7 -515H167.6C177.9 -511.6 185.2 -506.8 190.1 -500.9C187.1 -505.9 183.1 -510.7 177.7 -515ZM16.5 39C-6.5 -7.60001 -9.89999 -25.1 -16.5 -60C-15.2 -18.6 -11.5 -4 16.5 39ZM-14.5 126C21.5 167 107.5 191 61.5 143C74.5 176 13.5 151 -14.5 126ZM122.7 -487.1C122.2 -496.8 120 -506.1 115.8 -515H94.1C100.6 -512.2 106.7 -508.6 112.4 -503.9C102.4 -507.6 92.4 -511.2 82 -515H71.3C96.1 -508.9 116.1 -499.6 122.7 -487.1ZM528.5 -515V-475.7C461.9 -503.2 405.5 -480.2 373.5 -453C341.5 -425.8 296.7 -420.6 261.8 -399.4C298.6 -425.3 349.5 -436 379.9 -467C410.3 -498 398.8 -502.5 404.9 -515H528.5ZM478.1 -502.2C456.6 -501.9 438.2 -493.5 420.2 -483.7C439.2 -490.8 458.6 -497 478.1 -502.2ZM427.4 113.4C403.8 111.9 378.2 108.5 353.4 103.1C378.4 110.6 403.1 113.8 427.4 113.4ZM358.4 113.2C344 108.9 329.6 103.3 315 96.1C167.5 14 296.5 -7 358.6 3.5C321.5 -12 212.5 -31.1 243.4 47.7C236.6 39.2 222.5 27 225.5 4C205.5 59 292 98.7 358.4 113.2ZM244.5 -386C190.7 -353.3 159.3 -320.4 121.4 -268.6C159.3 -316 190 -347.6 244.5 -386ZM528.5 -65V-73.4C513.9 -75.8 470 -88.6 455.5 -93C475.6 -85.1 523.9 -68 528.5 -65ZM131.8 -515H166.5C234.7 -478.8 145.2 -418.1 130.3 -376.1C156.2 -389 197.1 -437.2 198.5 -474.4C202.6 -432.8 175.1 -397.9 259.2 -473.8C273.6 -483.3 276.3 -498.8 270.8 -515H275.9C284.9 -428.9 111.7 -385.1 94.3 -342.7C136.8 -352.1 66 -319.8 76.5 -313.1C121.9 -342.9 157 -385.5 203.3 -414C95.3 -338.4 -22.5 -201.8 -18.2 -68.8C-49.7 -234.8 159.2 -414.6 148.7 -480.8C143.5 -513 136.6 -506.5 131.8 -515ZM111.5 -377.4C105.7 -378.9 94.9 -368.8 94.7 -358.1C101.1 -365.4 106.3 -371.4 111.5 -377.4ZM167.4 -476.2C166.1 -480.2 164.9 -483.8 163.4 -488.5C158.5 -480 159.7 -476.2 167.4 -476.2ZM178.2 -472C175.2 -477.1 176.2 -488.8 170.6 -486.7C172.8 -482.2 165.3 -474.5 178.2 -472ZM143.3 -512.3C153 -479.4 157.8 -512.5 179.5 -490.7C177.5 -502.8 160.6 -513.9 143.3 -512.3ZM-74.5 84C-48.4 134.2 -31.2 164.5 46.5 182C-0.899994 161.3 -37.7 134.7 -74.5 84ZM-232.5 90.3V98.8C-187.6 148.4 -140.4 205.6 -88.3 228.4C-78.5 234.6 -68.6 240.5 -58.6 246H-44.4C-79.5 229.1 -111.1 208.8 -137.6 185.3C-169.1 164.1 -200.4 125.8 -232.5 90.3ZM-232.5 -385.1V-392.7C3.5 -487 -82.5 -217 -93.5 -150.1C-104.5 -83.2 -78.5 46 -57.5 14.7C-36.5 -16.6 -109.5 -60 30.8 -331.7C-30.4 -245.5 -68.5 -94 -84.2 -93.6C-99.9 -93.2 -91.5 -145 -82.5 -165C-93.5 34 71.9 -542.8 -223.5 -416.9C-225.9 -415.6 -228.9 -414.3 -232.5 -412.9V-437.2C-145.3 -482.4 -94.5 -509.6 -22 -509.6C50.5 -509.6 108 -494.3 122.2 -472.8C107.9 -340.7 -172.3 -139.5 18.2 105.3C58.6 150 39.5 153 -3.5 120C-46.5 87 -92.2 9.90002 -110.2 -83.4C-108.9 -27.9 -101.2 27 -77.3 72.8C-102.6 38 -113.5 9 -120.2 -56.8C-126.9 -122.6 -106.7 -218.1 -104.7 -292.3C-101.5 -269 -101.6 -254.5 -102.5 -234C-56.9 -391 -145.6 -418.1 -232.5 -385.1ZM-125.6 -476.3C-141.5 -473.2 -172.9 -462.6 -184.7 -453C-165 -460.8 -145.3 -468.5 -125.6 -476.3ZM80.9 -477.9C95.6 -463.9 91 -440.4 82.8 -421C83.9 -422.6 85.1 -424.3 86.4 -426C100 -445.6 95.5 -465.7 80.9 -477.9ZM79.9 -465.5C81.1 -449.1 79.3 -434.7 74 -418.2C87.6 -438.4 89.7 -455.2 79.9 -465.5ZM-14.2 -493.2C1.7 -493.2 17.5 -493.2 33.4 -493.2C19.9 -494.5 -0.5 -494.5 -14.2 -493.2ZM76.3 -461.2C60.6 -498.3 -2.60001 -491.3 -36.5 -486C0.699997 -486.1 50.9 -494.9 76.3 -461.2ZM70.5 -419.9C59.7 -397.5 37.5 -384.6 24.7 -364C38.5 -364.8 69 -404.4 70.5 -419.9ZM503.8 -250.3C483.8 -271.8 482.8 -275.7 493.3 -289.7C472.7 -279.5 490 -258.3 503.8 -250.3ZM459.3 -481.5C482.3 -482.7 505.6 -476.5 528.5 -471.2V-472.1C506 -480.9 483.7 -489.9 459.3 -481.5ZM528.5 -107.2V-119.2C503.2 -126.9 478.5 -133.8 453.6 -136.7C477.2 -129.1 502.9 -111.8 528.5 -107.2ZM-232.5 131.7C-192.5 171.5 -152.3 211.5 -109.6 246H-89.2C-139.4 203 -185.6 150.3 -232.5 110.7V131.7ZM-232.5 138.9V186.1C-203.7 200.4 -172.1 220.2 -137.6 246H-122.1C-160.3 221.7 -196.5 178.3 -232.5 138.9ZM528.5 -239.5V-298C522.1 -294.3 515.2 -290.7 507.8 -287.2C501.4 -268.8 511.6 -251.5 528.5 -239.5ZM478.7 -289.8C455.6 -278.5 472.5 -267 483.4 -254.8C473.9 -273.4 463.4 -275.3 478.7 -289.8ZM420.1 -426.7C471.5 -441 495.4 -427.3 528.5 -410.3V-412.7C494.5 -429.3 477.5 -447 420.1 -426.7ZM528.5 -335.2V-335.3C528.1 -335.1 527.7 -334.9 527.3 -334.7C527.7 -334.9 528.1 -335.1 528.5 -335.2ZM521.9 246C524.1 244.8 526.3 243.7 528.5 242.5V237C524.1 240.1 519.6 243 515.1 246H521.9ZM-231.2 -515C-231.5 -514.9 -231.8 -514.8 -232 -514.7C-231.7 -514.8 -231.4 -514.9 -231.1 -515H-231.2ZM-232.5 -514.6C-232.3 -514.6 -232.2 -514.7 -232 -514.7C-232.2 -514.7 -232.3 -514.6 -232.5 -514.6ZM-199.3 -515C-211.7 -510.1 -222.8 -506.2 -232.5 -503.2V-471C-189.9 -488.2 -146.1 -502.8 -104.1 -515H-199.3ZM73.8 246H90.6C67 237.4 4.09999 202.1 -3.8 197.7C25.9 218.8 53.1 235.3 73.8 246ZM-232.5 -338.2V-355.2C-17 -410.2 -223.5 -19.3 -57.7 156.3C-210.5 60 -145.5 -148 -160.4 -290.1C-165.3 -337 -196.5 -341.8 -232.5 -338.2ZM-175.5 -344C-124.5 -288 -158 -171 -154.9 -86.9C-155.2 -147.2 -90.5 -325 -175.5 -344ZM363.1 246C417.6 231.8 469.2 209.2 513.5 177.7C518.6 172.7 523.6 167.8 528.4 163.1V144.1C457.9 187.9 385 225.1 312.8 246H363.1ZM-52 162C-40.3 173.4 -26.3 183.5 -9.5 192L-52 162ZM394.5 -119C335 -160.6 483.3 -82.1 528.5 -76.9V-94.4C456.3 -114.7 270 -172.6 394.5 -119ZM-155 60.3C-142.5 91 -129.5 139 -50.5 181C-111.5 131 -132.5 99 -155 60.3ZM-208.5 -53C-205.5 -11 -183 17.3 -162.5 42C-213.3 -109.2 -111.9 -327.8 -232.5 -330.1V-316.7C-222.8 -318.1 -221.5 -329 -203 -319.9C-156.2 -294.1 -173.1 -215.3 -184.3 -176.9C-186.9 -213 -167.3 -264.9 -201.5 -289.6C-234.5 -300.3 -195.4 -247.9 -201.8 -231.8C-208.8 -253.3 -219.4 -267.3 -232.5 -275.5V-250.5C-195.5 -215.4 -204.3 -117.5 -203 -75.5C-218 -105.4 -223.9 -139.8 -232.5 -172.6V-14.4C-210.5 25.5 -192.2 68.4 -178.5 100.9C-196.9 77.8 -214.4 49.6 -232.5 21.9V70.8C-186 115.4 -138.7 174 -87.4 212.9C-113.5 197.2 -138.4 179.2 -161.8 158.9C-129.8 188.7 -94.3 213.4 -56.5 233.4C-51.2 236.4 -45.9 239.1 -40.5 241.5C-37.4 243 -34.4 244.4 -31.3 245.9H66.8C-141.5 198 -215.5 2 -208.5 -53ZM502.6 246C511.4 241.8 520.1 237.3 528.5 232.5V179.2C480.8 208.8 434.8 230.7 390.6 246H502.6ZM450.3 -65.7C479.6 -50.2 504.5 -38 528.5 -38.3V-63.8C526 -63.9 518.8 -65.7 505.3 -69.8C556.6 -21.1 485.9 -47.3 450.3 -65.7ZM-232.5 246H-168.9C-190.3 233.7 -211.7 221.2 -232.5 210.2V246ZM114.5 -173.2C114.5 -173.3 114.6 -173.4 114.6 -173.5C114.6 -173.4 114.6 -173.3 114.5 -173.2ZM115.7 -175.6C115.3 -174.9 115 -174.2 114.6 -173.5C115 -174.2 115.3 -174.9 115.7 -175.6ZM116.1 -176.3C116 -176.1 115.9 -176 115.8 -175.8C115.9 -176 116 -176.1 116.1 -176.3ZM115.8 -175.8C115.8 -175.7 115.7 -175.7 115.7 -175.6C115.7 -175.7 115.8 -175.7 115.8 -175.8ZM123.5 -170C62.5 -110 90.5 36 109.7 -11.8C147.2 -104.9 235.5 -189 346.5 -141C289.5 -174 394.4 -153.4 458.2 -142.3C388 -158.4 315.1 -180.3 245.7 -158.7C267.4 -168.7 280.2 -172.9 304.5 -173C247.6 -178.8 200.6 -166 152.1 -129C103.6 -92 173.5 -215 163.5 -221C154.2 -226.6 128.5 -200.2 116.1 -176.3C132.2 -206.8 154.6 -200.6 123.5 -170ZM113.5 -171C113.8 -171.8 114.2 -172.5 114.5 -173.2C114.2 -172.5 113.8 -171.7 113.5 -171ZM325.5 -173C386.2 -166.8 423 -150.6 481.5 -144C421.9 -156.5 383.5 -173.4 325.5 -173ZM450.3 -65.7C448.7 -66.5 447.2 -67.4 445.6 -68.2C447 -67.3 448.6 -66.5 450.3 -65.7ZM-134.5 -500.4C-125.2 -503.8 -115.9 -507.2 -106.6 -510.6C-117.5 -514.2 -126.1 -505.4 -134.5 -500.4ZM-66.3 -515H-82.8C-150.2 -486.9 -282.4 -436.7 -66.3 -515ZM200.4 198.5C246.4 219.6 199.6 225.1 174.1 224.4C212.4 230.3 257 215.9 200.4 198.5ZM249.7 209.2C278.8 229.6 239.6 231.6 221.4 233.6C241.6 232.3 298.2 229.5 249.7 209.2ZM304.4 208C368.5 235.1 301.3 240 265.5 246H278.6C320 241.4 381.8 227.2 304.4 208ZM528.5 -133.5V-137.3C517.9 -137.4 507.1 -138.1 496.1 -139.3C507.1 -137.1 517.9 -135.1 528.5 -133.5ZM85.5 48C98.5 70 123.5 87 134.5 89C120.5 82 100.5 66 85.5 48ZM199.5 115C72.7 -14.8 193.5 -133 279.5 -148C220.5 -146 97.5 -56 127.5 31C106.5 28.7 82.5 -6 75.9 -40.5C80.5 11 116.5 66 199.5 115ZM123.5 67C83.5 31 65.9 -23.4 65.7 -59.4C61.4 -21.9 70.5 27 123.5 67ZM528.5 -127.2V-129.9C521.2 -130.6 513.8 -131.5 506.3 -132.7C514.3 -130.9 521.7 -129.1 528.5 -127.2ZM528.5 -463.3V-443.4C502.9 -452.6 501.5 -463 436.9 -452.9C372.3 -442.8 192 -349.9 152.8 -278.1C218.5 -358 479.7 -486.8 528.5 -393.3V-346.9C462.6 -304.1 263.3 -286.1 284.7 -248.6C294.2 -236.4 323.5 -223.9 351.5 -242.9C296.5 -254.9 395 -290.7 410 -297C287.4 -241.3 392.5 -250.9 446.7 -244.5C500.9 -238.1 505.6 -226.2 528.5 -217.6V-215.1C479.4 -228.4 471.5 -243.8 377.5 -240.3C483.5 -233.9 434.5 -199.9 528.5 -197.6V-152.8C427.5 -151.9 398.5 -181.1 323.3 -181.1C248.1 -181.1 203.1 -175.1 172.8 -156.7C119.5 -122 196.5 -234 203.7 -250.6C250.6 -353.1 79.9 -182.5 65.7 -59.4C65.2 -164.7 158.5 -297 266.5 -303C300.5 -305 94.5 -139 197.5 -170C113.5 -175 394.5 -324 309.6 -322.6C164.7 -320.2 98.7 -209.2 58.2 -109.4C44.1 -268.3 368.5 -490.8 528.5 -463.3ZM354.8 -236C364 -230.2 383.2 -232.7 397.8 -231.4C383.5 -233.9 369.4 -239.5 354.8 -236ZM272 -185.8C240.2 -187.9 172.5 -167 223.5 -215C161.5 -163 236.3 -181.9 272 -185.8Z" fill="#BD93B9"/>
<path d="M-124.1 -364.5C-141 -381.4 -171 -386.4 -221.5 -373.1C-170.3 -390.7 -140.7 -385.4 -124.1 -364.5ZM528.5 -30.8V-25.7C488.4 -31.1 451.3 -50.8 412.6 -67.7C487 -27.2 508.7 -5.5 528.5 -4.5V91.7C391.8 141.1 200.6 49.3 282.9 11.4C318.5 -4.99997 478.6 52.3 413.5 -31C424.5 -11 426.5 10 388.7 4C401.5 1.90002 416.5 -3 405.4 -19.8C394.3 -36.6 405.9 7.79999 327.5 -15C265.5 -33 175.5 16 234.5 -43C106.5 50 362.5 161.1 510.1 119.2C492.4 123.9 464.2 125.4 432.3 123.4C465.5 122.9 497.7 115.6 528.4 103.1V133.7C417.2 206.6 313.5 223.4 125 151C287.4 252 99.7 204.7 95.5 203.5C110.4 207.6 184.5 218.1 177.5 205.1C170.5 192.1 115.1 196.4 72.5 179.7C90.1 177.9 121.2 189.6 82.5 156.2C157.8 218.4 99.4 150.7 58.1 120.2C52.3 115.4 46.8 110.3 41.5 104.9C46.9 109.3 51.4 110.3 54.4 106.8C43.3 87.6 33.6 69.5 25.1 52.4C27.5 55.6 30 58.9 32.7 62.1C-122.8 -258.9 267.5 -385.6 285 -496.7C283.6 -492.3 281.4 -487.9 278.3 -483.6C283.1 -496.4 285.7 -505.7 284.2 -514.9H309.2C309.7 -513.6 310.3 -512.2 310.7 -510.8C312 -512.2 313.1 -513.6 314.1 -514.9H347.9C348 -495.6 334 -472.7 294 -443.4C324.7 -462.9 350.5 -486.6 356.3 -515H372.7C332.2 -473 274.7 -410.5 241.2 -398.6C129.8 -346.3 59.6 -235.3 42.9 -126.4C57.1 -173.6 84.3 -222.2 121.3 -268.5C66.9 -194.2 34.9 -108.5 42 -35C45.2 -13.2 51 7.69995 59.5 27.1C87.1 81.9 147.1 122.5 250.1 134.2C124.8 65.5 116 -107.4 277.5 -127.2C329 -135.7 377.2 -120.9 424.6 -104.3C363.8 -119.6 281 -144.7 232.3 -104C285.6 -110.3 340.6 -104.4 391.9 -87.2C335 -98.6 257.7 -127.3 212.6 -75.7C224.5 -83 240.5 -97 272.5 -97C225.5 -88 228.5 -75 273.3 -77.8C196 -72.8 120.5 -14 194.4 66.6C268.3 147.2 343.5 147.8 317.6 164.7C271.5 195 124 128 77.9 61.8C76.4 60.2 75 58.6 73.5 57C133.7 148.9 294.6 214.5 390.1 167.8C430.5 148 77.5 62 202.2 -49.4C235.9 -79.5 323.9 -79.8 368.5 -41.2C339.5 -60 235.5 -70.4 267.5 -41C291.5 -19 398.1 -6.10001 381.6 -35.5C372.1 -48 359.9 -57.5 346.2 -64.4C346.4 -64.3 346.6 -64.3 346.8 -64.2C230.7 -129.6 362.1 -91.8 483.1 -41.7C498.8 -33.6 514 -30.4 528.5 -30.8ZM81.7 65.7C81.7 65.7 125 116.1 196.5 141C252.7 160.5 302.2 157.1 302.5 155C302.8 152.7 243.1 153.1 172.5 122C114.6 96.5 81.7 65.7 81.7 65.7ZM226 -400.6C246 -414.2 266 -427.7 286 -441.3C269.3 -434.6 238.3 -413.6 226 -400.6ZM38.5 -19C37.7 -29 31.8 -61.1 32.6 -71.5C25.6 -174.8 72.7 -288.4 176.7 -359.8C48.1 -279.9 3.5 -165 38.5 -19ZM26.8 -181.5C39.8 -207.3 53.4 -234.4 67.2 -261.8C53.4 -245.4 25.9 -191 26.8 -181.5ZM163.3 153.4C103 124.4 48 79.9 19.6 18C31.8 70.9 112.1 150.3 163.3 153.4ZM418.1 -40.8C426.3 -28.6 431.5 -24 443.4 -2.59998C485.7 73.5 251.8 -19.5 277.1 44.2C292.5 83 400.5 102 432.5 102C344.5 86 286.1 62.8 292.2 37.2C301.5 -1 577.5 132 418.1 -40.8ZM-30.5 -65C-31.1 -82.9 -32.8 -121.2 -29.5 -139C-35.1 -124.6 -32.8 -85.5 -30.5 -65ZM41.5 104.8C37.7 101 34.1 97.1 30.6 93C34.5 98.1 38.2 102.1 41.5 104.8ZM30.6 93.1C7 62.2 -23 6.79999 -29.5 -50C-27.7 7.70001 -7.29999 49.2 30.6 93.1ZM190.2 -500.9C195.3 -492.5 197.6 -483.3 198.5 -474.5C198.8 -484.3 196.4 -493.4 190.2 -500.9ZM177.7 -515H167.6C177.9 -511.6 185.2 -506.8 190.1 -500.9C187.1 -505.9 183.1 -510.7 177.7 -515ZM16.5 39C-6.5 -7.60001 -9.89999 -25.1 -16.5 -60C-15.2 -18.6 -11.5 -4 16.5 39ZM-14.5 126C21.5 167 107.5 191 61.5 143C74.5 176 13.5 151 -14.5 126ZM122.7 -487.1C122.2 -496.8 120 -506.1 115.8 -515H94.1C100.6 -512.2 106.7 -508.6 112.4 -503.9C102.4 -507.6 92.4 -511.2 82 -515H71.3C96.1 -508.9 116.1 -499.6 122.7 -487.1ZM528.5 -515V-475.7C461.9 -503.2 405.5 -480.2 373.5 -453C341.5 -425.8 296.7 -420.6 261.8 -399.4C298.6 -425.3 349.5 -436 379.9 -467C410.3 -498 398.8 -502.5 404.9 -515H528.5ZM478.1 -502.2C456.6 -501.9 438.2 -493.5 420.2 -483.7C439.2 -490.8 458.6 -497 478.1 -502.2ZM427.4 113.4C403.8 111.9 378.2 108.5 353.4 103.1C378.4 110.6 403.1 113.8 427.4 113.4ZM358.4 113.2C344 108.9 329.6 103.3 315 96.1C167.5 14 296.5 -7 358.6 3.5C321.5 -12 212.5 -31.1 243.4 47.7C236.6 39.2 222.5 27 225.5 4C205.5 59 292 98.7 358.4 113.2ZM244.5 -386C190.7 -353.3 159.3 -320.4 121.4 -268.6C159.3 -316 190 -347.6 244.5 -386ZM528.5 -65V-73.4C513.9 -75.8 470 -88.6 455.5 -93C475.6 -85.1 523.9 -68 528.5 -65ZM131.8 -515H166.5C234.7 -478.8 145.2 -418.1 130.3 -376.1C156.2 -389 197.1 -437.2 198.5 -474.4C202.6 -432.8 175.1 -397.9 259.2 -473.8C273.6 -483.3 276.3 -498.8 270.8 -515H275.9C284.9 -428.9 111.7 -385.1 94.3 -342.7C136.8 -352.1 66 -319.8 76.5 -313.1C121.9 -342.9 157 -385.5 203.3 -414C95.3 -338.4 -22.5 -201.8 -18.2 -68.8C-49.7 -234.8 159.2 -414.6 148.7 -480.8C143.5 -513 136.6 -506.5 131.8 -515ZM111.5 -377.4C105.7 -378.9 94.9 -368.8 94.7 -358.1C101.1 -365.4 106.3 -371.4 111.5 -377.4ZM167.4 -476.2C166.1 -480.2 164.9 -483.8 163.4 -488.5C158.5 -480 159.7 -476.2 167.4 -476.2ZM178.2 -472C175.2 -477.1 176.2 -488.8 170.6 -486.7C172.8 -482.2 165.3 -474.5 178.2 -472ZM143.3 -512.3C153 -479.4 157.8 -512.5 179.5 -490.7C177.5 -502.8 160.6 -513.9 143.3 -512.3ZM-74.5 84C-48.4 134.2 -31.2 164.5 46.5 182C-0.899994 161.3 -37.7 134.7 -74.5 84ZM-232.5 90.3V98.8C-187.6 148.4 -140.4 205.6 -88.3 228.4C-78.5 234.6 -68.6 240.5 -58.6 246H-44.4C-79.5 229.1 -111.1 208.8 -137.6 185.3C-169.1 164.1 -200.4 125.8 -232.5 90.3ZM-232.5 -385.1V-392.7C3.5 -487 -82.5 -217 -93.5 -150.1C-104.5 -83.2 -78.5 46 -57.5 14.7C-36.5 -16.6 -109.5 -60 30.8 -331.7C-30.4 -245.5 -68.5 -94 -84.2 -93.6C-99.9 -93.2 -91.5 -145 -82.5 -165C-93.5 34 71.9 -542.8 -223.5 -416.9C-225.9 -415.6 -228.9 -414.3 -232.5 -412.9V-437.2C-145.3 -482.4 -94.5 -509.6 -22 -509.6C50.5 -509.6 108 -494.3 122.2 -472.8C107.9 -340.7 -172.3 -139.5 18.2 105.3C58.6 150 39.5 153 -3.5 120C-46.5 87 -92.2 9.90002 -110.2 -83.4C-108.9 -27.9 -101.2 27 -77.3 72.8C-102.6 38 -113.5 9 -120.2 -56.8C-126.9 -122.6 -106.7 -218.1 -104.7 -292.3C-101.5 -269 -101.6 -254.5 -102.5 -234C-56.9 -391 -145.6 -418.1 -232.5 -385.1ZM-125.6 -476.3C-141.5 -473.2 -172.9 -462.6 -184.7 -453C-165 -460.8 -145.3 -468.5 -125.6 -476.3ZM80.9 -477.9C95.6 -463.9 91 -440.4 82.8 -421C83.9 -422.6 85.1 -424.3 86.4 -426C100 -445.6 95.5 -465.7 80.9 -477.9ZM79.9 -465.5C81.1 -449.1 79.3 -434.7 74 -418.2C87.6 -438.4 89.7 -455.2 79.9 -465.5ZM-14.2 -493.2C1.7 -493.2 17.5 -493.2 33.4 -493.2C19.9 -494.5 -0.5 -494.5 -14.2 -493.2ZM76.3 -461.2C60.6 -498.3 -2.60001 -491.3 -36.5 -486C0.699997 -486.1 50.9 -494.9 76.3 -461.2ZM70.5 -419.9C59.7 -397.5 37.5 -384.6 24.7 -364C38.5 -364.8 69 -404.4 70.5 -419.9ZM503.8 -250.3C483.8 -271.8 482.8 -275.7 493.3 -289.7C472.7 -279.5 490 -258.3 503.8 -250.3ZM459.3 -481.5C482.3 -482.7 505.6 -476.5 528.5 -471.2V-472.1C506 -480.9 483.7 -489.9 459.3 -481.5ZM528.5 -107.2V-119.2C503.2 -126.9 478.5 -133.8 453.6 -136.7C477.2 -129.1 502.9 -111.8 528.5 -107.2ZM-232.5 131.7C-192.5 171.5 -152.3 211.5 -109.6 246H-89.2C-139.4 203 -185.6 150.3 -232.5 110.7V131.7ZM-232.5 138.9V186.1C-203.7 200.4 -172.1 220.2 -137.6 246H-122.1C-160.3 221.7 -196.5 178.3 -232.5 138.9ZM528.5 -239.5V-298C522.1 -294.3 515.2 -290.7 507.8 -287.2C501.4 -268.8 511.6 -251.5 528.5 -239.5ZM478.7 -289.8C455.6 -278.5 472.5 -267 483.4 -254.8C473.9 -273.4 463.4 -275.3 478.7 -289.8ZM420.1 -426.7C471.5 -441 495.4 -427.3 528.5 -410.3V-412.7C494.5 -429.3 477.5 -447 420.1 -426.7ZM528.5 -335.2V-335.3C528.1 -335.1 527.7 -334.9 527.3 -334.7C527.7 -334.9 528.1 -335.1 528.5 -335.2ZM521.9 246C524.1 244.8 526.3 243.7 528.5 242.5V237C524.1 240.1 519.6 243 515.1 246H521.9ZM-231.2 -515C-231.5 -514.9 -231.8 -514.8 -232 -514.7C-231.7 -514.8 -231.4 -514.9 -231.1 -515H-231.2ZM-232.5 -514.6C-232.3 -514.6 -232.2 -514.7 -232 -514.7C-232.2 -514.7 -232.3 -514.6 -232.5 -514.6ZM-199.3 -515C-211.7 -510.1 -222.8 -506.2 -232.5 -503.2V-471C-189.9 -488.2 -146.1 -502.8 -104.1 -515H-199.3ZM73.8 246H90.6C67 237.4 4.09999 202.1 -3.8 197.7C25.9 218.8 53.1 235.3 73.8 246ZM-232.5 -338.2V-355.2C-17 -410.2 -223.5 -19.3 -57.7 156.3C-210.5 60 -145.5 -148 -160.4 -290.1C-165.3 -337 -196.5 -341.8 -232.5 -338.2ZM-175.5 -344C-124.5 -288 -158 -171 -154.9 -86.9C-155.2 -147.2 -90.5 -325 -175.5 -344ZM363.1 246C417.6 231.8 469.2 209.2 513.5 177.7C518.6 172.7 523.6 167.8 528.4 163.1V144.1C457.9 187.9 385 225.1 312.8 246H363.1ZM-52 162C-40.3 173.4 -26.3 183.5 -9.5 192L-52 162ZM394.5 -119C335 -160.6 483.3 -82.1 528.5 -76.9V-94.4C456.3 -114.7 270 -172.6 394.5 -119ZM-155 60.3C-142.5 91 -129.5 139 -50.5 181C-111.5 131 -132.5 99 -155 60.3ZM-208.5 -53C-205.5 -11 -183 17.3 -162.5 42C-213.3 -109.2 -111.9 -327.8 -232.5 -330.1V-316.7C-222.8 -318.1 -221.5 -329 -203 -319.9C-156.2 -294.1 -173.1 -215.3 -184.3 -176.9C-186.9 -213 -167.3 -264.9 -201.5 -289.6C-234.5 -300.3 -195.4 -247.9 -201.8 -231.8C-208.8 -253.3 -219.4 -267.3 -232.5 -275.5V-250.5C-195.5 -215.4 -204.3 -117.5 -203 -75.5C-218 -105.4 -223.9 -139.8 -232.5 -172.6V-14.4C-210.5 25.5 -192.2 68.4 -178.5 100.9C-196.9 77.8 -214.4 49.6 -232.5 21.9V70.8C-186 115.4 -138.7 174 -87.4 212.9C-113.5 197.2 -138.4 179.2 -161.8 158.9C-129.8 188.7 -94.3 213.4 -56.5 233.4C-51.2 236.4 -45.9 239.1 -40.5 241.5C-37.4 243 -34.4 244.4 -31.3 245.9H66.8C-141.5 198 -215.5 2 -208.5 -53ZM502.6 246C511.4 241.8 520.1 237.3 528.5 232.5V179.2C480.8 208.8 434.8 230.7 390.6 246H502.6ZM450.3 -65.7C479.6 -50.2 504.5 -38 528.5 -38.3V-63.8C526 -63.9 518.8 -65.7 505.3 -69.8C556.6 -21.1 485.9 -47.3 450.3 -65.7ZM-232.5 246H-168.9C-190.3 233.7 -211.7 221.2 -232.5 210.2V246ZM114.5 -173.2C114.5 -173.3 114.6 -173.4 114.6 -173.5C114.6 -173.4 114.6 -173.3 114.5 -173.2ZM115.7 -175.6C115.3 -174.9 115 -174.2 114.6 -173.5C115 -174.2 115.3 -174.9 115.7 -175.6ZM116.1 -176.3C116 -176.1 115.9 -176 115.8 -175.8C115.9 -176 116 -176.1 116.1 -176.3ZM115.8 -175.8C115.8 -175.7 115.7 -175.7 115.7 -175.6C115.7 -175.7 115.8 -175.7 115.8 -175.8ZM123.5 -170C62.5 -110 90.5 36 109.7 -11.8C147.2 -104.9 235.5 -189 346.5 -141C289.5 -174 394.4 -153.4 458.2 -142.3C388 -158.4 315.1 -180.3 245.7 -158.7C267.4 -168.7 280.2 -172.9 304.5 -173C247.6 -178.8 200.6 -166 152.1 -129C103.6 -92 173.5 -215 163.5 -221C154.2 -226.6 128.5 -200.2 116.1 -176.3C132.2 -206.8 154.6 -200.6 123.5 -170ZM113.5 -171C113.8 -171.8 114.2 -172.5 114.5 -173.2C114.2 -172.5 113.8 -171.7 113.5 -171ZM325.5 -173C386.2 -166.8 423 -150.6 481.5 -144C421.9 -156.5 383.5 -173.4 325.5 -173ZM450.3 -65.7C448.7 -66.5 447.2 -67.4 445.6 -68.2C447 -67.3 448.6 -66.5 450.3 -65.7ZM-134.5 -500.4C-125.2 -503.8 -115.9 -507.2 -106.6 -510.6C-117.5 -514.2 -126.1 -505.4 -134.5 -500.4ZM-66.3 -515H-82.8C-150.2 -486.9 -282.4 -436.7 -66.3 -515ZM200.4 198.5C246.4 219.6 199.6 225.1 174.1 224.4C212.4 230.3 257 215.9 200.4 198.5ZM249.7 209.2C278.8 229.6 239.6 231.6 221.4 233.6C241.6 232.3 298.2 229.5 249.7 209.2ZM304.4 208C368.5 235.1 301.3 240 265.5 246H278.6C320 241.4 381.8 227.2 304.4 208ZM528.5 -133.5V-137.3C517.9 -137.4 507.1 -138.1 496.1 -139.3C507.1 -137.1 517.9 -135.1 528.5 -133.5ZM85.5 48C98.5 70 123.5 87 134.5 89C120.5 82 100.5 66 85.5 48ZM199.5 115C72.7 -14.8 193.5 -133 279.5 -148C220.5 -146 97.5 -56 127.5 31C106.5 28.7 82.5 -6 75.9 -40.5C80.5 11 116.5 66 199.5 115ZM123.5 67C83.5 31 65.9 -23.4 65.7 -59.4C61.4 -21.9 70.5 27 123.5 67ZM528.5 -127.2V-129.9C521.2 -130.6 513.8 -131.5 506.3 -132.7C514.3 -130.9 521.7 -129.1 528.5 -127.2ZM528.5 -463.3V-443.4C502.9 -452.6 501.5 -463 436.9 -452.9C372.3 -442.8 192 -349.9 152.8 -278.1C218.5 -358 479.7 -486.8 528.5 -393.3V-346.9C462.6 -304.1 263.3 -286.1 284.7 -248.6C294.2 -236.4 323.5 -223.9 351.5 -242.9C296.5 -254.9 395 -290.7 410 -297C287.4 -241.3 392.5 -250.9 446.7 -244.5C500.9 -238.1 505.6 -226.2 528.5 -217.6V-215.1C479.4 -228.4 471.5 -243.8 377.5 -240.3C483.5 -233.9 434.5 -199.9 528.5 -197.6V-152.8C427.5 -151.9 398.5 -181.1 323.3 -181.1C248.1 -181.1 203.1 -175.1 172.8 -156.7C119.5 -122 196.5 -234 203.7 -250.6C250.6 -353.1 79.9 -182.5 65.7 -59.4C65.2 -164.7 158.5 -297 266.5 -303C300.5 -305 94.5 -139 197.5 -170C113.5 -175 394.5 -324 309.6 -322.6C164.7 -320.2 98.7 -209.2 58.2 -109.4C44.1 -268.3 368.5 -490.8 528.5 -463.3ZM354.8 -236C364 -230.2 383.2 -232.7 397.8 -231.4C383.5 -233.9 369.4 -239.5 354.8 -236ZM272 -185.8C240.2 -187.9 172.5 -167 223.5 -215C161.5 -163 236.3 -181.9 272 -185.8Z" fill="url(#paint0_linear_2165:101618)"/>
<rect x="-232.5" y="-515" width="761" height="761" fill="#35FFFF"/>
</g>
<path d="M113.534 31.5379C103.258 24.7106 92.9574 17.6434 82.9897 10.7659C82.1138 10.1614 80.8862 10.1614 80.0104 10.7659C70.0426 17.6435 59.7423 24.7107 49.4658 31.5379C48.1963 32.3813 48.1741 33.9695 49.4242 34.7871C59.5424 41.4079 69.848 48.3671 79.9839 55.2348C80.8745 55.8384 82.1254 55.8384 83.0159 55.2348C93.1518 48.3671 103.457 41.4079 113.576 34.7871C114.826 33.9694 114.804 32.3813 113.534 31.5379Z" fill="url(#paint1_linear_2165:101618)"/>
<path d="M113.534 31.5379C103.258 24.7106 92.9574 17.6434 82.9897 10.7659C82.1138 10.1614 80.8862 10.1614 80.0104 10.7659C70.0426 17.6435 59.7423 24.7107 49.4658 31.5379C48.1963 32.3813 48.1741 33.9695 49.4242 34.7871C59.5424 41.4079 69.848 48.3671 79.9839 55.2348C80.8745 55.8384 82.1254 55.8384 83.0159 55.2348C93.1518 48.3671 103.457 41.4079 113.576 34.7871C114.826 33.9694 114.804 32.3813 113.534 31.5379Z" fill="url(#paint2_radial_2165:101618)"/>
</g>
</g>
<g filter="url(#filter2_ddddd_2165:101618)">
<g filter="url(#filter3_biii_2165:101618)">
<path d="M113.534 21.2254C103.258 14.3981 92.9574 7.33088 82.9897 0.453381C82.1138 -0.151127 80.8862 -0.151127 80.0104 0.453381C70.0426 7.33102 59.7423 14.3982 49.4658 21.2254C48.1963 22.0688 48.1741 23.657 49.4242 24.4746C59.5424 31.0954 69.848 38.0546 79.9839 44.9223C80.8745 45.5259 82.1254 45.5259 83.0159 44.9223C93.1518 38.0546 103.457 31.0954 113.576 24.4746C114.826 23.6569 114.804 22.0688 113.534 21.2254Z" fill="url(#paint3_linear_2165:101618)"/>
</g>
</g>
<defs>
<filter id="filter0_ddddd_2165:101618" x="0.5" y="20.625" width="162" height="141.375" filterUnits="userSpaceOnUse" color-interpolation-filters="sRGB">
<feFlood flood-opacity="0" result="BackgroundImageFix"/>
<feColorMatrix in="SourceAlpha" type="matrix" values="0 0 0 0 0 0 0 0 0 0 0 0 0 0 0 0 0 0 127 0" result="hardAlpha"/>
<feOffset dy="2"/>
<feGaussianBlur stdDeviation="1"/>
<feColorMatrix type="matrix" values="0 0 0 0 0 0 0 0 0 0 0 0 0 0 0 0 0 0 0.1 0"/>
<feBlend mode="normal" in2="BackgroundImageFix" result="effect1_dropShadow_2165:101618"/>
<feColorMatrix in="SourceAlpha" type="matrix" values="0 0 0 0 0 0 0 0 0 0 0 0 0 0 0 0 0 0 127 0" result="hardAlpha"/>
<feOffset dy="4"/>
<feGaussianBlur stdDeviation="2"/>
<feColorMatrix type="matrix" values="0 0 0 0 0 0 0 0 0 0 0 0 0 0 0 0 0 0 0.1 0"/>
<feBlend mode="normal" in2="effect1_dropShadow_2165:101618" result="effect2_dropShadow_2165:101618"/>
<feColorMatrix in="SourceAlpha" type="matrix" values="0 0 0 0 0 0 0 0 0 0 0 0 0 0 0 0 0 0 127 0" result="hardAlpha"/>
<feOffset dy="8"/>
<feGaussianBlur stdDeviation="4"/>
<feColorMatrix type="matrix" values="0 0 0 0 0 0 0 0 0 0 0 0 0 0 0 0 0 0 0.1 0"/>
<feBlend mode="normal" in2="effect2_dropShadow_2165:101618" result="effect3_dropShadow_2165:101618"/>
<feColorMatrix in="SourceAlpha" type="matrix" values="0 0 0 0 0 0 0 0 0 0 0 0 0 0 0 0 0 0 127 0" result="hardAlpha"/>
<feOffset dy="16"/>
<feGaussianBlur stdDeviation="8"/>
<feColorMatrix type="matrix" values="0 0 0 0 0 0 0 0 0 0 0 0 0 0 0 0 0 0 0.1 0"/>
<feBlend mode="normal" in2="effect3_dropShadow_2165:101618" result="effect4_dropShadow_2165:101618"/>
<feColorMatrix in="SourceAlpha" type="matrix" values="0 0 0 0 0 0 0 0 0 0 0 0 0 0 0 0 0 0 127 0" result="hardAlpha"/>
<feOffset dy="48"/>
<feGaussianBlur stdDeviation="24"/>
<feColorMatrix type="matrix" values="0 0 0 0 0 0 0 0 0 0 0 0 0 0 0 0 0 0 0.1 0"/>
<feBlend mode="normal" in2="effect4_dropShadow_2165:101618" result="effect5_dropShadow_2165:101618"/>
<feBlend mode="normal" in="SourceGraphic" in2="effect5_dropShadow_2165:101618" result="shape"/>
</filter>
<filter id="filter1_ddddiii_2165:101618" x="0.5" y="9.3125" width="162" height="142.535" filterUnits="userSpaceOnUse" color-interpolation-filters="sRGB">
<feFlood flood-opacity="0" result="BackgroundImageFix"/>
<feColorMatrix in="SourceAlpha" type="matrix" values="0 0 0 0 0 0 0 0 0 0 0 0 0 0 0 0 0 0 127 0" result="hardAlpha"/>
<feOffset dy="4"/>
<feGaussianBlur stdDeviation="2"/>
<feColorMatrix type="matrix" values="0 0 0 0 0 0 0 0 0 0 0 0 0 0 0 0 0 0 0.1 0"/>
<feBlend mode="normal" in2="BackgroundImageFix" result="effect1_dropShadow_2165:101618"/>
<feColorMatrix in="SourceAlpha" type="matrix" values="0 0 0 0 0 0 0 0 0 0 0 0 0 0 0 0 0 0 127 0" result="hardAlpha"/>
<feOffset dy="8"/>
<feGaussianBlur stdDeviation="4"/>
<feColorMatrix type="matrix" values="0 0 0 0 0 0 0 0 0 0 0 0 0 0 0 0 0 0 0.1 0"/>
<feBlend mode="normal" in2="effect1_dropShadow_2165:101618" result="effect2_dropShadow_2165:101618"/>
<feColorMatrix in="SourceAlpha" type="matrix" values="0 0 0 0 0 0 0 0 0 0 0 0 0 0 0 0 0 0 127 0" result="hardAlpha"/>
<feOffset dy="16"/>
<feGaussianBlur stdDeviation="8"/>
<feColorMatrix type="matrix" values="0 0 0 0 0 0 0 0 0 0 0 0 0 0 0 0 0 0 0.1 0"/>
<feBlend mode="normal" in2="effect2_dropShadow_2165:101618" result="effect3_dropShadow_2165:101618"/>
<feColorMatrix in="SourceAlpha" type="matrix" values="0 0 0 0 0 0 0 0 0 0 0 0 0 0 0 0 0 0 127 0" result="hardAlpha"/>
<feOffset dy="48"/>
<feGaussianBlur stdDeviation="24"/>
<feColorMatrix type="matrix" values="0 0 0 0 0 0 0 0 0 0 0 0 0 0 0 0 0 0 0.1 0"/>
<feBlend mode="normal" in2="effect3_dropShadow_2165:101618" result="effect4_dropShadow_2165:101618"/>
<feBlend mode="normal" in="SourceGraphic" in2="effect4_dropShadow_2165:101618" result="shape"/>
<feColorMatrix in="SourceAlpha" type="matrix" values="0 0 0 0 0 0 0 0 0 0 0 0 0 0 0 0 0 0 127 0" result="hardAlpha"/>
<feOffset dy="-4"/>
<feGaussianBlur stdDeviation="0.5"/>
<feComposite in2="hardAlpha" operator="arithmetic" k2="-1" k3="1"/>
<feColorMatrix type="matrix" values="0 0 0 0 0 0 0 0 0 0 0 0 0 0 0 0 0 0 0.4 0"/>
<feBlend mode="normal" in2="shape" result="effect5_innerShadow_2165:101618"/>
<feColorMatrix in="SourceAlpha" type="matrix" values="0 0 0 0 0 0 0 0 0 0 0 0 0 0 0 0 0 0 127 0" result="hardAlpha"/>
<feOffset dx="-1"/>
<feGaussianBlur stdDeviation="0.5"/>
<feComposite in2="hardAlpha" operator="arithmetic" k2="-1" k3="1"/>
<feColorMatrix type="matrix" values="0 0 0 0 1 0 0 0 0 1 0 0 0 0 1 0 0 0 0.3 0"/>
<feBlend mode="normal" in2="effect5_innerShadow_2165:101618" result="effect6_innerShadow_2165:101618"/>
<feColorMatrix in="SourceAlpha" type="matrix" values="0 0 0 0 0 0 0 0 0 0 0 0 0 0 0 0 0 0 127 0" result="hardAlpha"/>
<feOffset dx="1"/>
<feGaussianBlur stdDeviation="0.5"/>
<feComposite in2="hardAlpha" operator="arithmetic" k2="-1" k3="1"/>
<feColorMatrix type="matrix" values="0 0 0 0 1 0 0 0 0 1 0 0 0 0 1 0 0 0 0.3 0"/>
<feBlend mode="normal" in2="effect6_innerShadow_2165:101618" result="effect7_innerShadow_2165:101618"/>
</filter>
<filter id="filter2_ddddd_2165:101618" x="0.5" y="0" width="162" height="141.375" filterUnits="userSpaceOnUse" color-interpolation-filters="sRGB">
<feFlood flood-opacity="0" result="BackgroundImageFix"/>
<feColorMatrix in="SourceAlpha" type="matrix" values="0 0 0 0 0 0 0 0 0 0 0 0 0 0 0 0 0 0 127 0" result="hardAlpha"/>
<feOffset dy="2"/>
<feGaussianBlur stdDeviation="1"/>
<feColorMatrix type="matrix" values="0 0 0 0 0 0 0 0 0 0 0 0 0 0 0 0 0 0 0.1 0"/>
<feBlend mode="normal" in2="BackgroundImageFix" result="effect1_dropShadow_2165:101618"/>
<feColorMatrix in="SourceAlpha" type="matrix" values="0 0 0 0 0 0 0 0 0 0 0 0 0 0 0 0 0 0 127 0" result="hardAlpha"/>
<feOffset dy="4"/>
<feGaussianBlur stdDeviation="2"/>
<feColorMatrix type="matrix" values="0 0 0 0 0 0 0 0 0 0 0 0 0 0 0 0 0 0 0.1 0"/>
<feBlend mode="normal" in2="effect1_dropShadow_2165:101618" result="effect2_dropShadow_2165:101618"/>
<feColorMatrix in="SourceAlpha" type="matrix" values="0 0 0 0 0 0 0 0 0 0 0 0 0 0 0 0 0 0 127 0" result="hardAlpha"/>
<feOffset dy="8"/>
<feGaussianBlur stdDeviation="4"/>
<feColorMatrix type="matrix" values="0 0 0 0 0 0 0 0 0 0 0 0 0 0 0 0 0 0 0.1 0"/>
<feBlend mode="normal" in2="effect2_dropShadow_2165:101618" result="effect3_dropShadow_2165:101618"/>
<feColorMatrix in="SourceAlpha" type="matrix" values="0 0 0 0 0 0 0 0 0 0 0 0 0 0 0 0 0 0 127 0" result="hardAlpha"/>
<feOffset dy="16"/>
<feGaussianBlur stdDeviation="8"/>
<feColorMatrix type="matrix" values="0 0 0 0 0 0 0 0 0 0 0 0 0 0 0 0 0 0 0.1 0"/>
<feBlend mode="normal" in2="effect3_dropShadow_2165:101618" result="effect4_dropShadow_2165:101618"/>
<feColorMatrix in="SourceAlpha" type="matrix" values="0 0 0 0 0 0 0 0 0 0 0 0 0 0 0 0 0 0 127 0" result="hardAlpha"/>
<feOffset dy="48"/>
<feGaussianBlur stdDeviation="24"/>
<feColorMatrix type="matrix" values="0 0 0 0 0 0 0 0 0 0 0 0 0 0 0 0 0 0 0.1 0"/>
<feBlend mode="normal" in2="effect4_dropShadow_2165:101618" result="effect5_dropShadow_2165:101618"/>
<feBlend mode="normal" in="SourceGraphic" in2="effect5_dropShadow_2165:101618" result="shape"/>
</filter>
<filter id="filter3_biii_2165:101618" x="38.5" y="-10" width="86" height="65.375" filterUnits="userSpaceOnUse" color-interpolation-filters="sRGB">
<feFlood flood-opacity="0" result="BackgroundImageFix"/>
<feGaussianBlur in="BackgroundImage" stdDeviation="5"/>
<feComposite in2="SourceAlpha" operator="in" result="effect1_backgroundBlur_2165:101618"/>
<feBlend mode="normal" in="SourceGraphic" in2="effect1_backgroundBlur_2165:101618" result="shape"/>
<feColorMatrix in="SourceAlpha" type="matrix" values="0 0 0 0 0 0 0 0 0 0 0 0 0 0 0 0 0 0 127 0" result="hardAlpha"/>
<feOffset dy="-4"/>
<feGaussianBlur stdDeviation="0.5"/>
<feComposite in2="hardAlpha" operator="arithmetic" k2="-1" k3="1"/>
<feColorMatrix type="matrix" values="0 0 0 0 0.920833 0 0 0 0 0.920833 0 0 0 0 0.920833 0 0 0 0.1 0"/>
<feBlend mode="normal" in2="shape" result="effect2_innerShadow_2165:101618"/>
<feColorMatrix in="SourceAlpha" type="matrix" values="0 0 0 0 0 0 0 0 0 0 0 0 0 0 0 0 0 0 127 0" result="hardAlpha"/>
<feOffset dx="-1"/>
<feGaussianBlur stdDeviation="0.5"/>
<feComposite in2="hardAlpha" operator="arithmetic" k2="-1" k3="1"/>
<feColorMatrix type="matrix" values="0 0 0 0 0.920833 0 0 0 0 0.920833 0 0 0 0 0.920833 0 0 0 0.1 0"/>
<feBlend mode="normal" in2="effect2_innerShadow_2165:101618" result="effect3_innerShadow_2165:101618"/>
<feColorMatrix in="SourceAlpha" type="matrix" values="0 0 0 0 0 0 0 0 0 0 0 0 0 0 0 0 0 0 127 0" result="hardAlpha"/>
<feOffset dx="1"/>
<feGaussianBlur stdDeviation="0.5"/>
<feComposite in2="hardAlpha" operator="arithmetic" k2="-1" k3="1"/>
<feColorMatrix type="matrix" values="0 0 0 0 0.920833 0 0 0 0 0.920833 0 0 0 0 0.920833 0 0 0 0.1 0"/>
<feBlend mode="normal" in2="effect3_innerShadow_2165:101618" result="effect4_innerShadow_2165:101618"/>
</filter>
<linearGradient id="paint0_linear_2165:101618" x1="148" y1="-515" x2="148" y2="246" gradientUnits="userSpaceOnUse">
<stop stop-color="white" stop-opacity="0.48"/>
<stop offset="1" stop-color="white" stop-opacity="0"/>
</linearGradient>
<linearGradient id="paint1_linear_2165:101618" x1="81.5029" y1="10.0956" x2="81.5029" y2="55.3316" gradientUnits="userSpaceOnUse">
<stop stop-color="white" stop-opacity="0.4"/>
<stop offset="0.833333" stop-color="white" stop-opacity="0"/>
<stop offset="1" stop-color="white" stop-opacity="0.3"/>
</linearGradient>
<radialGradient id="paint2_radial_2165:101618" cx="0" cy="0" r="1" gradientUnits="userSpaceOnUse" gradientTransform="translate(48.5 16.2696) scale(50.6099 54.0025)">
<stop stop-color="white" stop-opacity="0.7"/>
<stop offset="1" stop-color="white" stop-opacity="0"/>
</radialGradient>
<linearGradient id="paint3_linear_2165:101618" x1="81.5" y1="0" x2="81.5" y2="45.375" gradientUnits="userSpaceOnUse">
<stop stop-color="#A6A0BA" stop-opacity="0.15"/>
<stop offset="1" stop-opacity="0.2"/>
</linearGradient>
<clipPath id="clip0_2165:101618">
<rect width="761" height="761" fill="white" transform="translate(-232.5 -515)"/>
</clipPath>
</defs>
</svg>
