<svg width="84" height="115" viewBox="0 0 84 115" fill="none" xmlns="http://www.w3.org/2000/svg">
<g filter="url(#filter0_biii_2166_102602)">
<rect x="40.9248" y="44.248" width="2.59349" height="22.6931" fill="url(#paint0_linear_2166_102602)"/>
</g>
<g filter="url(#filter1_ddddiii_2166_102602)">
<mask id="mask0_2166_102602" style="mask-type:alpha" maskUnits="userSpaceOnUse" x="15" y="0" width="53" height="52">
<path d="M59.959 7.70683C55.0911 2.83898 48.6189 0.158203 41.7347 0.158203C34.8506 0.158203 28.3784 2.83898 23.5105 7.70683C18.6427 12.5747 15.9619 19.0469 15.9619 25.931C15.9619 32.8152 18.6428 39.2873 23.5105 44.1553C28.3783 49.0232 34.8506 51.7039 41.7347 51.7039C48.6189 51.7039 55.0911 49.0231 59.959 44.1553C64.8268 39.2874 67.5076 32.8152 67.5076 25.931C67.5076 19.0469 64.8267 12.5748 59.959 7.70683ZM41.7347 24.3202C45.7317 24.3202 48.9834 27.5719 48.9834 31.5688C48.9834 34.8787 46.7527 37.6757 43.7162 38.5399C43.4981 38.602 43.3456 38.7982 43.3456 39.025V40.3828C43.3456 41.2502 42.679 41.9965 41.8126 42.0372C40.8875 42.0807 40.1239 41.3437 40.1239 40.4283V39.0247C40.1239 38.7985 39.9723 38.6022 39.7548 38.5403C36.7313 37.6805 34.5064 34.9046 34.4862 31.6138C34.4809 30.7355 35.1715 29.9839 36.0496 29.9587C36.9608 29.9326 37.7077 30.6635 37.7077 31.5688C37.7077 33.8846 39.6726 35.7501 42.0226 35.5858C44.0063 35.4472 45.6132 33.8402 45.7517 31.8565C45.9158 29.5064 44.0504 27.5418 41.7347 27.5418C37.7378 27.5418 34.4861 24.2901 34.4861 20.2932C34.4861 16.9833 36.7168 14.1864 39.7533 13.3222C39.9714 13.2601 40.1239 13.0638 40.1239 12.837V11.4793C40.1239 10.6119 40.7905 9.8656 41.6569 9.82483C42.582 9.78134 43.3456 10.5184 43.3456 11.4338V12.8373C43.3456 13.0635 43.4972 13.2599 43.7147 13.3218C46.7382 14.1815 48.9631 16.9575 48.9833 20.2482C48.9886 21.1266 48.298 21.8782 47.4199 21.9033C46.5087 21.9295 45.7618 21.1986 45.7618 20.2932C45.7618 17.9775 43.7969 16.112 41.4469 16.2763C39.4632 16.4149 37.8563 18.0219 37.7178 20.0056C37.5537 22.3557 39.4191 24.3202 41.7347 24.3202Z" fill="url(#paint1_linear_2166_102602)"/>
</mask>
<g mask="url(#mask0_2166_102602)">
<g clip-path="url(#clip0_2166_102602)">
<rect width="246.706" height="246.706" transform="translate(-129.923 -73.4316)" fill="#EE9C2D"/>
<path d="M-94.781 -24.6416C-100.26 -30.1203 -109.985 -31.7412 -126.357 -27.4296C-109.758 -33.1353 -100.163 -31.4171 -94.781 -24.6416ZM116.783 83.5395V85.1929C103.783 83.4422 91.7559 77.0558 79.2099 71.577C103.329 84.7066 110.364 91.7414 116.783 92.0656V123.252C72.4668 139.267 10.4824 109.507 37.1629 97.2202C48.704 91.9035 100.606 110.479 79.5017 83.4747C83.0677 89.9584 83.7161 96.7663 71.4619 94.8212C75.6115 94.1404 80.4743 92.5519 76.8758 87.1056C73.2773 81.6592 77.0379 96.0531 51.6216 88.6617C31.5221 82.8263 2.34528 98.7114 21.4723 79.5844C-20.0236 109.734 62.9682 145.751 110.818 132.167C105.08 133.691 95.9379 134.177 85.5964 133.529C96.3594 133.367 106.798 131 116.751 126.948V136.868C80.7012 160.501 47.083 165.948 -14.0261 142.477C38.6217 175.219 -22.2281 159.885 -23.5896 159.496C-18.7593 160.826 5.26295 164.23 2.99365 160.015C0.72435 155.801 -17.2356 157.195 -31.0459 151.781C-25.3403 151.197 -15.2581 154.99 -27.8041 144.162C-3.39282 164.327 -22.3253 142.379 -35.7142 132.492C-37.5945 130.936 -39.3775 129.282 -41.0957 127.532C-39.3451 128.958 -37.8863 129.282 -36.9137 128.148C-40.5122 121.923 -43.6568 116.055 -46.4124 110.512C-45.6343 111.549 -44.8239 112.619 -43.9486 113.656C-94.3596 9.59254 32.1704 -31.4819 37.8437 -67.499C37.3898 -66.0726 36.6766 -64.6462 35.6717 -63.2522C37.2278 -67.4018 38.0706 -70.4167 37.5844 -73.3992H45.689C45.8511 -72.9778 46.0456 -72.5239 46.1753 -72.0701C46.5968 -72.5239 46.9533 -72.9778 47.2775 -73.3992H58.2351C58.2675 -67.1424 53.7289 -59.7185 40.7614 -50.2199C50.7139 -56.5415 59.0779 -64.2247 60.9582 -73.4316H66.2749C53.1453 -59.8158 34.5046 -39.5541 23.6443 -35.6963C-12.47 -18.7414 -35.228 17.2434 -40.6419 52.5473C-36.0384 37.2457 -27.2205 21.4902 -15.2256 6.48035C-32.8614 30.5674 -43.2354 58.3502 -40.9336 82.1779C-39.8962 89.2452 -38.016 96.0207 -35.2604 102.31C-26.3128 120.075 -6.86162 133.237 26.5296 137.03C-14.091 114.759 -16.9438 58.7068 35.4123 52.2879C52.1079 49.5323 67.7337 54.3303 83.1001 59.7118C63.3896 54.7517 36.547 46.6147 20.7591 59.8091C38.0382 57.7667 55.8685 59.6794 72.4993 65.2554C54.0531 61.5596 28.9934 52.2555 14.3726 68.9835C18.2304 66.617 23.4174 62.0784 33.7914 62.0784C18.5546 64.996 19.5272 69.2105 34.0507 68.3027C8.9911 69.9237 -15.485 88.9858 8.4724 115.115C32.4298 141.245 56.8086 141.439 48.4122 146.918C33.4672 156.741 -14.3503 135.02 -29.2953 113.559C-29.7816 113.04 -30.2355 112.522 -30.7218 112.003C-11.2057 141.796 40.9559 163.062 71.9157 147.923C85.0128 141.504 -29.425 113.624 11.0011 77.5096C21.9261 67.7516 50.4546 67.6544 64.9133 80.168C55.5119 74.0733 21.7965 70.7017 32.1704 80.2328C39.9509 87.3649 74.5092 91.5469 69.1601 82.0158C66.0804 77.9635 62.1253 74.8837 57.6839 72.6468C57.7488 72.6793 57.8136 72.6793 57.8784 72.7117C20.2404 51.5099 62.8385 63.7641 102.065 80.0059C107.155 82.6318 112.082 83.6692 116.783 83.5395ZM-28.0634 114.824C-28.0634 114.824 -14.0261 131.163 9.1532 139.235C27.3725 145.556 43.4197 144.454 43.517 143.773C43.6142 143.028 24.2603 143.157 1.37271 133.075C-17.3977 124.808 -28.0634 114.824 -28.0634 114.824ZM18.7167 -36.3447C25.2004 -40.7536 31.6842 -45.1302 38.1679 -49.5391C32.754 -47.367 22.7042 -40.5591 18.7167 -36.3447ZM-42.0683 87.3649C-42.3276 84.123 -44.2403 73.7167 -43.981 70.3451C-46.2503 36.8566 -30.9811 0.0290375 2.73431 -23.1179C-38.9561 2.78463 -53.4148 40.0337 -42.0683 87.3649ZM-45.8613 34.6846C-41.6468 26.3206 -37.2379 17.5351 -32.7641 8.6524C-37.2379 13.9691 -46.153 31.6048 -45.8613 34.6846ZM-1.6098 143.255C-21.1583 133.853 -38.9885 119.427 -48.1954 99.3598C-44.2403 116.509 -18.2082 142.25 -1.6098 143.255ZM80.9929 80.2977C83.6513 84.2527 85.3371 85.744 89.1949 92.6816C102.908 117.352 27.0807 87.2028 35.2826 107.854C40.2751 120.432 75.2873 126.591 85.6612 126.591C57.1328 121.404 38.2003 113.883 40.1779 105.584C43.1928 93.2003 132.668 136.317 80.9929 80.2977ZM-64.4372 72.4523C-64.6317 66.6494 -65.1828 54.233 -64.113 48.4625C-65.9284 53.1308 -65.1828 65.8065 -64.4372 72.4523ZM-41.0957 127.499C-42.3276 126.267 -43.4947 125.003 -44.6294 123.674C-43.365 125.327 -42.1655 126.624 -41.0957 127.499ZM-44.6294 123.706C-52.2802 113.689 -62.0058 95.7289 -64.113 77.3151C-63.5294 96.0207 -56.916 109.474 -44.6294 123.706ZM7.11082 -68.8606C8.76418 -66.1374 9.5098 -63.1549 9.80157 -60.3021C9.89882 -63.4791 9.12079 -66.4292 7.11082 -68.8606ZM3.05849 -73.4316H-0.21579C3.12332 -72.3294 5.48988 -70.7733 7.0784 -68.8606C6.10585 -70.4815 4.8091 -72.0376 3.05849 -73.4316ZM-49.2004 106.168C-56.6567 91.0606 -57.7589 85.3874 -59.8985 74.0733C-59.4771 87.4946 -58.2776 92.2277 -49.2004 106.168ZM-59.2502 134.372C-47.5795 147.664 -19.6994 155.444 -34.612 139.883C-30.3976 150.581 -50.173 142.477 -59.2502 134.372ZM-14.7718 -64.3868C-14.9339 -67.5314 -15.6471 -70.5464 -17.0087 -73.4316H-24.0435C-21.9363 -72.5239 -19.9588 -71.3568 -18.1109 -69.8332C-21.3528 -71.0327 -24.5946 -72.1997 -27.9662 -73.4316H-31.435C-23.3951 -71.4541 -16.9114 -68.4392 -14.7718 -64.3868ZM116.783 -73.4316V-60.6911C95.1923 -69.6062 76.9082 -62.1499 66.5342 -53.3321C56.1602 -44.5142 41.6367 -42.8284 30.3226 -35.9557C42.2526 -44.3521 58.7538 -47.8209 68.609 -57.8707C78.4643 -67.9205 74.7362 -69.3793 76.7137 -73.4316H116.783ZM100.444 -69.2821C93.4741 -69.1848 87.5091 -66.4616 81.6737 -63.2846C87.8333 -65.5863 94.1225 -67.5963 100.444 -69.2821ZM84.0079 130.287C76.3571 129.801 68.0579 128.699 60.0181 126.948C68.1227 129.379 76.1302 130.417 84.0079 130.287ZM61.639 130.222C56.9707 128.828 52.3024 127.013 47.5693 124.679C-0.248215 98.0631 41.5719 91.2551 61.7038 94.6591C49.6765 89.6342 14.3402 83.4423 24.3575 108.988C22.1531 106.233 17.582 102.277 18.5546 94.8212C12.0709 112.651 40.113 125.522 61.639 130.222ZM24.7142 -31.6116C7.27292 -21.0107 -2.90655 -10.3449 -15.1932 6.44794C-2.90655 -8.91851 7.04599 -19.1628 24.7142 -31.6116ZM116.783 72.4523V69.7292C112.05 68.9511 97.8182 64.8015 93.1175 63.3751C99.6337 65.9362 115.292 71.4798 116.783 72.4523ZM-11.8217 -73.4316H-0.572403C21.5371 -61.6961 -7.47758 -42.018 -12.308 -28.4021C-3.91153 -32.5841 9.3477 -48.2099 9.80157 -60.2697C11.1307 -46.7835 2.21561 -35.4694 29.4797 -60.0752C34.148 -63.1549 35.0233 -68.1798 33.2402 -73.4316H34.8936C37.8113 -45.5192 -18.3378 -31.3198 -23.9787 -17.5743C-10.2007 -20.6216 -33.1532 -10.1504 -29.7492 -7.97837C-15.0311 -17.6391 -3.65218 -31.4495 11.3577 -40.6888C-23.6545 -16.1803 -61.8437 28.1036 -60.4497 71.2204C-70.6615 17.4054 -2.93896 -40.8833 -6.34292 -62.3445C-8.02869 -72.7833 -10.2656 -70.6761 -11.8217 -73.4316ZM-18.4027 -28.8236C-20.2829 -29.3098 -23.7842 -26.0356 -23.849 -22.5668C-21.7742 -24.9333 -20.0884 -26.8784 -18.4027 -28.8236ZM-0.28064 -60.8532C-0.702072 -62.1499 -1.09109 -63.317 -1.57738 -64.8407C-3.16589 -62.0851 -2.77687 -60.8532 -0.28064 -60.8532ZM3.22058 -59.4916C2.24803 -61.145 2.5722 -64.938 0.75676 -64.2572C1.46997 -62.7983 -0.961426 -60.3021 3.22058 -59.4916ZM-8.09354 -72.5563C-4.94892 -61.8906 -3.39282 -72.6212 3.64203 -65.5539C2.99365 -69.4766 -2.48511 -73.075 -8.09354 -72.5563ZM-78.7014 120.756C-70.2401 137.03 -64.6641 146.853 -39.4748 152.526C-54.8412 145.816 -66.7713 137.192 -78.7014 120.756ZM-129.923 122.799V125.554C-115.367 141.634 -100.065 160.177 -83.1751 167.569C-79.9981 169.579 -76.7887 171.491 -73.5468 173.274H-68.9434C-80.3223 167.796 -90.5666 161.215 -99.1575 153.596C-109.369 146.723 -119.516 134.307 -129.923 122.799ZM-129.923 -31.3198V-33.7836C-53.4148 -64.3544 -81.2949 23.176 -84.8609 44.864C-88.427 66.5521 -79.9981 108.437 -73.1902 98.29C-66.3823 88.143 -90.0479 74.0733 -44.5645 -14.0082C-64.4047 13.9366 -76.7562 63.0509 -81.846 63.1806C-86.9357 63.3103 -84.2125 46.5174 -81.2949 40.0337C-84.8609 104.547 -31.2405 -82.444 -127.005 -41.6289C-127.783 -41.2075 -128.756 -40.7861 -129.923 -40.3322V-48.2099C-101.654 -62.8632 -85.1851 -71.681 -61.6816 -71.681C-38.178 -71.681 -19.5373 -66.721 -14.9339 -59.751C-19.5697 -16.9259 -110.407 48.3004 -48.6493 127.661C-35.5521 142.152 -41.7441 143.125 -55.6841 132.427C-69.6241 121.729 -84.4395 96.7339 -90.2748 66.4873C-89.8534 84.4796 -87.3572 102.277 -79.6091 117.125C-87.811 105.844 -91.3446 96.4421 -93.5167 75.1107C-95.6887 53.7792 -89.1402 22.8194 -88.4918 -1.23529C-87.4544 6.31826 -87.4868 11.019 -87.7786 17.6648C-72.9957 -33.2325 -101.751 -42.018 -129.923 -31.3198ZM-95.2673 -60.8856C-100.422 -59.8806 -110.601 -56.4443 -114.427 -53.3321C-108.04 -55.8607 -101.654 -58.357 -95.2673 -60.8856ZM-28.3228 -61.4043C-23.5572 -56.8657 -25.0485 -49.2473 -27.7068 -42.9581C-27.3502 -43.4768 -26.9612 -44.0279 -26.5397 -44.579C-22.1308 -50.9331 -23.5897 -57.4492 -28.3228 -61.4043ZM-28.647 -57.3844C-28.2579 -52.0677 -28.8415 -47.3995 -30.5597 -42.0504C-26.1507 -48.5989 -25.4699 -54.0453 -28.647 -57.3844ZM-59.1529 -66.3644C-53.9984 -66.3644 -48.8762 -66.3644 -43.7216 -66.3644C-48.0982 -66.7858 -54.7116 -66.7858 -59.1529 -66.3644ZM-29.814 -55.9904C-34.9038 -68.0177 -55.3924 -65.7484 -66.3823 -64.0302C-54.3225 -64.0626 -38.0484 -66.9155 -29.814 -55.9904ZM-31.6943 -42.6015C-35.1955 -35.3397 -42.3925 -31.1577 -46.5421 -24.4795C-42.0683 -24.7388 -32.1806 -37.5766 -31.6943 -42.6015ZM108.776 12.3806C102.292 5.41055 101.968 4.14621 105.372 -0.392403C98.6935 2.91431 104.302 9.78706 108.776 12.3806ZM94.3494 -62.5714C101.806 -62.9604 109.359 -60.9505 116.783 -59.2323V-59.524C109.489 -62.3769 102.26 -65.2946 94.3494 -62.5714ZM116.783 58.7717V54.8814C108.581 52.3852 100.574 50.1483 92.5016 49.2081C100.152 51.672 108.484 57.2804 116.783 58.7717ZM-129.923 136.22C-116.955 149.122 -103.923 162.09 -90.0803 173.274H-83.4669C-99.7411 159.334 -114.719 142.25 -129.923 129.412V136.22ZM-129.923 138.554V153.856C-120.586 158.491 -110.342 164.91 -99.1575 173.274H-94.1327C-106.517 165.397 -118.252 151.327 -129.923 138.554ZM116.783 15.8818V-3.08315C114.708 -1.88366 112.471 -0.716583 110.072 0.418068C107.998 6.3831 111.304 11.9915 116.783 15.8818ZM100.639 -0.42482C93.1499 3.23849 98.6287 6.96664 102.162 10.9217C99.0826 4.89185 95.6786 4.27589 100.639 -0.42482ZM81.6413 -44.806C98.3045 -49.4418 106.053 -45.0005 116.783 -39.4893V-40.2673C105.761 -45.6488 100.25 -51.387 81.6413 -44.806ZM116.783 -15.1429V-15.1753C116.653 -15.1105 116.524 -15.0456 116.394 -14.9808C116.524 -15.0456 116.653 -15.1105 116.783 -15.1429ZM114.644 173.274C115.357 172.885 116.07 172.529 116.783 172.14V170.357C115.357 171.362 113.898 172.302 112.439 173.274H114.644ZM-129.501 -73.4316C-129.599 -73.3992 -129.696 -73.3668 -129.761 -73.3344C-129.664 -73.3668 -129.566 -73.3992 -129.469 -73.4316H-129.501ZM-129.923 -73.302C-129.858 -73.302 -129.826 -73.3344 -129.761 -73.3344C-129.826 -73.3344 -129.858 -73.302 -129.923 -73.302ZM-119.16 -73.4316C-123.18 -71.8431 -126.778 -70.5788 -129.923 -69.6062V-59.1674C-116.113 -64.7434 -101.913 -69.4766 -88.2973 -73.4316H-119.16ZM-30.6245 173.274H-25.1782C-32.829 170.486 -53.2203 159.043 -55.7814 157.616C-46.153 164.456 -37.3352 169.806 -30.6245 173.274ZM-129.923 -16.1155V-21.6266C-60.0606 -39.4569 -127.005 87.2677 -73.255 144.195C-122.791 112.976 -101.719 45.5448 -106.549 -0.522079C-108.138 -15.7264 -118.252 -17.2825 -129.923 -16.1155ZM-111.444 -17.9957C-94.9107 0.158714 -105.771 38.0885 -104.766 65.3526C-104.863 45.8042 -83.8884 -11.8362 -111.444 -17.9957ZM63.1627 173.274C80.8308 168.671 97.5589 161.344 111.92 151.132C113.574 149.511 115.195 147.923 116.751 146.399V140.24C93.8956 154.439 70.2624 166.499 46.8561 173.274H63.1627ZM-71.4072 146.043C-67.6142 149.738 -63.0756 153.013 -57.6292 155.768L-71.4072 146.043ZM73.3421 54.9462C54.053 41.4601 102.13 66.9087 116.783 68.5945V62.9212C93.3769 56.3403 32.9809 37.5698 73.3421 54.9462ZM-104.798 113.073C-100.746 123.025 -96.5316 138.586 -70.9209 152.202C-90.6963 135.993 -97.5042 125.619 -104.798 113.073ZM-122.142 76.3426C-121.17 89.9584 -113.876 99.1329 -107.23 107.14C-123.698 58.1233 -90.826 -12.7439 -129.923 -13.4895V-9.14544C-126.778 -9.5993 -126.357 -13.1329 -120.359 -10.1828C-105.187 -1.81882 -110.666 23.7271 -114.297 36.1758C-115.14 24.4727 -108.786 7.64742 -119.873 -0.359985C-130.571 -3.82878 -117.896 13.1586 -119.97 18.378C-122.24 11.408 -125.676 6.86938 -129.923 4.21105V12.3157C-117.928 23.6947 -120.781 55.4325 -120.359 69.0484C-125.222 59.3552 -127.135 48.2032 -129.923 37.5698V88.8562C-122.791 101.791 -116.858 115.699 -112.417 126.235C-118.382 118.746 -124.055 109.604 -129.923 100.624V116.477C-114.848 130.936 -99.5141 149.933 -82.8834 162.544C-91.3446 157.454 -99.4169 151.619 -107.003 145.038C-96.6289 154.698 -85.1203 162.706 -72.866 169.19C-71.1478 170.162 -69.4296 171.037 -67.679 171.816C-66.674 172.302 -65.7015 172.756 -64.6965 173.242H-32.8938C-100.422 157.713 -124.412 94.1728 -122.142 76.3426ZM108.387 173.274C111.24 171.913 114.06 170.454 116.783 168.898V151.619C101.319 161.215 86.4069 168.314 72.0778 173.274H108.387ZM91.4317 72.2254C100.93 77.2503 109.003 81.2054 116.783 81.1081V72.8414C115.973 72.8089 113.639 72.2254 109.262 70.8962C125.893 86.6841 102.973 78.1904 91.4317 72.2254ZM-129.923 173.274H-109.305C-116.242 169.287 -123.18 165.235 -129.923 161.668V173.274ZM-17.4301 37.3753C-17.4301 37.3429 -17.3977 37.3105 -17.3977 37.2781C-17.3977 37.3105 -17.3977 37.3429 -17.4301 37.3753ZM-17.0411 36.5973C-17.1708 36.8242 -17.268 37.0511 -17.3977 37.2781C-17.268 37.0511 -17.1708 36.8242 -17.0411 36.5973ZM-16.9114 36.3704C-16.9438 36.4352 -16.9762 36.4676 -17.0087 36.5325C-16.9762 36.4676 -16.9438 36.4352 -16.9114 36.3704ZM-17.0087 36.5325C-17.0087 36.5649 -17.0411 36.5649 -17.0411 36.5973C-17.0411 36.5649 -17.0087 36.5649 -17.0087 36.5325ZM-14.5124 38.4127C-34.2878 57.8639 -25.2106 105.195 -18.9862 89.6991C-6.8292 59.5173 21.7965 32.2532 57.7812 47.8141C39.3026 37.116 73.3097 43.7942 93.9928 47.3927C71.2349 42.1733 47.6017 35.0736 25.1032 42.076C32.138 38.8342 36.2876 37.4726 44.1653 37.4402C25.7191 35.5599 10.4824 39.7095 -5.24068 51.7044C-20.9637 63.6993 1.6969 23.8243 -1.54497 21.8792C-4.5599 20.0638 -12.8915 28.6223 -16.9114 36.3704C-11.692 26.4827 -4.43022 28.4926 -14.5124 38.4127ZM-17.7543 38.0885C-17.657 37.8292 -17.5274 37.6023 -17.4301 37.3753C-17.5274 37.6023 -17.657 37.8616 -17.7543 38.0885ZM50.9733 37.4402C70.6514 39.4501 82.5815 44.702 101.546 46.8416C82.2249 42.7893 69.7761 37.3105 50.9733 37.4402ZM91.4317 72.2254C90.9131 71.966 90.4268 71.6743 89.9081 71.4149C90.3619 71.7067 90.8806 71.966 91.4317 72.2254ZM-98.1526 -68.6985C-95.1376 -69.8008 -92.1227 -70.903 -89.1078 -72.0052C-92.6414 -73.1723 -95.4294 -70.3194 -98.1526 -68.6985ZM-76.043 -73.4316H-81.3921C-103.242 -64.322 -146.1 -48.0478 -76.043 -73.4316ZM10.4175 157.875C25.3301 164.716 10.1582 166.499 1.89142 166.272C14.3078 168.185 28.7665 163.516 10.4175 157.875ZM26.3999 161.344C35.8338 167.958 23.1256 168.606 17.2254 169.254C23.774 168.833 42.123 167.925 26.3999 161.344ZM44.1329 160.955C64.9133 169.741 43.1279 171.329 31.5221 173.274H35.7689C49.1902 171.783 69.225 167.18 44.1329 160.955ZM116.783 50.2455V49.0136C113.347 48.9812 109.846 48.7543 106.279 48.3653C109.846 49.0785 113.347 49.7268 116.783 50.2455ZM-26.8315 109.085C-22.6171 116.218 -14.5124 121.729 -10.9464 122.377C-15.485 120.108 -21.9687 114.921 -26.8315 109.085ZM10.1258 130.806C-30.9811 88.7265 8.18063 50.4076 36.0607 45.5448C16.9337 46.1932 -22.9413 75.37 -13.2157 103.574C-20.0236 102.829 -27.8041 91.5793 -29.9437 80.3949C-28.4525 97.0905 -16.7817 114.921 10.1258 130.806ZM-14.5124 115.245C-27.4799 103.574 -33.1856 85.9385 -33.2504 74.2678C-34.6444 86.4248 -31.6943 102.277 -14.5124 115.245ZM116.783 52.2879V51.4126C114.417 51.1857 112.018 50.8939 109.586 50.5049C112.18 51.0884 114.579 51.672 116.783 52.2879ZM116.783 -56.6712V-50.2199C108.484 -53.2024 108.03 -56.5739 87.0877 -53.2997C66.1452 -50.0254 7.69435 -19.9084 -5.01376 3.36816C16.2853 -22.5343 100.963 -64.2896 116.783 -33.9781V-18.9359C95.4193 -5.06068 30.8089 0.774666 37.7465 12.9317C40.8262 16.8867 50.3249 20.9391 59.4021 14.7795C41.5719 10.8893 73.5042 -0.716591 78.367 -2.75896C38.6218 15.2982 72.6938 12.186 90.2647 14.2608C107.836 16.3356 109.359 20.1934 116.783 22.9815V23.7919C100.866 19.4802 98.3045 14.4878 67.831 15.6224C102.195 17.6972 86.3096 28.7196 116.783 29.4652V43.9887C84.0403 44.2805 74.6389 34.8143 50.2601 34.8143C25.8812 34.8143 11.2928 36.7594 1.46997 42.7244C-15.8092 53.9737 9.1532 17.6648 11.4874 12.2833C26.6917 -20.9458 -28.647 34.3604 -33.2504 74.2678C-33.4125 40.1309 -3.16589 -2.75896 31.8463 -4.70409C42.8686 -5.35246 -23.9138 48.4625 9.47739 38.4127C-17.7543 36.7918 73.3421 -11.512 45.8187 -11.0581C-1.15594 -10.2801 -22.5522 25.7046 -35.6818 58.0584C-40.2528 6.5452 64.9133 -65.5863 116.783 -56.6712ZM60.4719 17.0164C63.4545 18.8967 69.6788 18.0862 74.412 18.5077C69.7761 17.6972 65.205 15.8818 60.4719 17.0164ZM33.6293 33.2906C23.3201 32.6098 1.37271 39.3853 17.9062 23.8243C-2.19334 40.682 22.0558 34.5549 33.6293 33.2906Z" fill="#02C9BF"/>
<rect x="-129.923" y="-73.4316" width="246.706" height="246.706" fill="#42E8E0"/>
</g>
<path d="M59.959 7.70683C55.0911 2.83898 48.6189 0.158203 41.7347 0.158203C34.8506 0.158203 28.3784 2.83898 23.5105 7.70683C18.6427 12.5747 15.9619 19.0469 15.9619 25.931C15.9619 32.8152 18.6428 39.2873 23.5105 44.1553C28.3783 49.0232 34.8506 51.7039 41.7347 51.7039C48.6189 51.7039 55.0911 49.0231 59.959 44.1553C64.8268 39.2874 67.5076 32.8152 67.5076 25.931C67.5076 19.0469 64.8267 12.5748 59.959 7.70683ZM41.7347 24.3202C45.7317 24.3202 48.9834 27.5719 48.9834 31.5688C48.9834 34.8787 46.7527 37.6757 43.7162 38.5399C43.4981 38.602 43.3456 38.7982 43.3456 39.025V40.3828C43.3456 41.2502 42.679 41.9965 41.8126 42.0372C40.8875 42.0807 40.1239 41.3437 40.1239 40.4283V39.0247C40.1239 38.7985 39.9723 38.6022 39.7548 38.5403C36.7313 37.6805 34.5064 34.9046 34.4862 31.6138C34.4809 30.7355 35.1715 29.9839 36.0496 29.9587C36.9608 29.9326 37.7077 30.6635 37.7077 31.5688C37.7077 33.8846 39.6726 35.7501 42.0226 35.5858C44.0063 35.4472 45.6132 33.8402 45.7517 31.8565C45.9158 29.5064 44.0504 27.5418 41.7347 27.5418C37.7378 27.5418 34.4861 24.2901 34.4861 20.2932C34.4861 16.9833 36.7168 14.1864 39.7533 13.3222C39.9714 13.2601 40.1239 13.0638 40.1239 12.837V11.4793C40.1239 10.6119 40.7905 9.8656 41.6569 9.82483C42.582 9.78134 43.3456 10.5184 43.3456 11.4338V12.8373C43.3456 13.0635 43.4972 13.2599 43.7147 13.3218C46.7382 14.1815 48.9631 16.9575 48.9833 20.2482C48.9886 21.1266 48.298 21.8782 47.4199 21.9033C46.5087 21.9295 45.7618 21.1986 45.7618 20.2932C45.7618 17.9775 43.7969 16.112 41.4469 16.2763C39.4632 16.4149 37.8563 18.0219 37.7178 20.0056C37.5537 22.3557 39.4191 24.3202 41.7347 24.3202Z" fill="url(#paint2_linear_2166_102602)"/>
<path d="M59.959 7.70683C55.0911 2.83898 48.6189 0.158203 41.7347 0.158203C34.8506 0.158203 28.3784 2.83898 23.5105 7.70683C18.6427 12.5747 15.9619 19.0469 15.9619 25.931C15.9619 32.8152 18.6428 39.2873 23.5105 44.1553C28.3783 49.0232 34.8506 51.7039 41.7347 51.7039C48.6189 51.7039 55.0911 49.0231 59.959 44.1553C64.8268 39.2874 67.5076 32.8152 67.5076 25.931C67.5076 19.0469 64.8267 12.5748 59.959 7.70683ZM41.7347 24.3202C45.7317 24.3202 48.9834 27.5719 48.9834 31.5688C48.9834 34.8787 46.7527 37.6757 43.7162 38.5399C43.4981 38.602 43.3456 38.7982 43.3456 39.025V40.3828C43.3456 41.2502 42.679 41.9965 41.8126 42.0372C40.8875 42.0807 40.1239 41.3437 40.1239 40.4283V39.0247C40.1239 38.7985 39.9723 38.6022 39.7548 38.5403C36.7313 37.6805 34.5064 34.9046 34.4862 31.6138C34.4809 30.7355 35.1715 29.9839 36.0496 29.9587C36.9608 29.9326 37.7077 30.6635 37.7077 31.5688C37.7077 33.8846 39.6726 35.7501 42.0226 35.5858C44.0063 35.4472 45.6132 33.8402 45.7517 31.8565C45.9158 29.5064 44.0504 27.5418 41.7347 27.5418C37.7378 27.5418 34.4861 24.2901 34.4861 20.2932C34.4861 16.9833 36.7168 14.1864 39.7533 13.3222C39.9714 13.2601 40.1239 13.0638 40.1239 12.837V11.4793C40.1239 10.6119 40.7905 9.8656 41.6569 9.82483C42.582 9.78134 43.3456 10.5184 43.3456 11.4338V12.8373C43.3456 13.0635 43.4972 13.2599 43.7147 13.3218C46.7382 14.1815 48.9631 16.9575 48.9833 20.2482C48.9886 21.1266 48.298 21.8782 47.4199 21.9033C46.5087 21.9295 45.7618 21.1986 45.7618 20.2932C45.7618 17.9775 43.7969 16.112 41.4469 16.2763C39.4632 16.4149 37.8563 18.0219 37.7178 20.0056C37.5537 22.3557 39.4191 24.3202 41.7347 24.3202Z" fill="url(#paint3_radial_2166_102602)"/>
</g>
</g>
<g filter="url(#filter2_ddddd_2166_102602)">
<g opacity="0.78" filter="url(#filter3_biii_2166_102602)">
<path d="M54.8925 61.7813C50.8412 65.8326 43.4308 64.9906 43.4308 64.9906C43.4308 64.9906 42.5888 57.5802 46.6401 53.5289C50.6914 49.4776 58.1018 50.3196 58.1018 50.3196C58.1018 50.3196 58.9438 57.73 54.8925 61.7813Z" fill="url(#paint4_linear_2166_102602)"/>
<path d="M54.8925 61.7813C50.8412 65.8326 43.4308 64.9906 43.4308 64.9906C43.4308 64.9906 42.5888 57.5802 46.6401 53.5289C50.6914 49.4776 58.1018 50.3196 58.1018 50.3196C58.1018 50.3196 58.9438 57.73 54.8925 61.7813Z" fill="url(#paint5_linear_2166_102602)"/>
</g>
<g opacity="0.78" filter="url(#filter4_biii_2166_102602)">
<path d="M24.9829 55.3409C30.6159 60.9739 40.9196 59.8032 40.9196 59.8032C40.9196 59.8032 42.0903 49.4995 36.4573 43.8665C30.8243 38.2335 20.5206 39.4042 20.5206 39.4042C20.5206 39.4042 19.3499 49.7079 24.9829 55.3409Z" fill="url(#paint6_linear_2166_102602)"/>
</g>
</g>
<g filter="url(#filter5_ddddd_2166_102602)">
<g filter="url(#filter6_biii_2166_102602)">
<path d="M34.457 83.1496C33.3058 83.1496 32.2925 82.3908 31.9684 81.2863L28.2808 68.7181C27.7944 67.0604 29.0342 65.3996 30.7617 65.3944L52.6914 65.3296C54.424 65.3245 55.6743 66.987 55.1886 68.65L51.4998 81.2831C51.1768 82.3892 50.1626 83.1496 49.0102 83.1496H34.457Z" fill="url(#paint7_linear_2166_102602)"/>
</g>
</g>
<defs>
<filter id="filter0_biii_2166_102602" x="37.6829" y="41.0062" width="9.07748" height="29.1771" filterUnits="userSpaceOnUse" color-interpolation-filters="sRGB">
<feFlood flood-opacity="0" result="BackgroundImageFix"/>
<feGaussianBlur in="BackgroundImage" stdDeviation="1.62093"/>
<feComposite in2="SourceAlpha" operator="in" result="effect1_backgroundBlur_2166_102602"/>
<feBlend mode="normal" in="SourceGraphic" in2="effect1_backgroundBlur_2166_102602" result="shape"/>
<feColorMatrix in="SourceAlpha" type="matrix" values="0 0 0 0 0 0 0 0 0 0 0 0 0 0 0 0 0 0 127 0" result="hardAlpha"/>
<feOffset dy="-1.29675"/>
<feGaussianBlur stdDeviation="0.162093"/>
<feComposite in2="hardAlpha" operator="arithmetic" k2="-1" k3="1"/>
<feColorMatrix type="matrix" values="0 0 0 0 0.920833 0 0 0 0 0.920833 0 0 0 0 0.920833 0 0 0 0.1 0"/>
<feBlend mode="normal" in2="shape" result="effect2_innerShadow_2166_102602"/>
<feColorMatrix in="SourceAlpha" type="matrix" values="0 0 0 0 0 0 0 0 0 0 0 0 0 0 0 0 0 0 127 0" result="hardAlpha"/>
<feOffset dx="-0.324187"/>
<feGaussianBlur stdDeviation="0.162093"/>
<feComposite in2="hardAlpha" operator="arithmetic" k2="-1" k3="1"/>
<feColorMatrix type="matrix" values="0 0 0 0 0.920833 0 0 0 0 0.920833 0 0 0 0 0.920833 0 0 0 0.1 0"/>
<feBlend mode="normal" in2="effect2_innerShadow_2166_102602" result="effect3_innerShadow_2166_102602"/>
<feColorMatrix in="SourceAlpha" type="matrix" values="0 0 0 0 0 0 0 0 0 0 0 0 0 0 0 0 0 0 127 0" result="hardAlpha"/>
<feOffset dx="0.324187"/>
<feGaussianBlur stdDeviation="0.162093"/>
<feComposite in2="hardAlpha" operator="arithmetic" k2="-1" k3="1"/>
<feColorMatrix type="matrix" values="0 0 0 0 0.920833 0 0 0 0 0.920833 0 0 0 0 0.920833 0 0 0 0.1 0"/>
<feBlend mode="normal" in2="effect3_innerShadow_2166_102602" result="effect4_innerShadow_2166_102602"/>
</filter>
<filter id="filter1_ddddiii_2166_102602" x="0.400956" y="-0.165983" width="82.6678" height="82.992" filterUnits="userSpaceOnUse" color-interpolation-filters="sRGB">
<feFlood flood-opacity="0" result="BackgroundImageFix"/>
<feColorMatrix in="SourceAlpha" type="matrix" values="0 0 0 0 0 0 0 0 0 0 0 0 0 0 0 0 0 0 127 0" result="hardAlpha"/>
<feOffset dy="1.29675"/>
<feGaussianBlur stdDeviation="0.648373"/>
<feColorMatrix type="matrix" values="0 0 0 0 0 0 0 0 0 0 0 0 0 0 0 0 0 0 0.1 0"/>
<feBlend mode="normal" in2="BackgroundImageFix" result="effect1_dropShadow_2166_102602"/>
<feColorMatrix in="SourceAlpha" type="matrix" values="0 0 0 0 0 0 0 0 0 0 0 0 0 0 0 0 0 0 127 0" result="hardAlpha"/>
<feOffset dy="2.59349"/>
<feGaussianBlur stdDeviation="1.29675"/>
<feColorMatrix type="matrix" values="0 0 0 0 0 0 0 0 0 0 0 0 0 0 0 0 0 0 0.1 0"/>
<feBlend mode="normal" in2="effect1_dropShadow_2166_102602" result="effect2_dropShadow_2166_102602"/>
<feColorMatrix in="SourceAlpha" type="matrix" values="0 0 0 0 0 0 0 0 0 0 0 0 0 0 0 0 0 0 127 0" result="hardAlpha"/>
<feOffset dy="5.18699"/>
<feGaussianBlur stdDeviation="2.59349"/>
<feColorMatrix type="matrix" values="0 0 0 0 0 0 0 0 0 0 0 0 0 0 0 0 0 0 0.1 0"/>
<feBlend mode="normal" in2="effect2_dropShadow_2166_102602" result="effect3_dropShadow_2166_102602"/>
<feColorMatrix in="SourceAlpha" type="matrix" values="0 0 0 0 0 0 0 0 0 0 0 0 0 0 0 0 0 0 127 0" result="hardAlpha"/>
<feOffset dy="15.561"/>
<feGaussianBlur stdDeviation="7.78048"/>
<feColorMatrix type="matrix" values="0 0 0 0 0 0 0 0 0 0 0 0 0 0 0 0 0 0 0.1 0"/>
<feBlend mode="normal" in2="effect3_dropShadow_2166_102602" result="effect4_dropShadow_2166_102602"/>
<feBlend mode="normal" in="SourceGraphic" in2="effect4_dropShadow_2166_102602" result="shape"/>
<feColorMatrix in="SourceAlpha" type="matrix" values="0 0 0 0 0 0 0 0 0 0 0 0 0 0 0 0 0 0 127 0" result="hardAlpha"/>
<feOffset dy="-1.29675"/>
<feGaussianBlur stdDeviation="0.162093"/>
<feComposite in2="hardAlpha" operator="arithmetic" k2="-1" k3="1"/>
<feColorMatrix type="matrix" values="0 0 0 0 0 0 0 0 0 0 0 0 0 0 0 0 0 0 0.4 0"/>
<feBlend mode="normal" in2="shape" result="effect5_innerShadow_2166_102602"/>
<feColorMatrix in="SourceAlpha" type="matrix" values="0 0 0 0 0 0 0 0 0 0 0 0 0 0 0 0 0 0 127 0" result="hardAlpha"/>
<feOffset dx="-0.324187"/>
<feGaussianBlur stdDeviation="0.162093"/>
<feComposite in2="hardAlpha" operator="arithmetic" k2="-1" k3="1"/>
<feColorMatrix type="matrix" values="0 0 0 0 1 0 0 0 0 1 0 0 0 0 1 0 0 0 0.3 0"/>
<feBlend mode="normal" in2="effect5_innerShadow_2166_102602" result="effect6_innerShadow_2166_102602"/>
<feColorMatrix in="SourceAlpha" type="matrix" values="0 0 0 0 0 0 0 0 0 0 0 0 0 0 0 0 0 0 127 0" result="hardAlpha"/>
<feOffset dx="0.324187"/>
<feGaussianBlur stdDeviation="0.162093"/>
<feComposite in2="hardAlpha" operator="arithmetic" k2="-1" k3="1"/>
<feColorMatrix type="matrix" values="0 0 0 0 1 0 0 0 0 1 0 0 0 0 1 0 0 0 0.3 0"/>
<feBlend mode="normal" in2="effect6_innerShadow_2166_102602" result="effect7_innerShadow_2166_102602"/>
</filter>
<filter id="filter2_ddddd_2166_102602" x="4.85896" y="39.3037" width="68.8768" height="56.8817" filterUnits="userSpaceOnUse" color-interpolation-filters="sRGB">
<feFlood flood-opacity="0" result="BackgroundImageFix"/>
<feColorMatrix in="SourceAlpha" type="matrix" values="0 0 0 0 0 0 0 0 0 0 0 0 0 0 0 0 0 0 127 0" result="hardAlpha"/>
<feOffset dy="0.648373"/>
<feGaussianBlur stdDeviation="0.324187"/>
<feColorMatrix type="matrix" values="0 0 0 0 0 0 0 0 0 0 0 0 0 0 0 0 0 0 0.1 0"/>
<feBlend mode="normal" in2="BackgroundImageFix" result="effect1_dropShadow_2166_102602"/>
<feColorMatrix in="SourceAlpha" type="matrix" values="0 0 0 0 0 0 0 0 0 0 0 0 0 0 0 0 0 0 127 0" result="hardAlpha"/>
<feOffset dy="1.29675"/>
<feGaussianBlur stdDeviation="0.648373"/>
<feColorMatrix type="matrix" values="0 0 0 0 0 0 0 0 0 0 0 0 0 0 0 0 0 0 0.1 0"/>
<feBlend mode="normal" in2="effect1_dropShadow_2166_102602" result="effect2_dropShadow_2166_102602"/>
<feColorMatrix in="SourceAlpha" type="matrix" values="0 0 0 0 0 0 0 0 0 0 0 0 0 0 0 0 0 0 127 0" result="hardAlpha"/>
<feOffset dy="2.59349"/>
<feGaussianBlur stdDeviation="1.29675"/>
<feColorMatrix type="matrix" values="0 0 0 0 0 0 0 0 0 0 0 0 0 0 0 0 0 0 0.1 0"/>
<feBlend mode="normal" in2="effect2_dropShadow_2166_102602" result="effect3_dropShadow_2166_102602"/>
<feColorMatrix in="SourceAlpha" type="matrix" values="0 0 0 0 0 0 0 0 0 0 0 0 0 0 0 0 0 0 127 0" result="hardAlpha"/>
<feOffset dy="5.18699"/>
<feGaussianBlur stdDeviation="2.59349"/>
<feColorMatrix type="matrix" values="0 0 0 0 0 0 0 0 0 0 0 0 0 0 0 0 0 0 0.1 0"/>
<feBlend mode="normal" in2="effect3_dropShadow_2166_102602" result="effect4_dropShadow_2166_102602"/>
<feColorMatrix in="SourceAlpha" type="matrix" values="0 0 0 0 0 0 0 0 0 0 0 0 0 0 0 0 0 0 127 0" result="hardAlpha"/>
<feOffset dy="15.561"/>
<feGaussianBlur stdDeviation="7.78048"/>
<feColorMatrix type="matrix" values="0 0 0 0 0 0 0 0 0 0 0 0 0 0 0 0 0 0 0.1 0"/>
<feBlend mode="normal" in2="effect4_dropShadow_2166_102602" result="effect5_dropShadow_2166_102602"/>
<feBlend mode="normal" in="SourceGraphic" in2="effect5_dropShadow_2166_102602" result="shape"/>
</filter>
<filter id="filter3_biii_2166_102602" x="40.1165" y="47.0052" width="21.3001" height="21.3001" filterUnits="userSpaceOnUse" color-interpolation-filters="sRGB">
<feFlood flood-opacity="0" result="BackgroundImageFix"/>
<feGaussianBlur in="BackgroundImage" stdDeviation="1.62093"/>
<feComposite in2="SourceAlpha" operator="in" result="effect1_backgroundBlur_2166_102602"/>
<feBlend mode="normal" in="SourceGraphic" in2="effect1_backgroundBlur_2166_102602" result="shape"/>
<feColorMatrix in="SourceAlpha" type="matrix" values="0 0 0 0 0 0 0 0 0 0 0 0 0 0 0 0 0 0 127 0" result="hardAlpha"/>
<feOffset dy="-1.29675"/>
<feGaussianBlur stdDeviation="0.162093"/>
<feComposite in2="hardAlpha" operator="arithmetic" k2="-1" k3="1"/>
<feColorMatrix type="matrix" values="0 0 0 0 0.920833 0 0 0 0 0.920833 0 0 0 0 0.920833 0 0 0 0.1 0"/>
<feBlend mode="normal" in2="shape" result="effect2_innerShadow_2166_102602"/>
<feColorMatrix in="SourceAlpha" type="matrix" values="0 0 0 0 0 0 0 0 0 0 0 0 0 0 0 0 0 0 127 0" result="hardAlpha"/>
<feOffset dx="-0.324187"/>
<feGaussianBlur stdDeviation="0.162093"/>
<feComposite in2="hardAlpha" operator="arithmetic" k2="-1" k3="1"/>
<feColorMatrix type="matrix" values="0 0 0 0 0.920833 0 0 0 0 0.920833 0 0 0 0 0.920833 0 0 0 0.1 0"/>
<feBlend mode="normal" in2="effect2_innerShadow_2166_102602" result="effect3_innerShadow_2166_102602"/>
<feColorMatrix in="SourceAlpha" type="matrix" values="0 0 0 0 0 0 0 0 0 0 0 0 0 0 0 0 0 0 127 0" result="hardAlpha"/>
<feOffset dx="0.324187"/>
<feGaussianBlur stdDeviation="0.162093"/>
<feComposite in2="hardAlpha" operator="arithmetic" k2="-1" k3="1"/>
<feColorMatrix type="matrix" values="0 0 0 0 0.920833 0 0 0 0 0.920833 0 0 0 0 0.920833 0 0 0 0.1 0"/>
<feBlend mode="normal" in2="effect3_innerShadow_2166_102602" result="effect4_innerShadow_2166_102602"/>
</filter>
<filter id="filter4_biii_2166_102602" x="17.1781" y="36.0618" width="27.0843" height="27.0843" filterUnits="userSpaceOnUse" color-interpolation-filters="sRGB">
<feFlood flood-opacity="0" result="BackgroundImageFix"/>
<feGaussianBlur in="BackgroundImage" stdDeviation="1.62093"/>
<feComposite in2="SourceAlpha" operator="in" result="effect1_backgroundBlur_2166_102602"/>
<feBlend mode="normal" in="SourceGraphic" in2="effect1_backgroundBlur_2166_102602" result="shape"/>
<feColorMatrix in="SourceAlpha" type="matrix" values="0 0 0 0 0 0 0 0 0 0 0 0 0 0 0 0 0 0 127 0" result="hardAlpha"/>
<feOffset dy="-1.29675"/>
<feGaussianBlur stdDeviation="0.162093"/>
<feComposite in2="hardAlpha" operator="arithmetic" k2="-1" k3="1"/>
<feColorMatrix type="matrix" values="0 0 0 0 0.920833 0 0 0 0 0.920833 0 0 0 0 0.920833 0 0 0 0.1 0"/>
<feBlend mode="normal" in2="shape" result="effect2_innerShadow_2166_102602"/>
<feColorMatrix in="SourceAlpha" type="matrix" values="0 0 0 0 0 0 0 0 0 0 0 0 0 0 0 0 0 0 127 0" result="hardAlpha"/>
<feOffset dx="-0.324187"/>
<feGaussianBlur stdDeviation="0.162093"/>
<feComposite in2="hardAlpha" operator="arithmetic" k2="-1" k3="1"/>
<feColorMatrix type="matrix" values="0 0 0 0 0.920833 0 0 0 0 0.920833 0 0 0 0 0.920833 0 0 0 0.1 0"/>
<feBlend mode="normal" in2="effect2_innerShadow_2166_102602" result="effect3_innerShadow_2166_102602"/>
<feColorMatrix in="SourceAlpha" type="matrix" values="0 0 0 0 0 0 0 0 0 0 0 0 0 0 0 0 0 0 127 0" result="hardAlpha"/>
<feOffset dx="0.324187"/>
<feGaussianBlur stdDeviation="0.162093"/>
<feComposite in2="hardAlpha" operator="arithmetic" k2="-1" k3="1"/>
<feColorMatrix type="matrix" values="0 0 0 0 0.920833 0 0 0 0 0.920833 0 0 0 0 0.920833 0 0 0 0.1 0"/>
<feBlend mode="normal" in2="effect3_innerShadow_2166_102602" result="effect4_innerShadow_2166_102602"/>
</filter>
<filter id="filter5_ddddd_2166_102602" x="12.6129" y="65.3291" width="58.242" height="48.9422" filterUnits="userSpaceOnUse" color-interpolation-filters="sRGB">
<feFlood flood-opacity="0" result="BackgroundImageFix"/>
<feColorMatrix in="SourceAlpha" type="matrix" values="0 0 0 0 0 0 0 0 0 0 0 0 0 0 0 0 0 0 127 0" result="hardAlpha"/>
<feOffset dy="0.648373"/>
<feGaussianBlur stdDeviation="0.324187"/>
<feColorMatrix type="matrix" values="0 0 0 0 0 0 0 0 0 0 0 0 0 0 0 0 0 0 0.1 0"/>
<feBlend mode="normal" in2="BackgroundImageFix" result="effect1_dropShadow_2166_102602"/>
<feColorMatrix in="SourceAlpha" type="matrix" values="0 0 0 0 0 0 0 0 0 0 0 0 0 0 0 0 0 0 127 0" result="hardAlpha"/>
<feOffset dy="1.29675"/>
<feGaussianBlur stdDeviation="0.648373"/>
<feColorMatrix type="matrix" values="0 0 0 0 0 0 0 0 0 0 0 0 0 0 0 0 0 0 0.1 0"/>
<feBlend mode="normal" in2="effect1_dropShadow_2166_102602" result="effect2_dropShadow_2166_102602"/>
<feColorMatrix in="SourceAlpha" type="matrix" values="0 0 0 0 0 0 0 0 0 0 0 0 0 0 0 0 0 0 127 0" result="hardAlpha"/>
<feOffset dy="2.59349"/>
<feGaussianBlur stdDeviation="1.29675"/>
<feColorMatrix type="matrix" values="0 0 0 0 0 0 0 0 0 0 0 0 0 0 0 0 0 0 0.1 0"/>
<feBlend mode="normal" in2="effect2_dropShadow_2166_102602" result="effect3_dropShadow_2166_102602"/>
<feColorMatrix in="SourceAlpha" type="matrix" values="0 0 0 0 0 0 0 0 0 0 0 0 0 0 0 0 0 0 127 0" result="hardAlpha"/>
<feOffset dy="5.18699"/>
<feGaussianBlur stdDeviation="2.59349"/>
<feColorMatrix type="matrix" values="0 0 0 0 0 0 0 0 0 0 0 0 0 0 0 0 0 0 0.1 0"/>
<feBlend mode="normal" in2="effect3_dropShadow_2166_102602" result="effect4_dropShadow_2166_102602"/>
<feColorMatrix in="SourceAlpha" type="matrix" values="0 0 0 0 0 0 0 0 0 0 0 0 0 0 0 0 0 0 127 0" result="hardAlpha"/>
<feOffset dy="15.561"/>
<feGaussianBlur stdDeviation="7.78048"/>
<feColorMatrix type="matrix" values="0 0 0 0 0 0 0 0 0 0 0 0 0 0 0 0 0 0 0.1 0"/>
<feBlend mode="normal" in2="effect4_dropShadow_2166_102602" result="effect5_dropShadow_2166_102602"/>
<feBlend mode="normal" in="SourceGraphic" in2="effect5_dropShadow_2166_102602" result="shape"/>
</filter>
<filter id="filter6_biii_2166_102602" x="24.932" y="62.0872" width="33.6038" height="24.304" filterUnits="userSpaceOnUse" color-interpolation-filters="sRGB">
<feFlood flood-opacity="0" result="BackgroundImageFix"/>
<feGaussianBlur in="BackgroundImage" stdDeviation="1.62093"/>
<feComposite in2="SourceAlpha" operator="in" result="effect1_backgroundBlur_2166_102602"/>
<feBlend mode="normal" in="SourceGraphic" in2="effect1_backgroundBlur_2166_102602" result="shape"/>
<feColorMatrix in="SourceAlpha" type="matrix" values="0 0 0 0 0 0 0 0 0 0 0 0 0 0 0 0 0 0 127 0" result="hardAlpha"/>
<feOffset dy="-1.29675"/>
<feGaussianBlur stdDeviation="0.162093"/>
<feComposite in2="hardAlpha" operator="arithmetic" k2="-1" k3="1"/>
<feColorMatrix type="matrix" values="0 0 0 0 0.920833 0 0 0 0 0.920833 0 0 0 0 0.920833 0 0 0 0.1 0"/>
<feBlend mode="normal" in2="shape" result="effect2_innerShadow_2166_102602"/>
<feColorMatrix in="SourceAlpha" type="matrix" values="0 0 0 0 0 0 0 0 0 0 0 0 0 0 0 0 0 0 127 0" result="hardAlpha"/>
<feOffset dx="-0.324187"/>
<feGaussianBlur stdDeviation="0.162093"/>
<feComposite in2="hardAlpha" operator="arithmetic" k2="-1" k3="1"/>
<feColorMatrix type="matrix" values="0 0 0 0 0.920833 0 0 0 0 0.920833 0 0 0 0 0.920833 0 0 0 0.1 0"/>
<feBlend mode="normal" in2="effect2_innerShadow_2166_102602" result="effect3_innerShadow_2166_102602"/>
<feColorMatrix in="SourceAlpha" type="matrix" values="0 0 0 0 0 0 0 0 0 0 0 0 0 0 0 0 0 0 127 0" result="hardAlpha"/>
<feOffset dx="0.324187"/>
<feGaussianBlur stdDeviation="0.162093"/>
<feComposite in2="hardAlpha" operator="arithmetic" k2="-1" k3="1"/>
<feColorMatrix type="matrix" values="0 0 0 0 0.920833 0 0 0 0 0.920833 0 0 0 0 0.920833 0 0 0 0.1 0"/>
<feBlend mode="normal" in2="effect3_innerShadow_2166_102602" result="effect4_innerShadow_2166_102602"/>
</filter>
<linearGradient id="paint0_linear_2166_102602" x1="42.2216" y1="44.248" x2="42.2216" y2="66.9411" gradientUnits="userSpaceOnUse">
<stop stop-color="#A6A0BA" stop-opacity="0.15"/>
<stop offset="1" stop-opacity="0.2"/>
</linearGradient>
<linearGradient id="paint1_linear_2166_102602" x1="41.7347" y1="0.158203" x2="41.7347" y2="51.7039" gradientUnits="userSpaceOnUse">
<stop stop-color="#5A58E0" stop-opacity="0.15"/>
<stop offset="1" stop-color="#5A58E0" stop-opacity="0.2"/>
</linearGradient>
<linearGradient id="paint2_linear_2166_102602" x1="41.737" y1="-0.0882119" x2="41.737" y2="51.2996" gradientUnits="userSpaceOnUse">
<stop stop-color="white" stop-opacity="0.4"/>
<stop offset="0.833333" stop-color="white" stop-opacity="0"/>
<stop offset="1" stop-color="white" stop-opacity="0.3"/>
</linearGradient>
<radialGradient id="paint3_radial_2166_102602" cx="0" cy="0" r="1" gradientUnits="userSpaceOnUse" gradientTransform="translate(15.9619 6.92539) scale(39.5261 61.3464)">
<stop stop-color="white" stop-opacity="0.7"/>
<stop offset="1" stop-color="white" stop-opacity="0"/>
</radialGradient>
<linearGradient id="paint4_linear_2166_102602" x1="58.1018" y1="50.3196" x2="43.4308" y2="64.9906" gradientUnits="userSpaceOnUse">
<stop stop-color="#A6A0BA" stop-opacity="0.15"/>
<stop offset="1" stop-opacity="0.2"/>
</linearGradient>
<linearGradient id="paint5_linear_2166_102602" x1="58.1018" y1="50.3196" x2="43.4308" y2="64.9906" gradientUnits="userSpaceOnUse">
<stop stop-color="white" stop-opacity="0.42"/>
<stop offset="1" stop-color="#E3E3E3" stop-opacity="0.2"/>
</linearGradient>
<linearGradient id="paint6_linear_2166_102602" x1="20.5206" y1="39.4042" x2="40.9196" y2="59.8032" gradientUnits="userSpaceOnUse">
<stop stop-color="white" stop-opacity="0.42"/>
<stop offset="1" stop-color="#E3E3E3" stop-opacity="0.2"/>
</linearGradient>
<linearGradient id="paint7_linear_2166_102602" x1="41.7349" y1="65.3193" x2="41.7349" y2="83.1496" gradientUnits="userSpaceOnUse">
<stop stop-color="#42E8E0" stop-opacity="0.44"/>
<stop offset="1" stop-color="#42E8E0" stop-opacity="0.08"/>
</linearGradient>
<clipPath id="clip0_2166_102602">
<rect width="246.706" height="246.706" fill="white" transform="translate(-129.923 -73.4316)"/>
</clipPath>
</defs>
</svg>
