<svg width="87" height="96" viewBox="0 0 87 96" fill="none" xmlns="http://www.w3.org/2000/svg">
<g filter="url(#filter0_ddddd_2166_102565)">
<path d="M13.2773 56.9355V52.0137L18.121 29.0701C18.326 28.0991 19.1828 27.4043 20.1751 27.4043H67.1011C68.0851 27.4043 68.937 28.0877 69.1505 29.0483L74.2539 52.0137V56.9355H13.2773Z" fill="#02C9BF"/>
</g>
<g filter="url(#filter1_ddddd_2166_102565)">
<g filter="url(#filter2_biii_2166_102565)">
<path d="M24.7627 52.2871V2.43341C24.7627 1.27393 25.7026 0.333984 26.8621 0.333984H62.5851C63.7446 0.333984 64.6846 1.27393 64.6846 2.43341V52.2871H24.7627Z" fill="url(#paint0_linear_2166_102565)"/>
</g>
<g filter="url(#filter3_biii_2166_102565)">
<path d="M30.9637 57.7559C29.8042 57.7559 28.8643 56.8159 28.8643 55.6564V7.90216C28.8643 6.74268 29.8042 5.80273 30.9637 5.80273H66.6867C67.8462 5.80273 68.7861 6.74268 68.7861 7.90216V55.6564C68.7861 56.8159 67.8462 57.7559 66.6867 57.7559H30.9637Z" fill="url(#paint1_linear_2166_102565)"/>
</g>
<g filter="url(#filter4_biii_2166_102565)">
<path d="M18.2002 63.2246V13.3709C18.2002 12.2114 19.1401 11.2715 20.2996 11.2715H56.0226C57.1821 11.2715 58.1221 12.2114 58.1221 13.3709V63.2246H18.2002Z" fill="url(#paint2_linear_2166_102565)"/>
</g>
</g>
<g filter="url(#filter5_ddddiii_2166_102565)">
<mask id="mask0_2166_102565" style="mask-type:alpha" maskUnits="userSpaceOnUse" x="13" y="49" width="62" height="22">
<path d="M15.3758 70.3339C14.2163 70.3339 13.2764 69.3939 13.2764 68.2344V52.0313C13.2764 50.8729 14.2145 49.9335 15.3729 49.9319L31.7726 49.9092C32.4742 49.9082 33.1299 50.2577 33.5201 50.8407L36.6469 55.5114C37.0366 56.0936 37.691 56.443 38.3915 56.443H49.1326C49.836 56.443 50.4926 56.0907 50.8817 55.5048L54.0119 50.79C54.4004 50.2048 55.0557 49.8527 55.7581 49.8518L72.1506 49.8291C73.3112 49.8275 74.2529 50.7679 74.2529 51.9285V68.2344C74.2529 69.3939 73.313 70.3339 72.1535 70.3339H15.3758Z" fill="white"/>
</mask>
<g mask="url(#mask0_2166_102565)">
<g clip-path="url(#clip0_2166_102565)">
<rect width="199.708" height="199.708" transform="translate(-96.5947 -62.9111)" fill="#EE9C2D"/>
<path d="M-68.1475 -23.4157C-72.5826 -27.8508 -80.4554 -29.1629 -93.708 -25.6726C-80.2717 -30.2913 -72.5038 -28.9005 -68.1475 -23.4157ZM103.113 64.1565V65.4948C92.5896 64.0777 82.8535 58.9079 72.6975 54.4729C92.2222 65.1012 97.9169 70.7959 103.113 71.0583V96.3039C67.239 109.268 17.0628 85.177 38.6606 75.2309C48.0031 70.9271 90.0178 85.9642 72.9337 64.104C75.8204 69.3525 76.3453 74.8635 66.4255 73.289C69.7846 72.7379 73.721 71.452 70.8081 67.0432C67.8951 62.6344 70.9393 74.2862 50.3649 68.3028C34.0944 63.5791 10.4759 76.4381 25.9591 60.9548C-7.63166 85.3606 59.5499 114.516 98.2842 103.521C93.6393 104.754 86.2388 105.148 77.8674 104.623C86.58 104.492 95.0302 102.576 103.087 99.2956V107.326C73.9047 126.457 46.6909 130.866 -2.77674 111.866C39.8416 138.371 -9.41617 125.958 -10.5184 125.643C-6.60819 126.719 12.8377 129.475 11.0007 126.063C9.16373 122.652 -5.37478 123.78 -16.5542 119.398C-11.9355 118.925 -3.77397 121.996 -13.9299 113.23C5.83089 129.554 -9.4949 111.787 -20.3332 103.783C-21.8553 102.523 -23.2986 101.185 -24.6895 99.7679C-23.2724 100.923 -22.0914 101.185 -21.3042 100.267C-24.2171 95.2279 -26.7627 90.478 -28.9933 85.9905C-28.3635 86.8302 -27.7074 87.6962 -26.9988 88.536C-67.8064 4.29665 34.6192 -28.953 39.2117 -58.1087C38.8443 -56.954 38.267 -55.7993 37.4535 -54.6709C38.7131 -58.03 39.3954 -60.4706 39.0018 -62.8849H45.5625C45.6937 -62.5437 45.8512 -62.1763 45.9561 -61.8089C46.2973 -62.1763 46.5859 -62.5437 46.8484 -62.8849H55.7184C55.7447 -57.82 52.0707 -51.8104 41.5736 -44.1213C49.6301 -49.2386 56.4008 -55.4582 57.9228 -62.9111H62.2267C51.5983 -51.8892 36.5087 -35.4874 27.7174 -32.3645C-1.51709 -18.6395 -19.9395 10.49 -24.3221 39.0684C-20.5956 26.6818 -13.4576 13.9278 -3.74773 1.77735C-18.0238 21.2757 -26.4215 43.7658 -24.5583 63.0543C-23.7185 68.7752 -22.1964 74.2599 -19.9658 79.351C-12.7228 93.7321 3.02292 104.387 30.053 107.457C-2.82923 89.4283 -5.1386 44.0545 37.2435 38.8584C50.7586 36.6278 63.4076 40.5117 75.8467 44.868C59.891 40.8529 38.162 34.2659 25.3818 44.9467C39.3692 43.2934 53.8027 44.8418 67.2653 49.3555C52.3331 46.3639 32.0474 38.8322 20.2119 52.3735C23.3348 50.4577 27.5337 46.7837 35.9314 46.7837C23.5973 49.1456 24.3845 52.5572 36.1413 51.8224C15.8556 53.1345 -3.95767 68.5652 15.4358 89.7169C34.8292 110.869 54.5638 111.026 47.7669 115.461C35.6689 123.413 -3.03917 105.83 -15.1371 88.4573C-15.5307 88.0374 -15.8981 87.6175 -16.2918 87.1976C-0.493622 111.315 41.731 128.53 66.7929 116.275C77.395 111.079 -15.2421 88.5098 17.4827 59.2753C26.3265 51.3762 49.4202 51.2975 61.1245 61.4272C53.5141 56.4936 26.2215 53.7643 34.6192 61.4797C40.9175 67.2531 68.8923 70.6384 64.5623 62.9231C62.0692 59.6427 58.8676 57.1496 55.2723 55.3389C55.3248 55.3651 55.3773 55.3651 55.4298 55.3914C24.9619 38.2286 59.4449 48.1484 91.1987 61.296C95.3188 63.4217 99.3077 64.2614 103.113 64.1565ZM-14.1399 89.4808C-14.1399 89.4808 -2.77674 102.707 15.9869 109.242C30.7353 114.359 43.7255 113.467 43.8042 112.916C43.8829 112.312 28.216 112.417 9.68858 104.255C-5.506 97.5635 -14.1399 89.4808 -14.1399 89.4808ZM23.7285 -32.8894C28.977 -36.4584 34.2256 -40.0012 39.4742 -43.5702C35.0916 -41.8119 26.9563 -36.3009 23.7285 -32.8894ZM-25.4768 67.2531C-25.6867 64.6288 -27.235 56.2049 -27.0251 53.4757C-28.8621 26.3668 -16.5017 -3.44497 10.7908 -22.1823C-22.9575 -1.21433 -34.6617 28.9386 -25.4768 67.2531ZM-28.5472 24.6086C-25.1356 17.8379 -21.5666 10.7261 -17.9451 3.53561C-21.5666 7.83943 -28.7834 22.1155 -28.5472 24.6086ZM7.27425 112.496C-8.55016 104.885 -22.9837 93.2072 -30.4366 76.963C-27.235 90.8454 -6.16206 111.682 7.27425 112.496ZM74.1409 61.5322C76.2928 64.7338 77.6574 65.941 80.7803 71.5569C91.881 91.5277 30.4991 67.1219 37.1385 83.8386C41.1799 94.0208 69.5222 99.0069 77.9198 99.0069C54.8262 94.808 39.5004 88.7197 41.1012 82.0016C43.5418 71.9768 115.972 106.88 74.1409 61.5322ZM-43.5843 55.1814C-43.7417 50.484 -44.1879 40.433 -43.3219 35.7618C-44.7915 39.5407 -44.1879 49.8017 -43.5843 55.1814ZM-24.6895 99.7417C-25.6867 98.7445 -26.6314 97.721 -27.5499 96.6451C-26.5265 97.9834 -25.5555 99.0331 -24.6895 99.7417ZM-27.5499 96.6713C-33.7432 88.5623 -41.6161 74.0238 -43.3219 59.1179C-42.8495 74.2599 -37.496 85.1507 -27.5499 96.6713ZM14.3336 -59.2109C15.6719 -57.0065 16.2755 -54.5922 16.5117 -52.2828C16.5904 -54.8546 15.9606 -57.2427 14.3336 -59.2109ZM11.0532 -62.9111H8.40269C11.1057 -62.0189 13.0214 -60.7592 14.3073 -59.2109C13.52 -60.523 12.4703 -61.7827 11.0532 -62.9111ZM-31.2502 82.4739C-37.286 70.2448 -38.1783 65.6523 -39.9103 56.4936C-39.5691 67.3581 -38.5982 71.1895 -31.2502 82.4739ZM-39.3854 105.305C-29.938 116.065 -7.36923 122.363 -19.4409 109.766C-16.0294 118.427 -32.0375 111.866 -39.3854 105.305ZM-3.38033 -55.5894C-3.51154 -58.1349 -4.08888 -60.5755 -5.19109 -62.9111H-10.8858C-9.17999 -62.1763 -7.57918 -61.2316 -6.08334 -59.9982C-8.70762 -60.9692 -11.3319 -61.9139 -14.0611 -62.9111H-16.8691C-10.3609 -61.3103 -5.11235 -58.8697 -3.38033 -55.5894ZM103.113 -62.9111V-52.5977C85.6352 -59.8145 70.8343 -53.7786 62.4366 -46.6406C54.0389 -39.5026 42.2821 -38.1379 33.1234 -32.5745C42.7807 -39.3713 56.1383 -42.1793 64.1161 -50.3146C72.0939 -58.4499 69.076 -59.6308 70.6768 -62.9111H103.113ZM89.8866 -59.5521C84.2444 -59.4733 79.4157 -57.2689 74.692 -54.6971C79.6781 -56.5604 84.7692 -58.1874 89.8866 -59.5521ZM76.5815 101.999C70.3882 101.605 63.67 100.713 57.1618 99.2956C63.7225 101.264 70.2045 102.104 76.5815 101.999ZM58.4739 101.946C54.695 100.818 50.916 99.3481 47.0846 97.4586C8.37644 75.9132 42.2296 70.4023 58.5264 73.1577C48.7903 69.0901 20.1857 64.0777 28.2947 84.7571C26.5102 82.5264 22.81 79.3248 23.5973 73.289C18.3487 87.7225 41.0487 98.1409 58.4739 101.946ZM28.5834 -29.0579C14.4648 -20.4765 6.22453 -11.8427 -3.72148 1.75111C6.22453 -10.688 14.2811 -18.9807 28.5834 -29.0579ZM103.113 55.1814V52.977C99.2815 52.3472 87.7609 48.9881 83.9557 47.8335C89.2305 49.9066 101.906 54.3941 103.113 55.1814ZM-0.992233 -62.9111H8.11401C26.0116 -53.4112 2.5243 -37.4819 -1.38588 -26.4599C5.411 -29.8452 16.1443 -42.4942 16.5117 -52.2566C17.5877 -41.3396 10.3709 -32.1808 32.4411 -52.0991C36.22 -54.5922 36.9286 -58.6598 35.4852 -62.9111H36.8236C39.1855 -40.3161 -6.26704 -28.8217 -10.8333 -17.6948C0.319901 -20.1616 -18.26 -11.6852 -15.5045 -9.92694C-3.59027 -17.7473 5.62095 -28.9267 17.7714 -36.4059C-10.5709 -16.5664 -41.4849 19.2813 -40.3564 54.1842C-48.6229 10.6212 6.1983 -36.5634 3.4428 -53.9361C2.07818 -62.3863 0.267418 -60.6805 -0.992233 -62.9111ZM-6.31952 -26.801C-7.8416 -27.1947 -10.6758 -24.5442 -10.7283 -21.7362C-9.04877 -23.6519 -7.68414 -25.2265 -6.31952 -26.801ZM8.3502 -52.7289C8.00904 -53.7786 7.69413 -54.7234 7.30049 -55.9568C6.01459 -53.7262 6.32951 -52.7289 8.3502 -52.7289ZM11.1844 -51.6267C10.3971 -52.9651 10.6596 -56.0355 9.18997 -55.4844C9.76731 -54.3035 7.7991 -52.2828 11.1844 -51.6267ZM2.02569 -62.2026C4.57124 -53.5687 5.83089 -62.2551 11.5256 -56.5341C11.0007 -59.7095 6.56569 -62.6225 2.02569 -62.2026ZM-55.1311 94.2832C-48.2817 107.457 -43.768 115.409 -23.3773 120.001C-35.8164 114.569 -45.4738 107.588 -55.1311 94.2832ZM-96.5947 95.9365V98.1671C-84.8117 111.184 -72.4251 126.194 -58.7526 132.178C-56.1808 133.805 -53.5828 135.353 -50.9585 136.797H-47.232C-56.4433 132.361 -64.736 127.034 -71.6903 120.867C-79.9568 115.304 -88.1708 105.253 -96.5947 95.9365ZM-96.5947 -28.8217V-30.8162C-34.6617 -55.5632 -57.2305 15.2924 -60.1172 32.8488C-63.004 50.4052 -56.1808 84.3109 -50.6698 76.0969C-45.1589 67.8829 -64.3161 56.4936 -27.4975 -14.8081C-43.558 7.81319 -53.5565 47.571 -57.6767 47.676C-61.7968 47.781 -59.5924 34.1872 -57.2305 28.9386C-60.1172 81.1618 -16.7117 -70.2066 -94.2329 -37.167C-94.8627 -36.8258 -95.65 -36.4846 -96.5947 -36.1172V-42.4942C-73.711 -54.356 -60.3797 -61.494 -41.3536 -61.494C-22.3276 -61.494 -7.23801 -57.4789 -3.51154 -51.8367C-7.26426 -17.1699 -80.7966 35.6305 -30.804 99.8729C-20.202 111.603 -25.2143 112.391 -36.4987 103.731C-47.7831 95.0705 -59.7761 74.8373 -64.4998 50.3528C-64.1586 64.9175 -62.1379 79.3248 -55.8659 91.344C-62.5053 82.2115 -65.3658 74.6011 -67.1241 57.3333C-68.8823 40.0656 -63.5813 15.0037 -63.0564 -4.46843C-62.2167 1.64613 -62.2429 5.45134 -62.4791 10.8311C-50.5124 -30.3701 -73.7897 -37.4819 -96.5947 -28.8217ZM-68.5412 -52.7552C-72.7138 -51.9416 -80.954 -49.1599 -84.0507 -46.6406C-78.8808 -48.6875 -73.711 -50.7082 -68.5412 -52.7552ZM-14.3498 -53.1751C-10.4921 -49.5011 -11.6993 -43.334 -13.8512 -38.2429C-13.5625 -38.6628 -13.2476 -39.1089 -12.9065 -39.555C-9.33744 -44.6986 -10.5184 -49.9734 -14.3498 -53.1751ZM-14.6122 -49.921C-14.2973 -45.6171 -14.7697 -41.8382 -16.1606 -37.5081C-12.5915 -42.8092 -12.0405 -47.2179 -14.6122 -49.921ZM-39.3067 -57.1902C-35.1341 -57.1902 -30.9877 -57.1902 -26.8151 -57.1902C-30.3579 -57.5314 -35.7114 -57.5314 -39.3067 -57.1902ZM-15.557 -48.7925C-19.6771 -58.5286 -36.2625 -56.6916 -45.1589 -55.3007C-35.3965 -55.327 -22.2227 -57.6363 -15.557 -48.7925ZM-17.0791 -37.9542C-19.9133 -32.0759 -25.7392 -28.6905 -29.0983 -23.2845C-25.4768 -23.4945 -17.4727 -33.8866 -17.0791 -37.9542ZM96.631 6.55354C91.3824 0.911343 91.12 -0.112129 93.8755 -3.78612C88.4694 -1.10936 93.0094 4.45412 96.631 6.55354ZM84.9529 -54.1198C90.9888 -54.4347 97.1033 -52.8077 103.113 -51.4168V-51.653C97.2083 -53.9623 91.3562 -56.3242 84.9529 -54.1198ZM103.113 44.107V40.9578C96.4735 38.9371 89.9915 37.1264 83.4571 36.3653C89.6504 38.3598 96.3948 42.8998 103.113 44.107ZM-96.5947 106.801C-86.0976 117.246 -75.548 127.743 -64.3423 136.797H-58.9888C-72.1627 125.512 -84.2869 111.682 -96.5947 101.29V106.801ZM-96.5947 108.69V121.077C-89.0368 124.83 -80.7441 130.026 -71.6903 136.797H-67.6227C-77.6474 130.42 -87.1473 119.03 -96.5947 108.69ZM103.113 9.38776V-5.96427C101.433 -4.99329 99.6226 -4.04855 97.6807 -3.13005C96.0011 1.69862 98.6779 6.23862 103.113 9.38776ZM90.044 -3.81237C83.9819 -0.846928 88.417 2.171 91.2774 5.37262C88.7844 0.491459 86.0289 -0.00716019 90.044 -3.81237ZM74.6657 -39.7387C88.1545 -43.4915 94.4266 -39.8962 103.113 -35.4349V-36.0648C94.1904 -40.4211 89.7291 -45.066 74.6657 -39.7387ZM103.113 -15.7266V-15.7528C103.008 -15.7003 102.903 -15.6479 102.798 -15.5954C102.903 -15.6479 103.008 -15.7003 103.113 -15.7266ZM101.381 136.797C101.958 136.482 102.536 136.193 103.113 135.878V134.435C101.958 135.248 100.777 136.009 99.5964 136.797H101.381ZM-96.2536 -62.9111C-96.3323 -62.8849 -96.411 -62.8586 -96.4635 -62.8324C-96.3848 -62.8586 -96.3061 -62.8849 -96.2273 -62.9111H-96.2536ZM-96.5947 -62.8062C-96.5422 -62.8062 -96.516 -62.8324 -96.4635 -62.8324C-96.516 -62.8324 -96.5422 -62.8062 -96.5947 -62.8062ZM-87.8821 -62.9111C-91.1362 -61.6252 -94.0492 -60.6018 -96.5947 -59.8145V-51.3643C-85.4153 -55.8781 -73.921 -59.7095 -62.899 -62.9111H-87.8821ZM-16.2131 136.797H-11.8043C-17.9976 134.54 -34.5043 125.276 -36.5775 124.121C-28.7833 129.658 -21.6453 133.989 -16.2131 136.797ZM-96.5947 -16.5139V-20.9752C-40.0415 -35.4087 -94.2329 67.1744 -50.7223 113.257C-90.8213 87.9849 -73.7635 33.3999 -77.6737 -3.89109C-78.9596 -16.199 -87.1473 -17.4586 -96.5947 -16.5139ZM-81.6363 -18.036C-68.2525 -3.33999 -77.0438 27.3641 -76.2303 49.4343C-76.309 33.6099 -59.33 -13.0498 -81.6363 -18.036ZM59.7073 136.797C74.0097 133.07 87.5509 127.139 99.1765 118.873C100.515 117.561 101.827 116.275 103.087 115.041V110.055C84.5855 121.549 65.4545 131.312 46.5072 136.797H59.7073ZM-49.2265 114.753C-46.1561 117.744 -42.4821 120.395 -38.0733 122.625L-49.2265 114.753ZM67.9476 41.0103C52.3331 30.0933 91.2512 50.6939 103.113 52.0585V47.4661C84.1656 42.1388 35.2753 26.9442 67.9476 41.0103ZM-76.2566 88.0636C-72.9762 96.1202 -69.5646 108.717 -48.8328 119.739C-64.8409 106.617 -70.3519 98.2196 -76.2566 88.0636ZM-90.2965 58.3306C-89.5092 69.3525 -83.6045 76.7793 -78.2248 83.2612C-91.5561 43.5821 -64.9459 -13.7846 -96.5947 -14.3882V-10.8717C-94.0492 -11.2391 -93.708 -14.0995 -88.8531 -11.7114C-76.5715 -4.9408 -81.0065 15.7385 -83.9457 25.8158C-84.628 16.3421 -79.4844 2.72209 -88.4595 -3.75988C-97.1196 -6.56786 -86.8587 7.18337 -88.5382 11.4085C-90.3752 5.76626 -93.1569 2.09226 -96.5947 -0.0596428V6.50105C-86.8849 15.7123 -89.1943 41.404 -88.8531 52.4259C-92.7895 44.5793 -94.3378 35.5518 -96.5947 26.9442V68.4603C-90.8213 78.9312 -86.0189 90.1893 -82.4236 98.7182C-87.2523 92.6561 -91.8448 85.2557 -96.5947 77.9864V90.8191C-84.3918 102.523 -71.979 117.902 -58.5164 128.11C-65.3658 123.99 -71.9003 119.266 -78.0411 113.939C-69.6434 121.759 -60.3272 128.241 -50.4074 133.49C-49.0165 134.277 -47.6257 134.986 -46.2086 135.616C-45.395 136.009 -44.6078 136.377 -43.7942 136.77H-18.05C-72.7138 124.2 -92.1335 72.7641 -90.2965 58.3306ZM96.316 136.797C98.6254 135.694 100.909 134.513 103.113 133.254V119.266C90.5951 127.034 78.5234 132.781 66.9241 136.797H96.316ZM82.5911 54.9977C90.2802 59.0654 96.8147 62.267 103.113 62.1883V55.4964C102.457 55.4701 100.567 54.9977 97.0246 53.9218C110.487 66.702 91.9335 59.8264 82.5911 54.9977ZM-96.5947 136.797H-79.9043C-85.5203 133.569 -91.1362 130.288 -96.5947 127.402V136.797ZM-5.53223 26.7867C-5.53223 26.7605 -5.50599 26.7342 -5.50599 26.708C-5.50599 26.7342 -5.506 26.7605 -5.53223 26.7867ZM-5.21732 26.1569C-5.32229 26.3406 -5.40102 26.5243 -5.50599 26.708C-5.40102 26.5243 -5.32229 26.3406 -5.21732 26.1569ZM-5.11235 25.9732C-5.1386 26.0257 -5.16484 26.0519 -5.19109 26.1044C-5.16484 26.0519 -5.1386 26.0257 -5.11235 25.9732ZM-5.19109 26.1044C-5.19109 26.1307 -5.21732 26.1307 -5.21732 26.1569C-5.21732 26.1307 -5.19109 26.1307 -5.19109 26.1044ZM-3.17039 27.6265C-19.1785 43.3722 -11.8305 81.6867 -6.79189 69.1426C3.04916 44.7106 26.2215 22.6404 55.351 35.2369C40.3927 26.5768 67.9213 31.9828 84.6642 34.8958C66.2418 30.6707 47.1108 24.9235 28.8983 30.5919C34.593 27.9677 37.9521 26.8655 44.3291 26.8392C29.3969 25.3171 17.0628 28.6762 4.33505 38.386C-8.3927 48.0959 9.95101 15.8172 7.32673 14.2427C4.88615 12.7731 -1.85825 19.7012 -5.11235 25.9732C-0.88726 17.9692 4.99113 19.5962 -3.17039 27.6265ZM-5.79466 27.3641C-5.71593 27.1541 -5.61096 26.9704 -5.53223 26.7867C-5.61096 26.9704 -5.71593 27.1804 -5.79466 27.3641ZM49.8401 26.8392C65.7694 28.4663 75.4268 32.7176 90.7788 34.4496C75.1381 31.1693 65.0609 26.7342 49.8401 26.8392ZM82.5911 54.9977C82.1712 54.7878 81.7775 54.5516 81.3577 54.3417C81.725 54.5778 82.1449 54.7878 82.5911 54.9977ZM-70.8768 -59.0797C-68.4362 -59.9719 -65.9956 -60.8642 -63.555 -61.7564C-66.4155 -62.7012 -68.6724 -60.3918 -70.8768 -59.0797ZM-52.9792 -62.9111H-57.3093C-74.9969 -55.5369 -109.69 -42.363 -52.9792 -62.9111ZM17.0103 124.331C29.082 129.868 16.8004 131.312 10.1085 131.128C20.1595 132.676 31.8637 128.897 17.0103 124.331ZM29.948 127.139C37.5847 132.493 27.2975 133.018 22.5213 133.542C27.8223 133.201 42.6758 132.466 29.948 127.139ZM44.3028 126.824C61.1245 133.936 43.4893 135.222 34.0944 136.797H37.5322C48.3967 135.589 64.6148 131.863 44.3028 126.824ZM103.113 37.2051V36.2079C100.331 36.1817 97.497 35.998 94.6103 35.683C97.497 36.2604 100.331 36.7852 103.113 37.2051ZM-13.1426 84.8358C-9.73109 90.6092 -3.17039 95.0705 -0.283676 95.5953C-3.95767 93.7583 -9.20623 89.5595 -13.1426 84.8358ZM16.7741 102.418C-16.5017 68.3553 15.1996 37.3363 37.7684 33.3999C22.2851 33.9248 -9.99351 57.5433 -2.12067 80.3745C-7.63166 79.7709 -13.9299 70.6647 -15.662 61.6109C-14.4548 75.126 -5.00738 89.5595 16.7741 102.418ZM-3.17039 89.8219C-13.6675 80.3745 -18.2862 66.0984 -18.3387 56.651C-19.4672 66.4921 -17.0791 79.3248 -3.17039 89.8219ZM103.113 38.8584V38.1499C101.197 37.9662 99.2552 37.73 97.287 37.4151C99.3864 37.8874 101.328 38.3598 103.113 38.8584ZM103.113 -49.3436V-44.1213C96.3948 -46.5356 96.0274 -49.2649 79.0745 -46.6144C62.1217 -43.9638 14.8059 -19.5843 4.51875 -0.741959C21.7603 -21.7099 90.3064 -55.5107 103.113 -30.9737V-18.797C85.8189 -7.56508 33.517 -2.84138 39.133 6.99966C41.6261 10.2013 49.3152 13.4816 56.6632 8.49551C42.2296 5.34637 68.0788 -4.04855 72.0152 -5.70184C39.8416 8.91539 67.4227 6.39608 81.6463 8.07562C95.8699 9.75516 97.1033 12.8781 103.113 15.1349V15.791C90.2277 12.3007 88.1545 8.25932 63.4863 9.17782C91.3037 10.8574 78.4447 19.7799 103.113 20.3835V32.1403C76.6077 32.3764 68.9973 24.7135 49.2627 24.7135C29.5281 24.7135 17.7189 26.2881 9.76731 31.1168C-4.2201 40.223 15.9869 10.8311 17.8763 6.47481C30.1842 -20.4241 -14.6122 24.3462 -18.3387 56.651C-18.4699 29.0174 6.0146 -5.70184 34.3568 -7.27641C43.2794 -7.80127 -10.7808 35.7618 16.2493 27.6265C-5.79466 26.3144 67.9476 -12.7874 45.6674 -12.42C7.64164 -11.7902 -9.6786 17.3393 -20.3069 43.5296C-24.0072 1.82984 61.1245 -56.5604 103.113 -49.3436ZM57.5292 10.3063C59.9435 11.8283 64.9821 11.1723 68.8136 11.5134C65.0609 10.8574 61.3606 9.38776 57.5292 10.3063ZM35.8002 23.4801C27.455 22.929 9.68858 28.4138 23.0724 15.8172C6.80188 29.4635 26.4315 24.5036 35.8002 23.4801Z" fill="#02C9BF"/>
<rect x="-96.5947" y="-62.9111" width="199.708" height="199.708" fill="#42E8E0"/>
</g>
<path d="M15.3758 70.3339C14.2163 70.3339 13.2764 69.3939 13.2764 68.2344V52.0313C13.2764 50.8729 14.2145 49.9335 15.3729 49.9319L31.7726 49.9092C32.4742 49.9082 33.1299 50.2577 33.5201 50.8407L36.6469 55.5114C37.0366 56.0936 37.691 56.443 38.3915 56.443H49.1326C49.836 56.443 50.4926 56.0907 50.8817 55.5048L54.0119 50.79C54.4004 50.2048 55.0557 49.8527 55.7581 49.8518L72.1506 49.8291C73.3112 49.8275 74.2529 50.7679 74.2529 51.9285V68.2344C74.2529 69.3939 73.313 70.3339 72.1535 70.3339H15.3758Z" fill="url(#paint3_linear_2166_102565)"/>
<path d="M15.3758 70.3339C14.2163 70.3339 13.2764 69.3939 13.2764 68.2344V52.0313C13.2764 50.8729 14.2145 49.9335 15.3729 49.9319L31.7726 49.9092C32.4742 49.9082 33.1299 50.2577 33.5201 50.8407L36.6469 55.5114C37.0366 56.0936 37.691 56.443 38.3915 56.443H49.1326C49.836 56.443 50.4926 56.0907 50.8817 55.5048L54.0119 50.79C54.4004 50.2048 55.0557 49.8527 55.7581 49.8518L72.1506 49.8291C73.3112 49.8275 74.2529 50.7679 74.2529 51.9285V68.2344C74.2529 69.3939 73.313 70.3339 72.1535 70.3339H15.3758Z" fill="url(#paint4_radial_2166_102565)"/>
</g>
</g>
<defs>
<filter id="filter0_ddddd_2166_102565" x="0.680803" y="27.4043" width="86.1696" height="54.7243" filterUnits="userSpaceOnUse" color-interpolation-filters="sRGB">
<feFlood flood-opacity="0" result="BackgroundImageFix"/>
<feColorMatrix in="SourceAlpha" type="matrix" values="0 0 0 0 0 0 0 0 0 0 0 0 0 0 0 0 0 0 127 0" result="hardAlpha"/>
<feOffset dy="0.524856"/>
<feGaussianBlur stdDeviation="0.262428"/>
<feColorMatrix type="matrix" values="0 0 0 0 0 0 0 0 0 0 0 0 0 0 0 0 0 0 0.1 0"/>
<feBlend mode="normal" in2="BackgroundImageFix" result="effect1_dropShadow_2166_102565"/>
<feColorMatrix in="SourceAlpha" type="matrix" values="0 0 0 0 0 0 0 0 0 0 0 0 0 0 0 0 0 0 127 0" result="hardAlpha"/>
<feOffset dy="1.04971"/>
<feGaussianBlur stdDeviation="0.524856"/>
<feColorMatrix type="matrix" values="0 0 0 0 0 0 0 0 0 0 0 0 0 0 0 0 0 0 0.1 0"/>
<feBlend mode="normal" in2="effect1_dropShadow_2166_102565" result="effect2_dropShadow_2166_102565"/>
<feColorMatrix in="SourceAlpha" type="matrix" values="0 0 0 0 0 0 0 0 0 0 0 0 0 0 0 0 0 0 127 0" result="hardAlpha"/>
<feOffset dy="2.09942"/>
<feGaussianBlur stdDeviation="1.04971"/>
<feColorMatrix type="matrix" values="0 0 0 0 0 0 0 0 0 0 0 0 0 0 0 0 0 0 0.1 0"/>
<feBlend mode="normal" in2="effect2_dropShadow_2166_102565" result="effect3_dropShadow_2166_102565"/>
<feColorMatrix in="SourceAlpha" type="matrix" values="0 0 0 0 0 0 0 0 0 0 0 0 0 0 0 0 0 0 127 0" result="hardAlpha"/>
<feOffset dy="4.19885"/>
<feGaussianBlur stdDeviation="2.09942"/>
<feColorMatrix type="matrix" values="0 0 0 0 0 0 0 0 0 0 0 0 0 0 0 0 0 0 0.1 0"/>
<feBlend mode="normal" in2="effect3_dropShadow_2166_102565" result="effect4_dropShadow_2166_102565"/>
<feColorMatrix in="SourceAlpha" type="matrix" values="0 0 0 0 0 0 0 0 0 0 0 0 0 0 0 0 0 0 127 0" result="hardAlpha"/>
<feOffset dy="12.5965"/>
<feGaussianBlur stdDeviation="6.29827"/>
<feColorMatrix type="matrix" values="0 0 0 0 0 0 0 0 0 0 0 0 0 0 0 0 0 0 0.1 0"/>
<feBlend mode="normal" in2="effect4_dropShadow_2166_102565" result="effect5_dropShadow_2166_102565"/>
<feBlend mode="normal" in="SourceGraphic" in2="effect5_dropShadow_2166_102565" result="shape"/>
</filter>
<filter id="filter1_ddddd_2166_102565" x="5.60365" y="0.333984" width="75.779" height="88.0837" filterUnits="userSpaceOnUse" color-interpolation-filters="sRGB">
<feFlood flood-opacity="0" result="BackgroundImageFix"/>
<feColorMatrix in="SourceAlpha" type="matrix" values="0 0 0 0 0 0 0 0 0 0 0 0 0 0 0 0 0 0 127 0" result="hardAlpha"/>
<feOffset dy="0.524856"/>
<feGaussianBlur stdDeviation="0.262428"/>
<feColorMatrix type="matrix" values="0 0 0 0 0 0 0 0 0 0 0 0 0 0 0 0 0 0 0.1 0"/>
<feBlend mode="normal" in2="BackgroundImageFix" result="effect1_dropShadow_2166_102565"/>
<feColorMatrix in="SourceAlpha" type="matrix" values="0 0 0 0 0 0 0 0 0 0 0 0 0 0 0 0 0 0 127 0" result="hardAlpha"/>
<feOffset dy="1.04971"/>
<feGaussianBlur stdDeviation="0.524856"/>
<feColorMatrix type="matrix" values="0 0 0 0 0 0 0 0 0 0 0 0 0 0 0 0 0 0 0.1 0"/>
<feBlend mode="normal" in2="effect1_dropShadow_2166_102565" result="effect2_dropShadow_2166_102565"/>
<feColorMatrix in="SourceAlpha" type="matrix" values="0 0 0 0 0 0 0 0 0 0 0 0 0 0 0 0 0 0 127 0" result="hardAlpha"/>
<feOffset dy="2.09942"/>
<feGaussianBlur stdDeviation="1.04971"/>
<feColorMatrix type="matrix" values="0 0 0 0 0 0 0 0 0 0 0 0 0 0 0 0 0 0 0.1 0"/>
<feBlend mode="normal" in2="effect2_dropShadow_2166_102565" result="effect3_dropShadow_2166_102565"/>
<feColorMatrix in="SourceAlpha" type="matrix" values="0 0 0 0 0 0 0 0 0 0 0 0 0 0 0 0 0 0 127 0" result="hardAlpha"/>
<feOffset dy="4.19885"/>
<feGaussianBlur stdDeviation="2.09942"/>
<feColorMatrix type="matrix" values="0 0 0 0 0 0 0 0 0 0 0 0 0 0 0 0 0 0 0.1 0"/>
<feBlend mode="normal" in2="effect3_dropShadow_2166_102565" result="effect4_dropShadow_2166_102565"/>
<feColorMatrix in="SourceAlpha" type="matrix" values="0 0 0 0 0 0 0 0 0 0 0 0 0 0 0 0 0 0 127 0" result="hardAlpha"/>
<feOffset dy="12.5965"/>
<feGaussianBlur stdDeviation="6.29827"/>
<feColorMatrix type="matrix" values="0 0 0 0 0 0 0 0 0 0 0 0 0 0 0 0 0 0 0.1 0"/>
<feBlend mode="normal" in2="effect4_dropShadow_2166_102565" result="effect5_dropShadow_2166_102565"/>
<feBlend mode="normal" in="SourceGraphic" in2="effect5_dropShadow_2166_102565" result="shape"/>
</filter>
<filter id="filter2_biii_2166_102565" x="22.1384" y="-2.29029" width="45.1704" height="57.2017" filterUnits="userSpaceOnUse" color-interpolation-filters="sRGB">
<feFlood flood-opacity="0" result="BackgroundImageFix"/>
<feGaussianBlur in="BackgroundImage" stdDeviation="1.31214"/>
<feComposite in2="SourceAlpha" operator="in" result="effect1_backgroundBlur_2166_102565"/>
<feBlend mode="normal" in="SourceGraphic" in2="effect1_backgroundBlur_2166_102565" result="shape"/>
<feColorMatrix in="SourceAlpha" type="matrix" values="0 0 0 0 0 0 0 0 0 0 0 0 0 0 0 0 0 0 127 0" result="hardAlpha"/>
<feOffset dy="-1.04971"/>
<feGaussianBlur stdDeviation="0.131214"/>
<feComposite in2="hardAlpha" operator="arithmetic" k2="-1" k3="1"/>
<feColorMatrix type="matrix" values="0 0 0 0 0.920833 0 0 0 0 0.920833 0 0 0 0 0.920833 0 0 0 0.1 0"/>
<feBlend mode="normal" in2="shape" result="effect2_innerShadow_2166_102565"/>
<feColorMatrix in="SourceAlpha" type="matrix" values="0 0 0 0 0 0 0 0 0 0 0 0 0 0 0 0 0 0 127 0" result="hardAlpha"/>
<feOffset dx="-0.262428"/>
<feGaussianBlur stdDeviation="0.131214"/>
<feComposite in2="hardAlpha" operator="arithmetic" k2="-1" k3="1"/>
<feColorMatrix type="matrix" values="0 0 0 0 0.920833 0 0 0 0 0.920833 0 0 0 0 0.920833 0 0 0 0.1 0"/>
<feBlend mode="normal" in2="effect2_innerShadow_2166_102565" result="effect3_innerShadow_2166_102565"/>
<feColorMatrix in="SourceAlpha" type="matrix" values="0 0 0 0 0 0 0 0 0 0 0 0 0 0 0 0 0 0 127 0" result="hardAlpha"/>
<feOffset dx="0.262428"/>
<feGaussianBlur stdDeviation="0.131214"/>
<feComposite in2="hardAlpha" operator="arithmetic" k2="-1" k3="1"/>
<feColorMatrix type="matrix" values="0 0 0 0 0.920833 0 0 0 0 0.920833 0 0 0 0 0.920833 0 0 0 0.1 0"/>
<feBlend mode="normal" in2="effect3_innerShadow_2166_102565" result="effect4_innerShadow_2166_102565"/>
</filter>
<filter id="filter3_biii_2166_102565" x="26.24" y="3.17846" width="45.1704" height="57.2017" filterUnits="userSpaceOnUse" color-interpolation-filters="sRGB">
<feFlood flood-opacity="0" result="BackgroundImageFix"/>
<feGaussianBlur in="BackgroundImage" stdDeviation="1.31214"/>
<feComposite in2="SourceAlpha" operator="in" result="effect1_backgroundBlur_2166_102565"/>
<feBlend mode="normal" in="SourceGraphic" in2="effect1_backgroundBlur_2166_102565" result="shape"/>
<feColorMatrix in="SourceAlpha" type="matrix" values="0 0 0 0 0 0 0 0 0 0 0 0 0 0 0 0 0 0 127 0" result="hardAlpha"/>
<feOffset dy="-1.04971"/>
<feGaussianBlur stdDeviation="0.131214"/>
<feComposite in2="hardAlpha" operator="arithmetic" k2="-1" k3="1"/>
<feColorMatrix type="matrix" values="0 0 0 0 0.920833 0 0 0 0 0.920833 0 0 0 0 0.920833 0 0 0 0.1 0"/>
<feBlend mode="normal" in2="shape" result="effect2_innerShadow_2166_102565"/>
<feColorMatrix in="SourceAlpha" type="matrix" values="0 0 0 0 0 0 0 0 0 0 0 0 0 0 0 0 0 0 127 0" result="hardAlpha"/>
<feOffset dx="-0.262428"/>
<feGaussianBlur stdDeviation="0.131214"/>
<feComposite in2="hardAlpha" operator="arithmetic" k2="-1" k3="1"/>
<feColorMatrix type="matrix" values="0 0 0 0 0.920833 0 0 0 0 0.920833 0 0 0 0 0.920833 0 0 0 0.1 0"/>
<feBlend mode="normal" in2="effect2_innerShadow_2166_102565" result="effect3_innerShadow_2166_102565"/>
<feColorMatrix in="SourceAlpha" type="matrix" values="0 0 0 0 0 0 0 0 0 0 0 0 0 0 0 0 0 0 127 0" result="hardAlpha"/>
<feOffset dx="0.262428"/>
<feGaussianBlur stdDeviation="0.131214"/>
<feComposite in2="hardAlpha" operator="arithmetic" k2="-1" k3="1"/>
<feColorMatrix type="matrix" values="0 0 0 0 0.920833 0 0 0 0 0.920833 0 0 0 0 0.920833 0 0 0 0.1 0"/>
<feBlend mode="normal" in2="effect3_innerShadow_2166_102565" result="effect4_innerShadow_2166_102565"/>
</filter>
<filter id="filter4_biii_2166_102565" x="15.5759" y="8.64721" width="45.1704" height="57.2017" filterUnits="userSpaceOnUse" color-interpolation-filters="sRGB">
<feFlood flood-opacity="0" result="BackgroundImageFix"/>
<feGaussianBlur in="BackgroundImage" stdDeviation="1.31214"/>
<feComposite in2="SourceAlpha" operator="in" result="effect1_backgroundBlur_2166_102565"/>
<feBlend mode="normal" in="SourceGraphic" in2="effect1_backgroundBlur_2166_102565" result="shape"/>
<feColorMatrix in="SourceAlpha" type="matrix" values="0 0 0 0 0 0 0 0 0 0 0 0 0 0 0 0 0 0 127 0" result="hardAlpha"/>
<feOffset dy="-1.04971"/>
<feGaussianBlur stdDeviation="0.131214"/>
<feComposite in2="hardAlpha" operator="arithmetic" k2="-1" k3="1"/>
<feColorMatrix type="matrix" values="0 0 0 0 0.920833 0 0 0 0 0.920833 0 0 0 0 0.920833 0 0 0 0.1 0"/>
<feBlend mode="normal" in2="shape" result="effect2_innerShadow_2166_102565"/>
<feColorMatrix in="SourceAlpha" type="matrix" values="0 0 0 0 0 0 0 0 0 0 0 0 0 0 0 0 0 0 127 0" result="hardAlpha"/>
<feOffset dx="-0.262428"/>
<feGaussianBlur stdDeviation="0.131214"/>
<feComposite in2="hardAlpha" operator="arithmetic" k2="-1" k3="1"/>
<feColorMatrix type="matrix" values="0 0 0 0 0.920833 0 0 0 0 0.920833 0 0 0 0 0.920833 0 0 0 0.1 0"/>
<feBlend mode="normal" in2="effect2_innerShadow_2166_102565" result="effect3_innerShadow_2166_102565"/>
<feColorMatrix in="SourceAlpha" type="matrix" values="0 0 0 0 0 0 0 0 0 0 0 0 0 0 0 0 0 0 127 0" result="hardAlpha"/>
<feOffset dx="0.262428"/>
<feGaussianBlur stdDeviation="0.131214"/>
<feComposite in2="hardAlpha" operator="arithmetic" k2="-1" k3="1"/>
<feColorMatrix type="matrix" values="0 0 0 0 0.920833 0 0 0 0 0.920833 0 0 0 0 0.920833 0 0 0 0.1 0"/>
<feBlend mode="normal" in2="effect3_innerShadow_2166_102565" result="effect4_innerShadow_2166_102565"/>
</filter>
<filter id="filter5_ddddiii_2166_102565" x="0.679827" y="49.5667" width="86.1696" height="45.9604" filterUnits="userSpaceOnUse" color-interpolation-filters="sRGB">
<feFlood flood-opacity="0" result="BackgroundImageFix"/>
<feColorMatrix in="SourceAlpha" type="matrix" values="0 0 0 0 0 0 0 0 0 0 0 0 0 0 0 0 0 0 127 0" result="hardAlpha"/>
<feOffset dy="1.04971"/>
<feGaussianBlur stdDeviation="0.524856"/>
<feColorMatrix type="matrix" values="0 0 0 0 0 0 0 0 0 0 0 0 0 0 0 0 0 0 0.1 0"/>
<feBlend mode="normal" in2="BackgroundImageFix" result="effect1_dropShadow_2166_102565"/>
<feColorMatrix in="SourceAlpha" type="matrix" values="0 0 0 0 0 0 0 0 0 0 0 0 0 0 0 0 0 0 127 0" result="hardAlpha"/>
<feOffset dy="2.09942"/>
<feGaussianBlur stdDeviation="1.04971"/>
<feColorMatrix type="matrix" values="0 0 0 0 0 0 0 0 0 0 0 0 0 0 0 0 0 0 0.1 0"/>
<feBlend mode="normal" in2="effect1_dropShadow_2166_102565" result="effect2_dropShadow_2166_102565"/>
<feColorMatrix in="SourceAlpha" type="matrix" values="0 0 0 0 0 0 0 0 0 0 0 0 0 0 0 0 0 0 127 0" result="hardAlpha"/>
<feOffset dy="4.19885"/>
<feGaussianBlur stdDeviation="2.09942"/>
<feColorMatrix type="matrix" values="0 0 0 0 0 0 0 0 0 0 0 0 0 0 0 0 0 0 0.1 0"/>
<feBlend mode="normal" in2="effect2_dropShadow_2166_102565" result="effect3_dropShadow_2166_102565"/>
<feColorMatrix in="SourceAlpha" type="matrix" values="0 0 0 0 0 0 0 0 0 0 0 0 0 0 0 0 0 0 127 0" result="hardAlpha"/>
<feOffset dy="12.5965"/>
<feGaussianBlur stdDeviation="6.29827"/>
<feColorMatrix type="matrix" values="0 0 0 0 0 0 0 0 0 0 0 0 0 0 0 0 0 0 0.1 0"/>
<feBlend mode="normal" in2="effect3_dropShadow_2166_102565" result="effect4_dropShadow_2166_102565"/>
<feBlend mode="normal" in="SourceGraphic" in2="effect4_dropShadow_2166_102565" result="shape"/>
<feColorMatrix in="SourceAlpha" type="matrix" values="0 0 0 0 0 0 0 0 0 0 0 0 0 0 0 0 0 0 127 0" result="hardAlpha"/>
<feOffset dy="-1.04971"/>
<feGaussianBlur stdDeviation="0.131214"/>
<feComposite in2="hardAlpha" operator="arithmetic" k2="-1" k3="1"/>
<feColorMatrix type="matrix" values="0 0 0 0 0 0 0 0 0 0 0 0 0 0 0 0 0 0 0.4 0"/>
<feBlend mode="normal" in2="shape" result="effect5_innerShadow_2166_102565"/>
<feColorMatrix in="SourceAlpha" type="matrix" values="0 0 0 0 0 0 0 0 0 0 0 0 0 0 0 0 0 0 127 0" result="hardAlpha"/>
<feOffset dx="-0.262428"/>
<feGaussianBlur stdDeviation="0.131214"/>
<feComposite in2="hardAlpha" operator="arithmetic" k2="-1" k3="1"/>
<feColorMatrix type="matrix" values="0 0 0 0 1 0 0 0 0 1 0 0 0 0 1 0 0 0 0.3 0"/>
<feBlend mode="normal" in2="effect5_innerShadow_2166_102565" result="effect6_innerShadow_2166_102565"/>
<feColorMatrix in="SourceAlpha" type="matrix" values="0 0 0 0 0 0 0 0 0 0 0 0 0 0 0 0 0 0 127 0" result="hardAlpha"/>
<feOffset dx="0.262428"/>
<feGaussianBlur stdDeviation="0.131214"/>
<feComposite in2="hardAlpha" operator="arithmetic" k2="-1" k3="1"/>
<feColorMatrix type="matrix" values="0 0 0 0 1 0 0 0 0 1 0 0 0 0 1 0 0 0 0.3 0"/>
<feBlend mode="normal" in2="effect6_innerShadow_2166_102565" result="effect7_innerShadow_2166_102565"/>
</filter>
<linearGradient id="paint0_linear_2166_102565" x1="44.7236" y1="0.333984" x2="44.7236" y2="52.2871" gradientUnits="userSpaceOnUse">
<stop stop-color="#A6A0BA" stop-opacity="0.15"/>
<stop offset="1" stop-opacity="0.2"/>
</linearGradient>
<linearGradient id="paint1_linear_2166_102565" x1="48.8252" y1="5.80273" x2="48.8252" y2="57.7559" gradientUnits="userSpaceOnUse">
<stop stop-color="#42E8E0" stop-opacity="0.45"/>
<stop offset="1" stop-color="#42E8E0" stop-opacity="0.43"/>
</linearGradient>
<linearGradient id="paint2_linear_2166_102565" x1="38.1611" y1="11.2715" x2="38.1611" y2="63.2246" gradientUnits="userSpaceOnUse">
<stop stop-color="#A6A0BA" stop-opacity="0.15"/>
<stop offset="1" stop-opacity="0.2"/>
</linearGradient>
<linearGradient id="paint3_linear_2166_102565" x1="43.7673" y1="49.7281" x2="43.7673" y2="70.173" gradientUnits="userSpaceOnUse">
<stop stop-color="white" stop-opacity="0.4"/>
<stop offset="0.833333" stop-color="white" stop-opacity="0"/>
<stop offset="1" stop-color="white" stop-opacity="0.3"/>
</linearGradient>
<radialGradient id="paint4_radial_2166_102565" cx="0" cy="0" r="1" gradientUnits="userSpaceOnUse" gradientTransform="translate(13.2764 52.5185) scale(46.7578 24.407)">
<stop stop-color="white" stop-opacity="0.7"/>
<stop offset="1" stop-color="white" stop-opacity="0"/>
</radialGradient>
<clipPath id="clip0_2166_102565">
<rect width="199.708" height="199.708" fill="white" transform="translate(-96.5947 -62.9111)"/>
</clipPath>
</defs>
</svg>
