<svg width="105" height="105" viewBox="0 0 105 105" fill="none" xmlns="http://www.w3.org/2000/svg">
<g filter="url(#filter0_biii_2166_102591)">
<path d="M86.1576 42.4416L89.5137 43.2843C89.8296 43.3635 90.1099 43.5461 90.3103 43.8029C90.5106 44.0597 90.6194 44.376 90.6194 44.7017V47.0788C90.6183 47.4036 90.509 47.7189 90.3088 47.9747C90.1085 48.2305 89.8288 48.4123 89.5137 48.4913L86.1527 49.3291C86.0038 49.7712 85.8248 50.2024 85.6169 50.62L87.3997 53.5961C87.568 53.8758 87.6379 54.2037 87.5982 54.5277C87.5585 54.8517 87.4114 55.1531 87.1805 55.3838L85.5 57.0642C85.2696 57.294 84.9692 57.4404 84.6462 57.4801C84.3233 57.5198 83.9964 57.4506 83.7172 57.2834L80.741 55.5007C80.3251 55.7098 79.8955 55.8904 79.4551 56.0413L78.6124 59.3974C78.5332 59.7133 78.3507 59.9937 78.0938 60.194C77.837 60.3944 77.5207 60.5032 77.195 60.5031H74.8179C74.4914 60.5042 74.1739 60.396 73.9161 60.1955C73.6583 59.9951 73.4751 59.7142 73.3956 59.3974L72.5578 56.0365C72.1174 55.8875 71.6878 55.7085 71.2719 55.5007L68.2957 57.2834C68.0166 57.4506 67.6896 57.5198 67.3667 57.4801C67.0437 57.4404 66.7433 57.294 66.5129 57.0642L64.8325 55.3838C64.6015 55.1531 64.4544 54.8517 64.4147 54.5277C64.375 54.2037 64.4449 53.8758 64.6133 53.5961L66.396 50.6248C66.187 50.2089 66.0064 49.7792 65.8554 49.3389L62.4993 48.4962C62.1834 48.417 61.903 48.2344 61.7027 47.9776C61.5023 47.7208 61.3935 47.4045 61.3936 47.0788V44.7017C61.3946 44.3769 61.5039 44.0616 61.7041 43.8058C61.9044 43.55 62.1842 43.3682 62.4993 43.2892L65.8602 42.4513C66.0091 42.0093 66.1881 41.5781 66.396 41.1605L64.6133 38.1844C64.4449 37.9047 64.375 37.5768 64.4147 37.2528C64.4544 36.9288 64.6015 36.6274 64.8325 36.3967L66.5178 34.7163C66.7482 34.4865 67.0486 34.3401 67.3715 34.3004C67.6945 34.2607 68.0214 34.3299 68.3006 34.4971L71.2719 36.2798C71.6878 36.0707 72.1174 35.8901 72.5578 35.7392L73.4005 32.3831C73.4797 32.0672 73.6623 31.7868 73.9191 31.5864C74.1759 31.3861 74.4922 31.2773 74.8179 31.2774H77.195C77.5215 31.2762 77.839 31.3845 78.0968 31.5849C78.3546 31.7854 78.5378 32.0663 78.6173 32.3831L79.4551 35.744C79.8955 35.893 80.3252 36.072 80.741 36.2798L83.7172 34.4971C83.9964 34.3299 84.3233 34.2607 84.6462 34.3004C84.9692 34.3401 85.2696 34.4865 85.5 34.7163L87.1805 36.3919C87.4114 36.6225 87.5585 36.9239 87.5982 37.2479C87.6379 37.5719 87.568 37.8999 87.3997 38.1795L85.6169 41.1557C85.8259 41.5716 86.0065 42.0013 86.1576 42.4416Z" fill="url(#paint0_linear_2166_102591)"/>
</g>
<g filter="url(#filter1_ddddiii_2166_102591)">
<mask id="mask0_2166_102591" style="mask-type:alpha" maskUnits="userSpaceOnUse" x="15" y="15" width="61" height="62">
<path fill-rule="evenodd" clip-rule="evenodd" d="M73.2744 40.4947L66.3249 38.7497C66.0122 37.8379 65.6382 36.9483 65.2053 36.087L68.8969 29.9242C69.2456 29.3451 69.3903 28.666 69.308 27.9951C69.2258 27.3242 68.9212 26.7002 68.443 26.2225L64.9632 22.7528C64.4863 22.277 63.8641 21.9739 63.1954 21.8917C62.5267 21.8095 61.8497 21.9528 61.2716 22.2989L55.1089 25.9905C54.2477 25.5602 53.358 25.1895 52.4461 24.881L50.7112 17.9215C50.5467 17.2656 50.1673 16.6838 49.6334 16.2688C49.0996 15.8538 48.4422 15.6296 47.766 15.6319H42.8439C42.1694 15.6318 41.5143 15.8571 40.9826 16.2719C40.4508 16.6867 40.0729 17.2673 39.9087 17.9215L38.1638 24.8709C37.2519 25.1834 36.3622 25.5575 35.501 25.9905L29.3483 22.2989C28.7703 21.9528 28.0933 21.8095 27.4246 21.8917C26.7559 21.9739 26.1337 22.277 25.6567 22.7528L22.1669 26.2326C21.6886 26.7103 21.3841 27.3343 21.3019 28.0052C21.2196 28.6761 21.3643 29.3552 21.713 29.9343L25.4046 36.097C24.9741 36.9616 24.6034 37.8546 24.2951 38.7699L17.3355 40.5048C16.683 40.6685 16.1037 41.0449 15.689 41.5746C15.2744 42.1043 15.0481 42.7571 15.0459 43.4298V48.3519C15.0459 49.0264 15.2711 49.6815 15.6859 50.2133C16.1008 50.745 16.6813 51.123 17.3355 51.2871L24.285 53.032C24.5977 53.9439 24.9717 54.8335 25.4046 55.6948L21.713 61.8475C21.3643 62.4265 21.2196 63.1057 21.3019 63.7766C21.3841 64.4475 21.6886 65.0715 22.1669 65.5492L25.6467 69.0289C26.1236 69.5048 26.7458 69.8078 27.4145 69.89C28.0832 69.9723 28.7602 69.829 29.3383 69.4828L35.501 65.7912C36.3622 66.2216 37.2519 66.5923 38.1638 66.9007L39.8987 73.8603C40.0632 74.5161 40.4426 75.098 40.9765 75.513C41.5103 75.928 42.1677 76.1522 42.8439 76.1499H47.766C48.4404 76.1499 49.0955 75.9247 49.6273 75.5099C50.1591 75.095 50.537 74.5145 50.7011 73.8603L52.4461 66.9108C53.358 66.5984 54.2477 66.2243 55.1089 65.7912L61.2716 69.4828C61.8497 69.829 62.5267 69.9723 63.1954 69.89C63.8641 69.8078 64.4863 69.5048 64.9632 69.0289L68.443 65.5492C68.9212 65.0715 69.2258 64.4475 69.308 63.7766C69.3903 63.1057 69.2456 62.4265 68.8969 61.8475L65.2053 55.6847C65.6358 54.8202 66.0065 53.9271 66.3148 53.0118L73.2744 51.277C73.9269 51.1133 74.5062 50.7369 74.9208 50.2071C75.3355 49.6774 75.5618 49.0246 75.564 48.3519V43.4298C75.564 42.7554 75.3388 42.1003 74.9239 41.5685C74.5091 41.0367 73.9285 40.6588 73.2744 40.4947ZM45.1573 55.1901C50.2115 55.1901 54.3088 51.0928 54.3088 46.0386C54.3088 40.9843 50.2115 36.887 45.1573 36.887C40.103 36.887 36.0057 40.9843 36.0057 46.0386C36.0057 51.0928 40.103 55.1901 45.1573 55.1901Z" fill="#EE9C2D"/>
</mask>
<g mask="url(#mask0_2166_102591)">
<g clip-path="url(#clip0_2166_102591)">
<rect width="224.655" height="224.655" transform="translate(-67.0234 -66.4365)" fill="#EE9C2D"/>
<path d="M-35.0227 -22.0074C-40.0117 -26.9964 -48.868 -28.4725 -63.7761 -24.5462C-48.6614 -29.7419 -39.9231 -28.1773 -35.0227 -22.0074ZM157.632 76.5043V78.0098C145.794 76.4157 134.841 70.6 123.417 65.611C145.38 77.567 151.786 83.9731 157.632 84.2683V112.667C117.276 127.251 60.8321 100.151 85.1279 88.9621C95.6374 84.1207 142.901 101.036 123.682 76.4452C126.93 82.3494 127.52 88.5488 116.361 86.7776C120.14 86.1576 124.568 84.7111 121.291 79.7516C118.014 74.792 121.439 87.8994 98.2943 81.1686C79.9912 75.8548 53.4223 90.3201 70.8397 72.9027C33.0528 100.357 108.627 133.155 152.2 120.786C146.974 122.173 138.649 122.616 129.232 122.026C139.033 121.878 148.539 119.723 157.602 116.033V125.066C124.775 146.587 94.1613 151.547 38.5142 130.173C86.4563 159.99 31.0454 146.026 29.8055 145.672C34.2041 146.882 56.0792 149.982 54.0127 146.144C51.9463 142.307 35.5916 143.576 23.0157 138.646C28.2114 138.115 37.3924 141.569 25.9678 131.709C48.1971 150.071 30.9568 130.085 18.7646 121.081C17.0524 119.664 15.4288 118.158 13.8642 116.564C15.4583 117.863 16.7867 118.158 17.6724 117.125C14.3955 111.457 11.532 106.114 9.02271 101.066C9.73121 102.01 10.4692 102.985 11.2663 103.929C-34.6389 9.1668 80.5817 -28.2363 85.7478 -61.0342C85.3345 -59.7353 84.6851 -58.4363 83.7699 -57.1669C85.1869 -60.9456 85.9545 -63.6911 85.5117 -66.407H92.8919C93.0395 -66.0232 93.2167 -65.6099 93.3347 -65.1966C93.7185 -65.6099 94.0432 -66.0232 94.3384 -66.407H104.317C104.346 -60.7094 100.213 -53.9491 88.4047 -45.2995C97.4677 -51.0561 105.084 -58.0526 106.796 -66.4365H111.638C99.6818 -54.0377 82.7072 -35.5871 72.8176 -32.0741C39.9312 -16.6346 19.2075 16.1338 14.2774 48.2822C18.4694 34.3482 26.4991 20.001 37.4219 6.33279C21.3625 28.2669 11.9158 53.5664 14.0118 75.2644C14.9564 81.6999 16.6686 87.8698 19.1779 93.5969C27.3257 109.774 45.0383 121.76 75.445 125.214C38.4552 104.933 35.8573 53.8911 83.5338 48.046C98.7371 45.5367 112.966 49.9058 126.959 54.8063C109.01 50.2896 84.567 42.8798 70.1903 54.8949C85.925 53.035 102.162 54.7768 117.306 59.8544C100.508 56.489 77.6886 48.0165 64.3746 63.2493C67.8876 61.0943 72.611 56.9613 82.0577 56.9613C68.1828 59.6182 69.0685 63.456 82.2939 62.6294C59.4741 64.1054 37.1858 81.4638 59.0018 105.258C80.8178 129.052 103.018 129.229 95.3717 134.218C81.7625 143.163 38.219 123.384 24.6098 103.841C24.167 103.368 23.7537 102.896 23.3109 102.424C41.0825 129.554 88.5818 148.919 116.774 135.133C128.701 129.288 24.4917 103.9 61.3044 71.0133C71.253 62.1275 97.2315 62.0389 110.398 73.4341C101.837 67.8841 71.1349 64.8139 80.5817 73.4931C87.6667 79.9877 119.136 83.7959 114.265 75.1168C111.461 71.4266 107.859 68.6221 103.815 66.5852C103.874 66.6147 103.933 66.6147 103.992 66.6442C69.7179 47.3375 108.509 58.4964 144.229 73.2865C148.864 75.6777 153.351 76.6223 157.632 76.5043ZM25.7316 104.992C25.7316 104.992 38.5142 119.871 59.6217 127.221C76.2125 132.978 90.8254 131.974 90.914 131.354C91.0026 130.675 73.3785 130.793 52.5367 121.612C35.444 114.085 25.7316 104.992 25.7316 104.992ZM68.3304 -32.6645C74.2346 -36.6793 80.1388 -40.6647 86.043 -44.6795C81.113 -42.7016 71.9615 -36.5022 68.3304 -32.6645ZM12.9785 79.9877C12.7424 77.0356 11.0006 67.5594 11.2368 64.4892C9.17031 33.994 23.0747 0.458104 53.7766 -20.6199C15.8125 2.96739 2.64617 36.887 12.9785 79.9877ZM9.52456 32.0161C13.3623 24.3996 17.3772 16.3995 21.4511 8.31069C17.3772 13.1521 9.25887 29.2116 9.52456 32.0161ZM49.8207 130.882C32.0196 122.321 15.783 109.184 7.39905 90.9105C11.0006 106.527 34.706 129.967 49.8207 130.882ZM125.04 73.5521C127.461 77.1537 128.996 78.5117 132.509 84.8292C144.997 107.295 75.9469 79.8401 83.4157 98.645C87.9619 110.099 119.845 115.708 129.291 115.708C103.313 110.985 86.0726 104.136 87.8733 96.5785C90.6188 85.3015 172.097 124.564 125.04 73.5521ZM-7.39098 66.4081C-7.56811 61.1238 -8.06996 49.8172 -7.09577 44.5625C-8.74895 48.8135 -8.06996 60.3563 -7.39098 66.4081ZM13.8642 116.535C12.7424 115.413 11.6796 114.262 10.6464 113.051C11.7977 114.557 12.89 115.738 13.8642 116.535ZM10.6464 113.081C3.6794 103.959 -5.1769 87.6041 -7.09577 70.8362C-6.56439 87.8698 -0.542103 100.121 10.6464 113.081ZM57.7619 -62.2741C59.2675 -59.7943 59.9465 -57.0784 60.2122 -54.4805C60.3007 -57.3736 59.5922 -60.06 57.7619 -62.2741ZM54.0718 -66.4365H51.0902C54.1308 -65.4328 56.2859 -64.0158 57.7324 -62.2741C56.8468 -63.7501 55.6659 -65.1671 54.0718 -66.4365ZM6.4839 97.1099C-0.305936 83.3531 -1.30965 78.1869 -3.25804 67.8841C-2.87426 80.1058 -1.78199 84.4159 6.4839 97.1099ZM-2.66762 122.793C7.95995 134.897 33.348 141.982 19.7684 127.812C23.6061 137.554 5.59827 130.173 -2.66762 122.793ZM37.8352 -58.2002C37.6876 -61.0637 37.0381 -63.8092 35.7983 -66.4365H29.3922C31.3111 -65.6099 33.1119 -64.5472 34.7946 -63.1597C31.8425 -64.252 28.8904 -65.3147 25.8202 -66.4365H22.6614C29.9826 -64.6357 35.8868 -61.8903 37.8352 -58.2002ZM157.632 -66.4365V-54.8348C137.971 -62.953 121.321 -56.1632 111.874 -48.1335C102.427 -40.1038 89.2018 -38.5687 78.899 -32.3102C89.7627 -39.9562 104.789 -43.1149 113.763 -52.2664C122.738 -61.418 119.343 -62.7464 121.144 -66.4365H157.632ZM142.753 -62.6578C136.406 -62.5693 130.974 -60.0895 125.66 -57.1964C131.269 -59.2924 136.996 -61.1227 142.753 -62.6578ZM127.786 119.074C120.819 118.631 113.261 117.627 105.94 116.033C113.32 118.247 120.612 119.192 127.786 119.074ZM107.416 119.015C103.165 117.745 98.9142 116.092 94.6041 113.966C51.0606 89.7297 89.1427 83.5302 107.475 86.63C96.523 82.0542 64.3451 76.4157 73.4671 99.6782C71.4597 97.169 67.2972 93.5674 68.1828 86.7776C62.2786 103.014 87.8143 114.734 107.416 119.015ZM73.7918 -28.3544C57.9095 -18.701 48.6399 -8.98862 37.4514 6.30326C48.6399 -7.6897 57.7029 -17.0183 73.7918 -28.3544ZM157.632 66.4081V63.9283C153.321 63.2198 140.362 59.4411 136.081 58.1422C142.015 60.4743 156.274 65.5224 157.632 66.4081ZM40.5216 -66.4365H50.7654C70.8988 -55.7499 44.4774 -37.8307 40.0788 -25.4318C47.7248 -29.24 59.7989 -43.4692 60.2122 -54.451C61.4225 -42.1702 53.3042 -31.8674 78.1314 -54.2739C82.3824 -57.0784 83.1795 -61.6541 81.5558 -66.4365H83.0614C85.7183 -41.0189 34.5879 -28.0887 29.4512 -15.5718C41.9977 -18.3468 21.0968 -8.8115 24.1965 -6.83359C37.5991 -15.6309 47.9609 -28.2068 61.6292 -36.6203C29.7465 -14.3024 -5.0293 26.0233 -3.75989 65.2863C-13.059 16.2814 48.6104 -36.7974 45.5107 -56.3403C43.9756 -65.8461 41.9386 -63.9272 40.5216 -66.4365ZM34.5289 -25.8156C32.8166 -26.2584 29.6284 -23.2768 29.5693 -20.118C31.4587 -22.2731 32.9938 -24.0443 34.5289 -25.8156ZM51.0311 -54.9824C50.6473 -56.1632 50.2931 -57.226 49.8503 -58.6135C48.4037 -56.1042 48.758 -54.9824 51.0311 -54.9824ZM54.2194 -53.7425C53.3338 -55.2481 53.629 -58.702 51.9758 -58.0821C52.6253 -56.7536 50.4112 -54.4805 54.2194 -53.7425ZM43.9165 -65.6395C46.7801 -55.927 48.1971 -65.6985 54.6032 -59.2629C54.0127 -62.835 49.0237 -66.1118 43.9165 -65.6395ZM-20.3802 110.394C-12.6752 125.214 -7.59763 134.159 15.3402 139.325C1.34724 133.214 -9.51649 125.362 -20.3802 110.394ZM-67.0234 112.254V114.763C-53.7685 129.406 -39.8346 146.292 -24.4541 153.023C-21.5611 154.853 -18.6385 156.595 -15.6864 158.218H-11.4944C-21.8563 153.229 -31.1849 147.237 -39.008 140.299C-48.3071 134.041 -57.5472 122.734 -67.0234 112.254ZM-67.0234 -28.0887V-30.3323C2.64617 -58.1706 -22.7419 21.5361 -25.9892 41.2857C-29.2365 61.0352 -21.5611 99.1764 -15.3617 89.9363C-9.16224 80.6962 -30.7126 67.8841 10.7054 -12.3245C-7.36146 13.1226 -18.609 57.847 -23.2438 57.965C-27.8786 58.0831 -25.3988 42.7912 -22.7419 36.887C-25.9892 95.6339 22.8385 -74.6434 -64.3665 -37.4764C-65.0751 -37.0926 -65.9607 -36.7089 -67.0234 -36.2956V-43.4692C-41.2811 -56.8127 -26.2844 -64.8424 -4.88169 -64.8424C16.521 -64.8424 33.4956 -60.3257 37.6876 -53.9787C33.4661 -14.9814 -49.2518 44.4149 6.98575 116.682C18.9122 129.878 13.2737 130.764 0.579694 121.022C-12.1143 111.28 -25.6054 88.5193 -30.9192 60.9762C-30.5355 77.3604 -28.2623 93.5674 -21.2068 107.088C-28.6756 96.8147 -31.8934 88.2536 -33.8713 68.8288C-35.8492 49.404 -29.886 21.2114 -29.2956 -0.693217C-28.3509 6.18518 -28.3804 10.4657 -28.6461 16.5175C-15.1845 -29.8305 -41.3697 -37.8307 -67.0234 -28.0887ZM-35.4655 -55.0119C-40.1593 -54.0967 -49.4289 -50.9675 -52.9124 -48.1335C-47.0968 -50.4361 -41.2811 -52.7092 -35.4655 -55.0119ZM25.4954 -55.4842C29.835 -51.3513 28.4771 -44.4138 26.0563 -38.6868C26.3811 -39.1591 26.7353 -39.661 27.1191 -40.1628C31.1339 -45.9489 29.8055 -51.8827 25.4954 -55.4842ZM25.2002 -51.8236C25.5545 -46.9822 25.0231 -42.7311 23.4585 -37.8602C27.4733 -43.8234 28.0933 -48.783 25.2002 -51.8236ZM-2.57905 -60.0009C2.11479 -60.0009 6.77911 -60.0009 11.4729 -60.0009C7.48761 -60.3847 1.46533 -60.3847 -2.57905 -60.0009ZM24.1375 -50.5542C19.5027 -61.5065 0.845384 -59.44 -9.16224 -57.8754C1.81958 -57.9049 16.6391 -60.5028 24.1375 -50.5542ZM22.4252 -38.362C19.237 -31.7493 12.6833 -27.9411 8.90463 -21.8598C12.9785 -22.096 21.9824 -33.7863 22.4252 -38.362ZM150.34 11.7056C144.436 5.3586 144.14 4.20727 147.24 0.0743316C141.159 3.08548 146.266 9.34393 150.34 11.7056ZM137.203 -56.547C143.993 -56.9012 150.871 -55.0709 157.632 -53.5063V-53.772C150.989 -56.3699 144.406 -59.0267 137.203 -56.547ZM157.632 53.9502V50.4077C150.163 48.1345 142.871 46.0976 135.52 45.2415C142.487 47.4851 150.074 52.5922 157.632 53.9502ZM-67.0234 124.476C-55.215 136.225 -43.3476 148.034 -30.7421 158.218H-24.7198C-39.5394 145.524 -53.1781 129.967 -67.0234 118.276V124.476ZM-67.0234 126.601V140.535C-58.5214 144.757 -49.1927 150.602 -39.008 158.218H-34.4322C-45.7093 151.045 -56.3959 138.233 -67.0234 126.601ZM157.632 14.8939V-2.37591C155.742 -1.28364 153.705 -0.220879 151.521 0.812357C149.631 6.24422 152.642 11.3514 157.632 14.8939ZM142.93 0.0448088C136.111 3.38068 141.1 6.77561 144.318 10.3772C141.513 4.88626 138.413 4.32536 142.93 0.0448088ZM125.631 -40.3695C140.805 -44.591 147.86 -40.5466 157.632 -35.528V-36.2365C147.594 -41.137 142.576 -46.3622 125.631 -40.3695ZM157.632 -13.3577V-13.3873C157.513 -13.3282 157.395 -13.2692 157.277 -13.2101C157.395 -13.2692 157.513 -13.3282 157.632 -13.3577ZM155.683 158.218C156.333 157.864 156.982 157.539 157.632 157.185V155.562C156.333 156.477 155.004 157.333 153.676 158.218H155.683ZM-66.6397 -66.4365C-66.7282 -66.407 -66.8168 -66.3775 -66.8758 -66.348C-66.7873 -66.3775 -66.6987 -66.407 -66.6101 -66.4365H-66.6397ZM-67.0234 -66.3184C-66.9644 -66.3184 -66.9349 -66.348 -66.8758 -66.348C-66.9349 -66.348 -66.9644 -66.3184 -67.0234 -66.3184ZM-57.2225 -66.4365C-60.8831 -64.99 -64.1599 -63.8387 -67.0234 -62.953V-53.4473C-54.4475 -58.5249 -41.5173 -62.835 -29.1185 -66.4365H-57.2225ZM23.3994 158.218H28.359C21.392 155.68 2.82329 145.259 0.49113 143.96C9.25887 150.189 17.2886 155.06 23.3994 158.218ZM-67.0234 -14.2434V-19.2619C-3.40564 -35.4985 -64.3665 79.8992 -15.4207 131.738C-60.5288 103.309 -41.3402 41.9056 -45.7388 -0.0437552C-47.1853 -13.8891 -56.3959 -15.3061 -67.0234 -14.2434ZM-50.1965 -15.9556C-35.1407 0.576188 -45.0303 35.1158 -44.1151 59.943C-44.2037 42.1418 -25.1036 -10.3466 -50.1965 -15.9556ZM108.804 158.218C124.893 154.026 140.126 147.355 153.203 138.056C154.709 136.58 156.185 135.133 157.602 133.745V128.137C136.79 141.067 115.269 152.049 93.9547 158.218H108.804ZM-13.738 133.421C-10.284 136.786 -6.1511 139.768 -1.19157 142.277L-13.738 133.421ZM118.073 50.4667C100.508 38.186 144.288 61.36 157.632 62.8951V57.7289C136.317 51.7361 81.3197 34.6434 118.073 50.4667ZM-44.1446 103.398C-40.4545 112.461 -36.6168 126.631 -13.2952 139.03C-31.303 124.269 -37.5024 114.823 -44.1446 103.398ZM-59.9384 69.9506C-59.0528 82.3494 -52.4105 90.7039 -46.3587 97.9955C-61.3554 53.3598 -31.4211 -11.1732 -67.0234 -11.8522V-7.89634C-64.1599 -8.30964 -63.7761 -11.5274 -58.3147 -8.84101C-44.4989 -1.22459 -49.488 22.038 -52.7943 33.374C-53.5619 22.717 -47.7757 7.39554 -57.8719 0.10385C-67.6139 -3.0549 -56.0711 12.4141 -57.9605 17.167C-60.027 10.82 -63.1562 6.68704 -67.0234 4.26632V11.6466C-56.1007 22.0084 -58.6985 50.9095 -58.3147 63.3084C-62.7429 54.4816 -64.4846 44.3263 -67.0234 34.6434V81.3457C-60.5288 93.1246 -55.1265 105.789 -51.0821 115.383C-56.514 108.564 -61.6801 100.239 -67.0234 92.0618V106.498C-53.2962 119.664 -39.3327 136.963 -24.1884 148.447C-31.8934 143.812 -39.2442 138.498 -46.1521 132.506C-36.7054 141.303 -26.2254 148.595 -15.0664 154.499C-13.5018 155.384 -11.9372 156.181 -10.3431 156.89C-9.42793 157.333 -8.5423 157.746 -7.62715 158.189H21.333C-40.1593 144.048 -62.0049 86.1871 -59.9384 69.9506ZM149.986 158.218C152.583 156.979 155.152 155.65 157.632 154.233V138.498C143.55 147.237 129.97 153.702 116.922 158.218H149.986ZM134.546 66.2014C143.196 70.7772 150.546 74.3787 157.632 74.2902V66.7623C156.893 66.7328 154.768 66.2014 150.783 64.9911C165.927 79.3678 145.056 71.6333 134.546 66.2014ZM-67.0234 158.218H-48.2481C-54.5656 154.587 -60.8831 150.897 -67.0234 147.65V158.218ZM35.4145 34.4663C35.4145 34.4368 35.444 34.4073 35.444 34.3778C35.444 34.4073 35.444 34.4368 35.4145 34.4663ZM35.7688 33.7578C35.6507 33.9645 35.5621 34.1711 35.444 34.3778C35.5621 34.1711 35.6507 33.9645 35.7688 33.7578ZM35.8868 33.5512C35.8573 33.6102 35.8278 33.6397 35.7983 33.6988C35.8278 33.6397 35.8573 33.6102 35.8868 33.5512ZM35.7983 33.6988C35.7983 33.7283 35.7688 33.7283 35.7688 33.7578C35.7688 33.7283 35.7983 33.7283 35.7983 33.6988ZM38.0714 35.411C20.0636 53.1236 28.3295 96.2243 33.9975 82.1132C45.0679 54.6292 71.1349 29.802 103.903 43.9721C87.0763 34.2301 118.044 40.3115 136.878 43.5883C116.154 38.8354 94.6337 32.3703 74.1461 38.7469C80.5521 35.7948 84.3308 34.5549 91.5044 34.5254C74.707 32.8131 60.8321 36.5918 46.5144 47.5146C32.1967 58.4374 52.8319 22.1265 49.8798 20.3553C47.1343 18.7021 39.5474 26.4956 35.8868 33.5512C40.6397 24.5473 47.2524 26.3776 38.0714 35.411ZM35.1193 35.1158C35.2078 34.8796 35.3259 34.673 35.4145 34.4663C35.3259 34.673 35.2078 34.9091 35.1193 35.1158ZM97.7038 34.5254C115.623 36.3557 126.487 41.1381 143.757 43.0865C126.162 39.3963 114.826 34.4073 97.7038 34.5254ZM134.546 66.2014C134.074 65.9652 133.631 65.6996 133.159 65.4634C133.572 65.7291 134.044 65.9652 134.546 66.2014ZM-38.0928 -62.1265C-35.3474 -63.1302 -32.6019 -64.1339 -29.8565 -65.1376C-33.0743 -66.2004 -35.6131 -63.6025 -38.0928 -62.1265ZM-17.9595 -66.4365H-22.8305C-42.7276 -58.1411 -81.7544 -43.3216 -17.9595 -66.4365ZM60.773 144.196C74.3527 150.425 60.5369 152.049 53.009 151.842C64.3156 153.584 77.4819 149.333 60.773 144.196ZM75.3269 147.355C83.9175 153.377 72.3453 153.967 66.9725 154.558C72.9357 154.174 89.6446 153.347 75.3269 147.355ZM91.4749 147C110.398 155.001 90.5598 156.447 79.9912 158.218H83.8585C96.0802 156.86 114.324 152.668 91.4749 147ZM157.632 46.1862V45.0644C154.502 45.0348 151.314 44.8282 148.067 44.4739C151.314 45.1234 154.502 45.7138 157.632 46.1862ZM26.8534 99.7668C30.6911 106.261 38.0714 111.28 41.3187 111.87C37.1858 109.804 31.2816 105.081 26.8534 99.7668ZM60.5074 119.546C23.0747 81.2276 58.7361 46.3338 84.1242 41.9056C66.7068 42.496 30.3959 69.065 39.2522 94.7482C33.0528 94.0693 25.9678 83.8255 24.0194 73.6407C25.3773 88.844 36.0049 105.081 60.5074 119.546ZM38.0714 105.376C26.263 94.7482 21.0673 78.6888 21.0082 68.0612C19.7388 79.1316 22.4252 93.5674 38.0714 105.376ZM157.632 48.046V47.2489C155.476 47.0423 153.292 46.7766 151.078 46.4223C153.44 46.9537 155.624 47.4851 157.632 48.046ZM157.632 -51.1742V-45.2995C150.074 -48.0154 149.661 -51.0856 130.59 -48.104C111.52 -45.1223 58.2933 -17.6973 46.721 3.49877C66.1164 -20.0885 143.225 -58.1116 157.632 -30.5094V-16.8117C138.177 -4.17669 79.3418 1.13709 85.6593 12.2075C88.4638 15.809 97.1134 19.4992 105.379 13.8902C89.1427 10.3476 118.221 -0.220879 122.649 -2.0807C86.4563 14.3625 117.483 11.5285 133.483 13.4178C149.484 15.3072 150.871 18.8202 157.632 21.359V22.097C143.137 18.1707 140.805 13.6245 113.055 14.6577C144.347 16.5471 129.882 26.5842 157.632 27.2632V40.4886C127.815 40.7543 119.254 32.1342 97.0544 32.1342C74.8546 32.1342 61.5701 33.9054 52.6252 39.3373C36.8905 49.5811 59.6217 16.5175 61.7472 11.617C75.5926 -18.642 25.2002 31.7209 21.0082 68.0612C20.8606 36.9756 48.4037 -2.0807 80.2864 -3.85196C90.3236 -4.44239 29.5103 44.5625 59.9169 35.411C35.1193 33.9349 118.073 -10.0514 93.01 -9.63809C50.234 -8.92958 30.7502 23.8388 18.7942 53.3007C14.6317 6.39183 110.398 -59.2924 157.632 -51.1742ZM106.353 15.9271C109.069 17.6393 114.737 16.9013 119.048 17.2851C114.826 16.5471 110.664 14.8939 106.353 15.9271ZM81.9101 30.7467C72.5224 30.1267 52.5367 36.2966 67.5924 22.1265C49.2894 37.4775 71.3711 31.898 81.9101 30.7467Z" fill="#02C9BF"/>
<rect x="-67.0234" y="-66.4365" width="224.655" height="224.655" fill="#42E8E0"/>
</g>
<path d="M66.3249 38.7497L73.2744 40.4947C73.9285 40.6588 74.5091 41.0367 74.9239 41.5685C75.3388 42.1003 75.564 42.7554 75.564 43.4298V48.3519C75.5618 49.0246 75.3355 49.6774 74.9208 50.2071C74.5062 50.7369 73.9269 51.1133 73.2744 51.277L66.3148 53.0118C66.0065 53.9271 65.6358 54.8202 65.2053 55.6847L68.8969 61.8475C69.2456 62.4265 69.3903 63.1057 69.308 63.7766C69.2258 64.4475 68.9212 65.0715 68.443 65.5492L64.9632 69.0289C64.4863 69.5048 63.8641 69.8078 63.1954 69.89C62.5267 69.9723 61.8497 69.829 61.2716 69.4828L55.1089 65.7912C54.2477 66.2243 53.358 66.5984 52.4461 66.9108L50.7011 73.8603C50.537 74.5145 50.1591 75.095 49.6273 75.5099C49.0955 75.9247 48.4404 76.1499 47.766 76.1499H42.8439C42.1677 76.1522 41.5103 75.928 40.9765 75.513C40.4426 75.098 40.0632 74.5161 39.8987 73.8603L38.1638 66.9007C37.2519 66.5923 36.3622 66.2216 35.501 65.7912L29.3383 69.4828C28.7602 69.829 28.0832 69.9723 27.4145 69.89C26.7458 69.8078 26.1236 69.5048 25.6467 69.0289L22.1669 65.5492C21.6886 65.0715 21.3841 64.4475 21.3019 63.7766C21.2196 63.1057 21.3643 62.4265 21.713 61.8475L25.4046 55.6948C24.9717 54.8335 24.5977 53.9439 24.285 53.032L17.3355 51.2871C16.6813 51.123 16.1008 50.745 15.6859 50.2133C15.2711 49.6815 15.0459 49.0264 15.0459 48.3519V43.4298C15.0481 42.7571 15.2744 42.1043 15.689 41.5746C16.1037 41.0449 16.683 40.6685 17.3355 40.5048L24.2951 38.7699C24.6034 37.8546 24.9741 36.9616 25.4046 36.097L21.713 29.9343C21.3643 29.3552 21.2196 28.6761 21.3019 28.0052C21.3841 27.3343 21.6886 26.7103 22.1669 26.2326L25.6567 22.7528C26.1337 22.277 26.7559 21.9739 27.4246 21.8917C28.0933 21.8095 28.7703 21.9528 29.3483 22.2989L35.501 25.9905C36.3622 25.5575 37.2519 25.1834 38.1638 24.8709L39.9087 17.9215C40.0729 17.2673 40.4508 16.6867 40.9826 16.2719C41.5143 15.8571 42.1694 15.6318 42.8439 15.6319H47.766C48.4422 15.6296 49.0996 15.8538 49.6334 16.2688C50.1673 16.6838 50.5467 17.2656 50.7112 17.9215L52.4461 24.881C53.358 25.1895 54.2477 25.5602 55.1089 25.9905L61.2716 22.2989C61.8497 21.9528 62.5267 21.8095 63.1954 21.8917C63.8641 21.9739 64.4863 22.277 64.9632 22.7528L68.443 26.2225C68.9212 26.7002 69.2258 27.3242 69.308 27.9951C69.3903 28.666 69.2456 29.3451 68.8969 29.9242L65.2053 36.087C65.6382 36.9483 66.0122 37.8379 66.3249 38.7497Z" fill="url(#paint1_linear_2166_102591)"/>
<path d="M66.3249 38.7497L73.2744 40.4947C73.9285 40.6588 74.5091 41.0367 74.9239 41.5685C75.3388 42.1003 75.564 42.7554 75.564 43.4298V48.3519C75.5618 49.0246 75.3355 49.6774 74.9208 50.2071C74.5062 50.7369 73.9269 51.1133 73.2744 51.277L66.3148 53.0118C66.0065 53.9271 65.6358 54.8202 65.2053 55.6847L68.8969 61.8475C69.2456 62.4265 69.3903 63.1057 69.308 63.7766C69.2258 64.4475 68.9212 65.0715 68.443 65.5492L64.9632 69.0289C64.4863 69.5048 63.8641 69.8078 63.1954 69.89C62.5267 69.9723 61.8497 69.829 61.2716 69.4828L55.1089 65.7912C54.2477 66.2243 53.358 66.5984 52.4461 66.9108L50.7011 73.8603C50.537 74.5145 50.1591 75.095 49.6273 75.5099C49.0955 75.9247 48.4404 76.1499 47.766 76.1499H42.8439C42.1677 76.1522 41.5103 75.928 40.9765 75.513C40.4426 75.098 40.0632 74.5161 39.8987 73.8603L38.1638 66.9007C37.2519 66.5923 36.3622 66.2216 35.501 65.7912L29.3383 69.4828C28.7602 69.829 28.0832 69.9723 27.4145 69.89C26.7458 69.8078 26.1236 69.5048 25.6467 69.0289L22.1669 65.5492C21.6886 65.0715 21.3841 64.4475 21.3019 63.7766C21.2196 63.1057 21.3643 62.4265 21.713 61.8475L25.4046 55.6948C24.9717 54.8335 24.5977 53.9439 24.285 53.032L17.3355 51.2871C16.6813 51.123 16.1008 50.745 15.6859 50.2133C15.2711 49.6815 15.0459 49.0264 15.0459 48.3519V43.4298C15.0481 42.7571 15.2744 42.1043 15.689 41.5746C16.1037 41.0449 16.683 40.6685 17.3355 40.5048L24.2951 38.7699C24.6034 37.8546 24.9741 36.9616 25.4046 36.097L21.713 29.9343C21.3643 29.3552 21.2196 28.6761 21.3019 28.0052C21.3841 27.3343 21.6886 26.7103 22.1669 26.2326L25.6567 22.7528C26.1337 22.277 26.7559 21.9739 27.4246 21.8917C28.0933 21.8095 28.7703 21.9528 29.3483 22.2989L35.501 25.9905C36.3622 25.5575 37.2519 25.1834 38.1638 24.8709L39.9087 17.9215C40.0729 17.2673 40.4508 16.6867 40.9826 16.2719C41.5143 15.8571 42.1694 15.6318 42.8439 15.6319H47.766C48.4422 15.6296 49.0996 15.8538 49.6334 16.2688C50.1673 16.6838 50.5467 17.2656 50.7112 17.9215L52.4461 24.881C53.358 25.1895 54.2477 25.5602 55.1089 25.9905L61.2716 22.2989C61.8497 21.9528 62.5267 21.8095 63.1954 21.8917C63.8641 21.9739 64.4863 22.277 64.9632 22.7528L68.443 26.2225C68.9212 26.7002 69.2258 27.3242 69.308 27.9951C69.3903 28.666 69.2456 29.3451 68.8969 29.9242L65.2053 36.087C65.6382 36.9483 66.0122 37.8379 66.3249 38.7497Z" fill="url(#paint2_radial_2166_102591)"/>
</g>
</g>
<g filter="url(#filter2_ddddd_2166_102591)">
<g filter="url(#filter3_biii_2166_102591)">
<path d="M83.679 17.9428L88.8996 19.2536C89.391 19.3769 89.8272 19.6608 90.1388 20.0603C90.4504 20.4598 90.6196 20.9519 90.6196 21.4586V25.1562C90.6179 25.6615 90.4479 26.1519 90.1365 26.5498C89.825 26.9477 89.3898 27.2305 88.8996 27.3535L83.6714 28.6568C83.4398 29.3443 83.1614 30.0152 82.838 30.6647L85.6112 35.2943C85.8731 35.7293 85.9818 36.2394 85.92 36.7434C85.8582 37.2474 85.6294 37.7162 85.2702 38.075L82.6561 40.6891C82.2978 41.0466 81.8304 41.2742 81.3281 41.336C80.8257 41.3978 80.3171 41.2901 79.8829 41.0301L75.2533 38.2569C74.6064 38.5822 73.938 38.8632 73.253 39.0979L71.9421 44.3185C71.8189 44.8099 71.5349 45.2461 71.1355 45.5577C70.736 45.8693 70.2439 46.0386 69.7372 46.0385H66.0396C65.5317 46.0402 65.0378 45.8718 64.6368 45.56C64.2358 45.2483 63.9507 44.8112 63.8271 44.3185L62.5239 39.0904C61.8388 38.8587 61.1704 38.5802 60.5235 38.2569L55.8939 41.0301C55.4597 41.2901 54.9511 41.3978 54.4487 41.336C53.9464 41.2742 53.479 41.0466 53.1207 40.6891L50.5066 38.075C50.1474 37.7162 49.9186 37.2474 49.8568 36.7434C49.795 36.2394 49.9037 35.7293 50.1657 35.2943L52.9389 30.6723C52.6137 30.0252 52.3327 29.3569 52.0978 28.6719L46.8772 27.3611C46.3858 27.2378 45.9497 26.9539 45.638 26.5544C45.3264 26.1549 45.1572 25.6628 45.1572 25.1562V21.4586C45.1589 20.9532 45.3289 20.4628 45.6404 20.0649C45.9519 19.667 46.3871 19.3842 46.8772 19.2612L52.1054 17.958C52.337 17.2704 52.6155 16.5995 52.9389 15.95L50.1657 11.3205C49.9037 10.8855 49.795 10.3753 49.8568 9.87129C49.9186 9.3673 50.1474 8.89851 50.5066 8.53967L53.1283 5.92559C53.4866 5.56813 53.954 5.34047 54.4563 5.27871C54.9587 5.21694 55.4673 5.3246 55.9015 5.58462L60.5235 8.35782C61.1705 8.03249 61.8388 7.75149 62.5239 7.51677L63.8347 2.29618C63.958 1.80476 64.2419 1.36862 64.6414 1.057C65.0408 0.745386 65.533 0.576156 66.0396 0.576185H69.7372C70.2452 0.574463 70.739 0.742917 71.1401 1.05467C71.5411 1.36642 71.8261 1.8035 71.9497 2.29618L73.253 7.52435C73.938 7.75606 74.6064 8.03454 75.2533 8.35782L79.8829 5.58462C80.3171 5.3246 80.8257 5.21694 81.3281 5.27871C81.8304 5.34047 82.2978 5.56813 82.6561 5.92559L85.2702 8.53209C85.6294 8.89093 85.8582 9.35972 85.92 9.86371C85.9818 10.3677 85.8731 10.8779 85.6112 11.3129L82.838 15.9425C83.1631 16.5895 83.4441 17.2578 83.679 17.9428Z" fill="url(#paint3_linear_2166_102591)"/>
</g>
</g>
<defs>
<filter id="filter0_biii_2166_102591" x="58.4415" y="28.3252" width="35.1298" height="35.1298" filterUnits="userSpaceOnUse" color-interpolation-filters="sRGB">
<feFlood flood-opacity="0" result="BackgroundImageFix"/>
<feGaussianBlur in="BackgroundImage" stdDeviation="1.47605"/>
<feComposite in2="SourceAlpha" operator="in" result="effect1_backgroundBlur_2166_102591"/>
<feBlend mode="normal" in="SourceGraphic" in2="effect1_backgroundBlur_2166_102591" result="shape"/>
<feColorMatrix in="SourceAlpha" type="matrix" values="0 0 0 0 0 0 0 0 0 0 0 0 0 0 0 0 0 0 127 0" result="hardAlpha"/>
<feOffset dy="-1.18084"/>
<feGaussianBlur stdDeviation="0.147605"/>
<feComposite in2="hardAlpha" operator="arithmetic" k2="-1" k3="1"/>
<feColorMatrix type="matrix" values="0 0 0 0 0.920833 0 0 0 0 0.920833 0 0 0 0 0.920833 0 0 0 0.1 0"/>
<feBlend mode="normal" in2="shape" result="effect2_innerShadow_2166_102591"/>
<feColorMatrix in="SourceAlpha" type="matrix" values="0 0 0 0 0 0 0 0 0 0 0 0 0 0 0 0 0 0 127 0" result="hardAlpha"/>
<feOffset dx="-0.29521"/>
<feGaussianBlur stdDeviation="0.147605"/>
<feComposite in2="hardAlpha" operator="arithmetic" k2="-1" k3="1"/>
<feColorMatrix type="matrix" values="0 0 0 0 0.920833 0 0 0 0 0.920833 0 0 0 0 0.920833 0 0 0 0.1 0"/>
<feBlend mode="normal" in2="effect2_innerShadow_2166_102591" result="effect3_innerShadow_2166_102591"/>
<feColorMatrix in="SourceAlpha" type="matrix" values="0 0 0 0 0 0 0 0 0 0 0 0 0 0 0 0 0 0 127 0" result="hardAlpha"/>
<feOffset dx="0.29521"/>
<feGaussianBlur stdDeviation="0.147605"/>
<feComposite in2="hardAlpha" operator="arithmetic" k2="-1" k3="1"/>
<feColorMatrix type="matrix" values="0 0 0 0 0.920833 0 0 0 0 0.920833 0 0 0 0 0.920833 0 0 0 0.1 0"/>
<feBlend mode="normal" in2="effect3_innerShadow_2166_102591" result="effect4_innerShadow_2166_102591"/>
</filter>
<filter id="filter1_ddddiii_2166_102591" x="0.87581" y="15.3366" width="88.8587" height="89.1539" filterUnits="userSpaceOnUse" color-interpolation-filters="sRGB">
<feFlood flood-opacity="0" result="BackgroundImageFix"/>
<feColorMatrix in="SourceAlpha" type="matrix" values="0 0 0 0 0 0 0 0 0 0 0 0 0 0 0 0 0 0 127 0" result="hardAlpha"/>
<feOffset dy="1.18084"/>
<feGaussianBlur stdDeviation="0.59042"/>
<feColorMatrix type="matrix" values="0 0 0 0 0 0 0 0 0 0 0 0 0 0 0 0 0 0 0.1 0"/>
<feBlend mode="normal" in2="BackgroundImageFix" result="effect1_dropShadow_2166_102591"/>
<feColorMatrix in="SourceAlpha" type="matrix" values="0 0 0 0 0 0 0 0 0 0 0 0 0 0 0 0 0 0 127 0" result="hardAlpha"/>
<feOffset dy="2.36168"/>
<feGaussianBlur stdDeviation="1.18084"/>
<feColorMatrix type="matrix" values="0 0 0 0 0 0 0 0 0 0 0 0 0 0 0 0 0 0 0.1 0"/>
<feBlend mode="normal" in2="effect1_dropShadow_2166_102591" result="effect2_dropShadow_2166_102591"/>
<feColorMatrix in="SourceAlpha" type="matrix" values="0 0 0 0 0 0 0 0 0 0 0 0 0 0 0 0 0 0 127 0" result="hardAlpha"/>
<feOffset dy="4.72336"/>
<feGaussianBlur stdDeviation="2.36168"/>
<feColorMatrix type="matrix" values="0 0 0 0 0 0 0 0 0 0 0 0 0 0 0 0 0 0 0.1 0"/>
<feBlend mode="normal" in2="effect2_dropShadow_2166_102591" result="effect3_dropShadow_2166_102591"/>
<feColorMatrix in="SourceAlpha" type="matrix" values="0 0 0 0 0 0 0 0 0 0 0 0 0 0 0 0 0 0 127 0" result="hardAlpha"/>
<feOffset dy="14.1701"/>
<feGaussianBlur stdDeviation="7.08504"/>
<feColorMatrix type="matrix" values="0 0 0 0 0 0 0 0 0 0 0 0 0 0 0 0 0 0 0.1 0"/>
<feBlend mode="normal" in2="effect3_dropShadow_2166_102591" result="effect4_dropShadow_2166_102591"/>
<feBlend mode="normal" in="SourceGraphic" in2="effect4_dropShadow_2166_102591" result="shape"/>
<feColorMatrix in="SourceAlpha" type="matrix" values="0 0 0 0 0 0 0 0 0 0 0 0 0 0 0 0 0 0 127 0" result="hardAlpha"/>
<feOffset dy="-1.18084"/>
<feGaussianBlur stdDeviation="0.147605"/>
<feComposite in2="hardAlpha" operator="arithmetic" k2="-1" k3="1"/>
<feColorMatrix type="matrix" values="0 0 0 0 0 0 0 0 0 0 0 0 0 0 0 0 0 0 0.4 0"/>
<feBlend mode="normal" in2="shape" result="effect5_innerShadow_2166_102591"/>
<feColorMatrix in="SourceAlpha" type="matrix" values="0 0 0 0 0 0 0 0 0 0 0 0 0 0 0 0 0 0 127 0" result="hardAlpha"/>
<feOffset dx="-0.29521"/>
<feGaussianBlur stdDeviation="0.147605"/>
<feComposite in2="hardAlpha" operator="arithmetic" k2="-1" k3="1"/>
<feColorMatrix type="matrix" values="0 0 0 0 1 0 0 0 0 1 0 0 0 0 1 0 0 0 0.3 0"/>
<feBlend mode="normal" in2="effect5_innerShadow_2166_102591" result="effect6_innerShadow_2166_102591"/>
<feColorMatrix in="SourceAlpha" type="matrix" values="0 0 0 0 0 0 0 0 0 0 0 0 0 0 0 0 0 0 127 0" result="hardAlpha"/>
<feOffset dx="0.29521"/>
<feGaussianBlur stdDeviation="0.147605"/>
<feComposite in2="hardAlpha" operator="arithmetic" k2="-1" k3="1"/>
<feColorMatrix type="matrix" values="0 0 0 0 1 0 0 0 0 1 0 0 0 0 1 0 0 0 0.3 0"/>
<feBlend mode="normal" in2="effect6_innerShadow_2166_102591" result="effect7_innerShadow_2166_102591"/>
</filter>
<filter id="filter2_ddddd_2166_102591" x="30.9871" y="0.576172" width="73.8021" height="73.8021" filterUnits="userSpaceOnUse" color-interpolation-filters="sRGB">
<feFlood flood-opacity="0" result="BackgroundImageFix"/>
<feColorMatrix in="SourceAlpha" type="matrix" values="0 0 0 0 0 0 0 0 0 0 0 0 0 0 0 0 0 0 127 0" result="hardAlpha"/>
<feOffset dy="0.59042"/>
<feGaussianBlur stdDeviation="0.29521"/>
<feColorMatrix type="matrix" values="0 0 0 0 0 0 0 0 0 0 0 0 0 0 0 0 0 0 0.1 0"/>
<feBlend mode="normal" in2="BackgroundImageFix" result="effect1_dropShadow_2166_102591"/>
<feColorMatrix in="SourceAlpha" type="matrix" values="0 0 0 0 0 0 0 0 0 0 0 0 0 0 0 0 0 0 127 0" result="hardAlpha"/>
<feOffset dy="1.18084"/>
<feGaussianBlur stdDeviation="0.59042"/>
<feColorMatrix type="matrix" values="0 0 0 0 0 0 0 0 0 0 0 0 0 0 0 0 0 0 0.1 0"/>
<feBlend mode="normal" in2="effect1_dropShadow_2166_102591" result="effect2_dropShadow_2166_102591"/>
<feColorMatrix in="SourceAlpha" type="matrix" values="0 0 0 0 0 0 0 0 0 0 0 0 0 0 0 0 0 0 127 0" result="hardAlpha"/>
<feOffset dy="2.36168"/>
<feGaussianBlur stdDeviation="1.18084"/>
<feColorMatrix type="matrix" values="0 0 0 0 0 0 0 0 0 0 0 0 0 0 0 0 0 0 0.1 0"/>
<feBlend mode="normal" in2="effect2_dropShadow_2166_102591" result="effect3_dropShadow_2166_102591"/>
<feColorMatrix in="SourceAlpha" type="matrix" values="0 0 0 0 0 0 0 0 0 0 0 0 0 0 0 0 0 0 127 0" result="hardAlpha"/>
<feOffset dy="4.72336"/>
<feGaussianBlur stdDeviation="2.36168"/>
<feColorMatrix type="matrix" values="0 0 0 0 0 0 0 0 0 0 0 0 0 0 0 0 0 0 0.1 0"/>
<feBlend mode="normal" in2="effect3_dropShadow_2166_102591" result="effect4_dropShadow_2166_102591"/>
<feColorMatrix in="SourceAlpha" type="matrix" values="0 0 0 0 0 0 0 0 0 0 0 0 0 0 0 0 0 0 127 0" result="hardAlpha"/>
<feOffset dy="14.1701"/>
<feGaussianBlur stdDeviation="7.08504"/>
<feColorMatrix type="matrix" values="0 0 0 0 0 0 0 0 0 0 0 0 0 0 0 0 0 0 0.1 0"/>
<feBlend mode="normal" in2="effect4_dropShadow_2166_102591" result="effect5_dropShadow_2166_102591"/>
<feBlend mode="normal" in="SourceGraphic" in2="effect5_dropShadow_2166_102591" result="shape"/>
</filter>
<filter id="filter3_biii_2166_102591" x="42.2051" y="-2.37593" width="51.3661" height="51.3661" filterUnits="userSpaceOnUse" color-interpolation-filters="sRGB">
<feFlood flood-opacity="0" result="BackgroundImageFix"/>
<feGaussianBlur in="BackgroundImage" stdDeviation="1.47605"/>
<feComposite in2="SourceAlpha" operator="in" result="effect1_backgroundBlur_2166_102591"/>
<feBlend mode="normal" in="SourceGraphic" in2="effect1_backgroundBlur_2166_102591" result="shape"/>
<feColorMatrix in="SourceAlpha" type="matrix" values="0 0 0 0 0 0 0 0 0 0 0 0 0 0 0 0 0 0 127 0" result="hardAlpha"/>
<feOffset dy="-1.18084"/>
<feGaussianBlur stdDeviation="0.147605"/>
<feComposite in2="hardAlpha" operator="arithmetic" k2="-1" k3="1"/>
<feColorMatrix type="matrix" values="0 0 0 0 0.920833 0 0 0 0 0.920833 0 0 0 0 0.920833 0 0 0 0.1 0"/>
<feBlend mode="normal" in2="shape" result="effect2_innerShadow_2166_102591"/>
<feColorMatrix in="SourceAlpha" type="matrix" values="0 0 0 0 0 0 0 0 0 0 0 0 0 0 0 0 0 0 127 0" result="hardAlpha"/>
<feOffset dx="-0.29521"/>
<feGaussianBlur stdDeviation="0.147605"/>
<feComposite in2="hardAlpha" operator="arithmetic" k2="-1" k3="1"/>
<feColorMatrix type="matrix" values="0 0 0 0 0.920833 0 0 0 0 0.920833 0 0 0 0 0.920833 0 0 0 0.1 0"/>
<feBlend mode="normal" in2="effect2_innerShadow_2166_102591" result="effect3_innerShadow_2166_102591"/>
<feColorMatrix in="SourceAlpha" type="matrix" values="0 0 0 0 0 0 0 0 0 0 0 0 0 0 0 0 0 0 127 0" result="hardAlpha"/>
<feOffset dx="0.29521"/>
<feGaussianBlur stdDeviation="0.147605"/>
<feComposite in2="hardAlpha" operator="arithmetic" k2="-1" k3="1"/>
<feColorMatrix type="matrix" values="0 0 0 0 0.920833 0 0 0 0 0.920833 0 0 0 0 0.920833 0 0 0 0.1 0"/>
<feBlend mode="normal" in2="effect3_innerShadow_2166_102591" result="effect4_innerShadow_2166_102591"/>
</filter>
<linearGradient id="paint0_linear_2166_102591" x1="76.0065" y1="31.2773" x2="76.0065" y2="60.5032" gradientUnits="userSpaceOnUse">
<stop stop-color="#42E8E0" stop-opacity="0.37"/>
<stop offset="1" stop-color="#42E8E0" stop-opacity="0.34"/>
</linearGradient>
<linearGradient id="paint1_linear_2166_102591" x1="45.3076" y1="15.3425" x2="45.3076" y2="75.6752" gradientUnits="userSpaceOnUse">
<stop stop-color="white" stop-opacity="0.4"/>
<stop offset="0.833333" stop-color="white" stop-opacity="0"/>
<stop offset="1" stop-color="white" stop-opacity="0.3"/>
</linearGradient>
<radialGradient id="paint2_radial_2166_102591" cx="0" cy="0" r="1" gradientUnits="userSpaceOnUse" gradientTransform="translate(15.0459 23.577) scale(46.4062 72.0249)">
<stop stop-color="white" stop-opacity="0.7"/>
<stop offset="1" stop-color="white" stop-opacity="0"/>
</radialGradient>
<linearGradient id="paint3_linear_2166_102591" x1="67.8884" y1="0.576172" x2="67.8884" y2="46.0385" gradientUnits="userSpaceOnUse">
<stop stop-color="white" stop-opacity="0.15"/>
<stop offset="1" stop-color="#C3C3C3" stop-opacity="0.2"/>
</linearGradient>
<clipPath id="clip0_2166_102591">
<rect width="224.655" height="224.655" fill="white" transform="translate(-67.0234 -66.4365)"/>
</clipPath>
</defs>
</svg>
