<svg width="86" height="94" viewBox="0 0 86 94" fill="none" xmlns="http://www.w3.org/2000/svg">
<g filter="url(#filter0_ddddd_2166_102553)">
<path d="M16.4863 57.2929V17.033C16.4863 15.8627 17.435 14.9141 18.6053 14.9141H32.4195C33.0632 14.9141 33.672 15.2067 34.0741 15.7093L37.6758 20.2114H67.341C68.5112 20.2114 69.4599 21.1601 69.4599 22.3304V57.2929H16.4863Z" fill="#02C9BF"/>
</g>
<g filter="url(#filter1_ddddd_2166_102553)">
<g filter="url(#filter2_biii_2166_102553)">
<path d="M22.5781 50.6716V2.46562C22.5781 1.29536 23.5268 0.34668 24.6971 0.34668H59.1299C60.3002 0.34668 61.2488 1.29536 61.2488 2.46562V50.6716H22.5781Z" fill="url(#paint0_linear_2166_102553)"/>
</g>
<g filter="url(#filter3_biii_2166_102553)">
<path d="M38.7332 55.9685C37.5629 55.9685 36.6143 55.0198 36.6143 53.8495V7.76249C36.6143 6.59224 37.5629 5.64355 38.7332 5.64355H63.3659C64.5362 5.64355 65.4849 6.59224 65.4849 7.7625V53.8495C65.4849 55.0198 64.5362 55.9685 63.3659 55.9685H38.7332Z" fill="url(#paint1_linear_2166_102553)"/>
</g>
<g filter="url(#filter4_biii_2166_102553)">
<path d="M20.459 61.2663V13.0603C20.459 11.8901 21.4077 10.9414 22.5779 10.9414H58.0702C59.2405 10.9414 60.1892 11.8901 60.1892 13.0603V61.2663H20.459Z" fill="url(#paint2_linear_2166_102553)"/>
</g>
</g>
<g filter="url(#filter5_ddddiii_2166_102553)">
<mask id="mask0_2166_102553" style="mask-type:alpha" maskUnits="userSpaceOnUse" x="13" y="20" width="60" height="49">
<path d="M15.6912 68.1524C14.5209 68.1524 13.5723 67.2038 13.5723 66.0335V22.9538C13.5723 21.7881 14.5139 20.8413 15.6797 20.8349L31.7931 20.7473C32.4908 20.7435 33.1457 21.0834 33.5441 21.6561L37.1455 26.8332H70.5189C71.6891 26.8332 72.6378 27.7819 72.6378 28.9521V66.0335C72.6378 67.2038 71.6891 68.1524 70.5189 68.1524H15.6912Z" fill="white"/>
</mask>
<g mask="url(#mask0_2166_102553)">
<g clip-path="url(#clip0_2166_102553)">
<rect width="201.565" height="201.565" transform="translate(-97.1396 -63.4873)" fill="#EE9C2D"/>
<path d="M-68.428 -23.6247C-72.9042 -28.1009 -80.8503 -29.4253 -94.2261 -25.9025C-80.6649 -30.5642 -72.8248 -29.1604 -68.428 -23.6247ZM104.425 64.7618V66.1126C93.8037 64.6823 83.9771 59.4644 73.7267 54.9881C93.4328 65.7153 99.1805 71.4629 104.425 71.7278V97.2081C68.2174 110.293 17.5747 85.9777 39.3733 75.9392C48.8026 71.5954 91.208 86.7723 73.9651 64.7088C76.8786 70.0061 77.4083 75.5684 67.3963 73.9792C70.7866 73.4229 74.7597 72.1251 71.8196 67.6753C68.8796 63.2255 71.9521 74.9857 51.1864 68.9467C34.7646 64.1791 10.9265 77.1576 26.5537 61.5304C-7.34941 86.1631 60.4568 115.59 99.5513 104.492C94.8631 105.737 87.3939 106.134 78.9446 105.604C87.7382 105.472 96.2669 103.538 104.398 100.228V108.333C74.9451 127.641 47.4783 132.091 -2.44935 112.915C40.5652 139.666 -9.15051 127.138 -10.263 126.82C-6.31642 127.906 13.3103 130.687 11.4562 127.244C9.60214 123.801 -5.07155 124.94 -16.3549 120.516C-11.6932 120.04 -3.45585 123.139 -13.7062 114.292C6.23832 130.767 -9.22997 112.835 -20.169 104.757C-21.7053 103.485 -23.162 102.135 -24.5658 100.704C-23.1355 101.87 -21.9436 102.135 -21.149 101.208C-24.0891 96.1221 -26.6583 91.328 -28.9097 86.7988C-28.274 87.6464 -27.6118 88.5204 -26.8967 89.368C-68.0836 4.34538 35.2943 -29.2134 39.9295 -58.6402C39.5587 -57.4748 38.976 -56.3094 38.1549 -55.1705C39.4263 -58.5608 40.1149 -61.024 39.7176 -63.4608H46.3393C46.4718 -63.1165 46.6307 -62.7457 46.7366 -62.3749C47.081 -62.7457 47.3723 -63.1165 47.6372 -63.4608H56.5897C56.6162 -58.3489 52.9081 -52.2834 42.3133 -44.5228C50.4448 -49.6877 57.2784 -55.9651 58.8146 -63.4873H63.1584C52.4313 -52.3629 37.2014 -35.8086 28.3283 -32.6567C-1.17799 -18.8041 -19.7717 10.5963 -24.195 39.4404C-20.4339 26.9386 -13.2295 14.066 -3.42937 1.80265C-17.8382 21.4823 -26.314 44.1815 -24.4334 63.6493C-23.5858 69.4234 -22.0496 74.9592 -19.7982 80.0976C-12.4878 94.6124 3.40423 105.366 30.6856 108.465C-2.50233 90.2686 -4.83316 44.4729 37.943 39.2285C51.5837 36.9771 64.3503 40.8972 76.9051 45.294C60.8011 41.2415 38.87 34.5933 25.971 45.3734C40.0884 43.7048 54.6562 45.2675 68.2439 49.8232C53.1729 46.8037 32.6986 39.202 20.7531 52.8692C23.905 50.9357 28.1429 47.2275 36.6187 47.2275C24.1699 49.6113 24.9645 53.0546 36.8306 52.313C16.3563 53.6373 -3.64126 69.2115 15.9325 90.5599C35.5062 111.908 55.4243 112.067 48.5642 116.543C36.3538 124.569 -2.71423 106.823 -14.9246 89.2885C-15.3219 88.8647 -15.6927 88.441 -16.09 88.0172C-0.145004 112.359 42.4722 129.734 67.7671 117.365C78.4678 112.12 -15.0306 89.3415 17.9985 59.8352C26.9245 51.8627 50.2329 51.7832 62.046 62.0071C54.3648 57.0276 26.8186 54.273 35.2943 62.0601C41.6512 67.8872 69.8861 71.304 65.5158 63.5169C62.9995 60.206 59.7681 57.6898 56.1395 55.8622C56.1924 55.8887 56.2454 55.8887 56.2984 55.9152C25.5472 38.5928 60.3508 48.6048 92.3999 61.8747C96.5583 64.0201 100.584 64.8677 104.425 64.7618ZM-13.9181 90.3215C-13.9181 90.3215 -2.44935 103.671 16.4887 110.266C31.3743 115.431 44.4852 114.53 44.5647 113.974C44.6442 113.365 28.8316 113.471 10.1319 105.234C-5.20398 98.4794 -13.9181 90.3215 -13.9181 90.3215ZM24.3023 -33.1864C29.5997 -36.7886 34.897 -40.3643 40.1944 -43.9665C35.7711 -42.1919 27.5602 -36.6297 24.3023 -33.1864ZM-25.3604 67.8872C-25.5723 65.2385 -27.135 56.7363 -26.9231 53.9816C-28.7772 26.6208 -16.3019 -3.46822 11.2443 -22.3798C-22.8177 -1.21685 -34.6308 29.2165 -25.3604 67.8872ZM-28.4594 24.8462C-25.0161 18.0126 -21.4139 10.8346 -17.7587 3.57726C-21.4139 7.9211 -28.6978 22.3299 -28.4594 24.8462ZM7.69509 113.55C-8.27645 105.869 -22.8442 94.0826 -30.3664 77.6873C-27.135 91.6988 -5.86615 112.729 7.69509 113.55ZM75.1834 62.1131C77.3554 65.3445 78.7327 66.5629 81.8846 72.231C93.0885 92.3875 31.1359 67.7548 37.8371 84.6269C41.916 94.9037 70.5218 99.9362 78.9975 99.9362C55.6892 95.6983 40.2209 89.5534 41.8366 82.7728C44.2999 72.6548 117.403 107.882 75.1834 62.1131ZM-43.6363 55.7033C-43.7952 50.9621 -44.2455 40.8177 -43.3715 36.1031C-44.8547 39.9171 -44.2455 50.2735 -43.6363 55.7033ZM-24.5658 100.678C-25.5723 99.6714 -26.5258 98.6384 -27.4529 97.5524C-26.4199 98.9032 -25.4399 99.9627 -24.5658 100.678ZM-27.4529 97.5789C-33.7038 89.3945 -41.6498 74.7208 -43.3715 59.6763C-42.8947 74.9592 -37.4914 85.9512 -27.4529 97.5789ZM14.82 -59.7527C16.1709 -57.5278 16.7801 -55.091 17.0184 -52.7602C17.0979 -55.3559 16.4622 -57.7662 14.82 -59.7527ZM11.5092 -63.4873H8.83402C11.5622 -62.5868 13.4957 -61.3154 14.7936 -59.7527C13.9989 -61.077 12.9395 -62.3484 11.5092 -63.4873ZM-31.1875 83.2495C-37.2795 70.9067 -38.18 66.2715 -39.9282 57.0276C-39.5838 67.9931 -38.6038 71.8602 -31.1875 83.2495ZM-39.3984 106.293C-29.8632 117.153 -7.08454 123.509 -19.2685 110.796C-15.8252 119.536 -31.9821 112.915 -39.3984 106.293ZM-3.05855 -56.0975C-3.19098 -58.6667 -3.7737 -61.13 -4.88614 -63.4873H-10.6338C-8.91213 -62.7457 -7.29644 -61.7921 -5.78669 -60.5473C-8.43537 -61.5273 -11.084 -62.4808 -13.8387 -63.4873H-16.6728C-10.104 -61.8716 -4.80667 -59.4083 -3.05855 -56.0975ZM104.425 -63.4873V-53.078C86.7847 -60.3619 71.8461 -54.2699 63.3703 -47.0655C54.8946 -39.8611 43.0285 -38.4838 33.7846 -32.8686C43.5317 -39.7286 57.0135 -42.5627 65.0655 -50.7736C73.1175 -58.9845 70.0715 -60.1765 71.6872 -63.4873H104.425ZM91.0755 -60.097C85.3809 -60.0175 80.5073 -57.7926 75.7397 -55.1969C80.7722 -57.0775 85.9106 -58.7197 91.0755 -60.097ZM77.6467 102.956C71.3958 102.558 64.6152 101.658 58.0465 100.228C64.6682 102.214 71.2104 103.062 77.6467 102.956ZM59.3708 102.903C55.5567 101.764 51.7426 100.281 47.8756 98.3735C8.80753 76.6278 42.9755 71.0656 59.4238 73.8467C49.5972 69.7413 20.7266 64.6823 28.911 85.5539C27.1099 83.3025 23.3753 80.0711 24.1699 73.9792C18.8725 88.5469 41.7836 99.0622 59.3708 102.903ZM29.2024 -29.3193C14.9525 -20.6582 6.63562 -11.944 -3.40288 1.77616C6.63562 -10.7786 14.7671 -19.1484 29.2024 -29.3193ZM104.425 55.7033V53.4784C100.558 52.8427 88.9301 49.4524 85.0895 48.287C90.4134 50.3794 103.206 54.9087 104.425 55.7033ZM-0.648254 -63.4873H8.54267C26.6067 -53.8991 2.90098 -37.8216 -1.04556 -26.6971C5.81452 -30.1139 16.6476 -42.8806 17.0184 -52.7337C18.1044 -41.7152 10.8205 -32.4713 33.0959 -52.5747C36.91 -55.091 37.6252 -59.1964 36.1684 -63.4873H37.5192C39.903 -40.6822 -5.9721 -29.081 -10.5808 -17.8506C0.676086 -20.3403 -18.0766 -11.7851 -15.2954 -10.0105C-3.27044 -17.9035 6.02642 -29.1869 18.2898 -36.7356C-10.3159 -16.7116 -41.5174 19.4693 -40.3784 54.6968C-48.7218 10.7287 6.60914 -36.8946 3.82802 -54.4288C2.45071 -62.9576 0.623116 -61.2359 -0.648254 -63.4873ZM-6.02507 -27.0415C-7.5613 -27.4388 -10.4219 -24.7636 -10.4748 -21.9295C-8.77969 -23.8631 -7.40238 -25.4523 -6.02507 -27.0415ZM8.78104 -53.2104C8.43672 -54.2699 8.11888 -55.2234 7.72157 -56.4683C6.42372 -54.2169 6.74156 -53.2104 8.78104 -53.2104ZM11.6416 -52.098C10.847 -53.4488 11.1119 -56.5478 9.62863 -55.9915C10.2113 -54.7996 8.22483 -52.7602 11.6416 -52.098ZM2.39773 -62.7722C4.96695 -54.058 6.23832 -62.8251 11.986 -57.051C11.4562 -60.2559 6.97994 -63.1959 2.39773 -62.7722ZM-55.2905 95.1686C-48.3775 108.465 -43.8217 116.49 -23.2415 121.126C-35.7962 115.643 -45.5434 108.597 -55.2905 95.1686ZM-97.1396 96.8373V99.0887C-85.2471 112.226 -72.7453 127.377 -58.9457 133.416C-56.35 135.058 -53.7278 136.62 -51.0791 138.077H-47.318C-56.6148 133.601 -64.9847 128.224 -72.0037 122C-80.347 116.385 -88.6374 106.24 -97.1396 96.8373ZM-97.1396 -29.081V-31.094C-34.6308 -56.071 -57.4095 15.4433 -60.323 33.163C-63.2365 50.8827 -56.35 85.1036 -50.7878 76.8133C-45.2255 68.5229 -64.5609 57.0276 -27.3999 -14.937C-43.6098 7.89461 -53.7013 48.0221 -57.8597 48.1281C-62.0182 48.234 -59.7933 34.5138 -57.4095 29.2165C-60.323 81.9252 -16.5138 -70.8506 -94.7558 -37.5038C-95.3915 -37.1594 -96.1861 -36.8151 -97.1396 -36.4443V-42.8806C-74.0432 -54.8526 -60.5879 -62.057 -41.3849 -62.057C-22.182 -62.057 -6.9521 -58.0045 -3.19098 -52.3099C-6.97859 -17.3208 -81.1946 35.9706 -30.7373 100.81C-20.0366 112.65 -25.0956 113.444 -36.4849 104.704C-47.8742 95.9632 -59.9787 75.5419 -64.7463 50.8297C-64.402 65.5299 -62.3625 80.0711 -56.0321 92.2021C-62.7333 82.9847 -65.6204 75.3035 -67.395 57.8752C-69.1696 40.4469 -63.8193 15.152 -63.2895 -4.50121C-62.4419 1.67021 -62.4684 5.5108 -62.7068 10.9406C-50.6288 -30.6437 -74.1226 -37.8216 -97.1396 -29.081ZM-68.8253 -53.2369C-73.0367 -52.4158 -81.3535 -49.6082 -84.479 -47.0655C-79.2611 -49.1315 -74.0432 -51.1709 -68.8253 -53.2369ZM-14.13 -53.6607C-10.2365 -49.9526 -11.4549 -43.7282 -13.6268 -38.5897C-13.3354 -39.0135 -13.0176 -39.4638 -12.6733 -39.9141C-9.07105 -45.1055 -10.263 -50.4293 -14.13 -53.6607ZM-14.3949 -50.3763C-14.0771 -46.0325 -14.5538 -42.2184 -15.9576 -37.8481C-12.3554 -43.1984 -11.7992 -47.6482 -14.3949 -50.3763ZM-39.319 -57.7132C-35.1076 -57.7132 -30.9227 -57.7132 -26.7113 -57.7132C-30.287 -58.0575 -35.6903 -58.0575 -39.319 -57.7132ZM-15.3484 -49.2374C-19.5069 -59.064 -36.2465 -57.2099 -45.2255 -55.8061C-35.3724 -55.8326 -22.0761 -58.1635 -15.3484 -49.2374ZM-16.8847 -38.2984C-19.7452 -32.3653 -25.6253 -28.9485 -29.0156 -23.4922C-25.3604 -23.7041 -17.282 -34.1929 -16.8847 -38.2984ZM97.8826 6.62325C92.5853 0.928589 92.3204 -0.104401 95.1015 -3.81255C89.6452 -1.1109 94.2274 4.5043 97.8826 6.62325ZM86.096 -54.6142C92.188 -54.9321 98.3594 -53.2899 104.425 -51.8861V-52.1245C98.4653 -54.4553 92.5588 -56.8391 86.096 -54.6142ZM104.425 44.5258V41.3474C97.7237 39.3079 91.1815 37.4804 84.5863 36.7122C90.8371 38.7252 97.6443 43.3075 104.425 44.5258ZM-97.1396 107.803C-86.5449 118.345 -75.8972 128.939 -64.5874 138.077H-59.1841C-72.4804 126.688 -84.7173 112.729 -97.1396 102.241V107.803ZM-97.1396 109.71V122.212C-89.5115 125.999 -81.1416 131.244 -72.0037 138.077H-67.8982C-78.0162 131.641 -87.6044 120.146 -97.1396 109.71ZM104.425 9.48382V-6.01096C102.73 -5.03094 100.902 -4.07742 98.9421 -3.15038C97.2469 1.72319 99.9486 6.3054 104.425 9.48382ZM91.2345 -3.83904C85.116 -0.846031 89.5923 2.19995 92.4793 5.43134C89.9631 0.504799 87.182 0.00154495 91.2345 -3.83904ZM75.7132 -40.0995C89.3274 -43.8871 95.6577 -40.2584 104.425 -35.7556V-36.3913C95.4194 -40.7881 90.9166 -45.4763 75.7132 -40.0995ZM104.425 -15.864V-15.8905C104.319 -15.8376 104.213 -15.7846 104.107 -15.7316C104.213 -15.7846 104.319 -15.8376 104.425 -15.864ZM102.677 138.077C103.259 137.759 103.842 137.468 104.425 137.15V135.693C103.259 136.514 102.068 137.283 100.876 138.077H102.677ZM-96.7953 -63.4873C-96.8748 -63.4608 -96.9542 -63.4343 -97.0072 -63.4078C-96.9278 -63.4343 -96.8483 -63.4608 -96.7688 -63.4873H-96.7953ZM-97.1396 -63.3814C-97.0867 -63.3814 -97.0602 -63.4078 -97.0072 -63.4078C-97.0602 -63.4078 -97.0867 -63.3814 -97.1396 -63.3814ZM-88.346 -63.4873C-91.6304 -62.1895 -94.5704 -61.1565 -97.1396 -60.3619V-51.8331C-85.8563 -56.3888 -74.2551 -60.2559 -63.1306 -63.4873H-88.346ZM-16.0106 138.077H-11.5608C-17.8117 135.799 -34.4719 126.45 -36.5643 125.284C-28.6978 130.873 -21.4934 135.243 -16.0106 138.077ZM-97.1396 -16.6586V-21.1614C-40.0606 -35.7291 -94.7558 67.8077 -50.8407 114.319C-91.3126 88.8118 -74.0961 33.7192 -78.0427 -3.9185C-79.3405 -16.3408 -87.6044 -17.6122 -97.1396 -16.6586ZM-82.0422 -18.1949C-68.5339 -3.36228 -77.407 27.6273 -76.5859 49.9027C-76.6654 33.9311 -59.5284 -13.1624 -82.0422 -18.1949ZM60.6157 138.077C75.051 134.316 88.7182 128.33 100.452 119.987C101.803 118.662 103.127 117.365 104.398 116.12V111.087C85.7252 122.688 66.4163 132.541 47.2928 138.077H60.6157ZM-49.331 115.828C-46.232 118.848 -42.5239 121.523 -38.0741 123.774L-49.331 115.828ZM68.9326 41.4004C53.1729 30.3819 92.4528 51.174 104.425 52.5514V47.9162C85.3014 42.5393 35.9565 27.2035 68.9326 41.4004ZM-76.6124 88.8912C-73.3015 97.0227 -69.8582 109.736 -48.9337 120.861C-65.0906 107.617 -70.6529 99.1416 -76.6124 88.8912ZM-90.7828 58.8817C-89.9882 70.0061 -84.0287 77.5019 -78.5989 84.0441C-92.0542 43.9961 -65.1966 -13.904 -97.1396 -14.5132V-10.964C-94.5704 -11.3348 -94.2261 -14.2219 -89.326 -11.8116C-76.9302 -4.97797 -81.4065 15.8936 -84.373 26.0646C-85.0617 16.5028 -79.8703 2.75617 -88.9287 -3.78607C-97.6694 -6.62016 -87.313 7.25893 -89.0082 11.5233C-90.8623 5.82864 -93.6699 2.12049 -97.1396 -0.0514297V6.57027C-87.3395 15.8671 -89.6704 41.7977 -89.326 52.9222C-93.2991 45.0026 -94.8618 35.8912 -97.1396 27.2035V69.1056C-91.3126 79.6738 -86.4655 91.0367 -82.8368 99.6449C-87.7103 93.5264 -92.3455 86.0572 -97.1396 78.7203V91.6723C-84.8233 103.485 -72.295 119.007 -58.7073 129.31C-65.6204 125.152 -72.2156 120.384 -78.4135 115.007C-69.9377 122.9 -60.5349 129.443 -50.5229 134.74C-49.1191 135.534 -47.7153 136.25 -46.285 136.885C-45.4639 137.283 -44.6693 137.653 -43.8482 138.051H-17.8647C-73.0367 125.364 -92.6369 73.4494 -90.7828 58.8817ZM97.5648 138.077C99.8956 136.965 102.2 135.773 104.425 134.501V120.384C91.7907 128.224 79.6067 134.025 67.8996 138.077H97.5648ZM83.7122 55.5179C91.4728 59.6233 98.068 62.8547 104.425 62.7753V56.0211C103.763 55.9946 101.856 55.5179 98.2799 54.4319C111.868 67.331 93.1415 60.3914 83.7122 55.5179ZM-97.1396 138.077H-80.294C-85.9622 134.819 -91.6304 131.508 -97.1396 128.595V138.077ZM-5.23047 27.0446C-5.23047 27.0181 -5.20398 26.9916 -5.20398 26.9651C-5.20398 26.9916 -5.20398 27.0181 -5.23047 27.0446ZM-4.91262 26.4089C-5.01857 26.5943 -5.09803 26.7797 -5.20398 26.9651C-5.09803 26.7797 -5.01857 26.5943 -4.91262 26.4089ZM-4.80668 26.2235C-4.83316 26.2765 -4.85966 26.3029 -4.88614 26.3559C-4.85966 26.3029 -4.83316 26.2765 -4.80668 26.2235ZM-4.88614 26.3559C-4.88614 26.3824 -4.91262 26.3824 -4.91262 26.4089C-4.91262 26.3824 -4.88614 26.3824 -4.88614 26.3559ZM-2.84666 27.8921C-19.0036 43.7842 -11.5873 82.4549 -6.50183 69.7943C3.43072 45.135 26.8186 22.8596 56.2189 35.5733C41.1214 26.8327 68.9061 32.289 85.8047 35.229C67.2109 30.9646 47.9021 25.164 29.5202 30.8851C35.2679 28.2365 38.6582 27.124 45.0945 27.0975C30.0235 25.5613 17.5747 28.9516 4.72857 38.7517C-8.11752 48.5518 10.3967 15.9731 7.74806 14.3839C5.28479 12.9006 -1.52232 19.8931 -4.80668 26.2235C-0.542305 18.145 5.39074 19.7872 -2.84666 27.8921ZM-5.49533 27.6273C-5.41587 27.4154 -5.30993 27.23 -5.23047 27.0446C-5.30993 27.23 -5.41587 27.4419 -5.49533 27.6273ZM50.6567 27.0975C66.7342 28.7397 76.4813 33.0306 91.9761 34.7787C76.1899 31.4679 66.019 26.9916 50.6567 27.0975ZM83.7122 55.5179C83.2884 55.306 82.8911 55.0676 82.4673 54.8557C82.8381 55.0941 83.2619 55.306 83.7122 55.5179ZM-71.1826 -59.6202C-68.7193 -60.5208 -66.256 -61.4213 -63.7928 -62.3219C-66.6798 -63.2754 -68.9577 -60.9446 -71.1826 -59.6202ZM-53.1186 -63.4873H-57.4889C-75.341 -56.0445 -110.357 -42.7481 -53.1186 -63.4873ZM17.5217 125.496C29.7056 131.085 17.3098 132.541 10.5557 132.356C20.7001 133.919 32.5132 130.105 17.5217 125.496ZM30.5797 128.33C38.2873 133.733 27.9045 134.263 23.0839 134.793C28.4342 134.449 43.4258 133.707 30.5797 128.33ZM45.068 128.012C62.046 135.19 44.2469 136.488 34.7646 138.077H38.2344C49.1999 136.859 65.5687 133.098 45.068 128.012ZM104.425 37.5598V36.5533C101.617 36.5268 98.7567 36.3414 95.8431 36.0236C98.7567 36.6063 101.617 37.136 104.425 37.5598ZM-12.9116 85.6334C-9.46835 91.4604 -2.84666 95.9632 0.0668945 96.493C-3.64126 94.6389 -8.93861 90.401 -12.9116 85.6334ZM17.2833 103.38C-16.3019 68.9996 15.6941 37.6923 38.4727 33.7192C22.8455 34.249 -9.73322 58.0871 -1.78719 81.1306C-7.34941 80.5214 -13.7062 71.3305 -15.4544 62.1925C-14.236 75.8332 -4.70073 90.401 17.2833 103.38ZM-2.84666 90.6658C-13.4414 81.1306 -18.103 66.7218 -18.156 57.1865C-19.295 67.1191 -16.8847 80.0711 -2.84666 90.6658ZM104.425 39.2285V38.5134C102.491 38.3279 100.531 38.0896 98.5448 37.7717C100.664 38.2485 102.624 38.7252 104.425 39.2285ZM104.425 -49.7936V-44.5228C97.6443 -46.9595 97.2734 -49.7142 80.163 -47.039C63.0525 -44.3638 15.2968 -19.7576 4.91397 -0.740086C22.3158 -21.903 91.4993 -56.018 104.425 -31.2529V-18.963C86.9701 -7.62665 34.1819 -2.85903 39.8501 7.07352C42.3663 10.3049 50.1269 13.6158 57.5432 8.58327C42.9755 5.40485 69.065 -4.07742 73.038 -5.74609C40.5652 9.00706 68.4028 6.46432 82.7587 8.15948C97.1145 9.85464 98.3594 13.0066 104.425 15.2844V15.9466C91.4199 12.4239 89.3274 8.34489 64.4298 9.27193C92.5058 10.9671 79.5273 19.9726 104.425 20.5818V32.4479C77.6732 32.6863 69.992 24.9521 50.074 24.9521C30.1559 24.9521 18.2368 26.5413 10.2113 31.4149C-3.90613 40.6058 16.4887 10.9406 18.3958 6.54379C30.8181 -20.6052 -14.3949 24.5813 -18.156 57.1865C-18.2885 29.2959 6.42372 -5.74609 35.0295 -7.3353C44.035 -7.86503 -10.5278 36.1031 16.7536 27.8921C-5.49533 26.5678 68.9326 -12.8975 46.4453 -12.5267C8.0659 -11.891 -9.41537 17.5093 -20.1425 43.9431C-23.8772 1.85562 62.046 -57.0775 104.425 -49.7936ZM58.4173 10.4109C60.8541 11.9471 65.9395 11.2849 69.8066 11.6292C66.019 10.9671 62.2844 9.48382 58.4173 10.4109ZM36.4862 23.7072C28.0634 23.151 10.1319 28.6867 23.6401 15.9731C7.21833 29.7462 27.0304 24.7402 36.4862 23.7072Z" fill="#02C9BF"/>
<rect x="-97.1396" y="-63.4873" width="201.565" height="201.565" fill="#42E8E0"/>
</g>
<path d="M13.5723 68.1524V20.8464L32.9076 20.7412L37.1455 26.8332H72.6378V68.1524H13.5723Z" fill="url(#paint3_linear_2166_102553)"/>
<path d="M13.5723 68.1524V20.8464L32.9076 20.7412L37.1455 26.8332H72.6378V68.1524H13.5723Z" fill="url(#paint4_radial_2166_102553)"/>
</g>
</g>
<defs>
<filter id="filter0_ddddd_2166_102553" x="3.77267" y="14.9141" width="78.4009" height="67.8062" filterUnits="userSpaceOnUse" color-interpolation-filters="sRGB">
<feFlood flood-opacity="0" result="BackgroundImageFix"/>
<feColorMatrix in="SourceAlpha" type="matrix" values="0 0 0 0 0 0 0 0 0 0 0 0 0 0 0 0 0 0 127 0" result="hardAlpha"/>
<feOffset dy="0.529736"/>
<feGaussianBlur stdDeviation="0.264868"/>
<feColorMatrix type="matrix" values="0 0 0 0 0 0 0 0 0 0 0 0 0 0 0 0 0 0 0.1 0"/>
<feBlend mode="normal" in2="BackgroundImageFix" result="effect1_dropShadow_2166_102553"/>
<feColorMatrix in="SourceAlpha" type="matrix" values="0 0 0 0 0 0 0 0 0 0 0 0 0 0 0 0 0 0 127 0" result="hardAlpha"/>
<feOffset dy="1.05947"/>
<feGaussianBlur stdDeviation="0.529736"/>
<feColorMatrix type="matrix" values="0 0 0 0 0 0 0 0 0 0 0 0 0 0 0 0 0 0 0.1 0"/>
<feBlend mode="normal" in2="effect1_dropShadow_2166_102553" result="effect2_dropShadow_2166_102553"/>
<feColorMatrix in="SourceAlpha" type="matrix" values="0 0 0 0 0 0 0 0 0 0 0 0 0 0 0 0 0 0 127 0" result="hardAlpha"/>
<feOffset dy="2.11894"/>
<feGaussianBlur stdDeviation="1.05947"/>
<feColorMatrix type="matrix" values="0 0 0 0 0 0 0 0 0 0 0 0 0 0 0 0 0 0 0.1 0"/>
<feBlend mode="normal" in2="effect2_dropShadow_2166_102553" result="effect3_dropShadow_2166_102553"/>
<feColorMatrix in="SourceAlpha" type="matrix" values="0 0 0 0 0 0 0 0 0 0 0 0 0 0 0 0 0 0 127 0" result="hardAlpha"/>
<feOffset dy="4.23789"/>
<feGaussianBlur stdDeviation="2.11894"/>
<feColorMatrix type="matrix" values="0 0 0 0 0 0 0 0 0 0 0 0 0 0 0 0 0 0 0.1 0"/>
<feBlend mode="normal" in2="effect3_dropShadow_2166_102553" result="effect4_dropShadow_2166_102553"/>
<feColorMatrix in="SourceAlpha" type="matrix" values="0 0 0 0 0 0 0 0 0 0 0 0 0 0 0 0 0 0 127 0" result="hardAlpha"/>
<feOffset dy="12.7137"/>
<feGaussianBlur stdDeviation="6.35683"/>
<feColorMatrix type="matrix" values="0 0 0 0 0 0 0 0 0 0 0 0 0 0 0 0 0 0 0.1 0"/>
<feBlend mode="normal" in2="effect4_dropShadow_2166_102553" result="effect5_dropShadow_2166_102553"/>
<feBlend mode="normal" in="SourceGraphic" in2="effect5_dropShadow_2166_102553" result="shape"/>
</filter>
<filter id="filter1_ddddd_2166_102553" x="7.74533" y="0.34668" width="70.4527" height="86.3472" filterUnits="userSpaceOnUse" color-interpolation-filters="sRGB">
<feFlood flood-opacity="0" result="BackgroundImageFix"/>
<feColorMatrix in="SourceAlpha" type="matrix" values="0 0 0 0 0 0 0 0 0 0 0 0 0 0 0 0 0 0 127 0" result="hardAlpha"/>
<feOffset dy="0.529736"/>
<feGaussianBlur stdDeviation="0.264868"/>
<feColorMatrix type="matrix" values="0 0 0 0 0 0 0 0 0 0 0 0 0 0 0 0 0 0 0.1 0"/>
<feBlend mode="normal" in2="BackgroundImageFix" result="effect1_dropShadow_2166_102553"/>
<feColorMatrix in="SourceAlpha" type="matrix" values="0 0 0 0 0 0 0 0 0 0 0 0 0 0 0 0 0 0 127 0" result="hardAlpha"/>
<feOffset dy="1.05947"/>
<feGaussianBlur stdDeviation="0.529736"/>
<feColorMatrix type="matrix" values="0 0 0 0 0 0 0 0 0 0 0 0 0 0 0 0 0 0 0.1 0"/>
<feBlend mode="normal" in2="effect1_dropShadow_2166_102553" result="effect2_dropShadow_2166_102553"/>
<feColorMatrix in="SourceAlpha" type="matrix" values="0 0 0 0 0 0 0 0 0 0 0 0 0 0 0 0 0 0 127 0" result="hardAlpha"/>
<feOffset dy="2.11894"/>
<feGaussianBlur stdDeviation="1.05947"/>
<feColorMatrix type="matrix" values="0 0 0 0 0 0 0 0 0 0 0 0 0 0 0 0 0 0 0.1 0"/>
<feBlend mode="normal" in2="effect2_dropShadow_2166_102553" result="effect3_dropShadow_2166_102553"/>
<feColorMatrix in="SourceAlpha" type="matrix" values="0 0 0 0 0 0 0 0 0 0 0 0 0 0 0 0 0 0 127 0" result="hardAlpha"/>
<feOffset dy="4.23789"/>
<feGaussianBlur stdDeviation="2.11894"/>
<feColorMatrix type="matrix" values="0 0 0 0 0 0 0 0 0 0 0 0 0 0 0 0 0 0 0.1 0"/>
<feBlend mode="normal" in2="effect3_dropShadow_2166_102553" result="effect4_dropShadow_2166_102553"/>
<feColorMatrix in="SourceAlpha" type="matrix" values="0 0 0 0 0 0 0 0 0 0 0 0 0 0 0 0 0 0 127 0" result="hardAlpha"/>
<feOffset dy="12.7137"/>
<feGaussianBlur stdDeviation="6.35683"/>
<feColorMatrix type="matrix" values="0 0 0 0 0 0 0 0 0 0 0 0 0 0 0 0 0 0 0.1 0"/>
<feBlend mode="normal" in2="effect4_dropShadow_2166_102553" result="effect5_dropShadow_2166_102553"/>
<feBlend mode="normal" in="SourceGraphic" in2="effect5_dropShadow_2166_102553" result="shape"/>
</filter>
<filter id="filter2_biii_2166_102553" x="19.9294" y="-2.302" width="43.9683" height="55.6226" filterUnits="userSpaceOnUse" color-interpolation-filters="sRGB">
<feFlood flood-opacity="0" result="BackgroundImageFix"/>
<feGaussianBlur in="BackgroundImage" stdDeviation="1.32434"/>
<feComposite in2="SourceAlpha" operator="in" result="effect1_backgroundBlur_2166_102553"/>
<feBlend mode="normal" in="SourceGraphic" in2="effect1_backgroundBlur_2166_102553" result="shape"/>
<feColorMatrix in="SourceAlpha" type="matrix" values="0 0 0 0 0 0 0 0 0 0 0 0 0 0 0 0 0 0 127 0" result="hardAlpha"/>
<feOffset dy="-1.05947"/>
<feGaussianBlur stdDeviation="0.132434"/>
<feComposite in2="hardAlpha" operator="arithmetic" k2="-1" k3="1"/>
<feColorMatrix type="matrix" values="0 0 0 0 0.920833 0 0 0 0 0.920833 0 0 0 0 0.920833 0 0 0 0.1 0"/>
<feBlend mode="normal" in2="shape" result="effect2_innerShadow_2166_102553"/>
<feColorMatrix in="SourceAlpha" type="matrix" values="0 0 0 0 0 0 0 0 0 0 0 0 0 0 0 0 0 0 127 0" result="hardAlpha"/>
<feOffset dx="-0.264868"/>
<feGaussianBlur stdDeviation="0.132434"/>
<feComposite in2="hardAlpha" operator="arithmetic" k2="-1" k3="1"/>
<feColorMatrix type="matrix" values="0 0 0 0 0.920833 0 0 0 0 0.920833 0 0 0 0 0.920833 0 0 0 0.1 0"/>
<feBlend mode="normal" in2="effect2_innerShadow_2166_102553" result="effect3_innerShadow_2166_102553"/>
<feColorMatrix in="SourceAlpha" type="matrix" values="0 0 0 0 0 0 0 0 0 0 0 0 0 0 0 0 0 0 127 0" result="hardAlpha"/>
<feOffset dx="0.264868"/>
<feGaussianBlur stdDeviation="0.132434"/>
<feComposite in2="hardAlpha" operator="arithmetic" k2="-1" k3="1"/>
<feColorMatrix type="matrix" values="0 0 0 0 0.920833 0 0 0 0 0.920833 0 0 0 0 0.920833 0 0 0 0.1 0"/>
<feBlend mode="normal" in2="effect3_innerShadow_2166_102553" result="effect4_innerShadow_2166_102553"/>
</filter>
<filter id="filter3_biii_2166_102553" x="33.9656" y="2.99488" width="34.1675" height="55.6226" filterUnits="userSpaceOnUse" color-interpolation-filters="sRGB">
<feFlood flood-opacity="0" result="BackgroundImageFix"/>
<feGaussianBlur in="BackgroundImage" stdDeviation="1.32434"/>
<feComposite in2="SourceAlpha" operator="in" result="effect1_backgroundBlur_2166_102553"/>
<feBlend mode="normal" in="SourceGraphic" in2="effect1_backgroundBlur_2166_102553" result="shape"/>
<feColorMatrix in="SourceAlpha" type="matrix" values="0 0 0 0 0 0 0 0 0 0 0 0 0 0 0 0 0 0 127 0" result="hardAlpha"/>
<feOffset dy="-1.05947"/>
<feGaussianBlur stdDeviation="0.132434"/>
<feComposite in2="hardAlpha" operator="arithmetic" k2="-1" k3="1"/>
<feColorMatrix type="matrix" values="0 0 0 0 0.920833 0 0 0 0 0.920833 0 0 0 0 0.920833 0 0 0 0.1 0"/>
<feBlend mode="normal" in2="shape" result="effect2_innerShadow_2166_102553"/>
<feColorMatrix in="SourceAlpha" type="matrix" values="0 0 0 0 0 0 0 0 0 0 0 0 0 0 0 0 0 0 127 0" result="hardAlpha"/>
<feOffset dx="-0.264868"/>
<feGaussianBlur stdDeviation="0.132434"/>
<feComposite in2="hardAlpha" operator="arithmetic" k2="-1" k3="1"/>
<feColorMatrix type="matrix" values="0 0 0 0 0.920833 0 0 0 0 0.920833 0 0 0 0 0.920833 0 0 0 0.1 0"/>
<feBlend mode="normal" in2="effect2_innerShadow_2166_102553" result="effect3_innerShadow_2166_102553"/>
<feColorMatrix in="SourceAlpha" type="matrix" values="0 0 0 0 0 0 0 0 0 0 0 0 0 0 0 0 0 0 127 0" result="hardAlpha"/>
<feOffset dx="0.264868"/>
<feGaussianBlur stdDeviation="0.132434"/>
<feComposite in2="hardAlpha" operator="arithmetic" k2="-1" k3="1"/>
<feColorMatrix type="matrix" values="0 0 0 0 0.920833 0 0 0 0 0.920833 0 0 0 0 0.920833 0 0 0 0.1 0"/>
<feBlend mode="normal" in2="effect3_innerShadow_2166_102553" result="effect4_innerShadow_2166_102553"/>
</filter>
<filter id="filter4_biii_2166_102553" x="17.8103" y="8.29273" width="45.0278" height="55.6226" filterUnits="userSpaceOnUse" color-interpolation-filters="sRGB">
<feFlood flood-opacity="0" result="BackgroundImageFix"/>
<feGaussianBlur in="BackgroundImage" stdDeviation="1.32434"/>
<feComposite in2="SourceAlpha" operator="in" result="effect1_backgroundBlur_2166_102553"/>
<feBlend mode="normal" in="SourceGraphic" in2="effect1_backgroundBlur_2166_102553" result="shape"/>
<feColorMatrix in="SourceAlpha" type="matrix" values="0 0 0 0 0 0 0 0 0 0 0 0 0 0 0 0 0 0 127 0" result="hardAlpha"/>
<feOffset dy="-1.05947"/>
<feGaussianBlur stdDeviation="0.132434"/>
<feComposite in2="hardAlpha" operator="arithmetic" k2="-1" k3="1"/>
<feColorMatrix type="matrix" values="0 0 0 0 0.920833 0 0 0 0 0.920833 0 0 0 0 0.920833 0 0 0 0.1 0"/>
<feBlend mode="normal" in2="shape" result="effect2_innerShadow_2166_102553"/>
<feColorMatrix in="SourceAlpha" type="matrix" values="0 0 0 0 0 0 0 0 0 0 0 0 0 0 0 0 0 0 127 0" result="hardAlpha"/>
<feOffset dx="-0.264868"/>
<feGaussianBlur stdDeviation="0.132434"/>
<feComposite in2="hardAlpha" operator="arithmetic" k2="-1" k3="1"/>
<feColorMatrix type="matrix" values="0 0 0 0 0.920833 0 0 0 0 0.920833 0 0 0 0 0.920833 0 0 0 0.1 0"/>
<feBlend mode="normal" in2="effect2_innerShadow_2166_102553" result="effect3_innerShadow_2166_102553"/>
<feColorMatrix in="SourceAlpha" type="matrix" values="0 0 0 0 0 0 0 0 0 0 0 0 0 0 0 0 0 0 127 0" result="hardAlpha"/>
<feOffset dx="0.264868"/>
<feGaussianBlur stdDeviation="0.132434"/>
<feComposite in2="hardAlpha" operator="arithmetic" k2="-1" k3="1"/>
<feColorMatrix type="matrix" values="0 0 0 0 0.920833 0 0 0 0 0.920833 0 0 0 0 0.920833 0 0 0 0.1 0"/>
<feBlend mode="normal" in2="effect3_innerShadow_2166_102553" result="effect4_innerShadow_2166_102553"/>
</filter>
<filter id="filter5_ddddiii_2166_102553" x="0.858607" y="20.4822" width="84.4927" height="73.0975" filterUnits="userSpaceOnUse" color-interpolation-filters="sRGB">
<feFlood flood-opacity="0" result="BackgroundImageFix"/>
<feColorMatrix in="SourceAlpha" type="matrix" values="0 0 0 0 0 0 0 0 0 0 0 0 0 0 0 0 0 0 127 0" result="hardAlpha"/>
<feOffset dy="1.05947"/>
<feGaussianBlur stdDeviation="0.529736"/>
<feColorMatrix type="matrix" values="0 0 0 0 0 0 0 0 0 0 0 0 0 0 0 0 0 0 0.1 0"/>
<feBlend mode="normal" in2="BackgroundImageFix" result="effect1_dropShadow_2166_102553"/>
<feColorMatrix in="SourceAlpha" type="matrix" values="0 0 0 0 0 0 0 0 0 0 0 0 0 0 0 0 0 0 127 0" result="hardAlpha"/>
<feOffset dy="2.11894"/>
<feGaussianBlur stdDeviation="1.05947"/>
<feColorMatrix type="matrix" values="0 0 0 0 0 0 0 0 0 0 0 0 0 0 0 0 0 0 0.1 0"/>
<feBlend mode="normal" in2="effect1_dropShadow_2166_102553" result="effect2_dropShadow_2166_102553"/>
<feColorMatrix in="SourceAlpha" type="matrix" values="0 0 0 0 0 0 0 0 0 0 0 0 0 0 0 0 0 0 127 0" result="hardAlpha"/>
<feOffset dy="4.23789"/>
<feGaussianBlur stdDeviation="2.11894"/>
<feColorMatrix type="matrix" values="0 0 0 0 0 0 0 0 0 0 0 0 0 0 0 0 0 0 0.1 0"/>
<feBlend mode="normal" in2="effect2_dropShadow_2166_102553" result="effect3_dropShadow_2166_102553"/>
<feColorMatrix in="SourceAlpha" type="matrix" values="0 0 0 0 0 0 0 0 0 0 0 0 0 0 0 0 0 0 127 0" result="hardAlpha"/>
<feOffset dy="12.7137"/>
<feGaussianBlur stdDeviation="6.35683"/>
<feColorMatrix type="matrix" values="0 0 0 0 0 0 0 0 0 0 0 0 0 0 0 0 0 0 0.1 0"/>
<feBlend mode="normal" in2="effect3_dropShadow_2166_102553" result="effect4_dropShadow_2166_102553"/>
<feBlend mode="normal" in="SourceGraphic" in2="effect4_dropShadow_2166_102553" result="shape"/>
<feColorMatrix in="SourceAlpha" type="matrix" values="0 0 0 0 0 0 0 0 0 0 0 0 0 0 0 0 0 0 127 0" result="hardAlpha"/>
<feOffset dy="-1.05947"/>
<feGaussianBlur stdDeviation="0.132434"/>
<feComposite in2="hardAlpha" operator="arithmetic" k2="-1" k3="1"/>
<feColorMatrix type="matrix" values="0 0 0 0 0 0 0 0 0 0 0 0 0 0 0 0 0 0 0.4 0"/>
<feBlend mode="normal" in2="shape" result="effect5_innerShadow_2166_102553"/>
<feColorMatrix in="SourceAlpha" type="matrix" values="0 0 0 0 0 0 0 0 0 0 0 0 0 0 0 0 0 0 127 0" result="hardAlpha"/>
<feOffset dx="-0.264868"/>
<feGaussianBlur stdDeviation="0.132434"/>
<feComposite in2="hardAlpha" operator="arithmetic" k2="-1" k3="1"/>
<feColorMatrix type="matrix" values="0 0 0 0 1 0 0 0 0 1 0 0 0 0 1 0 0 0 0.3 0"/>
<feBlend mode="normal" in2="effect5_innerShadow_2166_102553" result="effect6_innerShadow_2166_102553"/>
<feColorMatrix in="SourceAlpha" type="matrix" values="0 0 0 0 0 0 0 0 0 0 0 0 0 0 0 0 0 0 127 0" result="hardAlpha"/>
<feOffset dx="0.264868"/>
<feGaussianBlur stdDeviation="0.132434"/>
<feComposite in2="hardAlpha" operator="arithmetic" k2="-1" k3="1"/>
<feColorMatrix type="matrix" values="0 0 0 0 1 0 0 0 0 1 0 0 0 0 1 0 0 0 0.3 0"/>
<feBlend mode="normal" in2="effect6_innerShadow_2166_102553" result="effect7_innerShadow_2166_102553"/>
</filter>
<linearGradient id="paint0_linear_2166_102553" x1="41.9135" y1="0.34668" x2="41.9135" y2="50.6716" gradientUnits="userSpaceOnUse">
<stop stop-color="#A6A0BA" stop-opacity="0.15"/>
<stop offset="1" stop-opacity="0.2"/>
</linearGradient>
<linearGradient id="paint1_linear_2166_102553" x1="51.0496" y1="5.64355" x2="51.0496" y2="55.9685" gradientUnits="userSpaceOnUse">
<stop stop-color="#42E8E0" stop-opacity="0.39"/>
<stop offset="1" stop-color="#42E8E0" stop-opacity="0.34"/>
</linearGradient>
<linearGradient id="paint2_linear_2166_102553" x1="40.3241" y1="10.9414" x2="40.3241" y2="61.2663" gradientUnits="userSpaceOnUse">
<stop stop-color="#A6A0BA" stop-opacity="0.15"/>
<stop offset="1" stop-opacity="0.2"/>
</linearGradient>
<linearGradient id="paint3_linear_2166_102553" x1="43.1076" y1="20.5146" x2="43.1076" y2="67.7806" gradientUnits="userSpaceOnUse">
<stop stop-color="white" stop-opacity="0.4"/>
<stop offset="0.833333" stop-color="white" stop-opacity="0"/>
<stop offset="1" stop-color="white" stop-opacity="0.3"/>
</linearGradient>
<radialGradient id="paint4_radial_2166_102553" cx="0" cy="0" r="1" gradientUnits="userSpaceOnUse" gradientTransform="translate(13.5723 26.9656) scale(45.2924 56.4259)">
<stop stop-color="white" stop-opacity="0.7"/>
<stop offset="1" stop-color="white" stop-opacity="0"/>
</radialGradient>
<clipPath id="clip0_2166_102553">
<rect width="201.565" height="201.565" fill="white" transform="translate(-97.1396 -63.4873)"/>
</clipPath>
</defs>
</svg>
