<svg width="86" height="102" viewBox="0 0 86 102" fill="none" xmlns="http://www.w3.org/2000/svg">
<g filter="url(#filter0_ddddd_2166_102577)">
<g filter="url(#filter1_biii_2166_102577)">
<rect x="18.8906" y="24.4482" width="47.5333" height="15.749" rx="2.29076" fill="url(#paint0_linear_2166_102577)"/>
</g>
</g>
<g filter="url(#filter2_ddddd_2166_102577)">
<g opacity="0.6" filter="url(#filter3_biii_2166_102577)">
<path d="M42.5801 0.681641C32.3433 0.699063 23.7576 9.62259 23.5936 20.0133C23.5299 25.2142 23.4891 30.4148 23.4717 35.6157C26.6214 35.5965 29.7712 35.5819 32.921 35.5721C32.9298 30.3329 32.9505 25.0939 32.9826 19.8546C33.023 14.5455 37.3372 10.1375 42.5801 10.1358C47.8232 10.1377 52.1372 14.5457 52.1776 19.8546C52.2098 25.0939 52.2305 30.3329 52.2393 35.5721C55.389 35.5817 58.5388 35.5965 61.6886 35.6157C61.6709 30.4148 61.6303 25.2142 61.5666 20.0133C61.4028 9.6228 52.8171 0.699268 42.5801 0.681641Z" fill="url(#paint1_linear_2166_102577)"/>
</g>
</g>
<g filter="url(#filter4_ddddiii_2166_102577)">
<mask id="mask0_2166_102577" style="mask-type:alpha" maskUnits="userSpaceOnUse" x="14" y="28" width="58" height="46">
<path fill-rule="evenodd" clip-rule="evenodd" d="M16.3132 28.1709C15.0481 28.1709 14.0225 29.1965 14.0225 30.4617V71.6953C14.0225 72.9605 15.0481 73.9861 16.3132 73.9861H69.0007C70.2659 73.9861 71.2915 72.9605 71.2915 71.6953V30.4617C71.2915 29.1965 70.2659 28.1709 69.0007 28.1709H16.3132ZM42.5169 43.7575C44.9802 43.6052 47.0237 45.554 47.0191 47.9834C47.0169 49.2382 46.4698 50.3673 45.6043 51.1462C45.6017 52.9195 45.5988 54.6929 45.5953 56.4662C45.5936 57.2468 44.9642 57.8821 44.1897 57.8836C43.2545 57.8854 42.3195 57.8854 41.3842 57.8836C40.6099 57.8821 39.9803 57.2466 39.9787 56.4662C39.9752 54.6929 39.9722 52.9195 39.9696 51.1462C39.0493 50.318 38.4887 49.093 38.5613 47.7422C38.6751 45.6206 40.3953 43.8892 42.5169 43.7575Z" fill="#C4C4C4"/>
</mask>
<g mask="url(#mask0_2166_102577)">
<g clip-path="url(#clip0_2166_102577)">
<rect width="217.909" height="217.909" transform="translate(-136.309 -68.9004)" fill="#EE9C2D"/>
<path d="M-105.269 -25.8055C-110.108 -30.6447 -118.698 -32.0764 -133.159 -28.268C-118.498 -33.3077 -110.022 -31.7901 -105.269 -25.8055ZM81.6 69.7479V71.2082C70.1175 69.662 59.4941 64.021 48.4126 59.1817C69.7166 70.7787 75.9303 76.9924 81.6 77.2787V104.825C42.4566 118.971 -12.2926 92.6841 11.2736 81.8316C21.4675 77.1356 67.3113 93.5431 48.6703 69.6906C51.8201 75.4175 52.3928 81.4307 41.5689 79.7127C45.2341 79.1113 49.5293 77.7083 46.3509 72.8977C43.1725 68.0871 46.4941 80.8008 24.0446 74.2721C6.29121 69.1179 -19.4798 83.1488 -2.58548 66.2545C-39.2376 92.8845 34.0667 124.697 76.3312 112.7C71.2629 114.045 63.188 114.475 54.0536 113.902C63.5602 113.759 72.7805 111.669 81.5713 108.089V116.852C49.7298 137.726 20.0358 142.537 -33.9403 121.805C12.5622 150.726 -41.1848 137.182 -42.3874 136.839C-38.1209 138.013 -16.9027 141.019 -18.9071 137.297C-20.9116 133.574 -36.7751 134.805 -48.9734 130.023C-43.9337 129.508 -35.0284 132.858 -46.1099 123.294C-24.5481 141.105 -41.2707 121.719 -53.0967 112.986C-54.7575 111.612 -56.3324 110.151 -57.8501 108.605C-56.3038 109.865 -55.0153 110.151 -54.1562 109.149C-57.3346 103.651 -60.1122 98.4683 -62.5461 93.5718C-61.8589 94.4881 -61.143 95.433 -60.3699 96.3493C-104.897 4.43256 6.86391 -31.8473 11.8749 -63.6603C11.4741 -62.4004 10.8441 -61.1404 9.95644 -59.9092C11.3309 -63.5744 12.0754 -66.2374 11.6459 -68.8718H18.8045C18.9477 -68.4995 19.1195 -68.0986 19.234 -67.6977C19.6063 -68.0986 19.9212 -68.4995 20.2076 -68.8718H29.886C29.9147 -63.3453 25.9059 -56.788 14.4521 -48.3981C23.2428 -53.9818 30.6305 -60.7682 32.2913 -68.9004H36.9874C25.3904 -56.8739 8.9256 -38.9773 -0.666962 -35.5698C-32.5658 -20.594 -52.6672 11.1903 -57.4492 42.3733C-53.3831 28.8578 -45.5945 14.9414 -34.9997 1.68365C-50.5769 22.9591 -59.7399 47.4989 -57.7069 68.5452C-56.7906 74.7875 -55.1298 80.7721 -52.6959 86.3272C-44.7927 102.019 -27.612 113.645 1.8815 116.995C-33.9975 97.3229 -36.5174 47.8138 9.72736 42.1442C24.4741 39.7103 38.276 43.9482 51.8487 48.7015C34.4389 44.3204 10.7296 37.1332 -3.21544 48.7874C12.0468 46.9834 27.7957 48.6729 42.4852 53.598C26.1922 50.3337 4.05772 42.1156 -8.85643 56.891C-5.44893 54.8007 -0.867401 50.7918 8.29564 50.7918C-5.16258 53.3689 -4.30354 57.0914 8.5247 56.2896C-13.6098 57.7214 -35.2288 74.5585 -14.0679 97.6379C7.09299 120.717 28.6261 120.889 21.2098 125.728C8.00928 134.405 -34.2266 115.219 -47.4271 96.2634C-47.8566 95.8053 -48.2575 95.3471 -48.687 94.8889C-31.4491 121.204 14.6239 139.988 41.9698 126.616C53.5381 120.946 -47.5416 96.3207 -11.8344 64.4218C-2.18459 55.8029 23.0138 55.7169 35.7848 66.7699C27.4807 61.3866 -2.29913 58.4086 6.86391 66.8271C13.7362 73.1267 44.2606 76.8206 39.5359 68.402C36.8156 64.8227 33.3222 62.1024 29.3993 60.1267C29.4565 60.1553 29.5138 60.1553 29.5711 60.1839C-3.67358 41.457 33.9521 52.2808 68.5999 66.6267C73.0955 68.9461 77.448 69.8624 81.6 69.7479ZM-46.339 97.3802C-46.339 97.3802 -33.9403 111.812 -13.4666 118.942C2.62601 124.526 16.8001 123.552 16.886 122.951C16.9719 122.292 -0.12291 122.407 -20.3389 113.501C-36.9182 106.2 -46.339 97.3802 -46.339 97.3802ZM-5.01941 -36.1425C0.707489 -40.0368 6.43439 -43.9025 12.1613 -47.7968C7.37933 -45.8783 -1.49736 -39.865 -5.01941 -36.1425ZM-58.7091 73.1267C-58.9382 70.2633 -60.6276 61.0716 -60.3985 58.0936C-62.4029 28.5142 -48.9161 -4.01461 -19.1362 -24.4596C-55.9602 -1.58068 -68.7312 31.3204 -58.7091 73.1267ZM-62.0593 26.5957C-58.3369 19.208 -54.4426 11.448 -50.491 3.60217C-54.4426 8.29823 -62.317 23.8754 -62.0593 26.5957ZM-22.9732 122.493C-40.2398 114.189 -55.9888 101.446 -64.121 83.7215C-60.6276 98.8692 -37.6341 121.605 -22.9732 122.493ZM49.9875 66.8844C52.3355 70.3778 53.8245 71.695 57.232 77.8228C69.3444 99.6136 2.3683 72.9836 9.61282 91.2237C14.0225 102.334 44.9478 107.774 54.1108 107.774C28.9125 103.193 12.1899 96.5498 13.9366 89.2193C16.5996 78.2809 95.6308 116.365 49.9875 66.8844ZM-78.4669 59.9549C-78.6387 54.8293 -79.1255 43.8623 -78.1806 38.7653C-79.7841 42.8887 -79.1255 54.0848 -78.4669 59.9549ZM-57.8501 108.576C-58.9382 107.488 -59.969 106.371 -60.9712 105.197C-59.8545 106.658 -58.795 107.803 -57.8501 108.576ZM-60.9712 105.226C-67.729 96.3779 -76.3193 80.5144 -78.1806 64.25C-77.6651 80.7721 -71.8237 92.6555 -60.9712 105.226ZM-15.2706 -64.8629C-13.8102 -62.4576 -13.1516 -59.8233 -12.8939 -57.3034C-12.808 -60.1096 -13.4952 -62.7153 -15.2706 -64.8629ZM-18.8499 -68.9004H-21.742C-18.7926 -67.9268 -16.7023 -66.5524 -15.2992 -64.8629C-16.1582 -66.2947 -17.3036 -67.6691 -18.8499 -68.9004ZM-65.0087 89.7347C-71.5946 76.3911 -72.5682 71.38 -74.4581 61.3866C-74.0858 73.2413 -73.0263 77.4219 -65.0087 89.7347ZM-73.8854 114.647C-63.577 126.387 -38.9513 133.259 -52.1232 119.515C-48.4007 128.964 -65.8677 121.805 -73.8854 114.647ZM-34.5988 -60.9114C-34.742 -63.6889 -35.372 -66.3519 -36.5746 -68.9004H-42.7883C-40.9271 -68.0986 -39.1804 -67.0678 -37.5482 -65.722C-40.4117 -66.7814 -43.2751 -67.8123 -46.2531 -68.9004H-49.317C-42.2156 -67.1537 -36.4887 -64.4907 -34.5988 -60.9114ZM81.6 -68.9004V-57.647C62.5294 -65.5215 46.3795 -58.9356 37.2165 -51.147C28.0534 -43.3584 15.2252 -41.8694 5.23174 -35.7989C15.7692 -43.2152 30.3442 -46.2791 39.0491 -55.1558C47.754 -64.0325 44.461 -65.3211 46.2077 -68.9004H81.6ZM67.1682 -65.2352C61.0117 -65.1493 55.743 -62.744 50.5888 -59.9378C56.0293 -61.9708 61.5844 -63.7462 67.1682 -65.2352ZM52.6505 111.039C45.8927 110.609 38.5623 109.636 31.461 108.089C38.6196 110.237 45.6923 111.153 52.6505 111.039ZM32.8927 110.982C28.7693 109.75 24.6459 108.147 20.4653 106.085C-21.7706 82.5761 15.1679 76.5629 32.9499 79.5695C22.3265 75.1311 -8.88507 69.662 -0.0370026 92.226C-1.98415 89.792 -6.02162 86.2986 -5.16258 79.7127C-10.8895 95.4616 13.8794 106.83 32.8927 110.982ZM0.277969 -31.9619C-15.1274 -22.5984 -24.1186 -13.1777 -34.9711 1.65501C-24.1186 -11.9177 -15.3278 -20.9662 0.277969 -31.9619ZM81.6 59.9549V57.5496C77.4193 56.8623 64.8488 53.1971 60.6968 51.9372C66.4523 54.1993 80.2828 59.0958 81.6 59.9549ZM-31.9931 -68.9004H-22.0569C-2.52821 -58.5347 -28.1561 -41.1536 -32.4226 -29.1271C-25.0063 -32.8209 -13.2948 -46.6227 -12.8939 -57.2748C-11.7199 -45.3628 -19.5944 -35.3694 4.48724 -57.103C8.61061 -59.8233 9.38374 -64.2616 7.80884 -68.9004H9.26921C11.8463 -44.2461 -37.7486 -31.7042 -42.731 -19.5631C-30.5614 -22.2548 -50.8346 -13.0058 -47.828 -11.0873C-34.8279 -19.6204 -24.7772 -31.8187 -11.5194 -39.9795C-42.4447 -18.3319 -76.1761 20.7829 -74.9449 58.8668C-83.9647 11.3335 -24.1473 -40.1514 -27.1539 -59.1074C-28.6429 -68.3277 -30.6187 -66.4665 -31.9931 -68.9004ZM-37.8059 -29.4993C-39.4667 -29.9288 -42.5592 -27.0368 -42.6165 -23.9729C-40.7839 -26.0632 -39.2949 -27.7812 -37.8059 -29.4993ZM-21.7992 -57.7902C-22.1715 -58.9356 -22.5151 -59.9664 -22.9446 -61.3122C-24.3477 -58.8783 -24.0041 -57.7902 -21.7992 -57.7902ZM-18.7067 -56.5876C-19.5657 -58.0479 -19.2794 -61.3982 -20.8829 -60.7968C-20.253 -59.5083 -22.4006 -57.3034 -18.7067 -56.5876ZM-28.7001 -68.1273C-25.9226 -58.7065 -24.5481 -68.1845 -18.3344 -61.9422C-18.9071 -65.407 -23.7464 -68.5854 -28.7001 -68.1273ZM-91.0661 102.62C-83.5925 116.995 -78.6673 125.671 -56.4183 130.682C-69.9911 124.755 -80.5286 117.138 -91.0661 102.62ZM-136.309 104.424V106.858C-123.452 121.061 -109.936 137.44 -95.0176 143.968C-92.2115 145.744 -89.3766 147.433 -86.5132 149.008H-82.4471C-92.4978 144.169 -101.546 138.356 -109.134 131.627C-118.154 125.557 -127.117 114.589 -136.309 104.424ZM-136.309 -31.7042V-33.8804C-68.7312 -60.8827 -93.3568 16.4304 -96.5066 35.5869C-99.6564 54.7434 -92.2115 91.7392 -86.1982 82.7766C-80.185 73.814 -101.088 61.3866 -60.914 -16.4133C-78.4383 8.26958 -89.348 51.6509 -93.8436 51.7654C-98.3392 51.8799 -95.9339 37.0473 -93.3568 31.3204C-96.5066 88.303 -49.1452 -76.8608 -133.731 -40.8099C-134.419 -40.4377 -135.278 -40.0654 -136.309 -39.6646V-46.6227C-111.339 -59.5655 -96.793 -67.3541 -76.033 -67.3541C-55.273 -67.3541 -38.8081 -62.973 -34.742 -56.8166C-38.8368 -18.9905 -119.071 38.6222 -64.5219 108.719C-52.9536 121.519 -58.4228 122.378 -70.7356 112.929C-83.0484 103.479 -96.1344 81.4021 -101.289 54.6861C-100.916 70.5783 -98.7115 86.2986 -91.8679 99.4132C-99.1124 89.4484 -102.234 81.1444 -104.152 62.3029C-106.071 43.4614 -100.286 16.1154 -99.7137 -5.13136C-98.7974 1.54048 -98.826 5.69248 -99.0837 11.5626C-86.0264 -33.3936 -111.425 -41.1536 -136.309 -31.7042ZM-105.698 -57.8188C-110.251 -56.9312 -119.242 -53.8959 -122.621 -51.147C-116.98 -53.3805 -111.339 -55.5853 -105.698 -57.8188ZM-46.5681 -58.277C-42.3588 -54.2682 -43.676 -47.5391 -46.024 -41.984C-45.709 -42.4421 -45.3654 -42.9289 -44.9932 -43.4157C-41.0989 -49.028 -42.3874 -54.7836 -46.5681 -58.277ZM-46.8544 -54.7263C-46.5108 -50.0303 -47.0262 -45.9069 -48.5438 -41.1822C-44.6496 -46.9664 -44.0482 -51.777 -46.8544 -54.7263ZM-73.7995 -62.6581C-69.2466 -62.6581 -64.7223 -62.6581 -60.1695 -62.6581C-64.0351 -63.0303 -69.8765 -63.0303 -73.7995 -62.6581ZM-47.8853 -53.495C-52.3809 -64.1184 -70.4779 -62.114 -80.185 -60.5964C-69.5329 -60.625 -55.1584 -63.1449 -47.8853 -53.495ZM-49.5461 -41.669C-52.6386 -35.2549 -58.9954 -31.561 -62.6607 -25.6623C-58.7091 -25.8914 -49.9756 -37.2306 -49.5461 -41.669ZM74.5272 6.89513C68.8003 0.738716 68.514 -0.378029 71.5206 -4.38686C65.6219 -1.46614 70.5757 4.60438 74.5272 6.89513ZM61.7849 -59.3078C68.3708 -59.6514 75.0426 -57.8761 81.6 -56.3585V-56.6162C75.1572 -59.136 68.7717 -61.7131 61.7849 -59.3078ZM81.6 47.8711V44.435C74.3554 42.2301 67.2827 40.2543 60.1527 39.4239C66.9104 41.6001 74.2695 46.5539 81.6 47.8711ZM-136.309 116.279C-124.855 127.675 -113.344 139.129 -101.117 149.008H-95.2754C-109.65 136.695 -122.879 121.605 -136.309 110.266V116.279ZM-136.309 118.341V131.856C-128.062 135.951 -119.013 141.62 -109.134 149.008H-104.696C-115.634 142.05 -126 129.623 -136.309 118.341ZM81.6 9.98766V-6.76352C79.7673 -5.70405 77.7916 -4.6732 75.6726 -3.671C73.84 1.59775 76.7607 6.55152 81.6 9.98766ZM67.34 -4.4155C60.7254 -1.17979 65.5646 2.11317 68.6858 5.60658C65.9655 0.280563 62.9589 -0.263496 67.34 -4.4155ZM50.5602 -43.6161C65.2783 -47.7109 72.1219 -43.7879 81.6 -38.9201V-39.6073C71.8642 -44.3606 66.9964 -49.4289 50.5602 -43.6161ZM81.6 -17.4156V-17.4442C81.4854 -17.3869 81.3709 -17.3297 81.2563 -17.2724C81.3709 -17.3297 81.4854 -17.3869 81.6 -17.4156ZM79.7101 149.008C80.34 148.665 80.97 148.35 81.6 148.006V146.431C80.34 147.319 79.0515 148.149 77.7629 149.008H79.7101ZM-135.936 -68.9004C-136.022 -68.8718 -136.108 -68.8431 -136.165 -68.8145C-136.08 -68.8431 -135.994 -68.8718 -135.908 -68.9004H-135.936ZM-136.309 -68.7859C-136.251 -68.7859 -136.223 -68.8145 -136.165 -68.8145C-136.223 -68.8145 -136.251 -68.7859 -136.309 -68.7859ZM-126.802 -68.9004C-130.353 -67.4973 -133.531 -66.3806 -136.309 -65.5215V-56.3012C-124.11 -61.2263 -111.568 -65.407 -99.5419 -68.9004H-126.802ZM-48.6011 149.008H-43.7905C-50.5483 146.546 -68.5594 136.438 -70.8215 135.178C-62.317 141.22 -54.5285 145.944 -48.6011 149.008ZM-136.309 -18.2746V-23.1425C-74.6012 -38.8914 -133.731 73.0408 -86.2555 123.323C-130.009 95.748 -111.397 36.1882 -115.663 -4.5014C-117.066 -17.931 -126 -19.3054 -136.309 -18.2746ZM-119.987 -19.9354C-105.383 -3.90008 -114.976 29.6023 -114.088 53.6839C-114.174 36.4173 -95.6476 -14.4948 -119.987 -19.9354ZM34.2385 149.008C49.8443 144.942 64.6197 138.471 77.3048 129.451C78.7651 128.019 80.1969 126.616 81.5713 125.27V119.83C61.384 132.372 40.5094 143.024 19.8353 149.008H34.2385ZM-84.6233 124.955C-81.2731 128.22 -77.2643 131.112 -72.4537 133.546L-84.6233 124.955ZM43.2297 44.4922C26.1922 32.5803 68.6572 55.0584 81.6 56.5474V51.5363C60.9258 45.7235 7.57977 29.1441 43.2297 44.4922ZM-114.117 95.8339C-110.538 104.625 -106.815 118.369 -84.1938 130.396C-101.661 116.078 -107.674 106.915 -114.117 95.8339ZM-129.436 63.391C-128.577 75.4175 -122.135 83.5211 -116.264 90.5938C-130.811 47.2984 -101.775 -15.2966 -136.309 -15.9552V-12.1182C-133.531 -12.5191 -133.159 -15.6402 -127.861 -13.0345C-114.46 -5.64678 -119.3 16.9172 -122.507 27.9129C-123.251 17.5758 -117.639 2.71449 -127.432 -4.35823C-136.881 -7.42212 -125.685 7.58237 -127.518 12.1925C-129.522 6.0361 -132.557 2.02727 -136.309 -0.320763V6.83786C-125.714 16.8886 -128.234 44.9217 -127.861 56.9482C-132.157 48.3865 -133.846 38.5363 -136.309 29.1441V74.4439C-130.009 85.8691 -124.769 98.1533 -120.846 107.46C-126.115 100.845 -131.126 92.77 -136.309 84.8383V98.8405C-122.994 111.611 -109.449 128.391 -94.7599 139.53C-102.234 135.035 -109.364 129.88 -116.064 124.068C-106.901 132.601 -96.7357 139.673 -85.9119 145.4C-84.3942 146.259 -82.8766 147.032 -81.3304 147.72C-80.4427 148.149 -79.5836 148.55 -78.696 148.98H-50.6055C-110.251 135.264 -131.441 79.14 -129.436 63.391ZM74.1836 149.008C76.7034 147.806 79.1947 146.517 81.6 145.143V129.88C67.9413 138.356 54.7694 144.627 42.113 149.008H74.1836ZM59.2078 59.7544C67.5977 64.1928 74.7277 67.6862 81.6 67.6003V60.2985C80.8841 60.2699 78.8224 59.7544 74.9567 58.5804C89.6462 72.5254 69.4017 65.0232 59.2078 59.7544ZM-136.309 149.008H-118.097C-124.225 145.486 -130.353 141.907 -136.309 138.757V149.008ZM-36.9469 28.9723C-36.9469 28.9437 -36.9182 28.9151 -36.9182 28.8864C-36.9182 28.9151 -36.9182 28.9437 -36.9469 28.9723ZM-36.6033 28.2851C-36.7178 28.4855 -36.8037 28.686 -36.9182 28.8864C-36.8037 28.686 -36.7178 28.4855 -36.6033 28.2851ZM-36.4887 28.0847C-36.5174 28.1419 -36.546 28.1706 -36.5746 28.2278C-36.546 28.1706 -36.5174 28.1419 -36.4887 28.0847ZM-36.5746 28.2278C-36.5746 28.2565 -36.6033 28.2565 -36.6033 28.2851C-36.6033 28.2565 -36.5746 28.2565 -36.5746 28.2278ZM-34.3698 29.8886C-51.8368 47.0693 -43.8192 88.8757 -38.3213 75.1884C-27.5834 48.5297 -2.29913 24.4481 29.4852 38.1926C13.1635 28.7433 43.2011 34.642 61.4699 37.8204C41.3685 33.2102 20.4939 26.9393 0.621597 33.1243C6.83528 30.2609 10.5005 29.0582 17.4587 29.0296C1.16565 27.3688 -12.2926 31.034 -26.1803 41.6288C-40.068 52.2235 -20.0525 17.0031 -22.916 15.285C-25.579 13.6815 -32.938 21.241 -36.4887 28.0847C-31.8786 19.3511 -25.4644 21.1265 -34.3698 29.8886ZM-37.2332 29.6023C-37.1473 29.3732 -37.0328 29.1728 -36.9469 28.9723C-37.0328 29.1728 -37.1473 29.4018 -37.2332 29.6023ZM23.4719 29.0296C40.8531 30.8049 51.3906 35.4437 68.1417 37.3336C51.0756 33.7543 40.0799 28.9151 23.4719 29.0296ZM59.2078 59.7544C58.7496 59.5253 58.3201 59.2676 57.862 59.0386C58.2628 59.2963 58.721 59.5253 59.2078 59.7544ZM-108.247 -64.7198C-105.584 -65.6933 -102.921 -66.6669 -100.258 -67.6405C-103.379 -68.6713 -105.841 -66.1515 -108.247 -64.7198ZM-88.7181 -68.9004H-93.4427C-112.742 -60.8541 -150.597 -46.4796 -88.7181 -68.9004ZM-12.3498 135.407C0.822021 141.449 -12.5789 143.024 -19.8807 142.823C-8.9137 144.513 3.85728 140.389 -12.3498 135.407ZM1.76697 138.471C10.0996 144.312 -1.12512 144.885 -6.33659 145.457C-0.552429 145.085 15.6547 144.283 1.76697 138.471ZM17.4301 138.127C35.7848 145.887 16.5424 147.29 6.29121 149.008H10.0423C21.897 147.691 39.5932 143.625 17.4301 138.127ZM81.6 40.3402V39.2521C78.5647 39.2235 75.4722 39.023 72.3224 38.6794C75.4722 39.3094 78.5647 39.8821 81.6 40.3402ZM-45.2509 92.3118C-41.5284 98.6114 -34.3698 103.479 -31.22 104.052C-35.2288 102.048 -40.9557 97.4661 -45.2509 92.3118ZM-12.6076 111.497C-48.9161 74.3294 -14.3256 40.4834 10.3 36.1882C-6.5943 36.7609 -41.8147 62.532 -33.2244 87.444C-39.2376 86.7854 -46.1099 76.8492 -47.9998 66.9703C-46.6826 81.7171 -36.3742 97.4661 -12.6076 111.497ZM-34.3698 97.7524C-45.8236 87.444 -50.8632 71.8668 -50.9205 61.5584C-52.1518 72.2963 -49.5461 86.2986 -34.3698 97.7524ZM81.6 42.1442V41.3711C79.5096 41.1706 77.3907 40.9129 75.2431 40.5693C77.5339 41.0847 79.6528 41.6001 81.6 42.1442ZM81.6 -54.0964V-48.3981C74.2695 -51.0325 73.8687 -54.0105 55.3708 -51.1184C36.8729 -48.2263 -14.7551 -21.6248 -25.9799 -1.06526C-7.16701 -23.9442 67.6263 -60.8255 81.6 -34.0522V-20.7658C62.7298 -8.51023 5.66127 -3.35602 11.789 7.38192C14.5093 10.8753 22.8992 14.4546 30.9169 9.01408C15.1679 5.57795 43.3729 -4.6732 47.6681 -6.47718C12.5622 9.47224 42.657 6.72333 58.1769 8.55593C73.6968 10.3885 75.0426 13.796 81.6 16.2586V16.9745C67.5404 13.1661 65.2783 8.75638 38.3619 9.75858C68.7144 11.5912 54.6835 21.3269 81.6 21.9855V34.8138C52.6791 35.0715 44.3751 26.7102 22.8419 26.7102C1.30881 26.7102 -11.5767 28.4283 -20.253 33.697C-35.5152 43.6332 -13.4666 11.5626 -11.4049 6.80923C2.02469 -22.5411 -46.8544 26.3093 -50.9205 61.5584C-51.0637 31.4063 -24.3477 -6.47718 6.57756 -8.19525C16.3133 -8.76794 -42.6738 38.7653 -13.1802 29.8886C-37.2332 28.4569 43.2297 -14.2085 18.919 -13.8076C-22.5724 -13.1204 -41.4711 18.6639 -53.0681 47.2411C-57.1056 1.74093 35.7848 -61.9708 81.6 -54.0964ZM31.8618 10.9899C34.4962 12.6507 39.994 11.9348 44.1747 12.3071C40.0799 11.5912 36.0425 9.98766 31.8618 10.9899ZM8.15247 25.3644C-0.953308 24.7631 -20.3389 30.7477 -5.73528 17.0031C-23.4887 31.8931 -2.07005 26.4811 8.15247 25.3644Z" fill="#02C9BF"/>
<rect x="-136.309" y="-68.9004" width="217.909" height="217.909" fill="#42E8E0"/>
</g>
<path fill-rule="evenodd" clip-rule="evenodd" d="M16.3132 28.1709C15.0481 28.1709 14.0225 29.1965 14.0225 30.4617V71.6953C14.0225 72.9605 15.0481 73.9861 16.3132 73.9861H69.0007C70.2659 73.9861 71.2915 72.9605 71.2915 71.6953V30.4617C71.2915 29.1965 70.2659 28.1709 69.0007 28.1709H16.3132ZM42.5169 43.7575C44.9802 43.6052 47.0237 45.554 47.0191 47.9834C47.0169 49.2382 46.4698 50.3673 45.6043 51.1462C45.6017 52.9195 45.5988 54.6929 45.5953 56.4662C45.5936 57.2468 44.9642 57.8821 44.1897 57.8836C43.2545 57.8854 42.3195 57.8854 41.3842 57.8836C40.6099 57.8821 39.9803 57.2466 39.9787 56.4662C39.9752 54.6929 39.9722 52.9195 39.9696 51.1462C39.0493 50.318 38.4887 49.093 38.5613 47.7422C38.6751 45.6206 40.3953 43.8892 42.5169 43.7575Z" fill="url(#paint2_linear_2166_102577)"/>
<path fill-rule="evenodd" clip-rule="evenodd" d="M16.3132 28.1709C15.0481 28.1709 14.0225 29.1965 14.0225 30.4617V71.6953C14.0225 72.9605 15.0481 73.9861 16.3132 73.9861H69.0007C70.2659 73.9861 71.2915 72.9605 71.2915 71.6953V30.4617C71.2915 29.1965 70.2659 28.1709 69.0007 28.1709H16.3132ZM42.5169 43.7575C44.9802 43.6052 47.0237 45.554 47.0191 47.9834C47.0169 49.2382 46.4698 50.3673 45.6043 51.1462C45.6017 52.9195 45.5988 54.6929 45.5953 56.4662C45.5936 57.2468 44.9642 57.8821 44.1897 57.8836C43.2545 57.8854 42.3195 57.8854 41.3842 57.8836C40.6099 57.8821 39.9803 57.2466 39.9787 56.4662C39.9752 54.6929 39.9722 52.9195 39.9696 51.1462C39.0493 50.318 38.4887 49.093 38.5613 47.7422C38.6751 45.6206 40.3953 43.8892 42.5169 43.7575Z" fill="url(#paint3_radial_2166_102577)"/>
</g>
</g>
<defs>
<filter id="filter0_ddddd_2166_102577" x="5.14606" y="24.4482" width="75.0223" height="43.2381" filterUnits="userSpaceOnUse" color-interpolation-filters="sRGB">
<feFlood flood-opacity="0" result="BackgroundImageFix"/>
<feColorMatrix in="SourceAlpha" type="matrix" values="0 0 0 0 0 0 0 0 0 0 0 0 0 0 0 0 0 0 127 0" result="hardAlpha"/>
<feOffset dy="0.57269"/>
<feGaussianBlur stdDeviation="0.286345"/>
<feColorMatrix type="matrix" values="0 0 0 0 0 0 0 0 0 0 0 0 0 0 0 0 0 0 0.1 0"/>
<feBlend mode="normal" in2="BackgroundImageFix" result="effect1_dropShadow_2166_102577"/>
<feColorMatrix in="SourceAlpha" type="matrix" values="0 0 0 0 0 0 0 0 0 0 0 0 0 0 0 0 0 0 127 0" result="hardAlpha"/>
<feOffset dy="1.14538"/>
<feGaussianBlur stdDeviation="0.57269"/>
<feColorMatrix type="matrix" values="0 0 0 0 0 0 0 0 0 0 0 0 0 0 0 0 0 0 0.1 0"/>
<feBlend mode="normal" in2="effect1_dropShadow_2166_102577" result="effect2_dropShadow_2166_102577"/>
<feColorMatrix in="SourceAlpha" type="matrix" values="0 0 0 0 0 0 0 0 0 0 0 0 0 0 0 0 0 0 127 0" result="hardAlpha"/>
<feOffset dy="2.29076"/>
<feGaussianBlur stdDeviation="1.14538"/>
<feColorMatrix type="matrix" values="0 0 0 0 0 0 0 0 0 0 0 0 0 0 0 0 0 0 0.1 0"/>
<feBlend mode="normal" in2="effect2_dropShadow_2166_102577" result="effect3_dropShadow_2166_102577"/>
<feColorMatrix in="SourceAlpha" type="matrix" values="0 0 0 0 0 0 0 0 0 0 0 0 0 0 0 0 0 0 127 0" result="hardAlpha"/>
<feOffset dy="4.58152"/>
<feGaussianBlur stdDeviation="2.29076"/>
<feColorMatrix type="matrix" values="0 0 0 0 0 0 0 0 0 0 0 0 0 0 0 0 0 0 0.1 0"/>
<feBlend mode="normal" in2="effect3_dropShadow_2166_102577" result="effect4_dropShadow_2166_102577"/>
<feColorMatrix in="SourceAlpha" type="matrix" values="0 0 0 0 0 0 0 0 0 0 0 0 0 0 0 0 0 0 127 0" result="hardAlpha"/>
<feOffset dy="13.7446"/>
<feGaussianBlur stdDeviation="6.87228"/>
<feColorMatrix type="matrix" values="0 0 0 0 0 0 0 0 0 0 0 0 0 0 0 0 0 0 0.1 0"/>
<feBlend mode="normal" in2="effect4_dropShadow_2166_102577" result="effect5_dropShadow_2166_102577"/>
<feBlend mode="normal" in="SourceGraphic" in2="effect5_dropShadow_2166_102577" result="shape"/>
</filter>
<filter id="filter1_biii_2166_102577" x="16.0272" y="21.5848" width="53.2601" height="21.4759" filterUnits="userSpaceOnUse" color-interpolation-filters="sRGB">
<feFlood flood-opacity="0" result="BackgroundImageFix"/>
<feGaussianBlur in="BackgroundImage" stdDeviation="1.43173"/>
<feComposite in2="SourceAlpha" operator="in" result="effect1_backgroundBlur_2166_102577"/>
<feBlend mode="normal" in="SourceGraphic" in2="effect1_backgroundBlur_2166_102577" result="shape"/>
<feColorMatrix in="SourceAlpha" type="matrix" values="0 0 0 0 0 0 0 0 0 0 0 0 0 0 0 0 0 0 127 0" result="hardAlpha"/>
<feOffset dy="-1.14538"/>
<feGaussianBlur stdDeviation="0.143173"/>
<feComposite in2="hardAlpha" operator="arithmetic" k2="-1" k3="1"/>
<feColorMatrix type="matrix" values="0 0 0 0 0.920833 0 0 0 0 0.920833 0 0 0 0 0.920833 0 0 0 0.1 0"/>
<feBlend mode="normal" in2="shape" result="effect2_innerShadow_2166_102577"/>
<feColorMatrix in="SourceAlpha" type="matrix" values="0 0 0 0 0 0 0 0 0 0 0 0 0 0 0 0 0 0 127 0" result="hardAlpha"/>
<feOffset dx="-0.286345"/>
<feGaussianBlur stdDeviation="0.143173"/>
<feComposite in2="hardAlpha" operator="arithmetic" k2="-1" k3="1"/>
<feColorMatrix type="matrix" values="0 0 0 0 0.920833 0 0 0 0 0.920833 0 0 0 0 0.920833 0 0 0 0.1 0"/>
<feBlend mode="normal" in2="effect2_innerShadow_2166_102577" result="effect3_innerShadow_2166_102577"/>
<feColorMatrix in="SourceAlpha" type="matrix" values="0 0 0 0 0 0 0 0 0 0 0 0 0 0 0 0 0 0 127 0" result="hardAlpha"/>
<feOffset dx="0.286345"/>
<feGaussianBlur stdDeviation="0.143173"/>
<feComposite in2="hardAlpha" operator="arithmetic" k2="-1" k3="1"/>
<feColorMatrix type="matrix" values="0 0 0 0 0.920833 0 0 0 0 0.920833 0 0 0 0 0.920833 0 0 0 0.1 0"/>
<feBlend mode="normal" in2="effect3_innerShadow_2166_102577" result="effect4_innerShadow_2166_102577"/>
</filter>
<filter id="filter2_ddddd_2166_102577" x="9.72712" y="0.681641" width="65.7059" height="62.4237" filterUnits="userSpaceOnUse" color-interpolation-filters="sRGB">
<feFlood flood-opacity="0" result="BackgroundImageFix"/>
<feColorMatrix in="SourceAlpha" type="matrix" values="0 0 0 0 0 0 0 0 0 0 0 0 0 0 0 0 0 0 127 0" result="hardAlpha"/>
<feOffset dy="0.57269"/>
<feGaussianBlur stdDeviation="0.286345"/>
<feColorMatrix type="matrix" values="0 0 0 0 0 0 0 0 0 0 0 0 0 0 0 0 0 0 0.1 0"/>
<feBlend mode="normal" in2="BackgroundImageFix" result="effect1_dropShadow_2166_102577"/>
<feColorMatrix in="SourceAlpha" type="matrix" values="0 0 0 0 0 0 0 0 0 0 0 0 0 0 0 0 0 0 127 0" result="hardAlpha"/>
<feOffset dy="1.14538"/>
<feGaussianBlur stdDeviation="0.57269"/>
<feColorMatrix type="matrix" values="0 0 0 0 0 0 0 0 0 0 0 0 0 0 0 0 0 0 0.1 0"/>
<feBlend mode="normal" in2="effect1_dropShadow_2166_102577" result="effect2_dropShadow_2166_102577"/>
<feColorMatrix in="SourceAlpha" type="matrix" values="0 0 0 0 0 0 0 0 0 0 0 0 0 0 0 0 0 0 127 0" result="hardAlpha"/>
<feOffset dy="2.29076"/>
<feGaussianBlur stdDeviation="1.14538"/>
<feColorMatrix type="matrix" values="0 0 0 0 0 0 0 0 0 0 0 0 0 0 0 0 0 0 0.1 0"/>
<feBlend mode="normal" in2="effect2_dropShadow_2166_102577" result="effect3_dropShadow_2166_102577"/>
<feColorMatrix in="SourceAlpha" type="matrix" values="0 0 0 0 0 0 0 0 0 0 0 0 0 0 0 0 0 0 127 0" result="hardAlpha"/>
<feOffset dy="4.58152"/>
<feGaussianBlur stdDeviation="2.29076"/>
<feColorMatrix type="matrix" values="0 0 0 0 0 0 0 0 0 0 0 0 0 0 0 0 0 0 0.1 0"/>
<feBlend mode="normal" in2="effect3_dropShadow_2166_102577" result="effect4_dropShadow_2166_102577"/>
<feColorMatrix in="SourceAlpha" type="matrix" values="0 0 0 0 0 0 0 0 0 0 0 0 0 0 0 0 0 0 127 0" result="hardAlpha"/>
<feOffset dy="13.7446"/>
<feGaussianBlur stdDeviation="6.87228"/>
<feColorMatrix type="matrix" values="0 0 0 0 0 0 0 0 0 0 0 0 0 0 0 0 0 0 0.1 0"/>
<feBlend mode="normal" in2="effect4_dropShadow_2166_102577" result="effect5_dropShadow_2166_102577"/>
<feBlend mode="normal" in="SourceGraphic" in2="effect5_dropShadow_2166_102577" result="shape"/>
</filter>
<filter id="filter3_biii_2166_102577" x="20.6082" y="-2.18181" width="43.9437" height="40.6615" filterUnits="userSpaceOnUse" color-interpolation-filters="sRGB">
<feFlood flood-opacity="0" result="BackgroundImageFix"/>
<feGaussianBlur in="BackgroundImage" stdDeviation="1.43173"/>
<feComposite in2="SourceAlpha" operator="in" result="effect1_backgroundBlur_2166_102577"/>
<feBlend mode="normal" in="SourceGraphic" in2="effect1_backgroundBlur_2166_102577" result="shape"/>
<feColorMatrix in="SourceAlpha" type="matrix" values="0 0 0 0 0 0 0 0 0 0 0 0 0 0 0 0 0 0 127 0" result="hardAlpha"/>
<feOffset dy="-1.14538"/>
<feGaussianBlur stdDeviation="0.143173"/>
<feComposite in2="hardAlpha" operator="arithmetic" k2="-1" k3="1"/>
<feColorMatrix type="matrix" values="0 0 0 0 0.920833 0 0 0 0 0.920833 0 0 0 0 0.920833 0 0 0 0.1 0"/>
<feBlend mode="normal" in2="shape" result="effect2_innerShadow_2166_102577"/>
<feColorMatrix in="SourceAlpha" type="matrix" values="0 0 0 0 0 0 0 0 0 0 0 0 0 0 0 0 0 0 127 0" result="hardAlpha"/>
<feOffset dx="-0.286345"/>
<feGaussianBlur stdDeviation="0.143173"/>
<feComposite in2="hardAlpha" operator="arithmetic" k2="-1" k3="1"/>
<feColorMatrix type="matrix" values="0 0 0 0 0.920833 0 0 0 0 0.920833 0 0 0 0 0.920833 0 0 0 0.1 0"/>
<feBlend mode="normal" in2="effect2_innerShadow_2166_102577" result="effect3_innerShadow_2166_102577"/>
<feColorMatrix in="SourceAlpha" type="matrix" values="0 0 0 0 0 0 0 0 0 0 0 0 0 0 0 0 0 0 127 0" result="hardAlpha"/>
<feOffset dx="0.286345"/>
<feGaussianBlur stdDeviation="0.143173"/>
<feComposite in2="hardAlpha" operator="arithmetic" k2="-1" k3="1"/>
<feColorMatrix type="matrix" values="0 0 0 0 0.920833 0 0 0 0 0.920833 0 0 0 0 0.920833 0 0 0 0.1 0"/>
<feBlend mode="normal" in2="effect3_innerShadow_2166_102577" result="effect4_innerShadow_2166_102577"/>
</filter>
<filter id="filter4_ddddiii_2166_102577" x="0.277901" y="27.8846" width="84.7577" height="73.5909" filterUnits="userSpaceOnUse" color-interpolation-filters="sRGB">
<feFlood flood-opacity="0" result="BackgroundImageFix"/>
<feColorMatrix in="SourceAlpha" type="matrix" values="0 0 0 0 0 0 0 0 0 0 0 0 0 0 0 0 0 0 127 0" result="hardAlpha"/>
<feOffset dy="1.14538"/>
<feGaussianBlur stdDeviation="0.57269"/>
<feColorMatrix type="matrix" values="0 0 0 0 0 0 0 0 0 0 0 0 0 0 0 0 0 0 0.1 0"/>
<feBlend mode="normal" in2="BackgroundImageFix" result="effect1_dropShadow_2166_102577"/>
<feColorMatrix in="SourceAlpha" type="matrix" values="0 0 0 0 0 0 0 0 0 0 0 0 0 0 0 0 0 0 127 0" result="hardAlpha"/>
<feOffset dy="2.29076"/>
<feGaussianBlur stdDeviation="1.14538"/>
<feColorMatrix type="matrix" values="0 0 0 0 0 0 0 0 0 0 0 0 0 0 0 0 0 0 0.1 0"/>
<feBlend mode="normal" in2="effect1_dropShadow_2166_102577" result="effect2_dropShadow_2166_102577"/>
<feColorMatrix in="SourceAlpha" type="matrix" values="0 0 0 0 0 0 0 0 0 0 0 0 0 0 0 0 0 0 127 0" result="hardAlpha"/>
<feOffset dy="4.58152"/>
<feGaussianBlur stdDeviation="2.29076"/>
<feColorMatrix type="matrix" values="0 0 0 0 0 0 0 0 0 0 0 0 0 0 0 0 0 0 0.1 0"/>
<feBlend mode="normal" in2="effect2_dropShadow_2166_102577" result="effect3_dropShadow_2166_102577"/>
<feColorMatrix in="SourceAlpha" type="matrix" values="0 0 0 0 0 0 0 0 0 0 0 0 0 0 0 0 0 0 127 0" result="hardAlpha"/>
<feOffset dy="13.7446"/>
<feGaussianBlur stdDeviation="6.87228"/>
<feColorMatrix type="matrix" values="0 0 0 0 0 0 0 0 0 0 0 0 0 0 0 0 0 0 0.1 0"/>
<feBlend mode="normal" in2="effect3_dropShadow_2166_102577" result="effect4_dropShadow_2166_102577"/>
<feBlend mode="normal" in="SourceGraphic" in2="effect4_dropShadow_2166_102577" result="shape"/>
<feColorMatrix in="SourceAlpha" type="matrix" values="0 0 0 0 0 0 0 0 0 0 0 0 0 0 0 0 0 0 127 0" result="hardAlpha"/>
<feOffset dy="-1.14538"/>
<feGaussianBlur stdDeviation="0.143173"/>
<feComposite in2="hardAlpha" operator="arithmetic" k2="-1" k3="1"/>
<feColorMatrix type="matrix" values="0 0 0 0 0 0 0 0 0 0 0 0 0 0 0 0 0 0 0.4 0"/>
<feBlend mode="normal" in2="shape" result="effect5_innerShadow_2166_102577"/>
<feColorMatrix in="SourceAlpha" type="matrix" values="0 0 0 0 0 0 0 0 0 0 0 0 0 0 0 0 0 0 127 0" result="hardAlpha"/>
<feOffset dx="-0.286345"/>
<feGaussianBlur stdDeviation="0.143173"/>
<feComposite in2="hardAlpha" operator="arithmetic" k2="-1" k3="1"/>
<feColorMatrix type="matrix" values="0 0 0 0 1 0 0 0 0 1 0 0 0 0 1 0 0 0 0.3 0"/>
<feBlend mode="normal" in2="effect5_innerShadow_2166_102577" result="effect6_innerShadow_2166_102577"/>
<feColorMatrix in="SourceAlpha" type="matrix" values="0 0 0 0 0 0 0 0 0 0 0 0 0 0 0 0 0 0 127 0" result="hardAlpha"/>
<feOffset dx="0.286345"/>
<feGaussianBlur stdDeviation="0.143173"/>
<feComposite in2="hardAlpha" operator="arithmetic" k2="-1" k3="1"/>
<feColorMatrix type="matrix" values="0 0 0 0 1 0 0 0 0 1 0 0 0 0 1 0 0 0 0.3 0"/>
<feBlend mode="normal" in2="effect6_innerShadow_2166_102577" result="effect7_innerShadow_2166_102577"/>
</filter>
<linearGradient id="paint0_linear_2166_102577" x1="42.6573" y1="24.4482" x2="42.6573" y2="40.1972" gradientUnits="userSpaceOnUse">
<stop stop-color="#42E8E0" stop-opacity="0.39"/>
<stop offset="1" stop-color="#42E8E0" stop-opacity="0.72"/>
</linearGradient>
<linearGradient id="paint1_linear_2166_102577" x1="42.5801" y1="0.681641" x2="42.5801" y2="35.6157" gradientUnits="userSpaceOnUse">
<stop stop-color="white" stop-opacity="0.67"/>
<stop offset="1" stop-color="#B3B3B3" stop-opacity="0.2"/>
</linearGradient>
<linearGradient id="paint2_linear_2166_102577" x1="42.6595" y1="27.9519" x2="42.6595" y2="73.6267" gradientUnits="userSpaceOnUse">
<stop stop-color="white" stop-opacity="0.4"/>
<stop offset="0.833333" stop-color="white" stop-opacity="0"/>
<stop offset="1" stop-color="white" stop-opacity="0.3"/>
</linearGradient>
<radialGradient id="paint3_radial_2166_102577" cx="0" cy="0" r="1" gradientUnits="userSpaceOnUse" gradientTransform="translate(14.0225 34.1858) scale(43.9148 54.5264)">
<stop stop-color="white" stop-opacity="0.7"/>
<stop offset="1" stop-color="white" stop-opacity="0"/>
</radialGradient>
<clipPath id="clip0_2166_102577">
<rect width="217.909" height="217.909" fill="white" transform="translate(-136.309 -68.9004)"/>
</clipPath>
</defs>
</svg>
