<svg width="95" height="94" viewBox="0 0 95 94" fill="none" xmlns="http://www.w3.org/2000/svg">
<g filter="url(#filter0_ddddiii_2166_102614)">
<mask id="mask0_2166_102614" style="mask-type:alpha" maskUnits="userSpaceOnUse" x="13" y="12" width="56" height="57">
<path d="M15.7925 68.19C14.6235 68.19 13.6758 67.2423 13.6758 66.0733V15.0974C13.6758 13.9298 14.6213 12.9827 15.7889 12.9807L66.8539 12.8952C68.0243 12.8932 68.9741 13.8414 68.9741 15.0118V66.0733C68.9741 67.2423 68.0265 68.19 66.8574 68.19H15.7925Z" fill="white"/>
</mask>
<g mask="url(#mask0_2166_102614)">
<g clip-path="url(#clip0_2166_102614)">
<rect width="201.349" height="201.349" transform="translate(-92.6875 -68.3369)" fill="#EE9C2D"/>
<path d="M-64.0064 -28.5168C-68.4779 -32.9883 -76.4155 -34.3112 -89.7771 -30.7922C-76.2303 -35.4489 -68.3986 -34.0466 -64.0064 -28.5168ZM108.662 59.7753V61.1247C98.0521 59.696 88.236 54.4836 77.9965 50.0121C97.6817 60.7278 103.423 66.4694 108.662 66.7339V92.1871C72.4932 105.258 21.9044 80.9686 43.6798 70.9408C53.0991 66.6016 95.4592 81.7624 78.2347 59.7224C81.1451 65.0141 81.6743 70.5704 71.673 68.9829C75.0597 68.4273 79.0284 67.1308 76.0915 62.6858C73.1546 58.2407 76.2238 69.9883 55.4803 63.9558C39.076 59.1933 15.2633 72.1579 30.8739 56.5474C-2.99305 81.1538 64.7408 110.549 103.794 99.4632C99.1105 100.707 91.6491 101.104 83.2089 100.574C91.9931 100.442 100.513 98.5106 108.636 95.2033V103.3C79.2136 122.588 51.7761 127.033 1.90178 107.877C44.8705 134.6 -4.79223 122.085 -5.90349 121.768C-1.96116 122.852 17.6446 125.631 15.7925 122.191C13.9404 118.751 -0.717613 119.889 -11.989 115.471C-7.33225 114.994 0.896358 118.09 -9.3431 109.253C10.5802 125.71 -4.8716 107.798 -15.799 99.7277C-17.3336 98.4577 -18.7888 97.1083 -20.1911 95.6796C-18.7623 96.8438 -17.5717 97.1083 -16.7779 96.1823C-19.7148 91.1022 -22.2813 86.3133 -24.5303 81.7889C-23.8953 82.6355 -23.2338 83.5086 -22.5194 84.3553C-63.6625 -0.576598 39.6052 -34.0996 44.2354 -63.495C43.865 -62.3308 43.2829 -61.1666 42.4627 -60.0289C43.7327 -63.4156 44.4207 -65.8763 44.0238 -68.3105H50.6384C50.7707 -67.9665 50.9295 -67.5961 51.0353 -67.2257C51.3793 -67.5961 51.6703 -67.9665 51.9349 -68.3105H60.8779C60.9043 -63.204 57.2001 -57.145 46.6167 -49.3926C54.7395 -54.552 61.5658 -60.8227 63.1004 -68.3369H67.4396C56.7239 -57.2243 41.5102 -40.6877 32.6466 -37.5392C3.1718 -23.7014 -15.4021 5.66763 -19.8207 34.481C-16.0636 21.9925 -8.86685 9.13369 0.922813 -3.11661C-13.4706 16.5421 -21.9374 39.2171 -20.0588 58.6641C-19.2121 64.432 -17.6775 69.9619 -15.4286 75.0948C-8.126 89.5941 7.74912 100.336 35.0014 103.432C1.84887 85.2549 -0.479486 39.5081 42.2511 34.2693C55.8772 32.0203 68.6302 35.9362 81.1716 40.3283C65.0848 36.2802 43.1771 29.6391 30.2918 40.4077C44.3942 38.7408 58.9464 40.3019 72.5196 44.8527C57.4647 41.8364 37.0123 34.2428 25.0795 47.8955C28.228 45.964 32.4614 42.2598 40.9281 42.2598C28.4926 44.6411 29.2864 48.0807 41.1398 47.3398C20.6873 48.6628 0.711146 64.2204 20.264 85.546C39.8169 106.872 59.7137 107.03 52.8609 111.502C40.6635 119.519 1.6372 101.791 -10.5602 84.2759C-10.9571 83.8526 -11.3275 83.4293 -11.7244 83.0059C4.20368 107.321 46.7755 124.678 72.0434 112.322C82.7326 107.083 -10.666 84.3289 22.3278 54.8541C31.2443 46.89 54.5278 46.8107 66.3283 57.0236C58.6554 52.0494 31.1385 49.2978 39.6052 57.0766C45.9553 62.8974 74.1601 66.3106 69.7944 58.5318C67.2808 55.2245 64.0529 52.7109 60.4281 50.8853C60.481 50.9117 60.5339 50.9117 60.5868 50.9382C29.8685 33.6343 64.635 43.6356 96.6498 56.8914C100.804 59.0345 104.826 59.8812 108.662 59.7753ZM-9.55476 85.3078C-9.55476 85.3078 1.90178 98.6429 20.8196 105.231C35.6893 110.391 48.7863 109.491 48.8657 108.935C48.9451 108.327 33.1493 108.433 14.4696 100.204C-0.849906 93.4571 -9.55476 85.3078 -9.55476 85.3078ZM28.6249 -38.0683C33.9166 -41.6667 39.2083 -45.2386 44.5 -48.837C40.0815 -47.0642 31.8793 -41.508 28.6249 -38.0683ZM-20.9849 62.8974C-21.1965 60.2516 -22.7576 51.7584 -22.5459 49.0067C-24.398 21.675 -11.936 -8.38186 15.5809 -27.2733C-18.4448 -6.13289 -30.2453 24.268 -20.9849 62.8974ZM-24.0805 19.9023C-20.6409 13.076 -17.0425 5.90575 -13.3913 -1.34389C-17.0425 2.99531 -24.3186 17.3888 -24.0805 19.9023ZM12.0354 108.512C-3.9191 100.839 -18.4713 89.0649 -25.9855 72.6871C-22.7576 86.6837 -1.51137 107.692 12.0354 108.512ZM79.4518 57.1295C81.6214 60.3574 82.9972 61.5745 86.1458 67.2367C97.3377 87.3716 35.4512 62.7652 42.1452 79.6192C46.2198 89.8852 74.7951 94.9123 83.2618 94.9123C59.9783 90.6789 44.5265 84.5405 46.1405 77.7672C48.6011 67.66 121.627 102.85 79.4518 57.1295ZM-39.2412 50.7265C-39.4 45.9904 -39.8498 35.8568 -38.9767 31.1472C-40.4583 34.9572 -39.8498 45.3025 -39.2412 50.7265ZM-20.1911 95.6531C-21.1965 94.6477 -22.149 93.6158 -23.0751 92.531C-22.0432 93.8804 -21.0642 94.9387 -20.1911 95.6531ZM-23.0751 92.5575C-29.3193 84.3818 -37.2569 69.7238 -38.9767 54.6953C-38.5004 69.9619 -33.1029 80.9422 -23.0751 92.5575ZM19.1528 -64.6063C20.5021 -62.3837 21.1107 -59.9496 21.3488 -57.6212C21.4282 -60.2141 20.7932 -62.6219 19.1528 -64.6063ZM15.8454 -68.3369H13.1731C15.8984 -67.4373 17.8298 -66.1673 19.1263 -64.6063C18.3325 -65.9292 17.2742 -67.1992 15.8454 -68.3369ZM-26.8057 78.2434C-32.8912 65.9137 -33.7908 61.2835 -35.5371 52.0494C-35.1931 63.0033 -34.2141 66.8662 -26.8057 78.2434ZM-35.0079 101.262C-25.4828 112.11 -2.72846 118.46 -14.8994 105.76C-11.4598 114.492 -27.5995 107.877 -35.0079 101.262ZM1.29324 -60.955C1.16095 -63.5215 0.578852 -65.9821 -0.532406 -68.3369H-6.2739C-4.5541 -67.5961 -2.94013 -66.6436 -1.432 -65.4C-4.07785 -66.379 -6.7237 -67.3315 -9.47539 -68.3369H-12.3065C-5.74474 -66.7229 -0.453024 -64.2623 1.29324 -60.955ZM108.662 -68.3369V-57.9387C91.0406 -65.2148 76.118 -59.1293 67.6513 -51.9326C59.1845 -44.7359 47.3311 -43.3601 38.0971 -37.7508C47.8338 -44.6036 61.3012 -47.4347 69.3446 -55.6368C77.388 -63.839 74.3453 -65.0296 75.9592 -68.3369H108.662ZM95.3269 -64.9502C89.6383 -64.8708 84.7699 -62.6483 80.0074 -60.0554C85.0345 -61.9339 90.1675 -63.5744 95.3269 -64.9502ZM81.9124 97.9286C75.6682 97.5317 68.8948 96.6321 62.3331 95.2033C68.9477 97.1877 75.483 98.0344 81.9124 97.9286ZM63.656 97.8756C59.846 96.7379 56.036 95.2562 52.173 93.3512C13.1467 71.6288 47.2782 66.0725 63.7089 68.8506C53.8928 64.7495 25.053 59.696 33.2287 80.5453C31.4295 78.2963 27.6989 75.0684 28.4926 68.9829C23.2009 83.5351 46.0876 94.0392 63.656 97.8756ZM33.5197 -34.2054C19.285 -25.5535 10.9771 -16.8486 0.949273 -3.14307C10.9771 -15.6844 19.0998 -24.0453 33.5197 -34.2054ZM108.662 50.7265V48.504C104.799 47.869 93.1837 44.4823 89.3473 43.3181C94.6654 45.4084 107.445 49.9328 108.662 50.7265ZM3.70096 -68.3369H12.8821C30.9268 -58.7589 7.2464 -42.6986 3.30408 -31.586C10.1568 -34.9992 20.9784 -47.7522 21.3488 -57.5947C22.4336 -46.588 15.1575 -37.354 37.4091 -57.436C41.2192 -59.9496 41.9336 -64.0506 40.4783 -68.3369H41.8277C44.209 -45.5561 -1.61721 -33.9673 -6.22099 -22.7488C5.02389 -25.236 -13.7088 -16.6898 -10.9306 -14.9171C1.08157 -22.8018 10.3685 -34.0731 22.6188 -41.6138C-5.95641 -21.6111 -37.1246 14.5312 -35.9868 49.7211C-44.3213 5.79992 10.9506 -41.7725 8.17246 -59.2881C6.79662 -67.8077 4.97097 -66.0879 3.70096 -68.3369ZM-1.67012 -31.93C-3.20472 -32.3268 -6.06223 -29.6545 -6.11515 -26.8235C-4.42181 -28.7549 -3.04596 -30.3424 -1.67012 -31.93ZM13.1202 -58.071C12.7762 -59.1293 12.4587 -60.0818 12.0619 -61.3254C10.7654 -59.0764 11.0829 -58.071 13.1202 -58.071ZM15.9777 -56.9597C15.184 -58.3091 15.4486 -61.4048 13.9669 -60.8491C14.549 -59.6585 12.5646 -57.6212 15.9777 -56.9597ZM6.74369 -67.6225C9.31017 -58.9177 10.5802 -67.6755 16.3217 -61.9075C15.7925 -65.109 11.321 -68.0459 6.74369 -67.6225ZM-50.883 90.1497C-43.9773 103.432 -39.4265 111.449 -18.8682 116.079C-31.4095 110.602 -41.1463 103.564 -50.883 90.1497ZM-92.6875 91.8166V94.0656C-80.8076 107.189 -68.3192 122.323 -54.5343 128.356C-51.9413 129.996 -49.322 131.557 -46.6761 133.013H-42.919C-52.2059 128.541 -60.5668 123.17 -67.5783 116.952C-75.9128 111.343 -84.1943 101.209 -92.6875 91.8166ZM-92.6875 -33.9673V-35.9781C-30.2453 -60.9285 -52.9997 10.5095 -55.9101 28.2103C-58.8206 45.9111 -51.9413 80.0955 -46.3851 71.814C-40.8288 63.5325 -60.1435 52.0494 -23.0222 -19.8384C-39.2148 2.96885 -49.2955 43.0535 -53.4495 43.1594C-57.6035 43.2652 -55.381 29.5597 -52.9997 24.268C-55.9101 76.9205 -12.1477 -75.6924 -90.3062 -42.3811C-90.9412 -42.0371 -91.735 -41.6932 -92.6875 -41.3227V-47.7522C-69.6157 -59.7114 -56.1747 -66.9082 -36.9923 -66.9082C-17.8098 -66.9082 -2.59617 -62.86 1.16095 -57.1714C-2.62262 -22.2197 -76.7595 31.0149 -26.3559 95.7854C-15.6667 107.612 -20.7203 108.406 -32.0974 99.6748C-43.4746 90.9435 -55.5662 70.544 -60.3287 45.8581C-59.9847 60.5426 -57.9474 75.0684 -51.6238 87.1864C-58.3179 77.9788 -61.2018 70.3058 -62.9746 52.8961C-64.7473 35.4864 -59.4027 10.2185 -58.8735 -9.41375C-58.0268 -3.24891 -58.0533 0.587584 -58.2914 6.01158C-46.2263 -35.5283 -69.695 -42.6986 -92.6875 -33.9673ZM-64.4033 -58.0975C-68.6102 -57.2772 -76.9182 -54.4726 -80.0403 -51.9326C-74.828 -53.9964 -69.6157 -56.0337 -64.4033 -58.0975ZM-9.76644 -58.5208C-5.87703 -54.8166 -7.09412 -48.5988 -9.26372 -43.4659C-8.97268 -43.8892 -8.65518 -44.339 -8.31122 -44.7888C-4.71285 -49.9747 -5.90349 -55.2929 -9.76644 -58.5208ZM-10.031 -55.2399C-9.71352 -50.9007 -10.1898 -47.0907 -11.5921 -42.725C-7.99371 -48.0697 -7.43808 -52.5147 -10.031 -55.2399ZM-34.9285 -62.569C-30.7216 -62.569 -26.5412 -62.569 -22.3342 -62.569C-25.9061 -62.9129 -31.3037 -62.9129 -34.9285 -62.569ZM-10.9835 -54.1022C-15.1375 -63.9183 -31.8593 -62.0662 -40.8288 -60.6639C-30.9862 -60.6904 -17.704 -63.0187 -10.9835 -54.1022ZM-12.5181 -43.1748C-15.3756 -37.2481 -21.2494 -33.835 -24.6361 -28.3845C-20.9849 -28.5962 -12.915 -39.0738 -12.5181 -43.1748ZM102.127 1.69885C96.835 -3.98974 96.5704 -5.02163 99.3486 -8.72582C93.8981 -6.02705 98.4755 -0.417837 102.127 1.69885ZM90.3527 -59.4733C96.4381 -59.7908 102.603 -58.1504 108.662 -56.7481V-56.9862C102.709 -59.3146 96.8086 -61.6958 90.3527 -59.4733ZM108.662 39.561V36.386C101.968 34.3487 95.4327 32.523 88.8445 31.7557C95.0888 33.7666 101.889 38.3439 108.662 39.561ZM-92.6875 102.77C-82.1041 113.301 -71.4678 123.884 -60.17 133.013H-54.7724C-68.0546 121.635 -80.2784 107.692 -92.6875 97.2142V102.77ZM-92.6875 104.675V117.164C-85.0674 120.947 -76.7065 126.186 -67.5783 133.013H-63.4773C-73.5844 126.583 -83.1624 115.1 -92.6875 104.675ZM108.662 4.55637V-10.9219C106.969 -9.94292 105.143 -8.99041 103.185 -8.06436C101.492 -3.19599 104.191 1.38134 108.662 4.55637ZM95.4856 -8.75228C89.3737 -5.76247 93.8452 -2.71973 96.7292 0.508212C94.2156 -4.41308 91.4375 -4.91579 95.4856 -8.75228ZM79.9809 -44.974C93.5806 -48.7576 99.9042 -45.1328 108.662 -40.6348V-41.2698C99.6661 -45.6619 95.1681 -50.3451 79.9809 -44.974ZM108.662 -20.7645V-20.7909C108.556 -20.738 108.45 -20.6851 108.344 -20.6322C108.45 -20.6851 108.556 -20.738 108.662 -20.7645ZM106.916 133.013C107.498 132.695 108.08 132.404 108.662 132.087V130.631C107.498 131.452 106.307 132.219 105.117 133.013H106.916ZM-92.3435 -68.3369C-92.4229 -68.3105 -92.5023 -68.284 -92.5552 -68.2575C-92.4758 -68.284 -92.3965 -68.3105 -92.3171 -68.3369H-92.3435ZM-92.6875 -68.2311C-92.6346 -68.2311 -92.6081 -68.2575 -92.5552 -68.2575C-92.6081 -68.2575 -92.6346 -68.2311 -92.6875 -68.2311ZM-83.9033 -68.3369C-87.1841 -67.0404 -90.121 -66.0086 -92.6875 -65.2148V-56.6952C-81.4162 -61.246 -69.8273 -65.109 -58.7147 -68.3369H-83.9033ZM-11.645 133.013H-7.19995C-13.4442 130.737 -30.0866 121.397 -32.1768 120.233C-24.3186 125.816 -17.1219 130.182 -11.645 133.013ZM-92.6875 -21.5582V-26.0562C-35.6693 -40.6084 -90.3062 62.8181 -46.438 109.279C-86.8666 83.7997 -69.6686 28.7659 -73.6109 -8.83166C-74.9074 -21.2407 -83.1624 -22.5107 -92.6875 -21.5582ZM-77.6061 -23.0928C-64.1123 -8.27603 -72.9759 22.6805 -72.1557 44.9321C-72.235 28.9776 -55.1164 -18.0657 -77.6061 -23.0928ZM64.8996 133.013C79.3195 129.255 92.9721 123.276 104.693 114.941C106.043 113.618 107.366 112.322 108.636 111.078V106.051C89.9823 117.64 70.694 127.483 51.5909 133.013H64.8996ZM-44.9298 110.787C-41.8342 113.804 -38.13 116.476 -33.685 118.725L-44.9298 110.787ZM73.2075 36.4389C57.4647 25.4322 96.7027 46.2021 108.662 47.578V42.9477C89.5589 37.5766 40.2667 22.2571 73.2075 36.4389ZM-72.1821 83.8791C-68.8748 92.0018 -65.4352 104.702 -44.533 115.815C-60.6727 102.585 -66.229 94.1185 -72.1821 83.8791ZM-86.3375 53.9015C-85.5437 65.0141 -79.5905 72.5019 -74.1665 79.0372C-87.6075 39.0318 -60.7785 -18.8065 -92.6875 -19.4151V-15.8696C-90.121 -16.24 -89.7771 -19.124 -84.8822 -16.7163C-72.4996 -9.89 -76.9711 10.9593 -79.9345 21.1194C-80.6224 11.5679 -75.4365 -2.16411 -84.4854 -8.69937C-93.2167 -11.5304 -82.8714 2.33385 -84.5647 6.59368C-86.4168 0.90509 -89.2214 -2.79911 -92.6875 -4.96871V1.64593C-82.8978 10.9329 -85.2262 36.8358 -84.8822 47.9484C-88.851 40.0373 -90.4121 30.9355 -92.6875 22.2571V64.1145C-86.8666 74.6715 -82.0247 86.0222 -78.3999 94.6212C-83.2683 88.5093 -87.8985 81.048 -92.6875 73.719V86.6572C-80.3843 98.4577 -67.8694 113.962 -54.2962 124.255C-61.2018 120.101 -67.79 115.338 -73.9813 109.967C-65.5146 117.852 -56.1218 124.387 -46.1205 129.679C-44.7182 130.473 -43.3159 131.187 -41.8871 131.822C-41.0669 132.219 -40.2731 132.589 -39.4529 132.986H-13.4971C-68.6102 120.312 -88.1895 68.4537 -86.3375 53.9015ZM101.809 133.013C104.138 131.901 106.439 130.711 108.662 129.441V115.338C96.0413 123.17 83.8703 128.964 72.1757 133.013H101.809ZM87.9714 50.5413C95.7238 54.6424 102.312 57.8703 108.662 57.791V51.044C108.001 51.0176 106.096 50.5413 102.524 49.4565C116.097 62.3418 97.3907 55.4097 87.9714 50.5413ZM-92.6875 133.013H-75.8599C-81.522 129.758 -87.1841 126.451 -92.6875 123.54V133.013ZM-0.876364 22.0984C-0.876364 22.0719 -0.849904 22.0455 -0.849904 22.019C-0.849904 22.0455 -0.849906 22.0719 -0.876364 22.0984ZM-0.558859 21.4634C-0.664693 21.6486 -0.74407 21.8338 -0.849904 22.019C-0.74407 21.8338 -0.664693 21.6486 -0.558859 21.4634ZM-0.453026 21.2782C-0.479485 21.3311 -0.505948 21.3575 -0.532406 21.4105C-0.505948 21.3575 -0.479485 21.3311 -0.453026 21.2782ZM-0.532406 21.4105C-0.532406 21.4369 -0.558859 21.4369 -0.558859 21.4634C-0.558859 21.4369 -0.532406 21.4369 -0.532406 21.4105ZM1.5049 22.9451C-14.6348 38.8202 -7.22641 77.4496 -2.14637 64.8025C7.77558 40.1696 31.1385 17.9179 60.5074 30.618C45.4261 21.8867 73.1811 27.3372 90.0616 30.2741C71.4877 26.0142 52.1995 20.2198 33.8372 25.9349C39.5787 23.289 42.9654 22.1778 49.3949 22.1513C34.34 20.6167 21.9044 24.0034 9.07205 33.7931C-3.76034 43.5827 14.7342 11.0387 12.0883 9.4512C9.62768 7.96952 2.82783 14.9546 -0.453026 21.2782C3.8068 13.2083 9.73351 14.8487 1.5049 22.9451ZM-1.14095 22.6805C-1.06157 22.4688 -0.95574 22.2836 -0.876364 22.0984C-0.95574 22.2836 -1.06157 22.4953 -1.14095 22.6805ZM54.9512 22.1513C71.0115 23.7917 80.7482 28.078 96.2265 29.8243C80.4572 26.517 70.2971 22.0455 54.9512 22.1513ZM87.9714 50.5413C87.5481 50.3296 87.1512 50.0915 86.7279 49.8798C87.0983 50.118 87.5216 50.3296 87.9714 50.5413ZM-66.7581 -64.474C-64.2975 -65.3736 -61.8368 -66.2731 -59.3762 -67.1727C-62.2602 -68.1252 -64.5356 -65.7969 -66.7581 -64.474ZM-48.7134 -68.3369H-53.0791C-70.9121 -60.9021 -105.89 -47.6199 -48.7134 -68.3369ZM21.8515 120.445C34.0224 126.028 21.6399 127.483 14.8929 127.298C25.0265 128.859 36.8271 125.049 21.8515 120.445ZM34.8956 123.276C42.595 128.673 32.2233 129.203 27.4078 129.732C32.7524 129.388 47.728 128.647 34.8956 123.276ZM49.3684 122.958C66.3283 130.129 48.5482 131.425 39.076 133.013H42.5421C53.4959 131.795 69.8473 128.038 49.3684 122.958ZM108.662 32.6024V31.597C105.857 31.5705 103 31.3853 100.089 31.0678C103 31.6499 105.857 32.1791 108.662 32.6024ZM-8.54934 80.6247C-5.10973 86.4455 1.5049 90.9435 4.41534 91.4727C0.711148 89.6206 -4.58056 85.3872 -8.54934 80.6247ZM21.6134 98.3519C-11.936 64.0087 20.0259 32.7347 42.7802 28.7659C27.1697 29.2951 -5.37432 53.1078 2.56325 76.1267C-2.99305 75.5182 -9.3431 66.3371 -11.0894 57.2089C-9.87227 70.835 -0.347193 85.3872 21.6134 98.3519ZM1.5049 85.6518C-9.07851 76.1267 -13.7352 61.7333 -13.7881 52.2082C-14.9258 62.1302 -12.5181 75.0684 1.5049 85.6518ZM108.662 34.2693V33.5549C106.731 33.3697 104.773 33.1316 102.788 32.8141C104.905 33.2903 106.863 33.7666 108.662 34.2693ZM108.662 -54.6578V-49.3926C101.889 -51.8268 101.518 -54.5785 84.426 -51.9062C67.3338 -49.2338 19.629 -24.6539 9.25725 -5.65663C26.6405 -26.797 95.7502 -60.8756 108.662 -36.1369V-23.8601C91.2258 -12.5359 38.4939 -7.77332 44.1561 2.14864C46.6696 5.37658 54.422 8.6839 61.8304 3.65678C47.2782 0.481752 73.3398 -8.99041 77.3086 -10.6573C44.8705 4.08011 72.6784 1.54009 87.0189 3.23344C101.359 4.92678 102.603 8.07535 108.662 10.3508V11.0122C95.6709 7.49326 93.5806 3.41865 68.7096 4.3447C96.7557 6.03805 83.791 15.0339 108.662 15.6425V27.4959C81.9389 27.734 74.2659 20.0082 54.3691 20.0082C34.4722 20.0082 22.5659 21.5957 14.549 26.464C0.44656 35.6451 20.8196 6.01158 22.7247 1.61947C35.1337 -25.5005 -10.031 19.6377 -13.7881 52.2082C-13.9204 24.3474 10.7654 -10.6573 39.3406 -12.2448C48.3365 -12.774 -6.16807 31.1472 21.0842 22.9451C-1.14095 21.6221 73.2075 -17.8011 50.7442 -17.4307C12.4058 -16.7957 -5.05681 12.5733 -15.7725 38.9789C-19.5032 -3.06369 66.3283 -61.9339 108.662 -54.6578ZM62.7035 5.48241C65.1377 7.01701 70.2177 6.35555 74.0807 6.69951C70.2971 6.03805 66.5665 4.55637 62.7035 5.48241ZM40.7958 18.7646C32.382 18.209 14.4696 23.7388 27.9634 11.0387C11.5591 24.7971 31.3501 19.7965 40.7958 18.7646Z" fill="#02C9BF"/>
<rect x="-92.6875" y="-68.3369" width="201.349" height="201.349" fill="#42E8E0"/>
</g>
<path d="M15.7925 68.19C14.6235 68.19 13.6758 67.2423 13.6758 66.0733V15.0974C13.6758 13.9298 14.6213 12.9827 15.7889 12.9807L66.8539 12.8952C68.0243 12.8932 68.9741 13.8414 68.9741 15.0118V66.0733C68.9741 67.2423 68.0265 68.19 66.8574 68.19H15.7925Z" fill="url(#paint0_linear_2166_102614)"/>
<path d="M15.7925 68.19C14.6235 68.19 13.6758 67.2423 13.6758 66.0733V15.0974C13.6758 13.9298 14.6213 12.9827 15.7889 12.9807L66.8539 12.8952C68.0243 12.8932 68.9741 13.8414 68.9741 15.0118V66.0733C68.9741 67.2423 68.0265 68.19 66.8574 68.19H15.7925Z" fill="url(#paint1_radial_2166_102614)"/>
</g>
</g>
<g filter="url(#filter1_ddddd_2166_102614)">
<g filter="url(#filter2_biii_2166_102614)">
<path d="M30.6088 2.57274C30.6088 1.40373 29.6611 0.456055 28.4921 0.456055H22.1421C20.9731 0.456055 20.0254 1.40373 20.0254 2.57274V39.6147C20.0254 40.7837 20.9731 41.7314 22.1421 41.7314H28.4921C29.6611 41.7314 30.6088 40.7837 30.6088 39.6147V2.57274Z" fill="url(#paint2_linear_2166_102614)"/>
</g>
</g>
<g filter="url(#filter3_ddddd_2166_102614)">
<g filter="url(#filter4_biii_2166_102614)">
<path d="M81.4094 6.80614C81.4094 5.63712 80.4617 4.68945 79.2927 4.68945H39.3403C38.1713 4.68945 37.2236 5.63712 37.2236 6.80613V16.3312C37.2236 17.5002 38.1713 18.4479 39.3403 18.4479H79.2927C80.4617 18.4479 81.4094 17.5002 81.4094 16.3312V6.80614Z" fill="url(#paint3_linear_2166_102614)"/>
</g>
<g filter="url(#filter5_biii_2166_102614)">
<path d="M81.4104 22.6802C81.4104 21.5111 80.4627 20.5635 79.2937 20.5635H39.3413C38.1723 20.5635 37.2246 21.5111 37.2246 22.6802V32.2052C37.2246 33.3742 38.1723 34.3219 39.3413 34.3219H79.2937C80.4627 34.3219 81.4104 33.3742 81.4104 32.2052V22.6802Z" fill="url(#paint4_linear_2166_102614)"/>
</g>
<g filter="url(#filter6_biii_2166_102614)">
<path d="M81.4104 38.5561C81.4104 37.3871 80.4627 36.4395 79.2937 36.4395H39.3413C38.1723 36.4395 37.2246 37.3871 37.2246 38.5561V59.1938C37.2246 60.3628 38.1723 61.3105 39.3413 61.3105H79.2937C80.4627 61.3105 81.4104 60.3628 81.4104 59.1938V38.5561Z" fill="url(#paint5_linear_2166_102614)"/>
</g>
</g>
<defs>
<filter id="filter0_ddddiii_2166_102614" x="0.97568" y="12.6309" width="80.699" height="80.9597" filterUnits="userSpaceOnUse" color-interpolation-filters="sRGB">
<feFlood flood-opacity="0" result="BackgroundImageFix"/>
<feColorMatrix in="SourceAlpha" type="matrix" values="0 0 0 0 0 0 0 0 0 0 0 0 0 0 0 0 0 0 127 0" result="hardAlpha"/>
<feOffset dy="1.05834"/>
<feGaussianBlur stdDeviation="0.529171"/>
<feColorMatrix type="matrix" values="0 0 0 0 0 0 0 0 0 0 0 0 0 0 0 0 0 0 0.1 0"/>
<feBlend mode="normal" in2="BackgroundImageFix" result="effect1_dropShadow_2166_102614"/>
<feColorMatrix in="SourceAlpha" type="matrix" values="0 0 0 0 0 0 0 0 0 0 0 0 0 0 0 0 0 0 127 0" result="hardAlpha"/>
<feOffset dy="2.11668"/>
<feGaussianBlur stdDeviation="1.05834"/>
<feColorMatrix type="matrix" values="0 0 0 0 0 0 0 0 0 0 0 0 0 0 0 0 0 0 0.1 0"/>
<feBlend mode="normal" in2="effect1_dropShadow_2166_102614" result="effect2_dropShadow_2166_102614"/>
<feColorMatrix in="SourceAlpha" type="matrix" values="0 0 0 0 0 0 0 0 0 0 0 0 0 0 0 0 0 0 127 0" result="hardAlpha"/>
<feOffset dy="4.23337"/>
<feGaussianBlur stdDeviation="2.11668"/>
<feColorMatrix type="matrix" values="0 0 0 0 0 0 0 0 0 0 0 0 0 0 0 0 0 0 0.1 0"/>
<feBlend mode="normal" in2="effect2_dropShadow_2166_102614" result="effect3_dropShadow_2166_102614"/>
<feColorMatrix in="SourceAlpha" type="matrix" values="0 0 0 0 0 0 0 0 0 0 0 0 0 0 0 0 0 0 127 0" result="hardAlpha"/>
<feOffset dy="12.7001"/>
<feGaussianBlur stdDeviation="6.35005"/>
<feColorMatrix type="matrix" values="0 0 0 0 0 0 0 0 0 0 0 0 0 0 0 0 0 0 0.1 0"/>
<feBlend mode="normal" in2="effect3_dropShadow_2166_102614" result="effect4_dropShadow_2166_102614"/>
<feBlend mode="normal" in="SourceGraphic" in2="effect4_dropShadow_2166_102614" result="shape"/>
<feColorMatrix in="SourceAlpha" type="matrix" values="0 0 0 0 0 0 0 0 0 0 0 0 0 0 0 0 0 0 127 0" result="hardAlpha"/>
<feOffset dy="-1.05834"/>
<feGaussianBlur stdDeviation="0.132293"/>
<feComposite in2="hardAlpha" operator="arithmetic" k2="-1" k3="1"/>
<feColorMatrix type="matrix" values="0 0 0 0 0 0 0 0 0 0 0 0 0 0 0 0 0 0 0.4 0"/>
<feBlend mode="normal" in2="shape" result="effect5_innerShadow_2166_102614"/>
<feColorMatrix in="SourceAlpha" type="matrix" values="0 0 0 0 0 0 0 0 0 0 0 0 0 0 0 0 0 0 127 0" result="hardAlpha"/>
<feOffset dx="-0.264585"/>
<feGaussianBlur stdDeviation="0.132293"/>
<feComposite in2="hardAlpha" operator="arithmetic" k2="-1" k3="1"/>
<feColorMatrix type="matrix" values="0 0 0 0 1 0 0 0 0 1 0 0 0 0 1 0 0 0 0.3 0"/>
<feBlend mode="normal" in2="effect5_innerShadow_2166_102614" result="effect6_innerShadow_2166_102614"/>
<feColorMatrix in="SourceAlpha" type="matrix" values="0 0 0 0 0 0 0 0 0 0 0 0 0 0 0 0 0 0 127 0" result="hardAlpha"/>
<feOffset dx="0.264585"/>
<feGaussianBlur stdDeviation="0.132293"/>
<feComposite in2="hardAlpha" operator="arithmetic" k2="-1" k3="1"/>
<feColorMatrix type="matrix" values="0 0 0 0 1 0 0 0 0 1 0 0 0 0 1 0 0 0 0.3 0"/>
<feBlend mode="normal" in2="effect6_innerShadow_2166_102614" result="effect7_innerShadow_2166_102614"/>
</filter>
<filter id="filter1_ddddd_2166_102614" x="7.32529" y="0.456055" width="35.9832" height="66.6756" filterUnits="userSpaceOnUse" color-interpolation-filters="sRGB">
<feFlood flood-opacity="0" result="BackgroundImageFix"/>
<feColorMatrix in="SourceAlpha" type="matrix" values="0 0 0 0 0 0 0 0 0 0 0 0 0 0 0 0 0 0 127 0" result="hardAlpha"/>
<feOffset dy="0.529171"/>
<feGaussianBlur stdDeviation="0.264585"/>
<feColorMatrix type="matrix" values="0 0 0 0 0 0 0 0 0 0 0 0 0 0 0 0 0 0 0.1 0"/>
<feBlend mode="normal" in2="BackgroundImageFix" result="effect1_dropShadow_2166_102614"/>
<feColorMatrix in="SourceAlpha" type="matrix" values="0 0 0 0 0 0 0 0 0 0 0 0 0 0 0 0 0 0 127 0" result="hardAlpha"/>
<feOffset dy="1.05834"/>
<feGaussianBlur stdDeviation="0.529171"/>
<feColorMatrix type="matrix" values="0 0 0 0 0 0 0 0 0 0 0 0 0 0 0 0 0 0 0.1 0"/>
<feBlend mode="normal" in2="effect1_dropShadow_2166_102614" result="effect2_dropShadow_2166_102614"/>
<feColorMatrix in="SourceAlpha" type="matrix" values="0 0 0 0 0 0 0 0 0 0 0 0 0 0 0 0 0 0 127 0" result="hardAlpha"/>
<feOffset dy="2.11668"/>
<feGaussianBlur stdDeviation="1.05834"/>
<feColorMatrix type="matrix" values="0 0 0 0 0 0 0 0 0 0 0 0 0 0 0 0 0 0 0.1 0"/>
<feBlend mode="normal" in2="effect2_dropShadow_2166_102614" result="effect3_dropShadow_2166_102614"/>
<feColorMatrix in="SourceAlpha" type="matrix" values="0 0 0 0 0 0 0 0 0 0 0 0 0 0 0 0 0 0 127 0" result="hardAlpha"/>
<feOffset dy="4.23337"/>
<feGaussianBlur stdDeviation="2.11668"/>
<feColorMatrix type="matrix" values="0 0 0 0 0 0 0 0 0 0 0 0 0 0 0 0 0 0 0.1 0"/>
<feBlend mode="normal" in2="effect3_dropShadow_2166_102614" result="effect4_dropShadow_2166_102614"/>
<feColorMatrix in="SourceAlpha" type="matrix" values="0 0 0 0 0 0 0 0 0 0 0 0 0 0 0 0 0 0 127 0" result="hardAlpha"/>
<feOffset dy="12.7001"/>
<feGaussianBlur stdDeviation="6.35005"/>
<feColorMatrix type="matrix" values="0 0 0 0 0 0 0 0 0 0 0 0 0 0 0 0 0 0 0.1 0"/>
<feBlend mode="normal" in2="effect4_dropShadow_2166_102614" result="effect5_dropShadow_2166_102614"/>
<feBlend mode="normal" in="SourceGraphic" in2="effect5_dropShadow_2166_102614" result="shape"/>
</filter>
<filter id="filter2_biii_2166_102614" x="17.3795" y="-2.1898" width="15.8747" height="46.5671" filterUnits="userSpaceOnUse" color-interpolation-filters="sRGB">
<feFlood flood-opacity="0" result="BackgroundImageFix"/>
<feGaussianBlur in="BackgroundImage" stdDeviation="1.32293"/>
<feComposite in2="SourceAlpha" operator="in" result="effect1_backgroundBlur_2166_102614"/>
<feBlend mode="normal" in="SourceGraphic" in2="effect1_backgroundBlur_2166_102614" result="shape"/>
<feColorMatrix in="SourceAlpha" type="matrix" values="0 0 0 0 0 0 0 0 0 0 0 0 0 0 0 0 0 0 127 0" result="hardAlpha"/>
<feOffset dy="-1.05834"/>
<feGaussianBlur stdDeviation="0.132293"/>
<feComposite in2="hardAlpha" operator="arithmetic" k2="-1" k3="1"/>
<feColorMatrix type="matrix" values="0 0 0 0 0.920833 0 0 0 0 0.920833 0 0 0 0 0.920833 0 0 0 0.1 0"/>
<feBlend mode="normal" in2="shape" result="effect2_innerShadow_2166_102614"/>
<feColorMatrix in="SourceAlpha" type="matrix" values="0 0 0 0 0 0 0 0 0 0 0 0 0 0 0 0 0 0 127 0" result="hardAlpha"/>
<feOffset dx="-0.264585"/>
<feGaussianBlur stdDeviation="0.132293"/>
<feComposite in2="hardAlpha" operator="arithmetic" k2="-1" k3="1"/>
<feColorMatrix type="matrix" values="0 0 0 0 0.920833 0 0 0 0 0.920833 0 0 0 0 0.920833 0 0 0 0.1 0"/>
<feBlend mode="normal" in2="effect2_innerShadow_2166_102614" result="effect3_innerShadow_2166_102614"/>
<feColorMatrix in="SourceAlpha" type="matrix" values="0 0 0 0 0 0 0 0 0 0 0 0 0 0 0 0 0 0 127 0" result="hardAlpha"/>
<feOffset dx="0.264585"/>
<feGaussianBlur stdDeviation="0.132293"/>
<feComposite in2="hardAlpha" operator="arithmetic" k2="-1" k3="1"/>
<feColorMatrix type="matrix" values="0 0 0 0 0.920833 0 0 0 0 0.920833 0 0 0 0 0.920833 0 0 0 0.1 0"/>
<feBlend mode="normal" in2="effect3_innerShadow_2166_102614" result="effect4_innerShadow_2166_102614"/>
</filter>
<filter id="filter3_ddddd_2166_102614" x="24.5235" y="4.68945" width="69.5867" height="82.0213" filterUnits="userSpaceOnUse" color-interpolation-filters="sRGB">
<feFlood flood-opacity="0" result="BackgroundImageFix"/>
<feColorMatrix in="SourceAlpha" type="matrix" values="0 0 0 0 0 0 0 0 0 0 0 0 0 0 0 0 0 0 127 0" result="hardAlpha"/>
<feOffset dy="0.529171"/>
<feGaussianBlur stdDeviation="0.264585"/>
<feColorMatrix type="matrix" values="0 0 0 0 0 0 0 0 0 0 0 0 0 0 0 0 0 0 0.1 0"/>
<feBlend mode="normal" in2="BackgroundImageFix" result="effect1_dropShadow_2166_102614"/>
<feColorMatrix in="SourceAlpha" type="matrix" values="0 0 0 0 0 0 0 0 0 0 0 0 0 0 0 0 0 0 127 0" result="hardAlpha"/>
<feOffset dy="1.05834"/>
<feGaussianBlur stdDeviation="0.529171"/>
<feColorMatrix type="matrix" values="0 0 0 0 0 0 0 0 0 0 0 0 0 0 0 0 0 0 0.1 0"/>
<feBlend mode="normal" in2="effect1_dropShadow_2166_102614" result="effect2_dropShadow_2166_102614"/>
<feColorMatrix in="SourceAlpha" type="matrix" values="0 0 0 0 0 0 0 0 0 0 0 0 0 0 0 0 0 0 127 0" result="hardAlpha"/>
<feOffset dy="2.11668"/>
<feGaussianBlur stdDeviation="1.05834"/>
<feColorMatrix type="matrix" values="0 0 0 0 0 0 0 0 0 0 0 0 0 0 0 0 0 0 0.1 0"/>
<feBlend mode="normal" in2="effect2_dropShadow_2166_102614" result="effect3_dropShadow_2166_102614"/>
<feColorMatrix in="SourceAlpha" type="matrix" values="0 0 0 0 0 0 0 0 0 0 0 0 0 0 0 0 0 0 127 0" result="hardAlpha"/>
<feOffset dy="4.23337"/>
<feGaussianBlur stdDeviation="2.11668"/>
<feColorMatrix type="matrix" values="0 0 0 0 0 0 0 0 0 0 0 0 0 0 0 0 0 0 0.1 0"/>
<feBlend mode="normal" in2="effect3_dropShadow_2166_102614" result="effect4_dropShadow_2166_102614"/>
<feColorMatrix in="SourceAlpha" type="matrix" values="0 0 0 0 0 0 0 0 0 0 0 0 0 0 0 0 0 0 127 0" result="hardAlpha"/>
<feOffset dy="12.7001"/>
<feGaussianBlur stdDeviation="6.35005"/>
<feColorMatrix type="matrix" values="0 0 0 0 0 0 0 0 0 0 0 0 0 0 0 0 0 0 0.1 0"/>
<feBlend mode="normal" in2="effect4_dropShadow_2166_102614" result="effect5_dropShadow_2166_102614"/>
<feBlend mode="normal" in="SourceGraphic" in2="effect5_dropShadow_2166_102614" result="shape"/>
</filter>
<filter id="filter4_biii_2166_102614" x="34.5778" y="2.0436" width="49.4773" height="19.0505" filterUnits="userSpaceOnUse" color-interpolation-filters="sRGB">
<feFlood flood-opacity="0" result="BackgroundImageFix"/>
<feGaussianBlur in="BackgroundImage" stdDeviation="1.32293"/>
<feComposite in2="SourceAlpha" operator="in" result="effect1_backgroundBlur_2166_102614"/>
<feBlend mode="normal" in="SourceGraphic" in2="effect1_backgroundBlur_2166_102614" result="shape"/>
<feColorMatrix in="SourceAlpha" type="matrix" values="0 0 0 0 0 0 0 0 0 0 0 0 0 0 0 0 0 0 127 0" result="hardAlpha"/>
<feOffset dy="-1.05834"/>
<feGaussianBlur stdDeviation="0.132293"/>
<feComposite in2="hardAlpha" operator="arithmetic" k2="-1" k3="1"/>
<feColorMatrix type="matrix" values="0 0 0 0 0.920833 0 0 0 0 0.920833 0 0 0 0 0.920833 0 0 0 0.1 0"/>
<feBlend mode="normal" in2="shape" result="effect2_innerShadow_2166_102614"/>
<feColorMatrix in="SourceAlpha" type="matrix" values="0 0 0 0 0 0 0 0 0 0 0 0 0 0 0 0 0 0 127 0" result="hardAlpha"/>
<feOffset dx="-0.264585"/>
<feGaussianBlur stdDeviation="0.132293"/>
<feComposite in2="hardAlpha" operator="arithmetic" k2="-1" k3="1"/>
<feColorMatrix type="matrix" values="0 0 0 0 0.920833 0 0 0 0 0.920833 0 0 0 0 0.920833 0 0 0 0.1 0"/>
<feBlend mode="normal" in2="effect2_innerShadow_2166_102614" result="effect3_innerShadow_2166_102614"/>
<feColorMatrix in="SourceAlpha" type="matrix" values="0 0 0 0 0 0 0 0 0 0 0 0 0 0 0 0 0 0 127 0" result="hardAlpha"/>
<feOffset dx="0.264585"/>
<feGaussianBlur stdDeviation="0.132293"/>
<feComposite in2="hardAlpha" operator="arithmetic" k2="-1" k3="1"/>
<feColorMatrix type="matrix" values="0 0 0 0 0.920833 0 0 0 0 0.920833 0 0 0 0 0.920833 0 0 0 0.1 0"/>
<feBlend mode="normal" in2="effect3_innerShadow_2166_102614" result="effect4_innerShadow_2166_102614"/>
</filter>
<filter id="filter5_biii_2166_102614" x="34.5788" y="17.9176" width="49.4773" height="19.0505" filterUnits="userSpaceOnUse" color-interpolation-filters="sRGB">
<feFlood flood-opacity="0" result="BackgroundImageFix"/>
<feGaussianBlur in="BackgroundImage" stdDeviation="1.32293"/>
<feComposite in2="SourceAlpha" operator="in" result="effect1_backgroundBlur_2166_102614"/>
<feBlend mode="normal" in="SourceGraphic" in2="effect1_backgroundBlur_2166_102614" result="shape"/>
<feColorMatrix in="SourceAlpha" type="matrix" values="0 0 0 0 0 0 0 0 0 0 0 0 0 0 0 0 0 0 127 0" result="hardAlpha"/>
<feOffset dy="-1.05834"/>
<feGaussianBlur stdDeviation="0.132293"/>
<feComposite in2="hardAlpha" operator="arithmetic" k2="-1" k3="1"/>
<feColorMatrix type="matrix" values="0 0 0 0 0.920833 0 0 0 0 0.920833 0 0 0 0 0.920833 0 0 0 0.1 0"/>
<feBlend mode="normal" in2="shape" result="effect2_innerShadow_2166_102614"/>
<feColorMatrix in="SourceAlpha" type="matrix" values="0 0 0 0 0 0 0 0 0 0 0 0 0 0 0 0 0 0 127 0" result="hardAlpha"/>
<feOffset dx="-0.264585"/>
<feGaussianBlur stdDeviation="0.132293"/>
<feComposite in2="hardAlpha" operator="arithmetic" k2="-1" k3="1"/>
<feColorMatrix type="matrix" values="0 0 0 0 0.920833 0 0 0 0 0.920833 0 0 0 0 0.920833 0 0 0 0.1 0"/>
<feBlend mode="normal" in2="effect2_innerShadow_2166_102614" result="effect3_innerShadow_2166_102614"/>
<feColorMatrix in="SourceAlpha" type="matrix" values="0 0 0 0 0 0 0 0 0 0 0 0 0 0 0 0 0 0 127 0" result="hardAlpha"/>
<feOffset dx="0.264585"/>
<feGaussianBlur stdDeviation="0.132293"/>
<feComposite in2="hardAlpha" operator="arithmetic" k2="-1" k3="1"/>
<feColorMatrix type="matrix" values="0 0 0 0 0.920833 0 0 0 0 0.920833 0 0 0 0 0.920833 0 0 0 0.1 0"/>
<feBlend mode="normal" in2="effect3_innerShadow_2166_102614" result="effect4_innerShadow_2166_102614"/>
</filter>
<filter id="filter6_biii_2166_102614" x="34.5788" y="33.7936" width="49.4773" height="30.1628" filterUnits="userSpaceOnUse" color-interpolation-filters="sRGB">
<feFlood flood-opacity="0" result="BackgroundImageFix"/>
<feGaussianBlur in="BackgroundImage" stdDeviation="1.32293"/>
<feComposite in2="SourceAlpha" operator="in" result="effect1_backgroundBlur_2166_102614"/>
<feBlend mode="normal" in="SourceGraphic" in2="effect1_backgroundBlur_2166_102614" result="shape"/>
<feColorMatrix in="SourceAlpha" type="matrix" values="0 0 0 0 0 0 0 0 0 0 0 0 0 0 0 0 0 0 127 0" result="hardAlpha"/>
<feOffset dy="-1.05834"/>
<feGaussianBlur stdDeviation="0.132293"/>
<feComposite in2="hardAlpha" operator="arithmetic" k2="-1" k3="1"/>
<feColorMatrix type="matrix" values="0 0 0 0 0.920833 0 0 0 0 0.920833 0 0 0 0 0.920833 0 0 0 0.1 0"/>
<feBlend mode="normal" in2="shape" result="effect2_innerShadow_2166_102614"/>
<feColorMatrix in="SourceAlpha" type="matrix" values="0 0 0 0 0 0 0 0 0 0 0 0 0 0 0 0 0 0 127 0" result="hardAlpha"/>
<feOffset dx="-0.264585"/>
<feGaussianBlur stdDeviation="0.132293"/>
<feComposite in2="hardAlpha" operator="arithmetic" k2="-1" k3="1"/>
<feColorMatrix type="matrix" values="0 0 0 0 0.920833 0 0 0 0 0.920833 0 0 0 0 0.920833 0 0 0 0.1 0"/>
<feBlend mode="normal" in2="effect2_innerShadow_2166_102614" result="effect3_innerShadow_2166_102614"/>
<feColorMatrix in="SourceAlpha" type="matrix" values="0 0 0 0 0 0 0 0 0 0 0 0 0 0 0 0 0 0 127 0" result="hardAlpha"/>
<feOffset dx="0.264585"/>
<feGaussianBlur stdDeviation="0.132293"/>
<feComposite in2="hardAlpha" operator="arithmetic" k2="-1" k3="1"/>
<feColorMatrix type="matrix" values="0 0 0 0 0.920833 0 0 0 0 0.920833 0 0 0 0 0.920833 0 0 0 0.1 0"/>
<feBlend mode="normal" in2="effect3_innerShadow_2166_102614" result="effect4_innerShadow_2166_102614"/>
</filter>
<linearGradient id="paint0_linear_2166_102614" x1="41.3274" y1="12.6272" x2="41.3274" y2="67.7562" gradientUnits="userSpaceOnUse">
<stop stop-color="white" stop-opacity="0.4"/>
<stop offset="0.833333" stop-color="white" stop-opacity="0"/>
<stop offset="1" stop-color="white" stop-opacity="0.3"/>
</linearGradient>
<radialGradient id="paint1_radial_2166_102614" cx="0" cy="0" r="1" gradientUnits="userSpaceOnUse" gradientTransform="translate(13.6758 20.1515) scale(42.4037 65.8127)">
<stop stop-color="white" stop-opacity="0.7"/>
<stop offset="1" stop-color="white" stop-opacity="0"/>
</radialGradient>
<linearGradient id="paint2_linear_2166_102614" x1="25.3171" y1="0.456055" x2="25.3171" y2="41.7314" gradientUnits="userSpaceOnUse">
<stop stop-color="#A6A0BA" stop-opacity="0.15"/>
<stop offset="1" stop-opacity="0.2"/>
</linearGradient>
<linearGradient id="paint3_linear_2166_102614" x1="59.3165" y1="4.68945" x2="59.3165" y2="18.4479" gradientUnits="userSpaceOnUse">
<stop stop-color="#42E8E0" stop-opacity="0.21"/>
<stop offset="1" stop-color="#42E8E0" stop-opacity="0.05"/>
</linearGradient>
<linearGradient id="paint4_linear_2166_102614" x1="59.3175" y1="20.5635" x2="59.3175" y2="34.3219" gradientUnits="userSpaceOnUse">
<stop stop-color="#A6A0BA" stop-opacity="0.15"/>
<stop offset="1" stop-opacity="0.2"/>
</linearGradient>
<linearGradient id="paint5_linear_2166_102614" x1="59.3175" y1="36.4395" x2="59.3175" y2="61.3105" gradientUnits="userSpaceOnUse">
<stop stop-color="#A6A0BA" stop-opacity="0.15"/>
<stop offset="1" stop-opacity="0.2"/>
</linearGradient>
<clipPath id="clip0_2166_102614">
<rect width="201.349" height="201.349" fill="white" transform="translate(-92.6875 -68.3369)"/>
</clipPath>
</defs>
</svg>
